  0
SECTION
  2
HEADER
  9
$ACADVER
  1
AC1024
  9
$ACADMAINTVER
 70
6
  9
$DWGCODEPAGE
  3
ANSI_1252
  9
$LASTSAVEDBY
  1
ezdxf
  9
$INSBASE
 10
0.0
 20
0.0
 30
0.0
  9
$EXTMIN
 10
1e+20
 20
1e+20
 30
1e+20
  9
$EXTMAX
 10
-1e+20
 20
-1e+20
 30
-1e+20
  9
$LIMMIN
 10
0.0
 20
0.0
  9
$LIMMAX
 10
420.0
 20
297.0
  9
$ORTHOMODE
 70
0
  9
$REGENMODE
 70
1
  9
$FILLMODE
 70
1
  9
$QTEXTMODE
 70
0
  9
$MIRRTEXT
 70
1
  9
$LTSCALE
 40
1.0
  9
$ATTMODE
 70
1
  9
$TEXTSIZE
 40
2.5
  9
$TRACEWID
 40
1.0
  9
$TEXTSTYLE
  7
OpenSans
  9
$CLAYER
  8
0
  9
$CELTYPE
  6
ByLayer
  9
$CECOLOR
 62
256
  9
$CELTSCALE
 40
1.0
  9
$DISPSILH
 70
0
  9
$DIMSCALE
 40
1.0
  9
$DIMASZ
 40
0.175
  9
$DIMEXO
 40
0.125
  9
$DIMDLI
 40
3.75
  9
$DIMRND
 40
0.0
  9
$DIMDLE
 40
0.0
  9
$DIMEXE
 40
0.375
  9
$DIMTP
 40
0.0
  9
$DIMTM
 40
0.0
  9
$DIMTXT
 40
0.25
  9
$DIMCEN
 40
2.5
  9
$DIMTSZ
 40
0.0
  9
$DIMTOL
 70
0
  9
$DIMLIM
 70
0
  9
$DIMTIH
 70
0
  9
$DIMTOH
 70
0
  9
$DIMSE1
 70
0
  9
$DIMSE2
 70
0
  9
$DIMTAD
 70
1
  9
$DIMZIN
 70
12
  9
$DIMBLK
  1
ARCHTICK
  9
$DIMASO
 70
1
  9
$DIMSHO
 70
1
  9
$DIMPOST
  1

  9
$DIMAPOST
  1

  9
$DIMALT
 70
0
  9
$DIMALTD
 70
3
  9
$DIMALTF
 40
0.03937007874
  9
$DIMLFAC
 40
100.0
  9
$DIMTOFL
 70
1
  9
$DIMTVP
 40
0.0
  9
$DIMTIX
 70
0
  9
$DIMSOXD
 70
0
  9
$DIMSAH
 70
0
  9
$DIMBLK1
  1

  9
$DIMBLK2
  1

  9
$DIMSTYLE
  2
EZDXF
  9
$DIMCLRD
 70
0
  9
$DIMCLRE
 70
0
  9
$DIMCLRT
 70
0
  9
$DIMTFAC
 40
0.5
  9
$DIMGAP
 40
0.1
  9
$DIMJUST
 70
0
  9
$DIMSD1
 70
0
  9
$DIMSD2
 70
0
  9
$DIMTOLJ
 70
0
  9
$DIMTZIN
 70
8
  9
$DIMALTZ
 70
0
  9
$DIMALTTZ
 70
0
  9
$DIMUPT
 70
1
  9
$DIMDEC
 70
2
  9
$DIMTDEC
 70
2
  9
$DIMALTU
 70
2
  9
$DIMALTTD
 70
3
  9
$DIMTXSTY
  7
OpenSansCondensed-Light
  9
$DIMAUNIT
 70
0
  9
$DIMADEC
 70
2
  9
$DIMALTRND
 40
0.0
  9
$DIMAZIN
 70
3
  9
$DIMDSEP
 70
46
  9
$DIMATFIT
 70
3
  9
$DIMFRAC
 70
0
  9
$DIMLDRBLK
  1

  9
$DIMLUNIT
 70
2
  9
$DIMLWD
 70
-2
  9
$DIMLWE
 70
-2
  9
$DIMTMOVE
 70
2
  9
$DIMFXL
 40
1.0
  9
$DIMFXLON
 70
0
  9
$DIMJOGANG
 40
0.785398163397
  9
$DIMTFILL
 70
0
  9
$DIMTFILLCLR
 70
0
  9
$DIMARCSYM
 70
0
  9
$DIMLTYPE
  6

  9
$DIMLTEX1
  6

  9
$DIMLTEX2
  6

  9
$DIMTXTDIRECTION
 70
0
  9
$LUNITS
 70
2
  9
$LUPREC
 70
4
  9
$SKETCHINC
 40
1.0
  9
$FILLETRAD
 40
10.0
  9
$AUNITS
 70
0
  9
$AUPREC
 70
2
  9
$MENU
  1
.
  9
$ELEVATION
 40
0.0
  9
$PELEVATION
 40
0.0
  9
$THICKNESS
 40
0.0
  9
$LIMCHECK
 70
0
  9
$CHAMFERA
 40
0.0
  9
$CHAMFERB
 40
0.0
  9
$CHAMFERC
 40
0.0
  9
$CHAMFERD
 40
0.0
  9
$SKPOLY
 70
0
  9
$TDCREATE
 40
2461222.707650463
  9
$TDUCREATE
 40
2458532.153996898
  9
$TDUPDATE
 40
2461222.707662037
  9
$TDUUPDATE
 40
2458532.1544311
  9
$TDINDWG
 40
0.0
  9
$TDUSRTIMER
 40
0.0
  9
$USRTIMER
 70
1
  9
$ANGBASE
 50
0.0
  9
$ANGDIR
 70
0
  9
$PDMODE
 70
0
  9
$PDSIZE
 40
0.0
  9
$PLINEWID
 40
0.0
  9
$SPLFRAME
 70
0
  9
$SPLINETYPE
 70
6
  9
$SPLINESEGS
 70
8
  9
$HANDSEED
  5
2EF
  9
$SURFTAB1
 70
6
  9
$SURFTAB2
 70
6
  9
$SURFTYPE
 70
6
  9
$SURFU
 70
6
  9
$SURFV
 70
6
  9
$UCSBASE
  2

  9
$UCSNAME
  2

  9
$UCSORG
 10
0.0
 20
0.0
 30
0.0
  9
$UCSXDIR
 10
1.0
 20
0.0
 30
0.0
  9
$UCSYDIR
 10
0.0
 20
1.0
 30
0.0
  9
$UCSORTHOREF
  2

  9
$UCSORTHOVIEW
 70
0
  9
$UCSORGTOP
 10
0.0
 20
0.0
 30
0.0
  9
$UCSORGBOTTOM
 10
0.0
 20
0.0
 30
0.0
  9
$UCSORGLEFT
 10
0.0
 20
0.0
 30
0.0
  9
$UCSORGRIGHT
 10
0.0
 20
0.0
 30
0.0
  9
$UCSORGFRONT
 10
0.0
 20
0.0
 30
0.0
  9
$UCSORGBACK
 10
0.0
 20
0.0
 30
0.0
  9
$PUCSBASE
  2

  9
$PUCSNAME
  2

  9
$PUCSORG
 10
0.0
 20
0.0
 30
0.0
  9
$PUCSXDIR
 10
1.0
 20
0.0
 30
0.0
  9
$PUCSYDIR
 10
0.0
 20
1.0
 30
0.0
  9
$PUCSORTHOREF
  2

  9
$PUCSORTHOVIEW
 70
0
  9
$PUCSORGTOP
 10
0.0
 20
0.0
 30
0.0
  9
$PUCSORGBOTTOM
 10
0.0
 20
0.0
 30
0.0
  9
$PUCSORGLEFT
 10
0.0
 20
0.0
 30
0.0
  9
$PUCSORGRIGHT
 10
0.0
 20
0.0
 30
0.0
  9
$PUCSORGFRONT
 10
0.0
 20
0.0
 30
0.0
  9
$PUCSORGBACK
 10
0.0
 20
0.0
 30
0.0
  9
$USERI1
 70
0
  9
$USERI2
 70
0
  9
$USERI3
 70
0
  9
$USERI4
 70
0
  9
$USERI5
 70
0
  9
$USERR1
 40
0.0
  9
$USERR2
 40
0.0
  9
$USERR3
 40
0.0
  9
$USERR4
 40
0.0
  9
$USERR5
 40
0.0
  9
$WORLDVIEW
 70
1
  9
$SHADEDGE
 70
3
  9
$SHADEDIF
 70
70
  9
$TILEMODE
 70
1
  9
$MAXACTVP
 70
64
  9
$PINSBASE
 10
0.0
 20
0.0
 30
0.0
  9
$PLIMCHECK
 70
0
  9
$PEXTMIN
 10
1e+20
 20
1e+20
 30
1e+20
  9
$PEXTMAX
 10
-1e+20
 20
-1e+20
 30
-1e+20
  9
$PLIMMIN
 10
0.0
 20
0.0
  9
$PLIMMAX
 10
420.0
 20
297.0
  9
$UNITMODE
 70
0
  9
$VISRETAIN
 70
1
  9
$PLINEGEN
 70
0
  9
$PSLTSCALE
 70
1
  9
$TREEDEPTH
 70
3020
  9
$CMLSTYLE
  2
Standard
  9
$CMLJUST
 70
0
  9
$CMLSCALE
 40
20.0
  9
$PROXYGRAPHICS
 70
1
  9
$MEASUREMENT
 70
1
  9
$CELWEIGHT
370
-1
  9
$ENDCAPS
280
0
  9
$JOINSTYLE
280
0
  9
$LWDISPLAY
290
0
  9
$INSUNITS
 70
0
  9
$HYPERLINKBASE
  1

  9
$STYLESHEET
  1

  9
$XEDIT
290
1
  9
$CEPSNTYPE
380
0
  9
$PSTYLEMODE
290
1
  9
$FINGERPRINTGUID
  2
{DBB0FC75-CCA8-4F2D-954B-FB83743445FE}
  9
$VERSIONGUID
  2
{6ACA1EE8-7941-4A27-B9D9-545CFE401137}
  9
$EXTNAMES
290
1
  9
$PSVPSCALE
 40
0.0
  9
$OLESTARTUP
290
0
  9
$SORTENTS
280
127
  9
$INDEXCTL
280
0
  9
$HIDETEXT
280
1
  9
$XCLIPFRAME
280
1
  9
$HALOGAP
280
0
  9
$OBSCOLOR
 70
257
  9
$OBSLTYPE
280
0
  9
$INTERSECTIONDISPLAY
280
0
  9
$INTERSECTIONCOLOR
 70
257
  9
$DIMASSOC
280
2
  9
$PROJECTNAME
  1

  9
$CAMERADISPLAY
290
0
  9
$LENSLENGTH
 40
50.0
  9
$CAMERAHEIGHT
 40
0.0
  9
$STEPSPERSEC
 40
24.0
  9
$STEPSIZE
 40
100.0
  9
$3DDWFPREC
 40
2.0
  9
$PSOLWIDTH
 40
0.005
  9
$PSOLHEIGHT
 40
0.08
  9
$LOFTANG1
 40
1.570796326795
  9
$LOFTANG2
 40
1.570796326795
  9
$LOFTMAG1
 40
0.0
  9
$LOFTMAG2
 40
0.0
  9
$LOFTPARAM
 70
7
  9
$LOFTNORMALS
280
1
  9
$LATITUDE
 40
37.795
  9
$LONGITUDE
 40
-122.394
  9
$NORTHDIRECTION
 40
0.0
  9
$TIMEZONE
 70
-8000
  9
$LIGHTGLYPHDISPLAY
280
1
  9
$TILEMODELIGHTSYNCH
280
1
  9
$CMATERIAL
347
20
  9
$SOLIDHIST
280
0
  9
$SHOWHIST
280
1
  9
$DWFFRAME
280
2
  9
$DGNFRAME
280
2
  9
$REALWORLDSCALE
290
1
  9
$INTERFERECOLOR
 62
256
  9
$CSHADOW
280
0
  9
$SHADOWPLANELOCATION
 40
0.0
  0
ENDSEC
  0
SECTION
  2
CLASSES
  0
CLASS
  1
ACDBDICTIONARYWDFLT
  2
AcDbDictionaryWithDefault
  3
ObjectDBX Classes
 90
0
 91
0
280
0
281
0
  0
CLASS
  1
SUN
  2
AcDbSun
  3
SCENEOE
 90
1153
 91
0
280
0
281
0
  0
CLASS
  1
VISUALSTYLE
  2
AcDbVisualStyle
  3
ObjectDBX Classes
 90
4095
 91
0
280
0
281
0
  0
CLASS
  1
MATERIAL
  2
AcDbMaterial
  3
ObjectDBX Classes
 90
1153
 91
0
280
0
281
0
  0
CLASS
  1
SCALE
  2
AcDbScale
  3
ObjectDBX Classes
 90
1153
 91
0
280
0
281
0
  0
CLASS
  1
TABLESTYLE
  2
AcDbTableStyle
  3
ObjectDBX Classes
 90
4095
 91
0
280
0
281
0
  0
CLASS
  1
MLEADERSTYLE
  2
AcDbMLeaderStyle
  3
ACDB_MLEADERSTYLE_CLASS
 90
4095
 91
0
280
0
281
0
  0
CLASS
  1
DICTIONARYVAR
  2
AcDbDictionaryVar
  3
ObjectDBX Classes
 90
0
 91
0
280
0
281
0
  0
CLASS
  1
CELLSTYLEMAP
  2
AcDbCellStyleMap
  3
ObjectDBX Classes
 90
1152
 91
0
280
0
281
0
  0
CLASS
  1
MENTALRAYRENDERSETTINGS
  2
AcDbMentalRayRenderSettings
  3
SCENEOE
 90
1024
 91
0
280
0
281
0
  0
CLASS
  1
ACDBDETAILVIEWSTYLE
  2
AcDbDetailViewStyle
  3
ObjectDBX Classes
 90
1025
 91
0
280
0
281
0
  0
CLASS
  1
ACDBSECTIONVIEWSTYLE
  2
AcDbSectionViewStyle
  3
ObjectDBX Classes
 90
1025
 91
0
280
0
281
0
  0
CLASS
  1
RASTERVARIABLES
  2
AcDbRasterVariables
  3
ISM
 90
0
 91
0
280
0
281
0
  0
CLASS
  1
ACDBPLACEHOLDER
  2
AcDbPlaceHolder
  3
ObjectDBX Classes
 90
0
 91
0
280
0
281
0
  0
CLASS
  1
LAYOUT
  2
AcDbLayout
  3
ObjectDBX Classes
 90
0
 91
0
280
0
281
0
  0
ENDSEC
  0
SECTION
  2
TABLES
  0
TABLE
  2
VPORT
  5
8
330
0
100
AcDbSymbolTable
 70
1
  0
VPORT
  5
23
330
8
100
AcDbSymbolTableRecord
100
AcDbViewportTableRecord
  2
*Active
 70
0
 10
0.0
 20
0.0
 11
1.0
 21
1.0
 12
0.0
 22
0.0
 13
0.0
 23
0.0
 14
0.5
 24
0.5
 15
0.5
 25
0.5
 16
0.0
 26
0.0
 36
1.0
 17
0.0
 27
0.0
 37
0.0
 40
1000.0
 41
1.34
 42
50.0
 43
0.0
 44
0.0
 50
0.0
 51
0.0
 71
0
 72
1000
 73
1
 74
3
 75
0
 76
0
 77
0
 78
0
281
0
 65
0
146
0.0
  0
ENDTAB
  0
TABLE
  2
LTYPE
  5
2
330
0
100
AcDbSymbolTable
 70
21
  0
LTYPE
  5
24
330
2
100
AcDbSymbolTableRecord
100
AcDbLinetypeTableRecord
  2
ByBlock
 70
0
  3

 72
65
 73
0
 40
0.0
  0
LTYPE
  5
25
330
2
100
AcDbSymbolTableRecord
100
AcDbLinetypeTableRecord
  2
ByLayer
 70
0
  3

 72
65
 73
0
 40
0.0
  0
LTYPE
  5
26
330
2
100
AcDbSymbolTableRecord
100
AcDbLinetypeTableRecord
  2
Continuous
 70
0
  3

 72
65
 73
0
 40
0.0
  0
LTYPE
  5
2F
330
2
100
AcDbSymbolTableRecord
100
AcDbLinetypeTableRecord
  2
CENTER
 70
0
  3
Center ____ _ ____ _ ____ _ ____ _ ____ _ ____
 72
65
 73
4
 40
5.08
 49
3.175
 74
0
 49
-0.635
 74
0
 49
0.635
 74
0
 49
-0.635
 74
0
  0
LTYPE
  5
30
330
2
100
AcDbSymbolTableRecord
100
AcDbLinetypeTableRecord
  2
CENTERX2
 70
0
  3
Center (2x) ________  __  ________  __  ________
 72
65
 73
4
 40
8.89
 49
6.35
 74
0
 49
-0.635
 74
0
 49
1.27
 74
0
 49
-0.635
 74
0
  0
LTYPE
  5
31
330
2
100
AcDbSymbolTableRecord
100
AcDbLinetypeTableRecord
  2
CENTER2
 70
0
  3
Center (.5x) ____ _ ____ _ ____ _ ____ _ ____
 72
65
 73
4
 40
2.54
 49
1.587
 74
0
 49
-0.318
 74
0
 49
0.318
 74
0
 49
-0.318
 74
0
  0
LTYPE
  5
32
330
2
100
AcDbSymbolTableRecord
100
AcDbLinetypeTableRecord
  2
DASHED
 70
0
  3
Dashed __ __ __ __ __ __ __ __ __ __ __ __ __ _
 72
65
 73
2
 40
1.524
 49
1.27
 74
0
 49
-0.254
 74
0
  0
LTYPE
  5
33
330
2
100
AcDbSymbolTableRecord
100
AcDbLinetypeTableRecord
  2
DASHEDX2
 70
0
  3
Dashed (2x) ____  ____  ____  ____  ____  ____
 72
65
 73
2
 40
3.048
 49
2.54
 74
0
 49
-0.508
 74
0
  0
LTYPE
  5
34
330
2
100
AcDbSymbolTableRecord
100
AcDbLinetypeTableRecord
  2
DASHED2
 70
0
  3
Dashed (.5x) _ _ _ _ _ _ _ _ _ _ _ _ _ _
 72
65
 73
2
 40
0.762
 49
0.635
 74
0
 49
-0.127
 74
0
  0
LTYPE
  5
35
330
2
100
AcDbSymbolTableRecord
100
AcDbLinetypeTableRecord
  2
PHANTOM
 70
0
  3
Phantom ______  __  __  ______  __  __  ______
 72
65
 73
6
 40
6.35
 49
3.175
 74
0
 49
-0.635
 74
0
 49
0.635
 74
0
 49
-0.635
 74
0
 49
0.635
 74
0
 49
-0.635
 74
0
  0
LTYPE
  5
36
330
2
100
AcDbSymbolTableRecord
100
AcDbLinetypeTableRecord
  2
PHANTOMX2
 70
0
  3
Phantom (2x)____________    ____    ____    ____________
 72
65
 73
6
 40
10.795
 49
6.35
 74
0
 49
-0.635
 74
0
 49
1.27
 74
0
 49
-0.635
 74
0
 49
1.27
 74
0
 49
-0.635
 74
0
  0
LTYPE
  5
37
330
2
100
AcDbSymbolTableRecord
100
AcDbLinetypeTableRecord
  2
PHANTOM2
 70
0
  3
Phantom (.5x) ___ _ _ ___ _ _ ___ _ _ ___ _ _ ___
 72
65
 73
6
 40
3.175
 49
1.587
 74
0
 49
-0.318
 74
0
 49
0.318
 74
0
 49
-0.318
 74
0
 49
0.318
 74
0
 49
-0.318
 74
0
  0
LTYPE
  5
38
330
2
100
AcDbSymbolTableRecord
100
AcDbLinetypeTableRecord
  2
DASHDOT
 70
0
  3
Dash dot __ . __ . __ . __ . __ . __ . __ . __
 72
65
 73
4
 40
3.556
 49
2.54
 74
0
 49
-0.508
 74
0
 49
0.0
 74
0
 49
-0.508
 74
0
  0
LTYPE
  5
39
330
2
100
AcDbSymbolTableRecord
100
AcDbLinetypeTableRecord
  2
DASHDOTX2
 70
0
  3
Dash dot (2x) ____  .  ____  .  ____  .  ____
 72
65
 73
4
 40
6.096
 49
5.08
 74
0
 49
-0.508
 74
0
 49
0.0
 74
0
 49
-0.508
 74
0
  0
LTYPE
  5
3A
330
2
100
AcDbSymbolTableRecord
100
AcDbLinetypeTableRecord
  2
DASHDOT2
 70
0
  3
Dash dot (.5x) _ . _ . _ . _ . _ . _ . _ . _
 72
65
 73
4
 40
1.778
 49
1.27
 74
0
 49
-0.254
 74
0
 49
0.0
 74
0
 49
-0.254
 74
0
  0
LTYPE
  5
3B
330
2
100
AcDbSymbolTableRecord
100
AcDbLinetypeTableRecord
  2
DOT
 70
0
  3
Dot .  .  .  .  .  .  .  .  .  .  .  .  .  .  .  .
 72
65
 73
2
 40
0.508
 49
0.0
 74
0
 49
-0.508
 74
0
  0
LTYPE
  5
3C
330
2
100
AcDbSymbolTableRecord
100
AcDbLinetypeTableRecord
  2
DOTX2
 70
0
  3
Dot (2x) .    .    .    .    .    .    .    . 
 72
65
 73
2
 40
1.016
 49
0.0
 74
0
 49
-1.016
 74
0
  0
LTYPE
  5
3D
330
2
100
AcDbSymbolTableRecord
100
AcDbLinetypeTableRecord
  2
DOT2
 70
0
  3
Dot (.5) . . . . . . . . . . . . . . . . . . . 
 72
65
 73
2
 40
0.254
 49
0.0
 74
0
 49
-0.254
 74
0
  0
LTYPE
  5
3E
330
2
100
AcDbSymbolTableRecord
100
AcDbLinetypeTableRecord
  2
DIVIDE
 70
0
  3
Divide __ . . __ . . __ . . __ . . __ . . __
 72
65
 73
6
 40
4.064
 49
2.54
 74
0
 49
-0.508
 74
0
 49
0.0
 74
0
 49
-0.508
 74
0
 49
0.0
 74
0
 49
-0.508
 74
0
  0
LTYPE
  5
3F
330
2
100
AcDbSymbolTableRecord
100
AcDbLinetypeTableRecord
  2
DIVIDEX2
 70
0
  3
Divide (2x) ____  . .  ____  . .  ____  . .  ____
 72
65
 73
6
 40
6.604
 49
5.08
 74
0
 49
-0.508
 74
0
 49
0.0
 74
0
 49
-0.508
 74
0
 49
0.0
 74
0
 49
-0.508
 74
0
  0
LTYPE
  5
40
330
2
100
AcDbSymbolTableRecord
100
AcDbLinetypeTableRecord
  2
DIVIDE2
 70
0
  3
Divide(.5x) _ . _ . _ . _ . _ . _ . _ . _
 72
65
 73
6
 40
2.032
 49
1.27
 74
0
 49
-0.254
 74
0
 49
0.0
 74
0
 49
-0.254
 74
0
 49
0.0
 74
0
 49
-0.254
 74
0
  0
ENDTAB
  0
TABLE
  2
LAYER
  5
1
330
0
100
AcDbSymbolTable
 70
20
  0
LAYER
  5
27
330
1
100
AcDbSymbolTableRecord
100
AcDbLayerTableRecord
  2
0
 70
0
 62
7
  6
Continuous
370
-3
390
13
347
21
  0
LAYER
  5
28
330
1
100
AcDbSymbolTableRecord
100
AcDbLayerTableRecord
  2
Defpoints
 70
0
 62
7
  6
Continuous
290
0
370
-3
390
13
347
21
  0
LAYER
  5
8A
330
1
100
AcDbSymbolTableRecord
100
AcDbLayerTableRecord
  2
FORGE-SHEET
 70
0
 62
7
420
10134184
  6
Continuous
370
35
390
13
347
21
  0
LAYER
  5
8B
330
1
100
AcDbSymbolTableRecord
100
AcDbLayerTableRecord
  2
FORGE-TITLE
 70
0
 62
7
420
14080476
  6
Continuous
370
-3
390
13
347
21
  0
LAYER
  5
8C
330
1
100
AcDbSymbolTableRecord
100
AcDbLayerTableRecord
  2
FORGE-DIM
 70
0
 62
7
420
10134184
  6
Continuous
370
9
390
13
347
21
  0
LAYER
  5
8D
330
1
100
AcDbSymbolTableRecord
100
AcDbLayerTableRecord
  2
FORGE-NOTE
 70
0
 62
7
420
5219271
  6
Continuous
370
13
390
13
347
21
  0
LAYER
  5
8E
330
1
100
AcDbSymbolTableRecord
100
AcDbLayerTableRecord
  2
UI-SHELL-BG
 70
0
 62
7
420
1711134
  6
Continuous
370
-3
390
13
347
21
  0
LAYER
  5
8F
330
1
100
AcDbSymbolTableRecord
100
AcDbLayerTableRecord
  2
UI-PANEL-BG
 70
0
 62
7
420
2303529
  6
Continuous
370
-3
390
13
347
21
  0
LAYER
  5
90
330
1
100
AcDbSymbolTableRecord
100
AcDbLayerTableRecord
  2
UI-RAISED
 70
0
 62
7
420
2961717
  6
Continuous
370
-3
390
13
347
21
  0
LAYER
  5
91
330
1
100
AcDbSymbolTableRecord
100
AcDbLayerTableRecord
  2
UI-HAIRLINE
 70
0
 62
7
420
3422268
  6
Continuous
370
9
390
13
347
21
  0
LAYER
  5
92
330
1
100
AcDbSymbolTableRecord
100
AcDbLayerTableRecord
  2
UI-TEXT
 70
0
 62
7
420
14080476
  6
Continuous
370
-3
390
13
347
21
  0
LAYER
  5
93
330
1
100
AcDbSymbolTableRecord
100
AcDbLayerTableRecord
  2
UI-TEXT-SEC
 70
0
 62
7
420
9080981
  6
Continuous
370
-3
390
13
347
21
  0
LAYER
  5
94
330
1
100
AcDbSymbolTableRecord
100
AcDbLayerTableRecord
  2
UI-ACCENT
 70
0
 62
7
420
14716975
  6
Continuous
370
18
390
13
347
21
  0
LAYER
  5
95
330
1
100
AcDbSymbolTableRecord
100
AcDbLayerTableRecord
  2
UI-RECORD
 70
0
 62
7
420
14830410
  6
Continuous
370
18
390
13
347
21
  0
LAYER
  5
96
330
1
100
AcDbSymbolTableRecord
100
AcDbLayerTableRecord
  2
UI-WAVEFORM
 70
0
 62
7
420
7371652
  6
Continuous
370
-3
390
13
347
21
  0
LAYER
  5
97
330
1
100
AcDbSymbolTableRecord
100
AcDbLayerTableRecord
  2
UI-MIDI-NOTE
 70
0
 62
7
420
14716975
  6
Continuous
370
-3
390
13
347
21
  0
LAYER
  5
98
330
1
100
AcDbSymbolTableRecord
100
AcDbLayerTableRecord
  2
UI-METER
 70
0
 62
7
420
5744995
  6
Continuous
370
-3
390
13
347
21
  0
LAYER
  5
99
330
1
100
AcDbSymbolTableRecord
100
AcDbLayerTableRecord
  2
UI-SELECT
 70
0
 62
7
420
14716975
  6
Continuous
370
25
390
13
347
21
  0
LAYER
  5
9A
330
1
100
AcDbSymbolTableRecord
100
AcDbLayerTableRecord
  2
UI-CLIP
 70
0
 62
7
420
2961717
  6
Continuous
370
13
390
13
347
21
  0
LAYER
  5
9B
330
1
100
AcDbSymbolTableRecord
100
AcDbLayerTableRecord
  2
UI-GHOST
 70
0
 62
7
420
5594210
  6
Continuous
370
9
390
13
347
21
  0
ENDTAB
  0
TABLE
  2
STYLE
  5
5
330
0
100
AcDbSymbolTable
 70
26
  0
STYLE
  5
29
330
5
100
AcDbSymbolTableRecord
100
AcDbTextStyleTableRecord
  2
Standard
 70
0
 40
0.0
 41
1.0
 50
0.0
 71
0
 42
2.5
  3
txt
  4

  0
STYLE
  5
41
330
5
100
AcDbSymbolTableRecord
100
AcDbTextStyleTableRecord
  2
OpenSans-Light
 70
0
 40
0.0
 41
1.0
 50
0.0
 71
0
 42
2.5
  3
OpenSans-Light.ttf
  4

  0
STYLE
  5
42
330
5
100
AcDbSymbolTableRecord
100
AcDbTextStyleTableRecord
  2
OpenSans-Light-Italic
 70
0
 40
0.0
 41
1.0
 50
0.0
 71
0
 42
2.5
  3
OpenSans-LightItalic.ttf
  4

  0
STYLE
  5
43
330
5
100
AcDbSymbolTableRecord
100
AcDbTextStyleTableRecord
  2
OpenSans
 70
0
 40
0.0
 41
1.0
 50
0.0
 71
0
 42
2.5
  3
OpenSans-Regular.ttf
  4

  0
STYLE
  5
44
330
5
100
AcDbSymbolTableRecord
100
AcDbTextStyleTableRecord
  2
OpenSans-Italic
 70
0
 40
0.0
 41
1.0
 50
0.0
 71
0
 42
2.5
  3
OpenSans-Italic.ttf
  4

  0
STYLE
  5
45
330
5
100
AcDbSymbolTableRecord
100
AcDbTextStyleTableRecord
  2
OpenSans-SemiBold
 70
0
 40
0.0
 41
1.0
 50
0.0
 71
0
 42
2.5
  3
OpenSans-SemiBold.ttf
  4

  0
STYLE
  5
46
330
5
100
AcDbSymbolTableRecord
100
AcDbTextStyleTableRecord
  2
OpenSans-SemiBoldItalic
 70
0
 40
0.0
 41
1.0
 50
0.0
 71
0
 42
2.5
  3
OpenSans-SemiBoldItalic.ttf
  4

  0
STYLE
  5
47
330
5
100
AcDbSymbolTableRecord
100
AcDbTextStyleTableRecord
  2
OpenSans-Bold
 70
0
 40
0.0
 41
1.0
 50
0.0
 71
0
 42
2.5
  3
OpenSans-Bold.ttf
  4

  0
STYLE
  5
48
330
5
100
AcDbSymbolTableRecord
100
AcDbTextStyleTableRecord
  2
OpenSans-BoldItalic
 70
0
 40
0.0
 41
1.0
 50
0.0
 71
0
 42
2.5
  3
OpenSans-BoldItalic.ttf
  4

  0
STYLE
  5
49
330
5
100
AcDbSymbolTableRecord
100
AcDbTextStyleTableRecord
  2
OpenSans-ExtraBold
 70
0
 40
0.0
 41
1.0
 50
0.0
 71
0
 42
2.5
  3
OpenSans-ExtraBold.ttf
  4

  0
STYLE
  5
4A
330
5
100
AcDbSymbolTableRecord
100
AcDbTextStyleTableRecord
  2
OpenSans-ExtraBoldItalic
 70
0
 40
0.0
 41
1.0
 50
0.0
 71
0
 42
2.5
  3
OpenSans-ExtraBoldItalic.ttf
  4

  0
STYLE
  5
4B
330
5
100
AcDbSymbolTableRecord
100
AcDbTextStyleTableRecord
  2
OpenSansCondensed-Bold
 70
0
 40
0.0
 41
1.0
 50
0.0
 71
0
 42
2.5
  3
OpenSansCondensed-Bold.ttf
  4

  0
STYLE
  5
4C
330
5
100
AcDbSymbolTableRecord
100
AcDbTextStyleTableRecord
  2
OpenSansCondensed-Light
 70
0
 40
0.0
 41
1.0
 50
0.0
 71
0
 42
2.5
  3
OpenSansCondensed-Light.ttf
  4

  0
STYLE
  5
4D
330
5
100
AcDbSymbolTableRecord
100
AcDbTextStyleTableRecord
  2
OpenSansCondensed-Italic
 70
0
 40
0.0
 41
1.0
 50
0.0
 71
0
 42
2.5
  3
OpenSansCondensed-LightItalic.ttf
  4

  0
STYLE
  5
4E
330
5
100
AcDbSymbolTableRecord
100
AcDbTextStyleTableRecord
  2
LiberationSans
 70
0
 40
0.0
 41
1.0
 50
0.0
 71
0
 42
2.5
  3
LiberationSans-Regular.ttf
  4

  0
STYLE
  5
4F
330
5
100
AcDbSymbolTableRecord
100
AcDbTextStyleTableRecord
  2
LiberationSans-Bold
 70
0
 40
0.0
 41
1.0
 50
0.0
 71
0
 42
2.5
  3
LiberationSans-Bold.ttf
  4

  0
STYLE
  5
50
330
5
100
AcDbSymbolTableRecord
100
AcDbTextStyleTableRecord
  2
LiberationSans-BoldItalic
 70
0
 40
0.0
 41
1.0
 50
0.0
 71
0
 42
2.5
  3
LiberationSans-BoldItalic.ttf
  4

  0
STYLE
  5
51
330
5
100
AcDbSymbolTableRecord
100
AcDbTextStyleTableRecord
  2
LiberationSans-Italic
 70
0
 40
0.0
 41
1.0
 50
0.0
 71
0
 42
2.5
  3
LiberationSans-Italic.ttf
  4

  0
STYLE
  5
52
330
5
100
AcDbSymbolTableRecord
100
AcDbTextStyleTableRecord
  2
LiberationSerif
 70
0
 40
0.0
 41
1.0
 50
0.0
 71
0
 42
2.5
  3
LiberationSerif-Regular.ttf
  4

  0
STYLE
  5
53
330
5
100
AcDbSymbolTableRecord
100
AcDbTextStyleTableRecord
  2
LiberationSerif-Bold
 70
0
 40
0.0
 41
1.0
 50
0.0
 71
0
 42
2.5
  3
LiberationSerif-Bold.ttf
  4

  0
STYLE
  5
54
330
5
100
AcDbSymbolTableRecord
100
AcDbTextStyleTableRecord
  2
LiberationSerif-BoldItalic
 70
0
 40
0.0
 41
1.0
 50
0.0
 71
0
 42
2.5
  3
LiberationSerif-BoldItalic.ttf
  4

  0
STYLE
  5
55
330
5
100
AcDbSymbolTableRecord
100
AcDbTextStyleTableRecord
  2
LiberationSerif-Italic
 70
0
 40
0.0
 41
1.0
 50
0.0
 71
0
 42
2.5
  3
LiberationSerif-Italic.ttf
  4

  0
STYLE
  5
56
330
5
100
AcDbSymbolTableRecord
100
AcDbTextStyleTableRecord
  2
LiberationMono
 70
0
 40
0.0
 41
1.0
 50
0.0
 71
0
 42
2.5
  3
LiberationMono-Regular.ttf
  4

  0
STYLE
  5
57
330
5
100
AcDbSymbolTableRecord
100
AcDbTextStyleTableRecord
  2
LiberationMono-Bold
 70
0
 40
0.0
 41
1.0
 50
0.0
 71
0
 42
2.5
  3
LiberationMono-Bold.ttf
  4

  0
STYLE
  5
58
330
5
100
AcDbSymbolTableRecord
100
AcDbTextStyleTableRecord
  2
LiberationMono-BoldItalic
 70
0
 40
0.0
 41
1.0
 50
0.0
 71
0
 42
2.5
  3
LiberationMono-BoldItalic.ttf
  4

  0
STYLE
  5
59
330
5
100
AcDbSymbolTableRecord
100
AcDbTextStyleTableRecord
  2
LiberationMono-Italic
 70
0
 40
0.0
 41
1.0
 50
0.0
 71
0
 42
2.5
  3
LiberationMono-Italic.ttf
  4

  0
ENDTAB
  0
TABLE
  2
VIEW
  5
7
330
0
100
AcDbSymbolTable
 70
0
  0
ENDTAB
  0
TABLE
  2
UCS
  5
6
330
0
100
AcDbSymbolTable
 70
0
  0
ENDTAB
  0
TABLE
  2
APPID
  5
3
330
0
100
AcDbSymbolTable
 70
3
  0
APPID
  5
2A
330
3
100
AcDbSymbolTableRecord
100
AcDbRegAppTableRecord
  2
ACAD
 70
0
  0
APPID
  5
2EC
330
3
100
AcDbSymbolTableRecord
100
AcDbRegAppTableRecord
  2
HATCHBACKGROUNDCOLOR
 70
0
  0
APPID
  5
2ED
330
3
100
AcDbSymbolTableRecord
100
AcDbRegAppTableRecord
  2
EZDXF
 70
0
  0
ENDTAB
  0
TABLE
  2
DIMSTYLE
  5
4
330
0
100
AcDbSymbolTable
 70
12
100
AcDbDimStyleTable
  0
DIMSTYLE
105
2B
330
4
100
AcDbSymbolTableRecord
100
AcDbDimStyleTableRecord
  2
Standard
 70
0
 40
1.0
 41
2.5
 42
0.625
 43
3.75
 44
1.25
 45
0.0
 46
0.0
 47
0.0
 48
0.0
 49
2.5
140
2.5
141
2.5
142
0.0
143
0.03937007874
144
1.0
145
0.0
146
1.0
147
0.625
148
0.0
 69
0
 70
0
 71
0
 72
0
 73
0
 74
0
 75
0
 76
0
 77
1
 78
8
 79
3
170
0
171
3
172
1
173
0
174
0
175
0
176
0
177
0
178
0
179
2
271
2
272
2
273
2
274
3
275
0
276
0
277
2
278
44
279
0
280
0
281
0
282
0
283
0
284
8
285
0
286
0
288
0
289
3
290
0
371
-2
372
-2
  0
DIMSTYLE
105
73
330
4
100
AcDbSymbolTableRecord
100
AcDbDimStyleTableRecord
  2
EZDXF
 70
0
 40
1.0
 41
0.175
 42
0.125
 43
3.75
 44
0.375
 45
0.0
 46
0.0
 47
0.0
 48
0.0
 49
2.5
140
0.25
141
2.5
142
0.0
143
0.03937007874
144
100.0
145
0.0
146
0.5
147
0.1
148
0.0
 69
0
 70
0
 71
0
 72
0
 73
0
 74
0
 75
0
 76
0
 77
1
 78
12
 79
3
170
0
171
3
172
1
173
0
174
0
175
0
176
0
177
0
178
0
179
2
271
2
272
2
273
2
274
3
275
0
276
0
277
2
278
46
279
2
280
0
281
0
282
0
283
0
284
8
285
0
286
0
288
1
289
3
290
0
340
4C
342
74
371
-2
372
-2
  0
DIMSTYLE
105
7C
330
4
100
AcDbSymbolTableRecord
100
AcDbDimStyleTableRecord
  2
EZ_M_100_H25_CM
 70
0
 40
1.0
 41
0.25
 42
0.125
 43
3.75
 44
0.375
 45
0.0
 46
0.0
 47
0.0
 48
0.0
 49
2.5
140
0.25
141
2.5
142
0.125
143
0.03937007874
144
100.0
145
0.0
146
0.5
147
0.1
148
0.0
 69
0
 70
0
 71
0
 72
0
 73
0
 74
0
 75
0
 76
0
 77
1
 78
12
 79
3
170
0
171
3
172
1
173
0
174
0
175
0
176
0
177
0
178
0
179
2
271
2
272
2
273
2
274
3
275
0
276
0
277
2
278
46
279
2
280
0
281
0
282
0
283
0
284
8
285
0
286
0
288
1
289
3
290
0
340
4C
371
-2
372
-2
  0
DIMSTYLE
105
7D
330
4
100
AcDbSymbolTableRecord
100
AcDbDimStyleTableRecord
  2
EZ_M_50_H25_CM
 70
0
 40
1.0
 41
0.125
 42
0.0625
 43
3.75
 44
0.1875
 45
0.0
 46
0.0
 47
0.0
 48
0.0
 49
2.5
140
0.125
141
2.5
142
0.0625
143
0.03937007874
144
100.0
145
0.0
146
0.5
147
0.05
148
0.0
 69
0
 70
0
 71
0
 72
0
 73
0
 74
0
 75
0
 76
0
 77
1
 78
12
 79
3
170
0
171
3
172
1
173
0
174
0
175
0
176
0
177
0
178
0
179
2
271
2
272
2
273
2
274
3
275
0
276
0
277
2
278
46
279
2
280
0
281
0
282
0
283
0
284
8
285
0
286
0
288
1
289
3
290
0
340
4C
371
-2
372
-2
  0
DIMSTYLE
105
7E
330
4
100
AcDbSymbolTableRecord
100
AcDbDimStyleTableRecord
  2
EZ_M_25_H25_CM
 70
0
 40
1.0
 41
0.0625
 42
0.03125
 43
3.75
 44
0.09375
 45
0.0
 46
0.0
 47
0.0
 48
0.0
 49
2.5
140
0.0625
141
2.5
142
0.03125
143
0.03937007874
144
100.0
145
0.0
146
0.5
147
0.025
148
0.0
 69
0
 70
0
 71
0
 72
0
 73
0
 74
0
 75
0
 76
0
 77
1
 78
12
 79
3
170
0
171
3
172
1
173
0
174
0
175
0
176
0
177
0
178
0
179
2
271
2
272
2
273
2
274
3
275
0
276
0
277
2
278
46
279
2
280
0
281
0
282
0
283
0
284
8
285
0
286
0
288
1
289
3
290
0
340
4C
371
-2
372
-2
  0
DIMSTYLE
105
7F
330
4
100
AcDbSymbolTableRecord
100
AcDbDimStyleTableRecord
  2
EZ_M_20_H25_CM
 70
0
 40
1.0
 41
0.05
 42
0.025
 43
3.75
 44
0.07500000000000001
 45
0.0
 46
0.0
 47
0.0
 48
0.0
 49
2.5
140
0.05
141
2.5
142
0.025
143
0.03937007874
144
100.0
145
0.0
146
0.5
147
0.020000000000000004
148
0.0
 69
0
 70
0
 71
0
 72
0
 73
0
 74
0
 75
0
 76
0
 77
1
 78
12
 79
3
170
0
171
3
172
1
173
0
174
0
175
0
176
0
177
0
178
0
179
2
271
2
272
2
273
2
274
3
275
0
276
0
277
2
278
46
279
2
280
0
281
0
282
0
283
0
284
8
285
0
286
0
288
1
289
3
290
0
340
4C
371
-2
372
-2
  0
DIMSTYLE
105
80
330
4
100
AcDbSymbolTableRecord
100
AcDbDimStyleTableRecord
  2
EZ_M_10_H25_CM
 70
0
 40
1.0
 41
0.025
 42
0.0125
 43
3.75
 44
0.037500000000000006
 45
0.0
 46
0.0
 47
0.0
 48
0.0
 49
2.5
140
0.025
141
2.5
142
0.0125
143
0.03937007874
144
100.0
145
0.0
146
0.5
147
0.010000000000000002
148
0.0
 69
0
 70
0
 71
0
 72
0
 73
0
 74
0
 75
0
 76
0
 77
1
 78
12
 79
3
170
0
171
3
172
1
173
0
174
0
175
0
176
0
177
0
178
0
179
2
271
2
272
2
273
2
274
3
275
0
276
0
277
2
278
46
279
2
280
0
281
0
282
0
283
0
284
8
285
0
286
0
288
1
289
3
290
0
340
4C
371
-2
372
-2
  0
DIMSTYLE
105
81
330
4
100
AcDbSymbolTableRecord
100
AcDbDimStyleTableRecord
  2
EZ_M_5_H25_CM
 70
0
 40
1.0
 41
0.0125
 42
0.00625
 43
3.75
 44
0.018750000000000003
 45
0.0
 46
0.0
 47
0.0
 48
0.0
 49
2.5
140
0.0125
141
2.5
142
0.00625
143
0.03937007874
144
100.0
145
0.0
146
0.5
147
0.005000000000000001
148
0.0
 69
0
 70
0
 71
0
 72
0
 73
0
 74
0
 75
0
 76
0
 77
1
 78
12
 79
3
170
0
171
3
172
1
173
0
174
0
175
0
176
0
177
0
178
0
179
2
271
2
272
2
273
2
274
3
275
0
276
0
277
2
278
46
279
2
280
0
281
0
282
0
283
0
284
8
285
0
286
0
288
1
289
3
290
0
340
4C
371
-2
372
-2
  0
DIMSTYLE
105
82
330
4
100
AcDbSymbolTableRecord
100
AcDbDimStyleTableRecord
  2
EZ_M_1_H25_CM
 70
0
 40
1.0
 41
0.0025
 42
0.00125
 43
3.75
 44
0.00375
 45
0.0
 46
0.0
 47
0.0
 48
0.0
 49
2.5
140
0.0025
141
2.5
142
0.00125
143
0.03937007874
144
100.0
145
0.0
146
0.5
147
0.001
148
0.0
 69
0
 70
0
 71
0
 72
0
 73
0
 74
0
 75
0
 76
0
 77
1
 78
12
 79
3
170
0
171
3
172
1
173
0
174
0
175
0
176
0
177
0
178
0
179
2
271
2
272
2
273
2
274
3
275
0
276
0
277
2
278
46
279
2
280
0
281
0
282
0
283
0
284
8
285
0
286
0
288
1
289
3
290
0
340
4C
371
-2
372
-2
  0
DIMSTYLE
105
83
330
4
100
AcDbSymbolTableRecord
100
AcDbDimStyleTableRecord
  2
EZ_RADIUS
 70
0
 40
1.0
 41
0.25
 42
0.125
 43
3.75
 44
0.375
 45
0.0
 46
0.0
 47
0.0
 48
0.0
 49
2.5
140
0.25
141
0.0
142
0.0
143
0.03937007874
144
100.0
145
0.0
146
0.5
147
0.1
148
0.0
 69
0
 70
0
 71
0
 72
0
 73
0
 74
0
 75
0
 76
0
 77
1
 78
12
 79
3
170
0
171
3
172
0
173
0
174
0
175
0
176
0
177
0
178
0
179
2
271
2
272
2
273
2
274
3
275
0
276
0
277
2
278
46
279
1
280
0
281
0
282
0
283
0
284
8
285
0
286
0
288
1
289
3
290
0
340
4C
342
84
371
-2
372
-2
  0
DIMSTYLE
105
88
330
4
100
AcDbSymbolTableRecord
100
AcDbDimStyleTableRecord
  2
EZ_RADIUS_INSIDE
 70
0
 40
1.0
 41
0.25
 42
0.125
 43
3.75
 44
0.375
 45
0.0
 46
0.0
 47
0.0
 48
0.0
 49
2.5
140
0.25
141
0.0
142
0.0
143
0.03937007874
144
100.0
145
0.0
146
0.5
147
0.1
148
0.0
 69
0
 70
0
 71
0
 72
0
 73
0
 74
0
 75
0
 76
0
 77
0
 78
12
 79
3
170
0
171
3
172
0
173
0
174
1
175
0
176
0
177
0
178
0
179
2
271
2
272
2
273
2
274
3
275
0
276
0
277
2
278
46
279
0
280
0
281
0
282
0
283
0
284
8
285
0
286
0
288
1
289
0
290
0
340
4C
342
84
371
-2
372
-2
  0
DIMSTYLE
105
89
330
4
100
AcDbSymbolTableRecord
100
AcDbDimStyleTableRecord
  2
EZ_CURVED
 70
0
 40
1.0
 41
0.25
 42
0.125
 43
3.75
 44
0.375
 45
0.0
 46
0.0
 47
0.0
 48
0.0
 49
2.5
140
0.25
141
2.5
142
0.0
143
0.03937007874
144
100.0
145
0.0
146
0.5
147
0.1
148
0.0
 69
0
 70
0
 71
0
 72
0
 73
0
 74
0
 75
0
 76
0
 77
1
 78
12
 79
2
 90
2
170
0
171
3
172
1
173
0
174
0
175
0
176
0
177
0
178
0
179
2
271
2
272
2
273
2
274
3
275
0
276
0
277
2
278
46
279
2
280
0
281
0
282
0
283
0
284
8
285
0
286
0
288
1
289
3
290
0
340
4C
371
-2
372
-2
  0
ENDTAB
  0
TABLE
  2
BLOCK_RECORD
  5
9
330
0
100
AcDbSymbolTable
 70
5
  0
BLOCK_RECORD
  5
17
330
9
100
AcDbSymbolTableRecord
100
AcDbBlockTableRecord
  2
*Model_Space
340
1A
 70
0
280
1
281
0
  0
BLOCK_RECORD
  5
1B
330
9
100
AcDbSymbolTableRecord
100
AcDbBlockTableRecord
  2
*Paper_Space
340
1E
 70
0
280
1
281
0
  0
BLOCK_RECORD
  5
74
330
9
100
AcDbSymbolTableRecord
100
AcDbBlockTableRecord
  2
_ARCHTICK
340
0
 70
0
280
1
281
0
  0
BLOCK_RECORD
  5
78
330
9
100
AcDbSymbolTableRecord
100
AcDbBlockTableRecord
  2
_CLOSEDFILLED
340
0
 70
0
280
1
281
0
  0
BLOCK_RECORD
  5
84
330
9
100
AcDbSymbolTableRecord
100
AcDbBlockTableRecord
  2
_CLOSEDBLANK
340
0
 70
0
280
1
281
0
  0
ENDTAB
  0
ENDSEC
  0
SECTION
  2
BLOCKS
  0
BLOCK
  5
18
330
17
100
AcDbEntity
  8
0
100
AcDbBlockBegin
  2
*Model_Space
 70
0
 10
0.0
 20
0.0
 30
0.0
  3
*Model_Space
  1

  0
ENDBLK
  5
19
330
17
100
AcDbEntity
  8
0
100
AcDbBlockEnd
  0
BLOCK
  5
1C
330
1B
100
AcDbEntity
  8
0
100
AcDbBlockBegin
  2
*Paper_Space
 70
0
 10
0.0
 20
0.0
 30
0.0
  3
*Paper_Space
  1

  0
ENDBLK
  5
1D
330
1B
100
AcDbEntity
  8
0
100
AcDbBlockEnd
  0
BLOCK
  5
75
330
74
100
AcDbEntity
  8
0
100
AcDbBlockBegin
  2
_ARCHTICK
 70
0
 10
0.0
 20
0.0
 30
0.0
  3
_ARCHTICK
  1

  0
LWPOLYLINE
  5
77
330
74
100
AcDbEntity
  8
0
  6
BYBLOCK
 62
0
100
AcDbPolyline
 90
2
 70
0
 43
0.15
 10
-0.5
 20
-0.5
 10
0.5
 20
0.5
  0
ENDBLK
  5
76
330
74
100
AcDbEntity
  8
0
100
AcDbBlockEnd
  0
BLOCK
  5
79
330
78
100
AcDbEntity
  8
0
100
AcDbBlockBegin
  2
_CLOSEDFILLED
 70
0
 10
0.0
 20
0.0
 30
0.0
  3
_CLOSEDFILLED
  1

  0
SOLID
  5
7B
330
78
100
AcDbEntity
  8
0
  6
BYBLOCK
 62
0
100
AcDbTrace
 10
-1.0
 20
0.16439898372402537
 30
0.0
 11
0.0
 21
0.0
 31
0.0
 12
-1.0
 22
-0.16439898372402537
 32
0.0
 13
-1.0
 23
-0.16439898372402537
 33
0.0
  0
ENDBLK
  5
7A
330
78
100
AcDbEntity
  8
0
100
AcDbBlockEnd
  0
BLOCK
  5
85
330
84
100
AcDbEntity
  8
0
100
AcDbBlockBegin
  2
_CLOSEDBLANK
 70
0
 10
0.0
 20
0.0
 30
0.0
  3
_CLOSEDBLANK
  1

  0
LWPOLYLINE
  5
87
330
84
100
AcDbEntity
  8
0
  6
BYBLOCK
 62
0
100
AcDbPolyline
 90
3
 70
1
 10
-1.0
 20
0.16439898372402537
 10
0.0
 20
0.0
 10
-1.0
 20
-0.16439898372402537
  0
ENDBLK
  5
86
330
84
100
AcDbEntity
  8
0
100
AcDbBlockEnd
  0
ENDSEC
  0
SECTION
  2
ENTITIES
  0
LWPOLYLINE
  5
9C
330
17
100
AcDbEntity
  8
FORGE-SHEET
100
AcDbPolyline
 90
4
 70
1
 10
-16.0
 20
16.0
 10
1616.0
 20
16.0
 10
1616.0
 20
-1056.0
 10
-16.0
 20
-1056.0
  0
LINE
  5
9D
330
17
100
AcDbEntity
  8
FORGE-SHEET
100
AcDbLine
 10
-16.0
 20
-1016.0
 30
0.0
 11
1616.0
 21
-1016.0
 31
0.0
  0
TEXT
  5
9E
330
17
100
AcDbEntity
  8
FORGE-TITLE
100
AcDbText
 10
-8.0
 20
-1036.0
 30
0.0
 40
26.0
  1
04
 11
-8.0
 21
-1036.0
 31
0.0
100
AcDbText
 73
2
  0
TEXT
  5
9F
330
17
100
AcDbEntity
  8
FORGE-TITLE
100
AcDbText
 10
48.0
 20
-1030.0
 30
0.0
 40
15.0
  1
MIXER VIEW
 11
48.0
 21
-1030.0
 31
0.0
100
AcDbText
 73
2
  0
TEXT
  5
A0
330
17
100
AcDbEntity
  8
FORGE-DIM
100
AcDbText
 10
48.0
 20
-1046.0
 30
0.0
 40
11.0
  1
channel strips · inserts · pan/fader/meter · master + LUFS
 11
48.0
 21
-1046.0
 31
0.0
100
AcDbText
 73
2
  0
HATCH
  5
A1
330
17
100
AcDbEntity
  8
UI-PANEL-BG
100
AcDbHatch
 10
0.0
 20
0.0
 30
0.0
210
0.0
220
0.0
230
1.0
  2
SOLID
 70
1
 71
0
 91
1
 92
3
 72
0
 73
1
 93
4
 10
0.0
 20
0.0
 10
1600.0
 20
0.0
 10
1600.0
 20
-46.0
 10
0.0
 20
-46.0
 97
0
 75
1
 76
1
 98
0
  0
LINE
  5
A2
330
17
100
AcDbEntity
  8
UI-HAIRLINE
100
AcDbLine
 10
0.0
 20
-46.0
 30
0.0
 11
1600.0
 21
-46.0
 31
0.0
  0
HATCH
  5
A3
330
17
100
AcDbEntity
  8
UI-RAISED
100
AcDbHatch
 10
0.0
 20
0.0
 30
0.0
210
0.0
220
0.0
230
1.0
  2
SOLID
 70
1
 71
0
 91
1
 92
3
 72
0
 73
1
 93
4
 10
6.0
 20
-6.0
 10
72.0
 20
-6.0
 10
72.0
 20
-40.0
 10
6.0
 20
-40.0
 97
0
 75
1
 76
1
 98
0
  0
LWPOLYLINE
  5
A4
330
17
100
AcDbEntity
  8
UI-HAIRLINE
100
AcDbPolyline
 90
4
 70
1
 10
6.0
 20
-6.0
 10
72.0
 20
-6.0
 10
72.0
 20
-40.0
 10
6.0
 20
-40.0
  0
TEXT
  5
A5
330
17
100
AcDbEntity
  8
UI-TEXT
100
AcDbText
 10
39.0
 20
-23.0
 30
0.0
 40
11.0
  1
Browser
 72
1
 11
39.0
 21
-23.0
 31
0.0
100
AcDbText
 73
2
  0
HATCH
  5
A6
330
17
100
AcDbEntity
  8
UI-RAISED
100
AcDbHatch
 10
0.0
 20
0.0
 30
0.0
210
0.0
220
0.0
230
1.0
  2
SOLID
 70
1
 71
0
 91
1
 92
3
 72
0
 73
1
 93
4
 10
80.0
 20
-6.0
 10
144.0
 20
-6.0
 10
144.0
 20
-40.0
 10
80.0
 20
-40.0
 97
0
 75
1
 76
1
 98
0
  0
LWPOLYLINE
  5
A7
330
17
100
AcDbEntity
  8
UI-HAIRLINE
100
AcDbPolyline
 90
4
 70
1
 10
80.0
 20
-6.0
 10
144.0
 20
-6.0
 10
144.0
 20
-40.0
 10
80.0
 20
-40.0
  0
TEXT
  5
A8
330
17
100
AcDbEntity
  8
UI-TEXT
100
AcDbText
 10
112.0
 20
-23.0
 30
0.0
 40
11.0
  1
New
 72
1
 11
112.0
 21
-23.0
 31
0.0
100
AcDbText
 73
2
  0
HATCH
  5
A9
330
17
100
AcDbEntity
  8
UI-RAISED
100
AcDbHatch
 10
0.0
 20
0.0
 30
0.0
210
0.0
220
0.0
230
1.0
  2
SOLID
 70
1
 71
0
 91
1
 92
3
 72
0
 73
1
 93
4
 10
148.0
 20
-6.0
 10
212.0
 20
-6.0
 10
212.0
 20
-40.0
 10
148.0
 20
-40.0
 97
0
 75
1
 76
1
 98
0
  0
LWPOLYLINE
  5
AA
330
17
100
AcDbEntity
  8
UI-HAIRLINE
100
AcDbPolyline
 90
4
 70
1
 10
148.0
 20
-6.0
 10
212.0
 20
-6.0
 10
212.0
 20
-40.0
 10
148.0
 20
-40.0
  0
TEXT
  5
AB
330
17
100
AcDbEntity
  8
UI-TEXT
100
AcDbText
 10
180.0
 20
-23.0
 30
0.0
 40
11.0
  1
Open
 72
1
 11
180.0
 21
-23.0
 31
0.0
100
AcDbText
 73
2
  0
HATCH
  5
AC
330
17
100
AcDbEntity
  8
UI-RAISED
100
AcDbHatch
 10
0.0
 20
0.0
 30
0.0
210
0.0
220
0.0
230
1.0
  2
SOLID
 70
1
 71
0
 91
1
 92
3
 72
0
 73
1
 93
4
 10
216.0
 20
-6.0
 10
280.0
 20
-6.0
 10
280.0
 20
-40.0
 10
216.0
 20
-40.0
 97
0
 75
1
 76
1
 98
0
  0
LWPOLYLINE
  5
AD
330
17
100
AcDbEntity
  8
UI-HAIRLINE
100
AcDbPolyline
 90
4
 70
1
 10
216.0
 20
-6.0
 10
280.0
 20
-6.0
 10
280.0
 20
-40.0
 10
216.0
 20
-40.0
  0
TEXT
  5
AE
330
17
100
AcDbEntity
  8
UI-TEXT
100
AcDbText
 10
248.0
 20
-23.0
 30
0.0
 40
11.0
  1
Save
 72
1
 11
248.0
 21
-23.0
 31
0.0
100
AcDbText
 73
2
  0
HATCH
  5
AF
330
17
100
AcDbEntity
  8
UI-RAISED
100
AcDbHatch
 10
0.0
 20
0.0
 30
0.0
210
0.0
220
0.0
230
1.0
  2
SOLID
 70
1
 71
0
 91
1
 92
3
 72
0
 73
1
 93
4
 10
284.0
 20
-6.0
 10
348.0
 20
-6.0
 10
348.0
 20
-40.0
 10
284.0
 20
-40.0
 97
0
 75
1
 76
1
 98
0
  0
LWPOLYLINE
  5
B0
330
17
100
AcDbEntity
  8
UI-HAIRLINE
100
AcDbPolyline
 90
4
 70
1
 10
284.0
 20
-6.0
 10
348.0
 20
-6.0
 10
348.0
 20
-40.0
 10
284.0
 20
-40.0
  0
TEXT
  5
B1
330
17
100
AcDbEntity
  8
UI-TEXT
100
AcDbText
 10
316.0
 20
-23.0
 30
0.0
 40
11.0
  1
Save As
 72
1
 11
316.0
 21
-23.0
 31
0.0
100
AcDbText
 73
2
  0
HATCH
  5
B2
330
17
100
AcDbEntity
  8
UI-RAISED
100
AcDbHatch
 10
0.0
 20
0.0
 30
0.0
210
0.0
220
0.0
230
1.0
  2
SOLID
 70
1
 71
0
 91
1
 92
3
 72
0
 73
1
 93
4
 10
352.0
 20
-6.0
 10
416.0
 20
-6.0
 10
416.0
 20
-40.0
 10
352.0
 20
-40.0
 97
0
 75
1
 76
1
 98
0
  0
LWPOLYLINE
  5
B3
330
17
100
AcDbEntity
  8
UI-HAIRLINE
100
AcDbPolyline
 90
4
 70
1
 10
352.0
 20
-6.0
 10
416.0
 20
-6.0
 10
416.0
 20
-40.0
 10
352.0
 20
-40.0
  0
TEXT
  5
B4
330
17
100
AcDbEntity
  8
UI-TEXT
100
AcDbText
 10
384.0
 20
-23.0
 30
0.0
 40
11.0
  1
Import
 72
1
 11
384.0
 21
-23.0
 31
0.0
100
AcDbText
 73
2
  0
HATCH
  5
B5
330
17
100
AcDbEntity
  8
UI-RAISED
100
AcDbHatch
 10
0.0
 20
0.0
 30
0.0
210
0.0
220
0.0
230
1.0
  2
SOLID
 70
1
 71
0
 91
1
 92
3
 72
0
 73
1
 93
4
 10
420.0
 20
-6.0
 10
484.0
 20
-6.0
 10
484.0
 20
-40.0
 10
420.0
 20
-40.0
 97
0
 75
1
 76
1
 98
0
  0
LWPOLYLINE
  5
B6
330
17
100
AcDbEntity
  8
UI-HAIRLINE
100
AcDbPolyline
 90
4
 70
1
 10
420.0
 20
-6.0
 10
484.0
 20
-6.0
 10
484.0
 20
-40.0
 10
420.0
 20
-40.0
  0
TEXT
  5
B7
330
17
100
AcDbEntity
  8
UI-TEXT
100
AcDbText
 10
452.0
 20
-23.0
 30
0.0
 40
11.0
  1
Export
 72
1
 11
452.0
 21
-23.0
 31
0.0
100
AcDbText
 73
2
  0
HATCH
  5
B8
330
17
100
AcDbEntity
  8
UI-RAISED
100
AcDbHatch
 10
0.0
 20
0.0
 30
0.0
210
0.0
220
0.0
230
1.0
  2
SOLID
 70
1
 71
0
 91
1
 92
3
 72
0
 73
1
 93
4
 10
488.0
 20
-6.0
 10
552.0
 20
-6.0
 10
552.0
 20
-40.0
 10
488.0
 20
-40.0
 97
0
 75
1
 76
1
 98
0
  0
LWPOLYLINE
  5
B9
330
17
100
AcDbEntity
  8
UI-HAIRLINE
100
AcDbPolyline
 90
4
 70
1
 10
488.0
 20
-6.0
 10
552.0
 20
-6.0
 10
552.0
 20
-40.0
 10
488.0
 20
-40.0
  0
TEXT
  5
BA
330
17
100
AcDbEntity
  8
UI-TEXT
100
AcDbText
 10
520.0
 20
-23.0
 30
0.0
 40
11.0
  1
Plugins
 72
1
 11
520.0
 21
-23.0
 31
0.0
100
AcDbText
 73
2
  0
HATCH
  5
BB
330
17
100
AcDbEntity
  8
UI-RAISED
100
AcDbHatch
 10
0.0
 20
0.0
 30
0.0
210
0.0
220
0.0
230
1.0
  2
SOLID
 70
1
 71
0
 91
1
 92
3
 72
0
 73
1
 93
4
 10
556.0
 20
-6.0
 10
620.0
 20
-6.0
 10
620.0
 20
-40.0
 10
556.0
 20
-40.0
 97
0
 75
1
 76
1
 98
0
  0
LWPOLYLINE
  5
BC
330
17
100
AcDbEntity
  8
UI-HAIRLINE
100
AcDbPolyline
 90
4
 70
1
 10
556.0
 20
-6.0
 10
620.0
 20
-6.0
 10
620.0
 20
-40.0
 10
556.0
 20
-40.0
  0
TEXT
  5
BD
330
17
100
AcDbEntity
  8
UI-TEXT
100
AcDbText
 10
588.0
 20
-23.0
 30
0.0
 40
11.0
  1
Audio
 72
1
 11
588.0
 21
-23.0
 31
0.0
100
AcDbText
 73
2
  0
HATCH
  5
BE
330
17
100
AcDbEntity
  8
UI-RAISED
100
AcDbHatch
 10
0.0
 20
0.0
 30
0.0
210
0.0
220
0.0
230
1.0
  2
SOLID
 70
1
 71
0
 91
1
 92
3
 72
0
 73
1
 93
4
 10
1532.0
 20
-6.0
 10
1594.0
 20
-6.0
 10
1594.0
 20
-40.0
 10
1532.0
 20
-40.0
 97
0
 75
1
 76
1
 98
0
  0
LWPOLYLINE
  5
BF
330
17
100
AcDbEntity
  8
UI-HAIRLINE
100
AcDbPolyline
 90
4
 70
1
 10
1532.0
 20
-6.0
 10
1594.0
 20
-6.0
 10
1594.0
 20
-40.0
 10
1532.0
 20
-40.0
  0
TEXT
  5
C0
330
17
100
AcDbEntity
  8
UI-TEXT
100
AcDbText
 10
1563.0
 20
-23.0
 30
0.0
 40
13.0
  1
Editor
 72
1
 11
1563.0
 21
-23.0
 31
0.0
100
AcDbText
 73
2
  0
HATCH
  5
C1
330
17
100
AcDbEntity
  8
UI-RAISED
100
AcDbHatch
 10
0.0
 20
0.0
 30
0.0
210
0.0
220
0.0
230
1.0
  2
SOLID
 70
1
 71
0
 91
1
 92
3
 72
0
 73
1
 93
4
 10
1330.0
 20
-6.0
 10
1402.0
 20
-6.0
 10
1402.0
 20
-40.0
 10
1330.0
 20
-40.0
 97
0
 75
1
 76
1
 98
0
  0
LWPOLYLINE
  5
C2
330
17
100
AcDbEntity
  8
UI-HAIRLINE
100
AcDbPolyline
 90
4
 70
1
 10
1330.0
 20
-6.0
 10
1402.0
 20
-6.0
 10
1402.0
 20
-40.0
 10
1330.0
 20
-40.0
  0
TEXT
  5
C3
330
17
100
AcDbEntity
  8
UI-TEXT
100
AcDbText
 10
1366.0
 20
-23.0
 30
0.0
 40
13.0
  1
Session
 72
1
 11
1366.0
 21
-23.0
 31
0.0
100
AcDbText
 73
2
  0
HATCH
  5
C4
330
17
100
AcDbEntity
  8
UI-RAISED
100
AcDbHatch
 10
0.0
 20
0.0
 30
0.0
210
0.0
220
0.0
230
1.0
  2
SOLID
 70
1
 71
0
 91
1
 92
3
 72
0
 73
1
 93
4
 10
1402.0
 20
-6.0
 10
1468.0
 20
-6.0
 10
1468.0
 20
-40.0
 10
1402.0
 20
-40.0
 97
0
 75
1
 76
1
 98
0
  0
LWPOLYLINE
  5
C5
330
17
100
AcDbEntity
  8
UI-HAIRLINE
100
AcDbPolyline
 90
4
 70
1
 10
1402.0
 20
-6.0
 10
1468.0
 20
-6.0
 10
1468.0
 20
-40.0
 10
1402.0
 20
-40.0
  0
TEXT
  5
C6
330
17
100
AcDbEntity
  8
UI-TEXT
100
AcDbText
 10
1435.0
 20
-23.0
 30
0.0
 40
13.0
  1
Arrange
 72
1
 11
1435.0
 21
-23.0
 31
0.0
100
AcDbText
 73
2
  0
HATCH
  5
C7
330
17
100
AcDbEntity
  8
UI-ACCENT
100
AcDbHatch
 10
0.0
 20
0.0
 30
0.0
210
0.0
220
0.0
230
1.0
  2
SOLID
 70
1
 71
0
 91
1
 92
3
 72
0
 73
1
 93
4
 10
1468.0
 20
-6.0
 10
1520.0
 20
-6.0
 10
1520.0
 20
-40.0
 10
1468.0
 20
-40.0
 97
0
 75
1
 76
1
 98
0
  0
LWPOLYLINE
  5
C8
330
17
100
AcDbEntity
  8
UI-HAIRLINE
100
AcDbPolyline
 90
4
 70
1
 10
1468.0
 20
-6.0
 10
1520.0
 20
-6.0
 10
1520.0
 20
-40.0
 10
1468.0
 20
-40.0
  0
TEXT
  5
C9
330
17
100
AcDbEntity
  8
UI-TEXT
420
2364928
100
AcDbText
 10
1494.0
 20
-23.0
 30
0.0
 40
13.0
  1
Mix
 72
1
 11
1494.0
 21
-23.0
 31
0.0
100
AcDbText
 73
2
  0
HATCH
  5
CA
330
17
100
AcDbEntity
  8
UI-RAISED
100
AcDbHatch
 10
0.0
 20
0.0
 30
0.0
210
0.0
220
0.0
230
1.0
  2
SOLID
 70
1
 71
0
 91
1
 92
3
 72
0
 73
1
 93
4
 10
642.0
 20
-6.0
 10
706.0
 20
-6.0
 10
706.0
 20
-40.0
 10
642.0
 20
-40.0
 97
0
 75
1
 76
1
 98
0
  0
LWPOLYLINE
  5
CB
330
17
100
AcDbEntity
  8
UI-HAIRLINE
100
AcDbPolyline
 90
4
 70
1
 10
642.0
 20
-6.0
 10
706.0
 20
-6.0
 10
706.0
 20
-40.0
 10
642.0
 20
-40.0
  0
LWPOLYLINE
  5
CC
330
17
100
AcDbEntity
  8
UI-TEXT
100
AcDbPolyline
 90
3
 70
1
 10
668.5
 20
-16.4
 10
681.7
 20
-23.0
 10
668.5
 20
-29.6
  0
HATCH
  5
CD
330
17
100
AcDbEntity
  8
UI-RAISED
100
AcDbHatch
 10
0.0
 20
0.0
 30
0.0
210
0.0
220
0.0
230
1.0
  2
SOLID
 70
1
 71
0
 91
1
 92
3
 72
0
 73
1
 93
4
 10
710.0
 20
-6.0
 10
774.0
 20
-6.0
 10
774.0
 20
-40.0
 10
710.0
 20
-40.0
 97
0
 75
1
 76
1
 98
0
  0
LWPOLYLINE
  5
CE
330
17
100
AcDbEntity
  8
UI-HAIRLINE
100
AcDbPolyline
 90
4
 70
1
 10
710.0
 20
-6.0
 10
774.0
 20
-6.0
 10
774.0
 20
-40.0
 10
710.0
 20
-40.0
  0
HATCH
  5
CF
330
17
100
AcDbEntity
  8
UI-TEXT
100
AcDbHatch
 10
0.0
 20
0.0
 30
0.0
210
0.0
220
0.0
230
1.0
  2
SOLID
 70
1
 71
0
 91
1
 92
3
 72
0
 73
1
 93
4
 10
735.95
 20
-16.95
 10
748.0500000000001
 20
-16.95
 10
748.0500000000001
 20
-29.05
 10
735.95
 20
-29.05
 97
0
 75
1
 76
1
 98
0
  0
HATCH
  5
D0
330
17
100
AcDbEntity
  8
UI-RAISED
100
AcDbHatch
 10
0.0
 20
0.0
 30
0.0
210
0.0
220
0.0
230
1.0
  2
SOLID
 70
1
 71
0
 91
1
 92
3
 72
0
 73
1
 93
4
 10
778.0
 20
-6.0
 10
842.0
 20
-6.0
 10
842.0
 20
-40.0
 10
778.0
 20
-40.0
 97
0
 75
1
 76
1
 98
0
  0
LWPOLYLINE
  5
D1
330
17
100
AcDbEntity
  8
UI-HAIRLINE
100
AcDbPolyline
 90
4
 70
1
 10
778.0
 20
-6.0
 10
842.0
 20
-6.0
 10
842.0
 20
-40.0
 10
778.0
 20
-40.0
  0
HATCH
  5
D2
330
17
100
AcDbEntity
  8
UI-RECORD
100
AcDbHatch
 10
0.0
 20
0.0
 30
0.0
210
0.0
220
0.0
230
1.0
  2
SOLID
 70
1
 71
0
 91
1
 92
1
 93
1
 72
2
 10
810.0
 20
-23.0
 40
6.82
 50
0
 51
360
 73
1
 97
0
 75
1
 76
1
 98
0
  0
HATCH
  5
D3
330
17
100
AcDbEntity
  8
UI-RAISED
100
AcDbHatch
 10
0.0
 20
0.0
 30
0.0
210
0.0
220
0.0
230
1.0
  2
SOLID
 70
1
 71
0
 91
1
 92
3
 72
0
 73
1
 93
4
 10
846.0
 20
-6.0
 10
910.0
 20
-6.0
 10
910.0
 20
-40.0
 10
846.0
 20
-40.0
 97
0
 75
1
 76
1
 98
0
  0
LWPOLYLINE
  5
D4
330
17
100
AcDbEntity
  8
UI-HAIRLINE
100
AcDbPolyline
 90
4
 70
1
 10
846.0
 20
-6.0
 10
910.0
 20
-6.0
 10
910.0
 20
-40.0
 10
846.0
 20
-40.0
  0
ARC
  5
D5
330
17
100
AcDbEntity
  8
UI-TEXT
100
AcDbCircle
 10
878.0
 20
-23.0
 30
0.0
 40
6.82
100
AcDbArc
 50
130.0
 51
55.0
  0
LWPOLYLINE
  5
D6
330
17
100
AcDbEntity
  8
UI-TEXT
100
AcDbPolyline
 90
3
 70
1
 10
878.9117912959141
 20
-16.413383057949076
 10
884.9117912959141
 20
-14.413383057949076
 10
882.9117912959141
 20
-20.413383057949076
  0
HATCH
  5
D7
330
17
100
AcDbEntity
  8
UI-RAISED
100
AcDbHatch
 10
0.0
 20
0.0
 30
0.0
210
0.0
220
0.0
230
1.0
  2
SOLID
 70
1
 71
0
 91
1
 92
3
 72
0
 73
1
 93
4
 10
1068.0
 20
-6.0
 10
1318.0
 20
-6.0
 10
1318.0
 20
-40.0
 10
1068.0
 20
-40.0
 97
0
 75
1
 76
1
 98
0
  0
LWPOLYLINE
  5
D8
330
17
100
AcDbEntity
  8
UI-HAIRLINE
100
AcDbPolyline
 90
4
 70
1
 10
1068.0
 20
-6.0
 10
1318.0
 20
-6.0
 10
1318.0
 20
-40.0
 10
1068.0
 20
-40.0
  0
TEXT
  5
D9
330
17
100
AcDbEntity
  8
UI-TEXT
100
AcDbText
 10
1080.0
 20
-23.0
 30
0.0
 40
15.0
  1
00:00:00.000
 11
1080.0
 21
-23.0
 31
0.0
100
AcDbText
 73
2
  0
TEXT
  5
DA
330
17
100
AcDbEntity
  8
UI-ACCENT
100
AcDbText
 10
1306.0
 20
-23.0
 30
0.0
 40
15.0
  1
1 . 1 . 1
 72
2
 11
1306.0
 21
-23.0
 31
0.0
100
AcDbText
 73
2
  0
HATCH
  5
DB
330
17
100
AcDbEntity
  8
UI-SHELL-BG
100
AcDbHatch
 10
0.0
 20
0.0
 30
0.0
210
0.0
220
0.0
230
1.0
  2
SOLID
 70
1
 71
0
 91
1
 92
3
 72
0
 73
1
 93
4
 10
0.0
 20
-46.0
 10
1600.0
 20
-46.0
 10
1600.0
 20
-976.0
 10
0.0
 20
-976.0
 97
0
 75
1
 76
1
 98
0
  0
HATCH
  5
DC
330
17
100
AcDbEntity
  8
UI-CLIP
 62
7
420
13135420
100
AcDbHatch
 10
0.0
 20
0.0
 30
0.0
210
0.0
220
0.0
230
1.0
  2
SOLID
 70
1
 71
0
 91
1
 92
3
 72
0
 73
1
 93
4
 10
6.0
 20
-46.0
 10
98.0
 20
-46.0
 10
98.0
 20
-51.0
 10
6.0
 20
-51.0
 97
0
 75
1
 76
1
 98
0
  0
HATCH
  5
DD
330
17
100
AcDbEntity
  8
UI-PANEL-BG
100
AcDbHatch
 10
0.0
 20
0.0
 30
0.0
210
0.0
220
0.0
230
1.0
  2
SOLID
 70
1
 71
0
 91
1
 92
3
 72
0
 73
1
 93
4
 10
6.0
 20
-51.0
 10
98.0
 20
-51.0
 10
98.0
 20
-71.0
 10
6.0
 20
-71.0
 97
0
 75
1
 76
1
 98
0
  0
TEXT
  5
DE
330
17
100
AcDbEntity
  8
UI-TEXT
100
AcDbText
 10
52.0
 20
-61.0
 30
0.0
 40
9.0
  1
Drums
 72
1
 11
52.0
 21
-61.0
 31
0.0
100
AcDbText
 73
2
  0
LINE
  5
DF
330
17
100
AcDbEntity
  8
UI-HAIRLINE
100
AcDbLine
 10
97.0
 20
-46.0
 30
0.0
 11
97.0
 21
-976.0
 31
0.0
  0
HATCH
  5
E0
330
17
100
AcDbEntity
  8
UI-RAISED
100
AcDbHatch
 10
0.0
 20
0.0
 30
0.0
210
0.0
220
0.0
230
1.0
  2
SOLID
 70
1
 71
0
 91
1
 92
1
 93
1
 72
2
 10
52.0
 20
-97.0
 40
18
 50
0
 51
360
 73
1
 97
0
 75
1
 76
1
 98
0
  0
CIRCLE
  5
E1
330
17
100
AcDbEntity
  8
UI-HAIRLINE
100
AcDbCircle
 10
52.0
 20
-97.0
 30
0.0
 40
18.0
  0
LINE
  5
E2
330
17
100
AcDbEntity
  8
UI-ACCENT
100
AcDbLine
 10
52.0
 20
-97.0
 30
0.0
 11
37.52276716054369
 21
-90.18753133495883
 31
0.0
  0
ARC
  5
E3
330
17
100
AcDbEntity
  8
UI-ACCENT
100
AcDbCircle
 10
52.0
 20
-97.0
 30
0.0
 40
21.0
100
AcDbArc
 50
154.8
 51
225.0
  0
TEXT
  5
E4
330
17
100
AcDbEntity
  8
UI-TEXT-SEC
100
AcDbText
 10
52.0
 20
-124.0
 30
0.0
 40
9.0
  1
pan
 72
1
 11
52.0
 21
-124.0
 31
0.0
100
AcDbText
 73
2
  0
HATCH
  5
E5
330
17
100
AcDbEntity
  8
UI-PANEL-BG
100
AcDbHatch
 10
0.0
 20
0.0
 30
0.0
210
0.0
220
0.0
230
1.0
  2
SOLID
 70
1
 71
0
 91
1
 92
3
 72
0
 73
1
 93
4
 10
8.0
 20
-123.0
 10
96.0
 20
-123.0
 10
96.0
 20
-138.0
 10
8.0
 20
-138.0
 97
0
 75
1
 76
1
 98
0
  0
LWPOLYLINE
  5
E6
330
17
100
AcDbEntity
  8
UI-HAIRLINE
100
AcDbPolyline
 90
4
 70
1
 10
8.0
 20
-123.0
 10
96.0
 20
-123.0
 10
96.0
 20
-138.0
 10
8.0
 20
-138.0
  0
CIRCLE
  5
E7
330
17
100
AcDbEntity
  8
UI-ACCENT
100
AcDbCircle
 10
14.0
 20
-130.5
 30
0.0
 40
3.0
  0
TEXT
  5
E8
330
17
100
AcDbEntity
  8
UI-TEXT
100
AcDbText
 10
22.0
 20
-130.5
 30
0.0
 40
8.0
  1
EQ Eight
 11
22.0
 21
-130.5
 31
0.0
100
AcDbText
 73
2
  0
LINE
  5
E9
330
17
100
AcDbEntity
  8
UI-TEXT-SEC
100
AcDbLine
 10
87.6
 20
-128.1
 30
0.0
 11
92.4
 21
-132.9
 31
0.0
  0
LINE
  5
EA
330
17
100
AcDbEntity
  8
UI-TEXT-SEC
100
AcDbLine
 10
87.6
 20
-132.9
 30
0.0
 11
92.4
 21
-128.1
 31
0.0
  0
HATCH
  5
EB
330
17
100
AcDbEntity
  8
UI-PANEL-BG
100
AcDbHatch
 10
0.0
 20
0.0
 30
0.0
210
0.0
220
0.0
230
1.0
  2
SOLID
 70
1
 71
0
 91
1
 92
3
 72
0
 73
1
 93
4
 10
8.0
 20
-139.0
 10
96.0
 20
-139.0
 10
96.0
 20
-154.0
 10
8.0
 20
-154.0
 97
0
 75
1
 76
1
 98
0
  0
LWPOLYLINE
  5
EC
330
17
100
AcDbEntity
  8
UI-HAIRLINE
100
AcDbPolyline
 90
4
 70
1
 10
8.0
 20
-139.0
 10
96.0
 20
-139.0
 10
96.0
 20
-154.0
 10
8.0
 20
-154.0
  0
CIRCLE
  5
ED
330
17
100
AcDbEntity
  8
UI-ACCENT
100
AcDbCircle
 10
14.0
 20
-146.5
 30
0.0
 40
3.0
  0
TEXT
  5
EE
330
17
100
AcDbEntity
  8
UI-TEXT
100
AcDbText
 10
22.0
 20
-146.5
 30
0.0
 40
8.0
  1
Comp
 11
22.0
 21
-146.5
 31
0.0
100
AcDbText
 73
2
  0
LINE
  5
EF
330
17
100
AcDbEntity
  8
UI-TEXT-SEC
100
AcDbLine
 10
87.6
 20
-144.1
 30
0.0
 11
92.4
 21
-148.9
 31
0.0
  0
LINE
  5
F0
330
17
100
AcDbEntity
  8
UI-TEXT-SEC
100
AcDbLine
 10
87.6
 20
-148.9
 30
0.0
 11
92.4
 21
-144.1
 31
0.0
  0
HATCH
  5
F1
330
17
100
AcDbEntity
  8
UI-PANEL-BG
100
AcDbHatch
 10
0.0
 20
0.0
 30
0.0
210
0.0
220
0.0
230
1.0
  2
SOLID
 70
1
 71
0
 91
1
 92
3
 72
0
 73
1
 93
4
 10
8.0
 20
-155.0
 10
96.0
 20
-155.0
 10
96.0
 20
-170.0
 10
8.0
 20
-170.0
 97
0
 75
1
 76
1
 98
0
  0
LWPOLYLINE
  5
F2
330
17
100
AcDbEntity
  8
UI-HAIRLINE
100
AcDbPolyline
 90
4
 70
1
 10
8.0
 20
-155.0
 10
96.0
 20
-155.0
 10
96.0
 20
-170.0
 10
8.0
 20
-170.0
  0
CIRCLE
  5
F3
330
17
100
AcDbEntity
  8
UI-TEXT-SEC
100
AcDbCircle
 10
14.0
 20
-162.5
 30
0.0
 40
3.0
  0
TEXT
  5
F4
330
17
100
AcDbEntity
  8
UI-TEXT-SEC
100
AcDbText
 10
22.0
 20
-162.5
 30
0.0
 40
8.0
  1
Glue
 11
22.0
 21
-162.5
 31
0.0
100
AcDbText
 73
2
  0
LINE
  5
F5
330
17
100
AcDbEntity
  8
UI-TEXT-SEC
100
AcDbLine
 10
87.6
 20
-160.1
 30
0.0
 11
92.4
 21
-164.9
 31
0.0
  0
LINE
  5
F6
330
17
100
AcDbEntity
  8
UI-TEXT-SEC
100
AcDbLine
 10
87.6
 20
-164.9
 30
0.0
 11
92.4
 21
-160.1
 31
0.0
  0
LINE
  5
F7
330
17
100
AcDbEntity
  8
UI-TEXT-SEC
100
AcDbLine
 10
22.0
 20
-162.5
 30
0.0
 11
84.0
 21
-162.5
 31
0.0
  0
HATCH
  5
F8
330
17
100
AcDbEntity
  8
UI-RAISED
100
AcDbHatch
 10
0.0
 20
0.0
 30
0.0
210
0.0
220
0.0
230
1.0
  2
SOLID
 70
1
 71
0
 91
1
 92
3
 72
0
 73
1
 93
4
 10
8.0
 20
-171.0
 10
96.0
 20
-171.0
 10
96.0
 20
-186.0
 10
8.0
 20
-186.0
 97
0
 75
1
 76
1
 98
0
  0
LWPOLYLINE
  5
F9
330
17
100
AcDbEntity
  8
UI-HAIRLINE
100
AcDbPolyline
 90
4
 70
1
 10
8.0
 20
-171.0
 10
96.0
 20
-171.0
 10
96.0
 20
-186.0
 10
8.0
 20
-186.0
  0
TEXT
  5
FA
330
17
100
AcDbEntity
  8
UI-ACCENT
100
AcDbText
 10
52.0
 20
-178.5
 30
0.0
 40
8.0
  1
+ insert
 72
1
 11
52.0
 21
-178.5
 31
0.0
100
AcDbText
 73
2
  0
HATCH
  5
FB
330
17
100
AcDbEntity
  8
UI-PANEL-BG
100
AcDbHatch
 10
0.0
 20
0.0
 30
0.0
210
0.0
220
0.0
230
1.0
  2
SOLID
 70
1
 71
0
 91
1
 92
3
 72
0
 73
1
 93
4
 10
12.0
 20
-193.0
 10
20.0
 20
-193.0
 10
20.0
 20
-946.0
 10
12.0
 20
-946.0
 97
0
 75
1
 76
1
 98
0
  0
LWPOLYLINE
  5
FC
330
17
100
AcDbEntity
  8
UI-HAIRLINE
100
AcDbPolyline
 90
4
 70
1
 10
12.0
 20
-193.0
 10
20.0
 20
-193.0
 10
20.0
 20
-946.0
 10
12.0
 20
-946.0
  0
HATCH
  5
FD
330
17
100
AcDbEntity
  8
UI-METER
 62
7
420
5744995
100
AcDbHatch
 10
0.0
 20
0.0
 30
0.0
210
0.0
220
0.0
230
1.0
  2
SOLID
 70
1
 71
0
 91
1
 92
3
 72
0
 73
1
 93
4
 10
13.0
 20
-720.1
 10
19.0
 20
-720.1
 10
19.0
 20
-946.0
 10
13.0
 20
-946.0
 97
0
 75
1
 76
1
 98
0
  0
LINE
  5
FE
330
17
100
AcDbEntity
  8
UI-ACCENT
100
AcDbLine
 10
12.0
 20
-569.5
 30
0.0
 11
20.0
 21
-569.5
 31
0.0
  0
TEXT
  5
FF
330
17
100
AcDbEntity
  8
UI-TEXT-SEC
100
AcDbText
 10
22.0
 20
-193.0
 30
0.0
 40
7.0
  1
+6
 11
22.0
 21
-193.0
 31
0.0
100
AcDbText
 73
2
  0
TEXT
  5
100
330
17
100
AcDbEntity
  8
UI-TEXT-SEC
100
AcDbText
 10
22.0
 20
-321.01
 30
0.0
 40
7.0
  1
0
 11
22.0
 21
-321.01
 31
0.0
100
AcDbText
 73
2
  0
TEXT
  5
101
330
17
100
AcDbEntity
  8
UI-TEXT-SEC
100
AcDbText
 10
22.0
 20
-569.5
 30
0.0
 40
7.0
  1
-12
 11
22.0
 21
-569.5
 31
0.0
100
AcDbText
 73
2
  0
TEXT
  5
102
330
17
100
AcDbEntity
  8
UI-TEXT-SEC
100
AcDbText
 10
22.0
 20
-825.52
 30
0.0
 40
7.0
  1
-36
 11
22.0
 21
-825.52
 31
0.0
100
AcDbText
 73
2
  0
LINE
  5
103
330
17
100
AcDbEntity
  8
UI-HAIRLINE
100
AcDbLine
 10
78.0
 20
-199.0
 30
0.0
 11
78.0
 21
-922.0
 31
0.0
  0
LINE
  5
104
330
17
100
AcDbEntity
  8
UI-HAIRLINE
100
AcDbLine
 10
82.0
 20
-922.0
 30
0.0
 11
85.0
 21
-922.0
 31
0.0
  0
LINE
  5
105
330
17
100
AcDbEntity
  8
UI-HAIRLINE
100
AcDbLine
 10
82.0
 20
-741.25
 30
0.0
 11
85.0
 21
-741.25
 31
0.0
  0
LINE
  5
106
330
17
100
AcDbEntity
  8
UI-HAIRLINE
100
AcDbLine
 10
82.0
 20
-560.5
 30
0.0
 11
85.0
 21
-560.5
 31
0.0
  0
LINE
  5
107
330
17
100
AcDbEntity
  8
UI-HAIRLINE
100
AcDbLine
 10
82.0
 20
-379.75
 30
0.0
 11
85.0
 21
-379.75
 31
0.0
  0
LINE
  5
108
330
17
100
AcDbEntity
  8
UI-HAIRLINE
100
AcDbLine
 10
82.0
 20
-199.0
 30
0.0
 11
85.0
 21
-199.0
 31
0.0
  0
HATCH
  5
109
330
17
100
AcDbEntity
  8
UI-RAISED
100
AcDbHatch
 10
0.0
 20
0.0
 30
0.0
210
0.0
220
0.0
230
1.0
  2
SOLID
 70
1
 71
0
 91
1
 92
3
 72
0
 73
1
 93
4
 10
70.0
 20
-481.2
 10
86.0
 20
-481.2
 10
86.0
 20
-495.2
 10
70.0
 20
-495.2
 97
0
 75
1
 76
1
 98
0
  0
LWPOLYLINE
  5
10A
330
17
100
AcDbEntity
  8
UI-ACCENT
100
AcDbPolyline
 90
4
 70
1
 10
70.0
 20
-481.2
 10
86.0
 20
-481.2
 10
86.0
 20
-495.2
 10
70.0
 20
-495.2
  0
LINE
  5
10B
330
17
100
AcDbEntity
  8
UI-ACCENT
100
AcDbLine
 10
71.0
 20
-488.2
 30
0.0
 11
85.0
 21
-488.2
 31
0.0
  0
HATCH
  5
10C
330
17
100
AcDbEntity
  8
UI-RAISED
100
AcDbHatch
 10
0.0
 20
0.0
 30
0.0
210
0.0
220
0.0
230
1.0
  2
SOLID
 70
1
 71
0
 91
1
 92
3
 72
0
 73
1
 93
4
 10
12.0
 20
-930.0
 10
92.0
 20
-930.0
 10
92.0
 20
-946.0
 10
12.0
 20
-946.0
 97
0
 75
1
 76
1
 98
0
  0
LWPOLYLINE
  5
10D
330
17
100
AcDbEntity
  8
UI-HAIRLINE
100
AcDbPolyline
 90
4
 70
1
 10
12.0
 20
-930.0
 10
92.0
 20
-930.0
 10
92.0
 20
-946.0
 10
12.0
 20
-946.0
  0
TEXT
  5
10E
330
17
100
AcDbEntity
  8
UI-TEXT
100
AcDbText
 10
52.0
 20
-938.0
 30
0.0
 40
8.0
  1
-8.3 dB
 72
1
 11
52.0
 21
-938.0
 31
0.0
100
AcDbText
 73
2
  0
HATCH
  5
10F
330
17
100
AcDbEntity
  8
UI-RAISED
100
AcDbHatch
 10
0.0
 20
0.0
 30
0.0
210
0.0
220
0.0
230
1.0
  2
SOLID
 70
1
 71
0
 91
1
 92
3
 72
0
 73
1
 93
4
 10
12.0
 20
-948.0
 10
50.0
 20
-948.0
 10
50.0
 20
-970.0
 10
12.0
 20
-970.0
 97
0
 75
1
 76
1
 98
0
  0
LWPOLYLINE
  5
110
330
17
100
AcDbEntity
  8
UI-HAIRLINE
100
AcDbPolyline
 90
4
 70
1
 10
12.0
 20
-948.0
 10
50.0
 20
-948.0
 10
50.0
 20
-970.0
 10
12.0
 20
-970.0
  0
TEXT
  5
111
330
17
100
AcDbEntity
  8
UI-TEXT
100
AcDbText
 10
31.0
 20
-959.0
 30
0.0
 40
9.0
  1
M
 72
1
 11
31.0
 21
-959.0
 31
0.0
100
AcDbText
 73
2
  0
HATCH
  5
112
330
17
100
AcDbEntity
  8
UI-RAISED
100
AcDbHatch
 10
0.0
 20
0.0
 30
0.0
210
0.0
220
0.0
230
1.0
  2
SOLID
 70
1
 71
0
 91
1
 92
3
 72
0
 73
1
 93
4
 10
54.0
 20
-948.0
 10
92.0
 20
-948.0
 10
92.0
 20
-970.0
 10
54.0
 20
-970.0
 97
0
 75
1
 76
1
 98
0
  0
LWPOLYLINE
  5
113
330
17
100
AcDbEntity
  8
UI-HAIRLINE
100
AcDbPolyline
 90
4
 70
1
 10
54.0
 20
-948.0
 10
92.0
 20
-948.0
 10
92.0
 20
-970.0
 10
54.0
 20
-970.0
  0
TEXT
  5
114
330
17
100
AcDbEntity
  8
UI-TEXT
100
AcDbText
 10
73.0
 20
-959.0
 30
0.0
 40
9.0
  1
S
 72
1
 11
73.0
 21
-959.0
 31
0.0
100
AcDbText
 73
2
  0
HATCH
  5
115
330
17
100
AcDbEntity
  8
UI-CLIP
 62
7
420
5151398
100
AcDbHatch
 10
0.0
 20
0.0
 30
0.0
210
0.0
220
0.0
230
1.0
  2
SOLID
 70
1
 71
0
 91
1
 92
3
 72
0
 73
1
 93
4
 10
98.0
 20
-46.0
 10
190.0
 20
-46.0
 10
190.0
 20
-51.0
 10
98.0
 20
-51.0
 97
0
 75
1
 76
1
 98
0
  0
HATCH
  5
116
330
17
100
AcDbEntity
  8
UI-PANEL-BG
100
AcDbHatch
 10
0.0
 20
0.0
 30
0.0
210
0.0
220
0.0
230
1.0
  2
SOLID
 70
1
 71
0
 91
1
 92
3
 72
0
 73
1
 93
4
 10
98.0
 20
-51.0
 10
190.0
 20
-51.0
 10
190.0
 20
-71.0
 10
98.0
 20
-71.0
 97
0
 75
1
 76
1
 98
0
  0
TEXT
  5
117
330
17
100
AcDbEntity
  8
UI-TEXT
100
AcDbText
 10
144.0
 20
-61.0
 30
0.0
 40
9.0
  1
Bass
 72
1
 11
144.0
 21
-61.0
 31
0.0
100
AcDbText
 73
2
  0
LINE
  5
118
330
17
100
AcDbEntity
  8
UI-HAIRLINE
100
AcDbLine
 10
189.0
 20
-46.0
 30
0.0
 11
189.0
 21
-976.0
 31
0.0
  0
HATCH
  5
119
330
17
100
AcDbEntity
  8
UI-RAISED
100
AcDbHatch
 10
0.0
 20
0.0
 30
0.0
210
0.0
220
0.0
230
1.0
  2
SOLID
 70
1
 71
0
 91
1
 92
1
 93
1
 72
2
 10
144.0
 20
-97.0
 40
18
 50
0
 51
360
 73
1
 97
0
 75
1
 76
1
 98
0
  0
CIRCLE
  5
11A
330
17
100
AcDbEntity
  8
UI-HAIRLINE
100
AcDbCircle
 10
144.0
 20
-97.0
 30
0.0
 40
18.0
  0
LINE
  5
11B
330
17
100
AcDbEntity
  8
UI-ACCENT
100
AcDbLine
 10
144.0
 20
-97.0
 30
0.0
 11
133.047246305141
 21
-85.33650196125741
 31
0.0
  0
ARC
  5
11C
330
17
100
AcDbEntity
  8
UI-ACCENT
100
AcDbCircle
 10
144.0
 20
-97.0
 30
0.0
 40
21.0
100
AcDbArc
 50
133.20000000000002
 51
225.0
  0
TEXT
  5
11D
330
17
100
AcDbEntity
  8
UI-TEXT-SEC
100
AcDbText
 10
144.0
 20
-124.0
 30
0.0
 40
9.0
  1
pan
 72
1
 11
144.0
 21
-124.0
 31
0.0
100
AcDbText
 73
2
  0
HATCH
  5
11E
330
17
100
AcDbEntity
  8
UI-PANEL-BG
100
AcDbHatch
 10
0.0
 20
0.0
 30
0.0
210
0.0
220
0.0
230
1.0
  2
SOLID
 70
1
 71
0
 91
1
 92
3
 72
0
 73
1
 93
4
 10
100.0
 20
-123.0
 10
188.0
 20
-123.0
 10
188.0
 20
-138.0
 10
100.0
 20
-138.0
 97
0
 75
1
 76
1
 98
0
  0
LWPOLYLINE
  5
11F
330
17
100
AcDbEntity
  8
UI-HAIRLINE
100
AcDbPolyline
 90
4
 70
1
 10
100.0
 20
-123.0
 10
188.0
 20
-123.0
 10
188.0
 20
-138.0
 10
100.0
 20
-138.0
  0
CIRCLE
  5
120
330
17
100
AcDbEntity
  8
UI-ACCENT
100
AcDbCircle
 10
106.0
 20
-130.5
 30
0.0
 40
3.0
  0
TEXT
  5
121
330
17
100
AcDbEntity
  8
UI-TEXT
100
AcDbText
 10
114.0
 20
-130.5
 30
0.0
 40
8.0
  1
EQ Eight
 11
114.0
 21
-130.5
 31
0.0
100
AcDbText
 73
2
  0
LINE
  5
122
330
17
100
AcDbEntity
  8
UI-TEXT-SEC
100
AcDbLine
 10
179.6
 20
-128.1
 30
0.0
 11
184.4
 21
-132.9
 31
0.0
  0
LINE
  5
123
330
17
100
AcDbEntity
  8
UI-TEXT-SEC
100
AcDbLine
 10
179.6
 20
-132.9
 30
0.0
 11
184.4
 21
-128.1
 31
0.0
  0
HATCH
  5
124
330
17
100
AcDbEntity
  8
UI-PANEL-BG
100
AcDbHatch
 10
0.0
 20
0.0
 30
0.0
210
0.0
220
0.0
230
1.0
  2
SOLID
 70
1
 71
0
 91
1
 92
3
 72
0
 73
1
 93
4
 10
100.0
 20
-139.0
 10
188.0
 20
-139.0
 10
188.0
 20
-154.0
 10
100.0
 20
-154.0
 97
0
 75
1
 76
1
 98
0
  0
LWPOLYLINE
  5
125
330
17
100
AcDbEntity
  8
UI-HAIRLINE
100
AcDbPolyline
 90
4
 70
1
 10
100.0
 20
-139.0
 10
188.0
 20
-139.0
 10
188.0
 20
-154.0
 10
100.0
 20
-154.0
  0
CIRCLE
  5
126
330
17
100
AcDbEntity
  8
UI-ACCENT
100
AcDbCircle
 10
106.0
 20
-146.5
 30
0.0
 40
3.0
  0
TEXT
  5
127
330
17
100
AcDbEntity
  8
UI-TEXT
100
AcDbText
 10
114.0
 20
-146.5
 30
0.0
 40
8.0
  1
Saturator
 11
114.0
 21
-146.5
 31
0.0
100
AcDbText
 73
2
  0
LINE
  5
128
330
17
100
AcDbEntity
  8
UI-TEXT-SEC
100
AcDbLine
 10
179.6
 20
-144.1
 30
0.0
 11
184.4
 21
-148.9
 31
0.0
  0
LINE
  5
129
330
17
100
AcDbEntity
  8
UI-TEXT-SEC
100
AcDbLine
 10
179.6
 20
-148.9
 30
0.0
 11
184.4
 21
-144.1
 31
0.0
  0
HATCH
  5
12A
330
17
100
AcDbEntity
  8
UI-RAISED
100
AcDbHatch
 10
0.0
 20
0.0
 30
0.0
210
0.0
220
0.0
230
1.0
  2
SOLID
 70
1
 71
0
 91
1
 92
3
 72
0
 73
1
 93
4
 10
100.0
 20
-155.0
 10
188.0
 20
-155.0
 10
188.0
 20
-170.0
 10
100.0
 20
-170.0
 97
0
 75
1
 76
1
 98
0
  0
LWPOLYLINE
  5
12B
330
17
100
AcDbEntity
  8
UI-HAIRLINE
100
AcDbPolyline
 90
4
 70
1
 10
100.0
 20
-155.0
 10
188.0
 20
-155.0
 10
188.0
 20
-170.0
 10
100.0
 20
-170.0
  0
TEXT
  5
12C
330
17
100
AcDbEntity
  8
UI-ACCENT
100
AcDbText
 10
144.0
 20
-162.5
 30
0.0
 40
8.0
  1
+ insert
 72
1
 11
144.0
 21
-162.5
 31
0.0
100
AcDbText
 73
2
  0
HATCH
  5
12D
330
17
100
AcDbEntity
  8
UI-PANEL-BG
100
AcDbHatch
 10
0.0
 20
0.0
 30
0.0
210
0.0
220
0.0
230
1.0
  2
SOLID
 70
1
 71
0
 91
1
 92
3
 72
0
 73
1
 93
4
 10
104.0
 20
-177.0
 10
112.0
 20
-177.0
 10
112.0
 20
-946.0
 10
104.0
 20
-946.0
 97
0
 75
1
 76
1
 98
0
  0
LWPOLYLINE
  5
12E
330
17
100
AcDbEntity
  8
UI-HAIRLINE
100
AcDbPolyline
 90
4
 70
1
 10
104.0
 20
-177.0
 10
112.0
 20
-177.0
 10
112.0
 20
-946.0
 10
104.0
 20
-946.0
  0
HATCH
  5
12F
330
17
100
AcDbEntity
  8
UI-METER
 62
7
420
5744995
100
AcDbHatch
 10
0.0
 20
0.0
 30
0.0
210
0.0
220
0.0
230
1.0
  2
SOLID
 70
1
 71
0
 91
1
 92
3
 72
0
 73
1
 93
4
 10
105.0
 20
-623.02
 10
111.0
 20
-623.02
 10
111.0
 20
-946.0
 10
105.0
 20
-946.0
 97
0
 75
1
 76
1
 98
0
  0
LINE
  5
130
330
17
100
AcDbEntity
  8
UI-ACCENT
100
AcDbLine
 10
104.0
 20
-499.98
 30
0.0
 11
112.0
 21
-499.98
 31
0.0
  0
TEXT
  5
131
330
17
100
AcDbEntity
  8
UI-TEXT-SEC
100
AcDbText
 10
114.0
 20
-177.0
 30
0.0
 40
7.0
  1
+6
 11
114.0
 21
-177.0
 31
0.0
100
AcDbText
 73
2
  0
TEXT
  5
132
330
17
100
AcDbEntity
  8
UI-TEXT-SEC
100
AcDbText
 10
114.0
 20
-307.73
 30
0.0
 40
7.0
  1
0
 11
114.0
 21
-307.73
 31
0.0
100
AcDbText
 73
2
  0
TEXT
  5
133
330
17
100
AcDbEntity
  8
UI-TEXT-SEC
100
AcDbText
 10
114.0
 20
-561.5
 30
0.0
 40
7.0
  1
-12
 11
114.0
 21
-561.5
 31
0.0
100
AcDbText
 73
2
  0
TEXT
  5
134
330
17
100
AcDbEntity
  8
UI-TEXT-SEC
100
AcDbText
 10
114.0
 20
-822.9599999999999
 30
0.0
 40
7.0
  1
-36
 11
114.0
 21
-822.9599999999999
 31
0.0
100
AcDbText
 73
2
  0
LINE
  5
135
330
17
100
AcDbEntity
  8
UI-HAIRLINE
100
AcDbLine
 10
170.0
 20
-183.0
 30
0.0
 11
170.0
 21
-922.0
 31
0.0
  0
LINE
  5
136
330
17
100
AcDbEntity
  8
UI-HAIRLINE
100
AcDbLine
 10
174.0
 20
-922.0
 30
0.0
 11
177.0
 21
-922.0
 31
0.0
  0
LINE
  5
137
330
17
100
AcDbEntity
  8
UI-HAIRLINE
100
AcDbLine
 10
174.0
 20
-737.25
 30
0.0
 11
177.0
 21
-737.25
 31
0.0
  0
LINE
  5
138
330
17
100
AcDbEntity
  8
UI-HAIRLINE
100
AcDbLine
 10
174.0
 20
-552.5
 30
0.0
 11
177.0
 21
-552.5
 31
0.0
  0
LINE
  5
139
330
17
100
AcDbEntity
  8
UI-HAIRLINE
100
AcDbLine
 10
174.0
 20
-367.75
 30
0.0
 11
177.0
 21
-367.75
 31
0.0
  0
LINE
  5
13A
330
17
100
AcDbEntity
  8
UI-HAIRLINE
100
AcDbLine
 10
174.0
 20
-183.0
 30
0.0
 11
177.0
 21
-183.0
 31
0.0
  0
HATCH
  5
13B
330
17
100
AcDbEntity
  8
UI-RAISED
100
AcDbHatch
 10
0.0
 20
0.0
 30
0.0
210
0.0
220
0.0
230
1.0
  2
SOLID
 70
1
 71
0
 91
1
 92
3
 72
0
 73
1
 93
4
 10
162.0
 20
-434.65
 10
178.0
 20
-434.65
 10
178.0
 20
-448.65
 10
162.0
 20
-448.65
 97
0
 75
1
 76
1
 98
0
  0
LWPOLYLINE
  5
13C
330
17
100
AcDbEntity
  8
UI-ACCENT
100
AcDbPolyline
 90
4
 70
1
 10
162.0
 20
-434.65
 10
178.0
 20
-434.65
 10
178.0
 20
-448.65
 10
162.0
 20
-448.65
  0
LINE
  5
13D
330
17
100
AcDbEntity
  8
UI-ACCENT
100
AcDbLine
 10
163.0
 20
-441.65
 30
0.0
 11
177.0
 21
-441.65
 31
0.0
  0
HATCH
  5
13E
330
17
100
AcDbEntity
  8
UI-RAISED
100
AcDbHatch
 10
0.0
 20
0.0
 30
0.0
210
0.0
220
0.0
230
1.0
  2
SOLID
 70
1
 71
0
 91
1
 92
3
 72
0
 73
1
 93
4
 10
104.0
 20
-930.0
 10
184.0
 20
-930.0
 10
184.0
 20
-946.0
 10
104.0
 20
-946.0
 97
0
 75
1
 76
1
 98
0
  0
LWPOLYLINE
  5
13F
330
17
100
AcDbEntity
  8
UI-HAIRLINE
100
AcDbPolyline
 90
4
 70
1
 10
104.0
 20
-930.0
 10
184.0
 20
-930.0
 10
184.0
 20
-946.0
 10
104.0
 20
-946.0
  0
TEXT
  5
140
330
17
100
AcDbEntity
  8
UI-TEXT
100
AcDbText
 10
144.0
 20
-938.0
 30
0.0
 40
8.0
  1
-6.5 dB
 72
1
 11
144.0
 21
-938.0
 31
0.0
100
AcDbText
 73
2
  0
HATCH
  5
141
330
17
100
AcDbEntity
  8
UI-ACCENT
100
AcDbHatch
 10
0.0
 20
0.0
 30
0.0
210
0.0
220
0.0
230
1.0
  2
SOLID
 70
1
 71
0
 91
1
 92
3
 72
0
 73
1
 93
4
 10
104.0
 20
-948.0
 10
142.0
 20
-948.0
 10
142.0
 20
-970.0
 10
104.0
 20
-970.0
 97
0
 75
1
 76
1
 98
0
  0
LWPOLYLINE
  5
142
330
17
100
AcDbEntity
  8
UI-HAIRLINE
100
AcDbPolyline
 90
4
 70
1
 10
104.0
 20
-948.0
 10
142.0
 20
-948.0
 10
142.0
 20
-970.0
 10
104.0
 20
-970.0
  0
TEXT
  5
143
330
17
100
AcDbEntity
  8
UI-TEXT
420
2364928
100
AcDbText
 10
123.0
 20
-959.0
 30
0.0
 40
9.0
  1
M
 72
1
 11
123.0
 21
-959.0
 31
0.0
100
AcDbText
 73
2
  0
HATCH
  5
144
330
17
100
AcDbEntity
  8
UI-RAISED
100
AcDbHatch
 10
0.0
 20
0.0
 30
0.0
210
0.0
220
0.0
230
1.0
  2
SOLID
 70
1
 71
0
 91
1
 92
3
 72
0
 73
1
 93
4
 10
146.0
 20
-948.0
 10
184.0
 20
-948.0
 10
184.0
 20
-970.0
 10
146.0
 20
-970.0
 97
0
 75
1
 76
1
 98
0
  0
LWPOLYLINE
  5
145
330
17
100
AcDbEntity
  8
UI-HAIRLINE
100
AcDbPolyline
 90
4
 70
1
 10
146.0
 20
-948.0
 10
184.0
 20
-948.0
 10
184.0
 20
-970.0
 10
146.0
 20
-970.0
  0
TEXT
  5
146
330
17
100
AcDbEntity
  8
UI-TEXT
100
AcDbText
 10
165.0
 20
-959.0
 30
0.0
 40
9.0
  1
S
 72
1
 11
165.0
 21
-959.0
 31
0.0
100
AcDbText
 73
2
  0
HATCH
  5
147
330
17
100
AcDbEntity
  8
UI-CLIP
 62
7
420
10121136
100
AcDbHatch
 10
0.0
 20
0.0
 30
0.0
210
0.0
220
0.0
230
1.0
  2
SOLID
 70
1
 71
0
 91
1
 92
3
 72
0
 73
1
 93
4
 10
190.0
 20
-46.0
 10
282.0
 20
-46.0
 10
282.0
 20
-51.0
 10
190.0
 20
-51.0
 97
0
 75
1
 76
1
 98
0
  0
HATCH
  5
148
330
17
100
AcDbEntity
  8
UI-PANEL-BG
100
AcDbHatch
 10
0.0
 20
0.0
 30
0.0
210
0.0
220
0.0
230
1.0
  2
SOLID
 70
1
 71
0
 91
1
 92
3
 72
0
 73
1
 93
4
 10
190.0
 20
-51.0
 10
282.0
 20
-51.0
 10
282.0
 20
-71.0
 10
190.0
 20
-71.0
 97
0
 75
1
 76
1
 98
0
  0
TEXT
  5
149
330
17
100
AcDbEntity
  8
UI-TEXT
100
AcDbText
 10
236.0
 20
-61.0
 30
0.0
 40
9.0
  1
Keys
 72
1
 11
236.0
 21
-61.0
 31
0.0
100
AcDbText
 73
2
  0
LINE
  5
14A
330
17
100
AcDbEntity
  8
UI-HAIRLINE
100
AcDbLine
 10
281.0
 20
-46.0
 30
0.0
 11
281.0
 21
-976.0
 31
0.0
  0
HATCH
  5
14B
330
17
100
AcDbEntity
  8
UI-RAISED
100
AcDbHatch
 10
0.0
 20
0.0
 30
0.0
210
0.0
220
0.0
230
1.0
  2
SOLID
 70
1
 71
0
 91
1
 92
1
 93
1
 72
2
 10
236.0
 20
-97.0
 40
18
 50
0
 51
360
 73
1
 97
0
 75
1
 76
1
 98
0
  0
CIRCLE
  5
14C
330
17
100
AcDbEntity
  8
UI-HAIRLINE
100
AcDbCircle
 10
236.0
 20
-97.0
 30
0.0
 40
18.0
  0
LINE
  5
14D
330
17
100
AcDbEntity
  8
UI-ACCENT
100
AcDbLine
 10
236.0
 20
-97.0
 30
0.0
 11
230.11000715704515
 21
-82.12357622578799
 31
0.0
  0
ARC
  5
14E
330
17
100
AcDbEntity
  8
UI-ACCENT
100
AcDbCircle
 10
236.0
 20
-97.0
 30
0.0
 40
21.0
100
AcDbArc
 50
111.60000000000001
 51
225.0
  0
TEXT
  5
14F
330
17
100
AcDbEntity
  8
UI-TEXT-SEC
100
AcDbText
 10
236.0
 20
-124.0
 30
0.0
 40
9.0
  1
pan
 72
1
 11
236.0
 21
-124.0
 31
0.0
100
AcDbText
 73
2
  0
HATCH
  5
150
330
17
100
AcDbEntity
  8
UI-PANEL-BG
100
AcDbHatch
 10
0.0
 20
0.0
 30
0.0
210
0.0
220
0.0
230
1.0
  2
SOLID
 70
1
 71
0
 91
1
 92
3
 72
0
 73
1
 93
4
 10
192.0
 20
-123.0
 10
280.0
 20
-123.0
 10
280.0
 20
-138.0
 10
192.0
 20
-138.0
 97
0
 75
1
 76
1
 98
0
  0
LWPOLYLINE
  5
151
330
17
100
AcDbEntity
  8
UI-HAIRLINE
100
AcDbPolyline
 90
4
 70
1
 10
192.0
 20
-123.0
 10
280.0
 20
-123.0
 10
280.0
 20
-138.0
 10
192.0
 20
-138.0
  0
CIRCLE
  5
152
330
17
100
AcDbEntity
  8
UI-ACCENT
100
AcDbCircle
 10
198.0
 20
-130.5
 30
0.0
 40
3.0
  0
TEXT
  5
153
330
17
100
AcDbEntity
  8
UI-TEXT
100
AcDbText
 10
206.0
 20
-130.5
 30
0.0
 40
8.0
  1
4OSC
 11
206.0
 21
-130.5
 31
0.0
100
AcDbText
 73
2
  0
LINE
  5
154
330
17
100
AcDbEntity
  8
UI-TEXT-SEC
100
AcDbLine
 10
271.6
 20
-128.1
 30
0.0
 11
276.4
 21
-132.9
 31
0.0
  0
LINE
  5
155
330
17
100
AcDbEntity
  8
UI-TEXT-SEC
100
AcDbLine
 10
271.6
 20
-132.9
 30
0.0
 11
276.4
 21
-128.1
 31
0.0
  0
HATCH
  5
156
330
17
100
AcDbEntity
  8
UI-PANEL-BG
100
AcDbHatch
 10
0.0
 20
0.0
 30
0.0
210
0.0
220
0.0
230
1.0
  2
SOLID
 70
1
 71
0
 91
1
 92
3
 72
0
 73
1
 93
4
 10
192.0
 20
-139.0
 10
280.0
 20
-139.0
 10
280.0
 20
-154.0
 10
192.0
 20
-154.0
 97
0
 75
1
 76
1
 98
0
  0
LWPOLYLINE
  5
157
330
17
100
AcDbEntity
  8
UI-HAIRLINE
100
AcDbPolyline
 90
4
 70
1
 10
192.0
 20
-139.0
 10
280.0
 20
-139.0
 10
280.0
 20
-154.0
 10
192.0
 20
-154.0
  0
CIRCLE
  5
158
330
17
100
AcDbEntity
  8
UI-ACCENT
100
AcDbCircle
 10
198.0
 20
-146.5
 30
0.0
 40
3.0
  0
TEXT
  5
159
330
17
100
AcDbEntity
  8
UI-TEXT
100
AcDbText
 10
206.0
 20
-146.5
 30
0.0
 40
8.0
  1
Reverb
 11
206.0
 21
-146.5
 31
0.0
100
AcDbText
 73
2
  0
LINE
  5
15A
330
17
100
AcDbEntity
  8
UI-TEXT-SEC
100
AcDbLine
 10
271.6
 20
-144.1
 30
0.0
 11
276.4
 21
-148.9
 31
0.0
  0
LINE
  5
15B
330
17
100
AcDbEntity
  8
UI-TEXT-SEC
100
AcDbLine
 10
271.6
 20
-148.9
 30
0.0
 11
276.4
 21
-144.1
 31
0.0
  0
HATCH
  5
15C
330
17
100
AcDbEntity
  8
UI-RAISED
100
AcDbHatch
 10
0.0
 20
0.0
 30
0.0
210
0.0
220
0.0
230
1.0
  2
SOLID
 70
1
 71
0
 91
1
 92
3
 72
0
 73
1
 93
4
 10
192.0
 20
-155.0
 10
280.0
 20
-155.0
 10
280.0
 20
-170.0
 10
192.0
 20
-170.0
 97
0
 75
1
 76
1
 98
0
  0
LWPOLYLINE
  5
15D
330
17
100
AcDbEntity
  8
UI-HAIRLINE
100
AcDbPolyline
 90
4
 70
1
 10
192.0
 20
-155.0
 10
280.0
 20
-155.0
 10
280.0
 20
-170.0
 10
192.0
 20
-170.0
  0
TEXT
  5
15E
330
17
100
AcDbEntity
  8
UI-ACCENT
100
AcDbText
 10
236.0
 20
-162.5
 30
0.0
 40
8.0
  1
+ insert
 72
1
 11
236.0
 21
-162.5
 31
0.0
100
AcDbText
 73
2
  0
HATCH
  5
15F
330
17
100
AcDbEntity
  8
UI-PANEL-BG
100
AcDbHatch
 10
0.0
 20
0.0
 30
0.0
210
0.0
220
0.0
230
1.0
  2
SOLID
 70
1
 71
0
 91
1
 92
3
 72
0
 73
1
 93
4
 10
196.0
 20
-177.0
 10
204.0
 20
-177.0
 10
204.0
 20
-946.0
 10
196.0
 20
-946.0
 97
0
 75
1
 76
1
 98
0
  0
LWPOLYLINE
  5
160
330
17
100
AcDbEntity
  8
UI-HAIRLINE
100
AcDbPolyline
 90
4
 70
1
 10
196.0
 20
-177.0
 10
204.0
 20
-177.0
 10
204.0
 20
-946.0
 10
196.0
 20
-946.0
  0
HATCH
  5
161
330
17
100
AcDbEntity
  8
UI-METER
 62
7
420
5744995
100
AcDbHatch
 10
0.0
 20
0.0
 30
0.0
210
0.0
220
0.0
230
1.0
  2
SOLID
 70
1
 71
0
 91
1
 92
3
 72
0
 73
1
 93
4
 10
197.0
 20
-530.74
 10
203.0
 20
-530.74
 10
203.0
 20
-946.0
 10
197.0
 20
-946.0
 97
0
 75
1
 76
1
 98
0
  0
LINE
  5
162
330
17
100
AcDbEntity
  8
UI-ACCENT
100
AcDbLine
 10
196.0
 20
-438.46
 30
0.0
 11
204.0
 21
-438.46
 31
0.0
  0
TEXT
  5
163
330
17
100
AcDbEntity
  8
UI-TEXT-SEC
100
AcDbText
 10
206.0
 20
-177.0
 30
0.0
 40
7.0
  1
+6
 11
206.0
 21
-177.0
 31
0.0
100
AcDbText
 73
2
  0
TEXT
  5
164
330
17
100
AcDbEntity
  8
UI-TEXT-SEC
100
AcDbText
 10
206.0
 20
-307.73
 30
0.0
 40
7.0
  1
0
 11
206.0
 21
-307.73
 31
0.0
100
AcDbText
 73
2
  0
TEXT
  5
165
330
17
100
AcDbEntity
  8
UI-TEXT-SEC
100
AcDbText
 10
206.0
 20
-561.5
 30
0.0
 40
7.0
  1
-12
 11
206.0
 21
-561.5
 31
0.0
100
AcDbText
 73
2
  0
TEXT
  5
166
330
17
100
AcDbEntity
  8
UI-TEXT-SEC
100
AcDbText
 10
206.0
 20
-822.9599999999999
 30
0.0
 40
7.0
  1
-36
 11
206.0
 21
-822.9599999999999
 31
0.0
100
AcDbText
 73
2
  0
LINE
  5
167
330
17
100
AcDbEntity
  8
UI-HAIRLINE
100
AcDbLine
 10
262.0
 20
-183.0
 30
0.0
 11
262.0
 21
-922.0
 31
0.0
  0
LINE
  5
168
330
17
100
AcDbEntity
  8
UI-HAIRLINE
100
AcDbLine
 10
266.0
 20
-922.0
 30
0.0
 11
269.0
 21
-922.0
 31
0.0
  0
LINE
  5
169
330
17
100
AcDbEntity
  8
UI-HAIRLINE
100
AcDbLine
 10
266.0
 20
-737.25
 30
0.0
 11
269.0
 21
-737.25
 31
0.0
  0
LINE
  5
16A
330
17
100
AcDbEntity
  8
UI-HAIRLINE
100
AcDbLine
 10
266.0
 20
-552.5
 30
0.0
 11
269.0
 21
-552.5
 31
0.0
  0
LINE
  5
16B
330
17
100
AcDbEntity
  8
UI-HAIRLINE
100
AcDbLine
 10
266.0
 20
-367.75
 30
0.0
 11
269.0
 21
-367.75
 31
0.0
  0
LINE
  5
16C
330
17
100
AcDbEntity
  8
UI-HAIRLINE
100
AcDbLine
 10
266.0
 20
-183.0
 30
0.0
 11
269.0
 21
-183.0
 31
0.0
  0
HATCH
  5
16D
330
17
100
AcDbEntity
  8
UI-RAISED
100
AcDbHatch
 10
0.0
 20
0.0
 30
0.0
210
0.0
220
0.0
230
1.0
  2
SOLID
 70
1
 71
0
 91
1
 92
3
 72
0
 73
1
 93
4
 10
254.0
 20
-397.70000000000005
 10
270.0
 20
-397.70000000000005
 10
270.0
 20
-411.70000000000005
 10
254.0
 20
-411.70000000000005
 97
0
 75
1
 76
1
 98
0
  0
LWPOLYLINE
  5
16E
330
17
100
AcDbEntity
  8
UI-ACCENT
100
AcDbPolyline
 90
4
 70
1
 10
254.0
 20
-397.70000000000005
 10
270.0
 20
-397.70000000000005
 10
270.0
 20
-411.70000000000005
 10
254.0
 20
-411.70000000000005
  0
LINE
  5
16F
330
17
100
AcDbEntity
  8
UI-ACCENT
100
AcDbLine
 10
255.0
 20
-404.70000000000005
 30
0.0
 11
269.0
 21
-404.70000000000005
 31
0.0
  0
HATCH
  5
170
330
17
100
AcDbEntity
  8
UI-RAISED
100
AcDbHatch
 10
0.0
 20
0.0
 30
0.0
210
0.0
220
0.0
230
1.0
  2
SOLID
 70
1
 71
0
 91
1
 92
3
 72
0
 73
1
 93
4
 10
196.0
 20
-930.0
 10
276.0
 20
-930.0
 10
276.0
 20
-946.0
 10
196.0
 20
-946.0
 97
0
 75
1
 76
1
 98
0
  0
LWPOLYLINE
  5
171
330
17
100
AcDbEntity
  8
UI-HAIRLINE
100
AcDbPolyline
 90
4
 70
1
 10
196.0
 20
-930.0
 10
276.0
 20
-930.0
 10
276.0
 20
-946.0
 10
196.0
 20
-946.0
  0
TEXT
  5
172
330
17
100
AcDbEntity
  8
UI-TEXT
100
AcDbText
 10
236.0
 20
-938.0
 30
0.0
 40
8.0
  1
-4.7 dB
 72
1
 11
236.0
 21
-938.0
 31
0.0
100
AcDbText
 73
2
  0
HATCH
  5
173
330
17
100
AcDbEntity
  8
UI-RAISED
100
AcDbHatch
 10
0.0
 20
0.0
 30
0.0
210
0.0
220
0.0
230
1.0
  2
SOLID
 70
1
 71
0
 91
1
 92
3
 72
0
 73
1
 93
4
 10
196.0
 20
-948.0
 10
234.0
 20
-948.0
 10
234.0
 20
-970.0
 10
196.0
 20
-970.0
 97
0
 75
1
 76
1
 98
0
  0
LWPOLYLINE
  5
174
330
17
100
AcDbEntity
  8
UI-HAIRLINE
100
AcDbPolyline
 90
4
 70
1
 10
196.0
 20
-948.0
 10
234.0
 20
-948.0
 10
234.0
 20
-970.0
 10
196.0
 20
-970.0
  0
TEXT
  5
175
330
17
100
AcDbEntity
  8
UI-TEXT
100
AcDbText
 10
215.0
 20
-959.0
 30
0.0
 40
9.0
  1
M
 72
1
 11
215.0
 21
-959.0
 31
0.0
100
AcDbText
 73
2
  0
HATCH
  5
176
330
17
100
AcDbEntity
  8
UI-RAISED
100
AcDbHatch
 10
0.0
 20
0.0
 30
0.0
210
0.0
220
0.0
230
1.0
  2
SOLID
 70
1
 71
0
 91
1
 92
3
 72
0
 73
1
 93
4
 10
238.0
 20
-948.0
 10
276.0
 20
-948.0
 10
276.0
 20
-970.0
 10
238.0
 20
-970.0
 97
0
 75
1
 76
1
 98
0
  0
LWPOLYLINE
  5
177
330
17
100
AcDbEntity
  8
UI-HAIRLINE
100
AcDbPolyline
 90
4
 70
1
 10
238.0
 20
-948.0
 10
276.0
 20
-948.0
 10
276.0
 20
-970.0
 10
238.0
 20
-970.0
  0
TEXT
  5
178
330
17
100
AcDbEntity
  8
UI-TEXT
100
AcDbText
 10
257.0
 20
-959.0
 30
0.0
 40
9.0
  1
S
 72
1
 11
257.0
 21
-959.0
 31
0.0
100
AcDbText
 73
2
  0
HATCH
  5
179
330
17
100
AcDbEntity
  8
UI-CLIP
 62
7
420
7317589
100
AcDbHatch
 10
0.0
 20
0.0
 30
0.0
210
0.0
220
0.0
230
1.0
  2
SOLID
 70
1
 71
0
 91
1
 92
3
 72
0
 73
1
 93
4
 10
282.0
 20
-46.0
 10
374.0
 20
-46.0
 10
374.0
 20
-51.0
 10
282.0
 20
-51.0
 97
0
 75
1
 76
1
 98
0
  0
HATCH
  5
17A
330
17
100
AcDbEntity
  8
UI-PANEL-BG
100
AcDbHatch
 10
0.0
 20
0.0
 30
0.0
210
0.0
220
0.0
230
1.0
  2
SOLID
 70
1
 71
0
 91
1
 92
3
 72
0
 73
1
 93
4
 10
282.0
 20
-51.0
 10
374.0
 20
-51.0
 10
374.0
 20
-71.0
 10
282.0
 20
-71.0
 97
0
 75
1
 76
1
 98
0
  0
TEXT
  5
17B
330
17
100
AcDbEntity
  8
UI-TEXT
100
AcDbText
 10
328.0
 20
-61.0
 30
0.0
 40
9.0
  1
Vox Lead
 72
1
 11
328.0
 21
-61.0
 31
0.0
100
AcDbText
 73
2
  0
LINE
  5
17C
330
17
100
AcDbEntity
  8
UI-HAIRLINE
100
AcDbLine
 10
373.0
 20
-46.0
 30
0.0
 11
373.0
 21
-976.0
 31
0.0
  0
HATCH
  5
17D
330
17
100
AcDbEntity
  8
UI-RAISED
100
AcDbHatch
 10
0.0
 20
0.0
 30
0.0
210
0.0
220
0.0
230
1.0
  2
SOLID
 70
1
 71
0
 91
1
 92
1
 93
1
 72
2
 10
328.0
 20
-97.0
 40
18
 50
0
 51
360
 73
1
 97
0
 75
1
 76
1
 98
0
  0
CIRCLE
  5
17E
330
17
100
AcDbEntity
  8
UI-HAIRLINE
100
AcDbCircle
 10
328.0
 20
-97.0
 30
0.0
 40
18.0
  0
LINE
  5
17F
330
17
100
AcDbEntity
  8
UI-ACCENT
100
AcDbLine
 10
328.0
 20
-97.0
 30
0.0
 11
328.0
 21
-81.0
 31
0.0
  0
ARC
  5
180
330
17
100
AcDbEntity
  8
UI-ACCENT
100
AcDbCircle
 10
328.0
 20
-97.0
 30
0.0
 40
21.0
100
AcDbArc
 50
90.0
 51
225.0
  0
TEXT
  5
181
330
17
100
AcDbEntity
  8
UI-TEXT-SEC
100
AcDbText
 10
328.0
 20
-124.0
 30
0.0
 40
9.0
  1
pan
 72
1
 11
328.0
 21
-124.0
 31
0.0
100
AcDbText
 73
2
  0
HATCH
  5
182
330
17
100
AcDbEntity
  8
UI-PANEL-BG
100
AcDbHatch
 10
0.0
 20
0.0
 30
0.0
210
0.0
220
0.0
230
1.0
  2
SOLID
 70
1
 71
0
 91
1
 92
3
 72
0
 73
1
 93
4
 10
284.0
 20
-123.0
 10
372.0
 20
-123.0
 10
372.0
 20
-138.0
 10
284.0
 20
-138.0
 97
0
 75
1
 76
1
 98
0
  0
LWPOLYLINE
  5
183
330
17
100
AcDbEntity
  8
UI-HAIRLINE
100
AcDbPolyline
 90
4
 70
1
 10
284.0
 20
-123.0
 10
372.0
 20
-123.0
 10
372.0
 20
-138.0
 10
284.0
 20
-138.0
  0
CIRCLE
  5
184
330
17
100
AcDbEntity
  8
UI-ACCENT
100
AcDbCircle
 10
290.0
 20
-130.5
 30
0.0
 40
3.0
  0
TEXT
  5
185
330
17
100
AcDbEntity
  8
UI-TEXT
100
AcDbText
 10
298.0
 20
-130.5
 30
0.0
 40
8.0
  1
DeEsser
 11
298.0
 21
-130.5
 31
0.0
100
AcDbText
 73
2
  0
LINE
  5
186
330
17
100
AcDbEntity
  8
UI-TEXT-SEC
100
AcDbLine
 10
363.6
 20
-128.1
 30
0.0
 11
368.4
 21
-132.9
 31
0.0
  0
LINE
  5
187
330
17
100
AcDbEntity
  8
UI-TEXT-SEC
100
AcDbLine
 10
363.6
 20
-132.9
 30
0.0
 11
368.4
 21
-128.1
 31
0.0
  0
HATCH
  5
188
330
17
100
AcDbEntity
  8
UI-PANEL-BG
100
AcDbHatch
 10
0.0
 20
0.0
 30
0.0
210
0.0
220
0.0
230
1.0
  2
SOLID
 70
1
 71
0
 91
1
 92
3
 72
0
 73
1
 93
4
 10
284.0
 20
-139.0
 10
372.0
 20
-139.0
 10
372.0
 20
-154.0
 10
284.0
 20
-154.0
 97
0
 75
1
 76
1
 98
0
  0
LWPOLYLINE
  5
189
330
17
100
AcDbEntity
  8
UI-HAIRLINE
100
AcDbPolyline
 90
4
 70
1
 10
284.0
 20
-139.0
 10
372.0
 20
-139.0
 10
372.0
 20
-154.0
 10
284.0
 20
-154.0
  0
CIRCLE
  5
18A
330
17
100
AcDbEntity
  8
UI-ACCENT
100
AcDbCircle
 10
290.0
 20
-146.5
 30
0.0
 40
3.0
  0
TEXT
  5
18B
330
17
100
AcDbEntity
  8
UI-TEXT
100
AcDbText
 10
298.0
 20
-146.5
 30
0.0
 40
8.0
  1
Comp
 11
298.0
 21
-146.5
 31
0.0
100
AcDbText
 73
2
  0
LINE
  5
18C
330
17
100
AcDbEntity
  8
UI-TEXT-SEC
100
AcDbLine
 10
363.6
 20
-144.1
 30
0.0
 11
368.4
 21
-148.9
 31
0.0
  0
LINE
  5
18D
330
17
100
AcDbEntity
  8
UI-TEXT-SEC
100
AcDbLine
 10
363.6
 20
-148.9
 30
0.0
 11
368.4
 21
-144.1
 31
0.0
  0
HATCH
  5
18E
330
17
100
AcDbEntity
  8
UI-PANEL-BG
100
AcDbHatch
 10
0.0
 20
0.0
 30
0.0
210
0.0
220
0.0
230
1.0
  2
SOLID
 70
1
 71
0
 91
1
 92
3
 72
0
 73
1
 93
4
 10
284.0
 20
-155.0
 10
372.0
 20
-155.0
 10
372.0
 20
-170.0
 10
284.0
 20
-170.0
 97
0
 75
1
 76
1
 98
0
  0
LWPOLYLINE
  5
18F
330
17
100
AcDbEntity
  8
UI-HAIRLINE
100
AcDbPolyline
 90
4
 70
1
 10
284.0
 20
-155.0
 10
372.0
 20
-155.0
 10
372.0
 20
-170.0
 10
284.0
 20
-170.0
  0
CIRCLE
  5
190
330
17
100
AcDbEntity
  8
UI-ACCENT
100
AcDbCircle
 10
290.0
 20
-162.5
 30
0.0
 40
3.0
  0
TEXT
  5
191
330
17
100
AcDbEntity
  8
UI-TEXT
100
AcDbText
 10
298.0
 20
-162.5
 30
0.0
 40
8.0
  1
Delay
 11
298.0
 21
-162.5
 31
0.0
100
AcDbText
 73
2
  0
LINE
  5
192
330
17
100
AcDbEntity
  8
UI-TEXT-SEC
100
AcDbLine
 10
363.6
 20
-160.1
 30
0.0
 11
368.4
 21
-164.9
 31
0.0
  0
LINE
  5
193
330
17
100
AcDbEntity
  8
UI-TEXT-SEC
100
AcDbLine
 10
363.6
 20
-164.9
 30
0.0
 11
368.4
 21
-160.1
 31
0.0
  0
HATCH
  5
194
330
17
100
AcDbEntity
  8
UI-RAISED
100
AcDbHatch
 10
0.0
 20
0.0
 30
0.0
210
0.0
220
0.0
230
1.0
  2
SOLID
 70
1
 71
0
 91
1
 92
3
 72
0
 73
1
 93
4
 10
284.0
 20
-171.0
 10
372.0
 20
-171.0
 10
372.0
 20
-186.0
 10
284.0
 20
-186.0
 97
0
 75
1
 76
1
 98
0
  0
LWPOLYLINE
  5
195
330
17
100
AcDbEntity
  8
UI-HAIRLINE
100
AcDbPolyline
 90
4
 70
1
 10
284.0
 20
-171.0
 10
372.0
 20
-171.0
 10
372.0
 20
-186.0
 10
284.0
 20
-186.0
  0
TEXT
  5
196
330
17
100
AcDbEntity
  8
UI-ACCENT
100
AcDbText
 10
328.0
 20
-178.5
 30
0.0
 40
8.0
  1
+ insert
 72
1
 11
328.0
 21
-178.5
 31
0.0
100
AcDbText
 73
2
  0
HATCH
  5
197
330
17
100
AcDbEntity
  8
UI-PANEL-BG
100
AcDbHatch
 10
0.0
 20
0.0
 30
0.0
210
0.0
220
0.0
230
1.0
  2
SOLID
 70
1
 71
0
 91
1
 92
3
 72
0
 73
1
 93
4
 10
288.0
 20
-193.0
 10
296.0
 20
-193.0
 10
296.0
 20
-946.0
 10
288.0
 20
-946.0
 97
0
 75
1
 76
1
 98
0
  0
LWPOLYLINE
  5
198
330
17
100
AcDbEntity
  8
UI-HAIRLINE
100
AcDbPolyline
 90
4
 70
1
 10
288.0
 20
-193.0
 10
296.0
 20
-193.0
 10
296.0
 20
-946.0
 10
288.0
 20
-946.0
  0
HATCH
  5
199
330
17
100
AcDbEntity
  8
UI-METER
 62
7
420
5744995
100
AcDbHatch
 10
0.0
 20
0.0
 30
0.0
210
0.0
220
0.0
230
1.0
  2
SOLID
 70
1
 71
0
 91
1
 92
3
 72
0
 73
1
 93
4
 10
289.0
 20
-449.02000000000004
 10
295.0
 20
-449.02000000000004
 10
295.0
 20
-946.0
 10
289.0
 20
-946.0
 97
0
 75
1
 76
1
 98
0
  0
LINE
  5
19A
330
17
100
AcDbEntity
  8
UI-ACCENT
100
AcDbLine
 10
288.0
 20
-388.78
 30
0.0
 11
296.0
 21
-388.78
 31
0.0
  0
TEXT
  5
19B
330
17
100
AcDbEntity
  8
UI-TEXT-SEC
100
AcDbText
 10
298.0
 20
-193.0
 30
0.0
 40
7.0
  1
+6
 11
298.0
 21
-193.0
 31
0.0
100
AcDbText
 73
2
  0
TEXT
  5
19C
330
17
100
AcDbEntity
  8
UI-TEXT-SEC
100
AcDbText
 10
298.0
 20
-321.01
 30
0.0
 40
7.0
  1
0
 11
298.0
 21
-321.01
 31
0.0
100
AcDbText
 73
2
  0
TEXT
  5
19D
330
17
100
AcDbEntity
  8
UI-TEXT-SEC
100
AcDbText
 10
298.0
 20
-569.5
 30
0.0
 40
7.0
  1
-12
 11
298.0
 21
-569.5
 31
0.0
100
AcDbText
 73
2
  0
TEXT
  5
19E
330
17
100
AcDbEntity
  8
UI-TEXT-SEC
100
AcDbText
 10
298.0
 20
-825.52
 30
0.0
 40
7.0
  1
-36
 11
298.0
 21
-825.52
 31
0.0
100
AcDbText
 73
2
  0
LINE
  5
19F
330
17
100
AcDbEntity
  8
UI-HAIRLINE
100
AcDbLine
 10
354.0
 20
-199.0
 30
0.0
 11
354.0
 21
-922.0
 31
0.0
  0
LINE
  5
1A0
330
17
100
AcDbEntity
  8
UI-HAIRLINE
100
AcDbLine
 10
358.0
 20
-922.0
 30
0.0
 11
361.0
 21
-922.0
 31
0.0
  0
LINE
  5
1A1
330
17
100
AcDbEntity
  8
UI-HAIRLINE
100
AcDbLine
 10
358.0
 20
-741.25
 30
0.0
 11
361.0
 21
-741.25
 31
0.0
  0
LINE
  5
1A2
330
17
100
AcDbEntity
  8
UI-HAIRLINE
100
AcDbLine
 10
358.0
 20
-560.5
 30
0.0
 11
361.0
 21
-560.5
 31
0.0
  0
LINE
  5
1A3
330
17
100
AcDbEntity
  8
UI-HAIRLINE
100
AcDbLine
 10
358.0
 20
-379.75
 30
0.0
 11
361.0
 21
-379.75
 31
0.0
  0
LINE
  5
1A4
330
17
100
AcDbEntity
  8
UI-HAIRLINE
100
AcDbLine
 10
358.0
 20
-199.0
 30
0.0
 11
361.0
 21
-199.0
 31
0.0
  0
HATCH
  5
1A5
330
17
100
AcDbEntity
  8
UI-RAISED
100
AcDbHatch
 10
0.0
 20
0.0
 30
0.0
210
0.0
220
0.0
230
1.0
  2
SOLID
 70
1
 71
0
 91
1
 92
3
 72
0
 73
1
 93
4
 10
346.0
 20
-372.75
 10
362.0
 20
-372.75
 10
362.0
 20
-386.75
 10
346.0
 20
-386.75
 97
0
 75
1
 76
1
 98
0
  0
LWPOLYLINE
  5
1A6
330
17
100
AcDbEntity
  8
UI-ACCENT
100
AcDbPolyline
 90
4
 70
1
 10
346.0
 20
-372.75
 10
362.0
 20
-372.75
 10
362.0
 20
-386.75
 10
346.0
 20
-386.75
  0
LINE
  5
1A7
330
17
100
AcDbEntity
  8
UI-ACCENT
100
AcDbLine
 10
347.0
 20
-379.75
 30
0.0
 11
361.0
 21
-379.75
 31
0.0
  0
HATCH
  5
1A8
330
17
100
AcDbEntity
  8
UI-RAISED
100
AcDbHatch
 10
0.0
 20
0.0
 30
0.0
210
0.0
220
0.0
230
1.0
  2
SOLID
 70
1
 71
0
 91
1
 92
3
 72
0
 73
1
 93
4
 10
288.0
 20
-930.0
 10
368.0
 20
-930.0
 10
368.0
 20
-946.0
 10
288.0
 20
-946.0
 97
0
 75
1
 76
1
 98
0
  0
LWPOLYLINE
  5
1A9
330
17
100
AcDbEntity
  8
UI-HAIRLINE
100
AcDbPolyline
 90
4
 70
1
 10
288.0
 20
-930.0
 10
368.0
 20
-930.0
 10
368.0
 20
-946.0
 10
288.0
 20
-946.0
  0
TEXT
  5
1AA
330
17
100
AcDbEntity
  8
UI-TEXT
100
AcDbText
 10
328.0
 20
-938.0
 30
0.0
 40
8.0
  1
-2.9 dB
 72
1
 11
328.0
 21
-938.0
 31
0.0
100
AcDbText
 73
2
  0
HATCH
  5
1AB
330
17
100
AcDbEntity
  8
UI-RAISED
100
AcDbHatch
 10
0.0
 20
0.0
 30
0.0
210
0.0
220
0.0
230
1.0
  2
SOLID
 70
1
 71
0
 91
1
 92
3
 72
0
 73
1
 93
4
 10
288.0
 20
-948.0
 10
326.0
 20
-948.0
 10
326.0
 20
-970.0
 10
288.0
 20
-970.0
 97
0
 75
1
 76
1
 98
0
  0
LWPOLYLINE
  5
1AC
330
17
100
AcDbEntity
  8
UI-HAIRLINE
100
AcDbPolyline
 90
4
 70
1
 10
288.0
 20
-948.0
 10
326.0
 20
-948.0
 10
326.0
 20
-970.0
 10
288.0
 20
-970.0
  0
TEXT
  5
1AD
330
17
100
AcDbEntity
  8
UI-TEXT
100
AcDbText
 10
307.0
 20
-959.0
 30
0.0
 40
9.0
  1
M
 72
1
 11
307.0
 21
-959.0
 31
0.0
100
AcDbText
 73
2
  0
HATCH
  5
1AE
330
17
100
AcDbEntity
  8
UI-ACCENT
100
AcDbHatch
 10
0.0
 20
0.0
 30
0.0
210
0.0
220
0.0
230
1.0
  2
SOLID
 70
1
 71
0
 91
1
 92
3
 72
0
 73
1
 93
4
 10
330.0
 20
-948.0
 10
368.0
 20
-948.0
 10
368.0
 20
-970.0
 10
330.0
 20
-970.0
 97
0
 75
1
 76
1
 98
0
  0
LWPOLYLINE
  5
1AF
330
17
100
AcDbEntity
  8
UI-HAIRLINE
100
AcDbPolyline
 90
4
 70
1
 10
330.0
 20
-948.0
 10
368.0
 20
-948.0
 10
368.0
 20
-970.0
 10
330.0
 20
-970.0
  0
TEXT
  5
1B0
330
17
100
AcDbEntity
  8
UI-TEXT
420
2364928
100
AcDbText
 10
349.0
 20
-959.0
 30
0.0
 40
9.0
  1
S
 72
1
 11
349.0
 21
-959.0
 31
0.0
100
AcDbText
 73
2
  0
HATCH
  5
1B1
330
17
100
AcDbEntity
  8
UI-CLIP
 62
7
420
13196139
100
AcDbHatch
 10
0.0
 20
0.0
 30
0.0
210
0.0
220
0.0
230
1.0
  2
SOLID
 70
1
 71
0
 91
1
 92
3
 72
0
 73
1
 93
4
 10
374.0
 20
-46.0
 10
466.0
 20
-46.0
 10
466.0
 20
-51.0
 10
374.0
 20
-51.0
 97
0
 75
1
 76
1
 98
0
  0
HATCH
  5
1B2
330
17
100
AcDbEntity
  8
UI-PANEL-BG
100
AcDbHatch
 10
0.0
 20
0.0
 30
0.0
210
0.0
220
0.0
230
1.0
  2
SOLID
 70
1
 71
0
 91
1
 92
3
 72
0
 73
1
 93
4
 10
374.0
 20
-51.0
 10
466.0
 20
-51.0
 10
466.0
 20
-71.0
 10
374.0
 20
-71.0
 97
0
 75
1
 76
1
 98
0
  0
TEXT
  5
1B3
330
17
100
AcDbEntity
  8
UI-TEXT
100
AcDbText
 10
420.0
 20
-61.0
 30
0.0
 40
9.0
  1
Pads
 72
1
 11
420.0
 21
-61.0
 31
0.0
100
AcDbText
 73
2
  0
LINE
  5
1B4
330
17
100
AcDbEntity
  8
UI-HAIRLINE
100
AcDbLine
 10
465.0
 20
-46.0
 30
0.0
 11
465.0
 21
-976.0
 31
0.0
  0
HATCH
  5
1B5
330
17
100
AcDbEntity
  8
UI-RAISED
100
AcDbHatch
 10
0.0
 20
0.0
 30
0.0
210
0.0
220
0.0
230
1.0
  2
SOLID
 70
1
 71
0
 91
1
 92
1
 93
1
 72
2
 10
420.0
 20
-97.0
 40
18
 50
0
 51
360
 73
1
 97
0
 75
1
 76
1
 98
0
  0
CIRCLE
  5
1B6
330
17
100
AcDbEntity
  8
UI-HAIRLINE
100
AcDbCircle
 10
420.0
 20
-97.0
 30
0.0
 40
18.0
  0
LINE
  5
1B7
330
17
100
AcDbEntity
  8
UI-ACCENT
100
AcDbLine
 10
420.0
 20
-97.0
 30
0.0
 11
425.8899928429548
 21
-82.12357622578797
 31
0.0
  0
ARC
  5
1B8
330
17
100
AcDbEntity
  8
UI-ACCENT
100
AcDbCircle
 10
420.0
 20
-97.0
 30
0.0
 40
21.0
100
AcDbArc
 50
68.4
 51
225.0
  0
TEXT
  5
1B9
330
17
100
AcDbEntity
  8
UI-TEXT-SEC
100
AcDbText
 10
420.0
 20
-124.0
 30
0.0
 40
9.0
  1
pan
 72
1
 11
420.0
 21
-124.0
 31
0.0
100
AcDbText
 73
2
  0
HATCH
  5
1BA
330
17
100
AcDbEntity
  8
UI-PANEL-BG
100
AcDbHatch
 10
0.0
 20
0.0
 30
0.0
210
0.0
220
0.0
230
1.0
  2
SOLID
 70
1
 71
0
 91
1
 92
3
 72
0
 73
1
 93
4
 10
376.0
 20
-123.0
 10
464.0
 20
-123.0
 10
464.0
 20
-138.0
 10
376.0
 20
-138.0
 97
0
 75
1
 76
1
 98
0
  0
LWPOLYLINE
  5
1BB
330
17
100
AcDbEntity
  8
UI-HAIRLINE
100
AcDbPolyline
 90
4
 70
1
 10
376.0
 20
-123.0
 10
464.0
 20
-123.0
 10
464.0
 20
-138.0
 10
376.0
 20
-138.0
  0
CIRCLE
  5
1BC
330
17
100
AcDbEntity
  8
UI-ACCENT
100
AcDbCircle
 10
382.0
 20
-130.5
 30
0.0
 40
3.0
  0
TEXT
  5
1BD
330
17
100
AcDbEntity
  8
UI-TEXT
100
AcDbText
 10
390.0
 20
-130.5
 30
0.0
 40
8.0
  1
4OSC
 11
390.0
 21
-130.5
 31
0.0
100
AcDbText
 73
2
  0
LINE
  5
1BE
330
17
100
AcDbEntity
  8
UI-TEXT-SEC
100
AcDbLine
 10
455.6
 20
-128.1
 30
0.0
 11
460.4
 21
-132.9
 31
0.0
  0
LINE
  5
1BF
330
17
100
AcDbEntity
  8
UI-TEXT-SEC
100
AcDbLine
 10
455.6
 20
-132.9
 30
0.0
 11
460.4
 21
-128.1
 31
0.0
  0
HATCH
  5
1C0
330
17
100
AcDbEntity
  8
UI-PANEL-BG
100
AcDbHatch
 10
0.0
 20
0.0
 30
0.0
210
0.0
220
0.0
230
1.0
  2
SOLID
 70
1
 71
0
 91
1
 92
3
 72
0
 73
1
 93
4
 10
376.0
 20
-139.0
 10
464.0
 20
-139.0
 10
464.0
 20
-154.0
 10
376.0
 20
-154.0
 97
0
 75
1
 76
1
 98
0
  0
LWPOLYLINE
  5
1C1
330
17
100
AcDbEntity
  8
UI-HAIRLINE
100
AcDbPolyline
 90
4
 70
1
 10
376.0
 20
-139.0
 10
464.0
 20
-139.0
 10
464.0
 20
-154.0
 10
376.0
 20
-154.0
  0
CIRCLE
  5
1C2
330
17
100
AcDbEntity
  8
UI-ACCENT
100
AcDbCircle
 10
382.0
 20
-146.5
 30
0.0
 40
3.0
  0
TEXT
  5
1C3
330
17
100
AcDbEntity
  8
UI-TEXT
100
AcDbText
 10
390.0
 20
-146.5
 30
0.0
 40
8.0
  1
Chorus
 11
390.0
 21
-146.5
 31
0.0
100
AcDbText
 73
2
  0
LINE
  5
1C4
330
17
100
AcDbEntity
  8
UI-TEXT-SEC
100
AcDbLine
 10
455.6
 20
-144.1
 30
0.0
 11
460.4
 21
-148.9
 31
0.0
  0
LINE
  5
1C5
330
17
100
AcDbEntity
  8
UI-TEXT-SEC
100
AcDbLine
 10
455.6
 20
-148.9
 30
0.0
 11
460.4
 21
-144.1
 31
0.0
  0
HATCH
  5
1C6
330
17
100
AcDbEntity
  8
UI-RAISED
100
AcDbHatch
 10
0.0
 20
0.0
 30
0.0
210
0.0
220
0.0
230
1.0
  2
SOLID
 70
1
 71
0
 91
1
 92
3
 72
0
 73
1
 93
4
 10
376.0
 20
-155.0
 10
464.0
 20
-155.0
 10
464.0
 20
-170.0
 10
376.0
 20
-170.0
 97
0
 75
1
 76
1
 98
0
  0
LWPOLYLINE
  5
1C7
330
17
100
AcDbEntity
  8
UI-HAIRLINE
100
AcDbPolyline
 90
4
 70
1
 10
376.0
 20
-155.0
 10
464.0
 20
-155.0
 10
464.0
 20
-170.0
 10
376.0
 20
-170.0
  0
TEXT
  5
1C8
330
17
100
AcDbEntity
  8
UI-ACCENT
100
AcDbText
 10
420.0
 20
-162.5
 30
0.0
 40
8.0
  1
+ insert
 72
1
 11
420.0
 21
-162.5
 31
0.0
100
AcDbText
 73
2
  0
HATCH
  5
1C9
330
17
100
AcDbEntity
  8
UI-PANEL-BG
100
AcDbHatch
 10
0.0
 20
0.0
 30
0.0
210
0.0
220
0.0
230
1.0
  2
SOLID
 70
1
 71
0
 91
1
 92
3
 72
0
 73
1
 93
4
 10
380.0
 20
-177.0
 10
388.0
 20
-177.0
 10
388.0
 20
-946.0
 10
380.0
 20
-946.0
 97
0
 75
1
 76
1
 98
0
  0
LWPOLYLINE
  5
1CA
330
17
100
AcDbEntity
  8
UI-HAIRLINE
100
AcDbPolyline
 90
4
 70
1
 10
380.0
 20
-177.0
 10
388.0
 20
-177.0
 10
388.0
 20
-946.0
 10
380.0
 20
-946.0
  0
HATCH
  5
1CB
330
17
100
AcDbEntity
  8
UI-METER
 62
7
420
5744995
100
AcDbHatch
 10
0.0
 20
0.0
 30
0.0
210
0.0
220
0.0
230
1.0
  2
SOLID
 70
1
 71
0
 91
1
 92
3
 72
0
 73
1
 93
4
 10
381.0
 20
-715.3
 10
387.0
 20
-715.3
 10
387.0
 20
-946.0
 10
381.0
 20
-946.0
 97
0
 75
1
 76
1
 98
0
  0
LINE
  5
1CC
330
17
100
AcDbEntity
  8
UI-ACCENT
100
AcDbLine
 10
380.0
 20
-561.5
 30
0.0
 11
388.0
 21
-561.5
 31
0.0
  0
TEXT
  5
1CD
330
17
100
AcDbEntity
  8
UI-TEXT-SEC
100
AcDbText
 10
390.0
 20
-177.0
 30
0.0
 40
7.0
  1
+6
 11
390.0
 21
-177.0
 31
0.0
100
AcDbText
 73
2
  0
TEXT
  5
1CE
330
17
100
AcDbEntity
  8
UI-TEXT-SEC
100
AcDbText
 10
390.0
 20
-307.73
 30
0.0
 40
7.0
  1
0
 11
390.0
 21
-307.73
 31
0.0
100
AcDbText
 73
2
  0
TEXT
  5
1CF
330
17
100
AcDbEntity
  8
UI-TEXT-SEC
100
AcDbText
 10
390.0
 20
-561.5
 30
0.0
 40
7.0
  1
-12
 11
390.0
 21
-561.5
 31
0.0
100
AcDbText
 73
2
  0
TEXT
  5
1D0
330
17
100
AcDbEntity
  8
UI-TEXT-SEC
100
AcDbText
 10
390.0
 20
-822.9599999999999
 30
0.0
 40
7.0
  1
-36
 11
390.0
 21
-822.9599999999999
 31
0.0
100
AcDbText
 73
2
  0
LINE
  5
1D1
330
17
100
AcDbEntity
  8
UI-HAIRLINE
100
AcDbLine
 10
446.0
 20
-183.0
 30
0.0
 11
446.0
 21
-922.0
 31
0.0
  0
LINE
  5
1D2
330
17
100
AcDbEntity
  8
UI-HAIRLINE
100
AcDbLine
 10
450.0
 20
-922.0
 30
0.0
 11
453.0
 21
-922.0
 31
0.0
  0
LINE
  5
1D3
330
17
100
AcDbEntity
  8
UI-HAIRLINE
100
AcDbLine
 10
450.0
 20
-737.25
 30
0.0
 11
453.0
 21
-737.25
 31
0.0
  0
LINE
  5
1D4
330
17
100
AcDbEntity
  8
UI-HAIRLINE
100
AcDbLine
 10
450.0
 20
-552.5
 30
0.0
 11
453.0
 21
-552.5
 31
0.0
  0
LINE
  5
1D5
330
17
100
AcDbEntity
  8
UI-HAIRLINE
100
AcDbLine
 10
450.0
 20
-367.75
 30
0.0
 11
453.0
 21
-367.75
 31
0.0
  0
LINE
  5
1D6
330
17
100
AcDbEntity
  8
UI-HAIRLINE
100
AcDbLine
 10
450.0
 20
-183.0
 30
0.0
 11
453.0
 21
-183.0
 31
0.0
  0
HATCH
  5
1D7
330
17
100
AcDbEntity
  8
UI-RAISED
100
AcDbHatch
 10
0.0
 20
0.0
 30
0.0
210
0.0
220
0.0
230
1.0
  2
SOLID
 70
1
 71
0
 91
1
 92
3
 72
0
 73
1
 93
4
 10
438.0
 20
-471.6
 10
454.0
 20
-471.6
 10
454.0
 20
-485.6
 10
438.0
 20
-485.6
 97
0
 75
1
 76
1
 98
0
  0
LWPOLYLINE
  5
1D8
330
17
100
AcDbEntity
  8
UI-ACCENT
100
AcDbPolyline
 90
4
 70
1
 10
438.0
 20
-471.6
 10
454.0
 20
-471.6
 10
454.0
 20
-485.6
 10
438.0
 20
-485.6
  0
LINE
  5
1D9
330
17
100
AcDbEntity
  8
UI-ACCENT
100
AcDbLine
 10
439.0
 20
-478.6
 30
0.0
 11
453.0
 21
-478.6
 31
0.0
  0
HATCH
  5
1DA
330
17
100
AcDbEntity
  8
UI-RAISED
100
AcDbHatch
 10
0.0
 20
0.0
 30
0.0
210
0.0
220
0.0
230
1.0
  2
SOLID
 70
1
 71
0
 91
1
 92
3
 72
0
 73
1
 93
4
 10
380.0
 20
-930.0
 10
460.0
 20
-930.0
 10
460.0
 20
-946.0
 10
380.0
 20
-946.0
 97
0
 75
1
 76
1
 98
0
  0
LWPOLYLINE
  5
1DB
330
17
100
AcDbEntity
  8
UI-HAIRLINE
100
AcDbPolyline
 90
4
 70
1
 10
380.0
 20
-930.0
 10
460.0
 20
-930.0
 10
460.0
 20
-946.0
 10
380.0
 20
-946.0
  0
TEXT
  5
1DC
330
17
100
AcDbEntity
  8
UI-TEXT
100
AcDbText
 10
420.0
 20
-938.0
 30
0.0
 40
8.0
  1
-8.3 dB
 72
1
 11
420.0
 21
-938.0
 31
0.0
100
AcDbText
 73
2
  0
HATCH
  5
1DD
330
17
100
AcDbEntity
  8
UI-RAISED
100
AcDbHatch
 10
0.0
 20
0.0
 30
0.0
210
0.0
220
0.0
230
1.0
  2
SOLID
 70
1
 71
0
 91
1
 92
3
 72
0
 73
1
 93
4
 10
380.0
 20
-948.0
 10
418.0
 20
-948.0
 10
418.0
 20
-970.0
 10
380.0
 20
-970.0
 97
0
 75
1
 76
1
 98
0
  0
LWPOLYLINE
  5
1DE
330
17
100
AcDbEntity
  8
UI-HAIRLINE
100
AcDbPolyline
 90
4
 70
1
 10
380.0
 20
-948.0
 10
418.0
 20
-948.0
 10
418.0
 20
-970.0
 10
380.0
 20
-970.0
  0
TEXT
  5
1DF
330
17
100
AcDbEntity
  8
UI-TEXT
100
AcDbText
 10
399.0
 20
-959.0
 30
0.0
 40
9.0
  1
M
 72
1
 11
399.0
 21
-959.0
 31
0.0
100
AcDbText
 73
2
  0
HATCH
  5
1E0
330
17
100
AcDbEntity
  8
UI-RAISED
100
AcDbHatch
 10
0.0
 20
0.0
 30
0.0
210
0.0
220
0.0
230
1.0
  2
SOLID
 70
1
 71
0
 91
1
 92
3
 72
0
 73
1
 93
4
 10
422.0
 20
-948.0
 10
460.0
 20
-948.0
 10
460.0
 20
-970.0
 10
422.0
 20
-970.0
 97
0
 75
1
 76
1
 98
0
  0
LWPOLYLINE
  5
1E1
330
17
100
AcDbEntity
  8
UI-HAIRLINE
100
AcDbPolyline
 90
4
 70
1
 10
422.0
 20
-948.0
 10
460.0
 20
-948.0
 10
460.0
 20
-970.0
 10
422.0
 20
-970.0
  0
TEXT
  5
1E2
330
17
100
AcDbEntity
  8
UI-TEXT
100
AcDbText
 10
441.0
 20
-959.0
 30
0.0
 40
9.0
  1
S
 72
1
 11
441.0
 21
-959.0
 31
0.0
100
AcDbText
 73
2
  0
HATCH
  5
1E3
330
17
100
AcDbEntity
  8
UI-CLIP
 62
7
420
5932740
100
AcDbHatch
 10
0.0
 20
0.0
 30
0.0
210
0.0
220
0.0
230
1.0
  2
SOLID
 70
1
 71
0
 91
1
 92
3
 72
0
 73
1
 93
4
 10
466.0
 20
-46.0
 10
558.0
 20
-46.0
 10
558.0
 20
-51.0
 10
466.0
 20
-51.0
 97
0
 75
1
 76
1
 98
0
  0
HATCH
  5
1E4
330
17
100
AcDbEntity
  8
UI-PANEL-BG
100
AcDbHatch
 10
0.0
 20
0.0
 30
0.0
210
0.0
220
0.0
230
1.0
  2
SOLID
 70
1
 71
0
 91
1
 92
3
 72
0
 73
1
 93
4
 10
466.0
 20
-51.0
 10
558.0
 20
-51.0
 10
558.0
 20
-71.0
 10
466.0
 20
-71.0
 97
0
 75
1
 76
1
 98
0
  0
TEXT
  5
1E5
330
17
100
AcDbEntity
  8
UI-TEXT
100
AcDbText
 10
512.0
 20
-61.0
 30
0.0
 40
9.0
  1
Gtr
 72
1
 11
512.0
 21
-61.0
 31
0.0
100
AcDbText
 73
2
  0
LINE
  5
1E6
330
17
100
AcDbEntity
  8
UI-HAIRLINE
100
AcDbLine
 10
557.0
 20
-46.0
 30
0.0
 11
557.0
 21
-976.0
 31
0.0
  0
HATCH
  5
1E7
330
17
100
AcDbEntity
  8
UI-RAISED
100
AcDbHatch
 10
0.0
 20
0.0
 30
0.0
210
0.0
220
0.0
230
1.0
  2
SOLID
 70
1
 71
0
 91
1
 92
1
 93
1
 72
2
 10
512.0
 20
-97.0
 40
18
 50
0
 51
360
 73
1
 97
0
 75
1
 76
1
 98
0
  0
CIRCLE
  5
1E8
330
17
100
AcDbEntity
  8
UI-HAIRLINE
100
AcDbCircle
 10
512.0
 20
-97.0
 30
0.0
 40
18.0
  0
LINE
  5
1E9
330
17
100
AcDbEntity
  8
UI-ACCENT
100
AcDbLine
 10
512.0
 20
-97.0
 30
0.0
 11
522.952753694859
 21
-85.33650196125741
 31
0.0
  0
ARC
  5
1EA
330
17
100
AcDbEntity
  8
UI-ACCENT
100
AcDbCircle
 10
512.0
 20
-97.0
 30
0.0
 40
21.0
100
AcDbArc
 50
46.79999999999999
 51
225.0
  0
TEXT
  5
1EB
330
17
100
AcDbEntity
  8
UI-TEXT-SEC
100
AcDbText
 10
512.0
 20
-124.0
 30
0.0
 40
9.0
  1
pan
 72
1
 11
512.0
 21
-124.0
 31
0.0
100
AcDbText
 73
2
  0
HATCH
  5
1EC
330
17
100
AcDbEntity
  8
UI-PANEL-BG
100
AcDbHatch
 10
0.0
 20
0.0
 30
0.0
210
0.0
220
0.0
230
1.0
  2
SOLID
 70
1
 71
0
 91
1
 92
3
 72
0
 73
1
 93
4
 10
468.0
 20
-123.0
 10
556.0
 20
-123.0
 10
556.0
 20
-138.0
 10
468.0
 20
-138.0
 97
0
 75
1
 76
1
 98
0
  0
LWPOLYLINE
  5
1ED
330
17
100
AcDbEntity
  8
UI-HAIRLINE
100
AcDbPolyline
 90
4
 70
1
 10
468.0
 20
-123.0
 10
556.0
 20
-123.0
 10
556.0
 20
-138.0
 10
468.0
 20
-138.0
  0
CIRCLE
  5
1EE
330
17
100
AcDbEntity
  8
UI-ACCENT
100
AcDbCircle
 10
474.0
 20
-130.5
 30
0.0
 40
3.0
  0
TEXT
  5
1EF
330
17
100
AcDbEntity
  8
UI-TEXT
100
AcDbText
 10
482.0
 20
-130.5
 30
0.0
 40
8.0
  1
Amp
 11
482.0
 21
-130.5
 31
0.0
100
AcDbText
 73
2
  0
LINE
  5
1F0
330
17
100
AcDbEntity
  8
UI-TEXT-SEC
100
AcDbLine
 10
547.6
 20
-128.1
 30
0.0
 11
552.4
 21
-132.9
 31
0.0
  0
LINE
  5
1F1
330
17
100
AcDbEntity
  8
UI-TEXT-SEC
100
AcDbLine
 10
547.6
 20
-132.9
 30
0.0
 11
552.4
 21
-128.1
 31
0.0
  0
HATCH
  5
1F2
330
17
100
AcDbEntity
  8
UI-RAISED
100
AcDbHatch
 10
0.0
 20
0.0
 30
0.0
210
0.0
220
0.0
230
1.0
  2
SOLID
 70
1
 71
0
 91
1
 92
3
 72
0
 73
1
 93
4
 10
468.0
 20
-139.0
 10
556.0
 20
-139.0
 10
556.0
 20
-154.0
 10
468.0
 20
-154.0
 97
0
 75
1
 76
1
 98
0
  0
LWPOLYLINE
  5
1F3
330
17
100
AcDbEntity
  8
UI-HAIRLINE
100
AcDbPolyline
 90
4
 70
1
 10
468.0
 20
-139.0
 10
556.0
 20
-139.0
 10
556.0
 20
-154.0
 10
468.0
 20
-154.0
  0
TEXT
  5
1F4
330
17
100
AcDbEntity
  8
UI-ACCENT
100
AcDbText
 10
512.0
 20
-146.5
 30
0.0
 40
8.0
  1
+ insert
 72
1
 11
512.0
 21
-146.5
 31
0.0
100
AcDbText
 73
2
  0
HATCH
  5
1F5
330
17
100
AcDbEntity
  8
UI-PANEL-BG
100
AcDbHatch
 10
0.0
 20
0.0
 30
0.0
210
0.0
220
0.0
230
1.0
  2
SOLID
 70
1
 71
0
 91
1
 92
3
 72
0
 73
1
 93
4
 10
472.0
 20
-161.0
 10
480.0
 20
-161.0
 10
480.0
 20
-946.0
 10
472.0
 20
-946.0
 97
0
 75
1
 76
1
 98
0
  0
LWPOLYLINE
  5
1F6
330
17
100
AcDbEntity
  8
UI-HAIRLINE
100
AcDbPolyline
 90
4
 70
1
 10
472.0
 20
-161.0
 10
480.0
 20
-161.0
 10
480.0
 20
-946.0
 10
472.0
 20
-946.0
  0
HATCH
  5
1F7
330
17
100
AcDbEntity
  8
UI-METER
 62
7
420
5744995
100
AcDbHatch
 10
0.0
 20
0.0
 30
0.0
210
0.0
220
0.0
230
1.0
  2
SOLID
 70
1
 71
0
 91
1
 92
3
 72
0
 73
1
 93
4
 10
473.0
 20
-616.3
 10
479.0
 20
-616.3
 10
479.0
 20
-946.0
 10
473.0
 20
-946.0
 97
0
 75
1
 76
1
 98
0
  0
LINE
  5
1F8
330
17
100
AcDbEntity
  8
UI-ACCENT
100
AcDbLine
 10
472.0
 20
-490.70000000000005
 30
0.0
 11
480.0
 21
-490.70000000000005
 31
0.0
  0
TEXT
  5
1F9
330
17
100
AcDbEntity
  8
UI-TEXT-SEC
100
AcDbText
 10
482.0
 20
-161.0
 30
0.0
 40
7.0
  1
+6
 11
482.0
 21
-161.0
 31
0.0
100
AcDbText
 73
2
  0
TEXT
  5
1FA
330
17
100
AcDbEntity
  8
UI-TEXT-SEC
100
AcDbText
 10
482.0
 20
-294.45000000000005
 30
0.0
 40
7.0
  1
0
 11
482.0
 21
-294.45000000000005
 31
0.0
100
AcDbText
 73
2
  0
TEXT
  5
1FB
330
17
100
AcDbEntity
  8
UI-TEXT-SEC
100
AcDbText
 10
482.0
 20
-553.5
 30
0.0
 40
7.0
  1
-12
 11
482.0
 21
-553.5
 31
0.0
100
AcDbText
 73
2
  0
TEXT
  5
1FC
330
17
100
AcDbEntity
  8
UI-TEXT-SEC
100
AcDbText
 10
482.0
 20
-820.4
 30
0.0
 40
7.0
  1
-36
 11
482.0
 21
-820.4
 31
0.0
100
AcDbText
 73
2
  0
LINE
  5
1FD
330
17
100
AcDbEntity
  8
UI-HAIRLINE
100
AcDbLine
 10
538.0
 20
-167.0
 30
0.0
 11
538.0
 21
-922.0
 31
0.0
  0
LINE
  5
1FE
330
17
100
AcDbEntity
  8
UI-HAIRLINE
100
AcDbLine
 10
542.0
 20
-922.0
 30
0.0
 11
545.0
 21
-922.0
 31
0.0
  0
LINE
  5
1FF
330
17
100
AcDbEntity
  8
UI-HAIRLINE
100
AcDbLine
 10
542.0
 20
-733.25
 30
0.0
 11
545.0
 21
-733.25
 31
0.0
  0
LINE
  5
200
330
17
100
AcDbEntity
  8
UI-HAIRLINE
100
AcDbLine
 10
542.0
 20
-544.5
 30
0.0
 11
545.0
 21
-544.5
 31
0.0
  0
LINE
  5
201
330
17
100
AcDbEntity
  8
UI-HAIRLINE
100
AcDbLine
 10
542.0
 20
-355.75
 30
0.0
 11
545.0
 21
-355.75
 31
0.0
  0
LINE
  5
202
330
17
100
AcDbEntity
  8
UI-HAIRLINE
100
AcDbLine
 10
542.0
 20
-167.0
 30
0.0
 11
545.0
 21
-167.0
 31
0.0
  0
HATCH
  5
203
330
17
100
AcDbEntity
  8
UI-RAISED
100
AcDbHatch
 10
0.0
 20
0.0
 30
0.0
210
0.0
220
0.0
230
1.0
  2
SOLID
 70
1
 71
0
 91
1
 92
3
 72
0
 73
1
 93
4
 10
530.0
 20
-424.25
 10
546.0
 20
-424.25
 10
546.0
 20
-438.25
 10
530.0
 20
-438.25
 97
0
 75
1
 76
1
 98
0
  0
LWPOLYLINE
  5
204
330
17
100
AcDbEntity
  8
UI-ACCENT
100
AcDbPolyline
 90
4
 70
1
 10
530.0
 20
-424.25
 10
546.0
 20
-424.25
 10
546.0
 20
-438.25
 10
530.0
 20
-438.25
  0
LINE
  5
205
330
17
100
AcDbEntity
  8
UI-ACCENT
100
AcDbLine
 10
531.0
 20
-431.25
 30
0.0
 11
545.0
 21
-431.25
 31
0.0
  0
HATCH
  5
206
330
17
100
AcDbEntity
  8
UI-RAISED
100
AcDbHatch
 10
0.0
 20
0.0
 30
0.0
210
0.0
220
0.0
230
1.0
  2
SOLID
 70
1
 71
0
 91
1
 92
3
 72
0
 73
1
 93
4
 10
472.0
 20
-930.0
 10
552.0
 20
-930.0
 10
552.0
 20
-946.0
 10
472.0
 20
-946.0
 97
0
 75
1
 76
1
 98
0
  0
LWPOLYLINE
  5
207
330
17
100
AcDbEntity
  8
UI-HAIRLINE
100
AcDbPolyline
 90
4
 70
1
 10
472.0
 20
-930.0
 10
552.0
 20
-930.0
 10
552.0
 20
-946.0
 10
472.0
 20
-946.0
  0
TEXT
  5
208
330
17
100
AcDbEntity
  8
UI-TEXT
100
AcDbText
 10
512.0
 20
-938.0
 30
0.0
 40
8.0
  1
-6.5 dB
 72
1
 11
512.0
 21
-938.0
 31
0.0
100
AcDbText
 73
2
  0
HATCH
  5
209
330
17
100
AcDbEntity
  8
UI-RAISED
100
AcDbHatch
 10
0.0
 20
0.0
 30
0.0
210
0.0
220
0.0
230
1.0
  2
SOLID
 70
1
 71
0
 91
1
 92
3
 72
0
 73
1
 93
4
 10
472.0
 20
-948.0
 10
510.0
 20
-948.0
 10
510.0
 20
-970.0
 10
472.0
 20
-970.0
 97
0
 75
1
 76
1
 98
0
  0
LWPOLYLINE
  5
20A
330
17
100
AcDbEntity
  8
UI-HAIRLINE
100
AcDbPolyline
 90
4
 70
1
 10
472.0
 20
-948.0
 10
510.0
 20
-948.0
 10
510.0
 20
-970.0
 10
472.0
 20
-970.0
  0
TEXT
  5
20B
330
17
100
AcDbEntity
  8
UI-TEXT
100
AcDbText
 10
491.0
 20
-959.0
 30
0.0
 40
9.0
  1
M
 72
1
 11
491.0
 21
-959.0
 31
0.0
100
AcDbText
 73
2
  0
HATCH
  5
20C
330
17
100
AcDbEntity
  8
UI-RAISED
100
AcDbHatch
 10
0.0
 20
0.0
 30
0.0
210
0.0
220
0.0
230
1.0
  2
SOLID
 70
1
 71
0
 91
1
 92
3
 72
0
 73
1
 93
4
 10
514.0
 20
-948.0
 10
552.0
 20
-948.0
 10
552.0
 20
-970.0
 10
514.0
 20
-970.0
 97
0
 75
1
 76
1
 98
0
  0
LWPOLYLINE
  5
20D
330
17
100
AcDbEntity
  8
UI-HAIRLINE
100
AcDbPolyline
 90
4
 70
1
 10
514.0
 20
-948.0
 10
552.0
 20
-948.0
 10
552.0
 20
-970.0
 10
514.0
 20
-970.0
  0
TEXT
  5
20E
330
17
100
AcDbEntity
  8
UI-TEXT
100
AcDbText
 10
533.0
 20
-959.0
 30
0.0
 40
9.0
  1
S
 72
1
 11
533.0
 21
-959.0
 31
0.0
100
AcDbText
 73
2
  0
HATCH
  5
20F
330
17
100
AcDbEntity
  8
UI-CLIP
 62
7
420
12034122
100
AcDbHatch
 10
0.0
 20
0.0
 30
0.0
210
0.0
220
0.0
230
1.0
  2
SOLID
 70
1
 71
0
 91
1
 92
3
 72
0
 73
1
 93
4
 10
558.0
 20
-46.0
 10
650.0
 20
-46.0
 10
650.0
 20
-51.0
 10
558.0
 20
-51.0
 97
0
 75
1
 76
1
 98
0
  0
HATCH
  5
210
330
17
100
AcDbEntity
  8
UI-PANEL-BG
100
AcDbHatch
 10
0.0
 20
0.0
 30
0.0
210
0.0
220
0.0
230
1.0
  2
SOLID
 70
1
 71
0
 91
1
 92
3
 72
0
 73
1
 93
4
 10
558.0
 20
-51.0
 10
650.0
 20
-51.0
 10
650.0
 20
-71.0
 10
558.0
 20
-71.0
 97
0
 75
1
 76
1
 98
0
  0
TEXT
  5
211
330
17
100
AcDbEntity
  8
UI-TEXT
100
AcDbText
 10
604.0
 20
-61.0
 30
0.0
 40
9.0
  1
Perc
 72
1
 11
604.0
 21
-61.0
 31
0.0
100
AcDbText
 73
2
  0
LINE
  5
212
330
17
100
AcDbEntity
  8
UI-HAIRLINE
100
AcDbLine
 10
649.0
 20
-46.0
 30
0.0
 11
649.0
 21
-976.0
 31
0.0
  0
HATCH
  5
213
330
17
100
AcDbEntity
  8
UI-RAISED
100
AcDbHatch
 10
0.0
 20
0.0
 30
0.0
210
0.0
220
0.0
230
1.0
  2
SOLID
 70
1
 71
0
 91
1
 92
1
 93
1
 72
2
 10
604.0
 20
-97.0
 40
18
 50
0
 51
360
 73
1
 97
0
 75
1
 76
1
 98
0
  0
CIRCLE
  5
214
330
17
100
AcDbEntity
  8
UI-HAIRLINE
100
AcDbCircle
 10
604.0
 20
-97.0
 30
0.0
 40
18.0
  0
LINE
  5
215
330
17
100
AcDbEntity
  8
UI-ACCENT
100
AcDbLine
 10
604.0
 20
-97.0
 30
0.0
 11
618.4772328394563
 21
-90.18753133495883
 31
0.0
  0
ARC
  5
216
330
17
100
AcDbEntity
  8
UI-ACCENT
100
AcDbCircle
 10
604.0
 20
-97.0
 30
0.0
 40
21.0
100
AcDbArc
 50
25.200000000000003
 51
225.0
  0
TEXT
  5
217
330
17
100
AcDbEntity
  8
UI-TEXT-SEC
100
AcDbText
 10
604.0
 20
-124.0
 30
0.0
 40
9.0
  1
pan
 72
1
 11
604.0
 21
-124.0
 31
0.0
100
AcDbText
 73
2
  0
HATCH
  5
218
330
17
100
AcDbEntity
  8
UI-PANEL-BG
100
AcDbHatch
 10
0.0
 20
0.0
 30
0.0
210
0.0
220
0.0
230
1.0
  2
SOLID
 70
1
 71
0
 91
1
 92
3
 72
0
 73
1
 93
4
 10
560.0
 20
-123.0
 10
648.0
 20
-123.0
 10
648.0
 20
-138.0
 10
560.0
 20
-138.0
 97
0
 75
1
 76
1
 98
0
  0
LWPOLYLINE
  5
219
330
17
100
AcDbEntity
  8
UI-HAIRLINE
100
AcDbPolyline
 90
4
 70
1
 10
560.0
 20
-123.0
 10
648.0
 20
-123.0
 10
648.0
 20
-138.0
 10
560.0
 20
-138.0
  0
CIRCLE
  5
21A
330
17
100
AcDbEntity
  8
UI-ACCENT
100
AcDbCircle
 10
566.0
 20
-130.5
 30
0.0
 40
3.0
  0
TEXT
  5
21B
330
17
100
AcDbEntity
  8
UI-TEXT
100
AcDbText
 10
574.0
 20
-130.5
 30
0.0
 40
8.0
  1
Gate
 11
574.0
 21
-130.5
 31
0.0
100
AcDbText
 73
2
  0
LINE
  5
21C
330
17
100
AcDbEntity
  8
UI-TEXT-SEC
100
AcDbLine
 10
639.6
 20
-128.1
 30
0.0
 11
644.4
 21
-132.9
 31
0.0
  0
LINE
  5
21D
330
17
100
AcDbEntity
  8
UI-TEXT-SEC
100
AcDbLine
 10
639.6
 20
-132.9
 30
0.0
 11
644.4
 21
-128.1
 31
0.0
  0
HATCH
  5
21E
330
17
100
AcDbEntity
  8
UI-RAISED
100
AcDbHatch
 10
0.0
 20
0.0
 30
0.0
210
0.0
220
0.0
230
1.0
  2
SOLID
 70
1
 71
0
 91
1
 92
3
 72
0
 73
1
 93
4
 10
560.0
 20
-139.0
 10
648.0
 20
-139.0
 10
648.0
 20
-154.0
 10
560.0
 20
-154.0
 97
0
 75
1
 76
1
 98
0
  0
LWPOLYLINE
  5
21F
330
17
100
AcDbEntity
  8
UI-HAIRLINE
100
AcDbPolyline
 90
4
 70
1
 10
560.0
 20
-139.0
 10
648.0
 20
-139.0
 10
648.0
 20
-154.0
 10
560.0
 20
-154.0
  0
TEXT
  5
220
330
17
100
AcDbEntity
  8
UI-ACCENT
100
AcDbText
 10
604.0
 20
-146.5
 30
0.0
 40
8.0
  1
+ insert
 72
1
 11
604.0
 21
-146.5
 31
0.0
100
AcDbText
 73
2
  0
HATCH
  5
221
330
17
100
AcDbEntity
  8
UI-PANEL-BG
100
AcDbHatch
 10
0.0
 20
0.0
 30
0.0
210
0.0
220
0.0
230
1.0
  2
SOLID
 70
1
 71
0
 91
1
 92
3
 72
0
 73
1
 93
4
 10
564.0
 20
-161.0
 10
572.0
 20
-161.0
 10
572.0
 20
-946.0
 10
564.0
 20
-946.0
 97
0
 75
1
 76
1
 98
0
  0
LWPOLYLINE
  5
222
330
17
100
AcDbEntity
  8
UI-HAIRLINE
100
AcDbPolyline
 90
4
 70
1
 10
564.0
 20
-161.0
 10
572.0
 20
-161.0
 10
572.0
 20
-946.0
 10
564.0
 20
-946.0
  0
HATCH
  5
223
330
17
100
AcDbEntity
  8
UI-METER
 62
7
420
5744995
100
AcDbHatch
 10
0.0
 20
0.0
 30
0.0
210
0.0
220
0.0
230
1.0
  2
SOLID
 70
1
 71
0
 91
1
 92
3
 72
0
 73
1
 93
4
 10
565.0
 20
-522.0999999999999
 10
571.0
 20
-522.0999999999999
 10
571.0
 20
-946.0
 10
565.0
 20
-946.0
 97
0
 75
1
 76
1
 98
0
  0
LINE
  5
224
330
17
100
AcDbEntity
  8
UI-ACCENT
100
AcDbLine
 10
564.0
 20
-427.9
 30
0.0
 11
572.0
 21
-427.9
 31
0.0
  0
TEXT
  5
225
330
17
100
AcDbEntity
  8
UI-TEXT-SEC
100
AcDbText
 10
574.0
 20
-161.0
 30
0.0
 40
7.0
  1
+6
 11
574.0
 21
-161.0
 31
0.0
100
AcDbText
 73
2
  0
TEXT
  5
226
330
17
100
AcDbEntity
  8
UI-TEXT-SEC
100
AcDbText
 10
574.0
 20
-294.45000000000005
 30
0.0
 40
7.0
  1
0
 11
574.0
 21
-294.45000000000005
 31
0.0
100
AcDbText
 73
2
  0
TEXT
  5
227
330
17
100
AcDbEntity
  8
UI-TEXT-SEC
100
AcDbText
 10
574.0
 20
-553.5
 30
0.0
 40
7.0
  1
-12
 11
574.0
 21
-553.5
 31
0.0
100
AcDbText
 73
2
  0
TEXT
  5
228
330
17
100
AcDbEntity
  8
UI-TEXT-SEC
100
AcDbText
 10
574.0
 20
-820.4
 30
0.0
 40
7.0
  1
-36
 11
574.0
 21
-820.4
 31
0.0
100
AcDbText
 73
2
  0
LINE
  5
229
330
17
100
AcDbEntity
  8
UI-HAIRLINE
100
AcDbLine
 10
630.0
 20
-167.0
 30
0.0
 11
630.0
 21
-922.0
 31
0.0
  0
LINE
  5
22A
330
17
100
AcDbEntity
  8
UI-HAIRLINE
100
AcDbLine
 10
634.0
 20
-922.0
 30
0.0
 11
637.0
 21
-922.0
 31
0.0
  0
LINE
  5
22B
330
17
100
AcDbEntity
  8
UI-HAIRLINE
100
AcDbLine
 10
634.0
 20
-733.25
 30
0.0
 11
637.0
 21
-733.25
 31
0.0
  0
LINE
  5
22C
330
17
100
AcDbEntity
  8
UI-HAIRLINE
100
AcDbLine
 10
634.0
 20
-544.5
 30
0.0
 11
637.0
 21
-544.5
 31
0.0
  0
LINE
  5
22D
330
17
100
AcDbEntity
  8
UI-HAIRLINE
100
AcDbLine
 10
634.0
 20
-355.75
 30
0.0
 11
637.0
 21
-355.75
 31
0.0
  0
LINE
  5
22E
330
17
100
AcDbEntity
  8
UI-HAIRLINE
100
AcDbLine
 10
634.0
 20
-167.0
 30
0.0
 11
637.0
 21
-167.0
 31
0.0
  0
HATCH
  5
22F
330
17
100
AcDbEntity
  8
UI-RAISED
100
AcDbHatch
 10
0.0
 20
0.0
 30
0.0
210
0.0
220
0.0
230
1.0
  2
SOLID
 70
1
 71
0
 91
1
 92
3
 72
0
 73
1
 93
4
 10
622.0
 20
-386.5
 10
638.0
 20
-386.5
 10
638.0
 20
-400.5
 10
622.0
 20
-400.5
 97
0
 75
1
 76
1
 98
0
  0
LWPOLYLINE
  5
230
330
17
100
AcDbEntity
  8
UI-ACCENT
100
AcDbPolyline
 90
4
 70
1
 10
622.0
 20
-386.5
 10
638.0
 20
-386.5
 10
638.0
 20
-400.5
 10
622.0
 20
-400.5
  0
LINE
  5
231
330
17
100
AcDbEntity
  8
UI-ACCENT
100
AcDbLine
 10
623.0
 20
-393.5
 30
0.0
 11
637.0
 21
-393.5
 31
0.0
  0
HATCH
  5
232
330
17
100
AcDbEntity
  8
UI-RAISED
100
AcDbHatch
 10
0.0
 20
0.0
 30
0.0
210
0.0
220
0.0
230
1.0
  2
SOLID
 70
1
 71
0
 91
1
 92
3
 72
0
 73
1
 93
4
 10
564.0
 20
-930.0
 10
644.0
 20
-930.0
 10
644.0
 20
-946.0
 10
564.0
 20
-946.0
 97
0
 75
1
 76
1
 98
0
  0
LWPOLYLINE
  5
233
330
17
100
AcDbEntity
  8
UI-HAIRLINE
100
AcDbPolyline
 90
4
 70
1
 10
564.0
 20
-930.0
 10
644.0
 20
-930.0
 10
644.0
 20
-946.0
 10
564.0
 20
-946.0
  0
TEXT
  5
234
330
17
100
AcDbEntity
  8
UI-TEXT
100
AcDbText
 10
604.0
 20
-938.0
 30
0.0
 40
8.0
  1
-4.7 dB
 72
1
 11
604.0
 21
-938.0
 31
0.0
100
AcDbText
 73
2
  0
HATCH
  5
235
330
17
100
AcDbEntity
  8
UI-RAISED
100
AcDbHatch
 10
0.0
 20
0.0
 30
0.0
210
0.0
220
0.0
230
1.0
  2
SOLID
 70
1
 71
0
 91
1
 92
3
 72
0
 73
1
 93
4
 10
564.0
 20
-948.0
 10
602.0
 20
-948.0
 10
602.0
 20
-970.0
 10
564.0
 20
-970.0
 97
0
 75
1
 76
1
 98
0
  0
LWPOLYLINE
  5
236
330
17
100
AcDbEntity
  8
UI-HAIRLINE
100
AcDbPolyline
 90
4
 70
1
 10
564.0
 20
-948.0
 10
602.0
 20
-948.0
 10
602.0
 20
-970.0
 10
564.0
 20
-970.0
  0
TEXT
  5
237
330
17
100
AcDbEntity
  8
UI-TEXT
100
AcDbText
 10
583.0
 20
-959.0
 30
0.0
 40
9.0
  1
M
 72
1
 11
583.0
 21
-959.0
 31
0.0
100
AcDbText
 73
2
  0
HATCH
  5
238
330
17
100
AcDbEntity
  8
UI-RAISED
100
AcDbHatch
 10
0.0
 20
0.0
 30
0.0
210
0.0
220
0.0
230
1.0
  2
SOLID
 70
1
 71
0
 91
1
 92
3
 72
0
 73
1
 93
4
 10
606.0
 20
-948.0
 10
644.0
 20
-948.0
 10
644.0
 20
-970.0
 10
606.0
 20
-970.0
 97
0
 75
1
 76
1
 98
0
  0
LWPOLYLINE
  5
239
330
17
100
AcDbEntity
  8
UI-HAIRLINE
100
AcDbPolyline
 90
4
 70
1
 10
606.0
 20
-948.0
 10
644.0
 20
-948.0
 10
644.0
 20
-970.0
 10
606.0
 20
-970.0
  0
TEXT
  5
23A
330
17
100
AcDbEntity
  8
UI-TEXT
100
AcDbText
 10
625.0
 20
-959.0
 30
0.0
 40
9.0
  1
S
 72
1
 11
625.0
 21
-959.0
 31
0.0
100
AcDbText
 73
2
  0
HATCH
  5
23B
330
17
100
AcDbEntity
  8
UI-CLIP
 62
7
420
8161941
100
AcDbHatch
 10
0.0
 20
0.0
 30
0.0
210
0.0
220
0.0
230
1.0
  2
SOLID
 70
1
 71
0
 91
1
 92
3
 72
0
 73
1
 93
4
 10
650.0
 20
-46.0
 10
742.0
 20
-46.0
 10
742.0
 20
-51.0
 10
650.0
 20
-51.0
 97
0
 75
1
 76
1
 98
0
  0
HATCH
  5
23C
330
17
100
AcDbEntity
  8
UI-PANEL-BG
100
AcDbHatch
 10
0.0
 20
0.0
 30
0.0
210
0.0
220
0.0
230
1.0
  2
SOLID
 70
1
 71
0
 91
1
 92
3
 72
0
 73
1
 93
4
 10
650.0
 20
-51.0
 10
742.0
 20
-51.0
 10
742.0
 20
-71.0
 10
650.0
 20
-71.0
 97
0
 75
1
 76
1
 98
0
  0
TEXT
  5
23D
330
17
100
AcDbEntity
  8
UI-TEXT
100
AcDbText
 10
696.0
 20
-61.0
 30
0.0
 40
9.0
  1
FX
 72
1
 11
696.0
 21
-61.0
 31
0.0
100
AcDbText
 73
2
  0
LINE
  5
23E
330
17
100
AcDbEntity
  8
UI-HAIRLINE
100
AcDbLine
 10
741.0
 20
-46.0
 30
0.0
 11
741.0
 21
-976.0
 31
0.0
  0
HATCH
  5
23F
330
17
100
AcDbEntity
  8
UI-RAISED
100
AcDbHatch
 10
0.0
 20
0.0
 30
0.0
210
0.0
220
0.0
230
1.0
  2
SOLID
 70
1
 71
0
 91
1
 92
1
 93
1
 72
2
 10
696.0
 20
-97.0
 40
18
 50
0
 51
360
 73
1
 97
0
 75
1
 76
1
 98
0
  0
CIRCLE
  5
240
330
17
100
AcDbEntity
  8
UI-HAIRLINE
100
AcDbCircle
 10
696.0
 20
-97.0
 30
0.0
 40
18.0
  0
LINE
  5
241
330
17
100
AcDbEntity
  8
UI-ACCENT
100
AcDbLine
 10
696.0
 20
-97.0
 30
0.0
 11
711.9684276548523
 21
-95.99535168753098
 31
0.0
  0
ARC
  5
242
330
17
100
AcDbEntity
  8
UI-ACCENT
100
AcDbCircle
 10
696.0
 20
-97.0
 30
0.0
 40
21.0
100
AcDbArc
 50
3.59999999999998
 51
225.0
  0
TEXT
  5
243
330
17
100
AcDbEntity
  8
UI-TEXT-SEC
100
AcDbText
 10
696.0
 20
-124.0
 30
0.0
 40
9.0
  1
pan
 72
1
 11
696.0
 21
-124.0
 31
0.0
100
AcDbText
 73
2
  0
HATCH
  5
244
330
17
100
AcDbEntity
  8
UI-PANEL-BG
100
AcDbHatch
 10
0.0
 20
0.0
 30
0.0
210
0.0
220
0.0
230
1.0
  2
SOLID
 70
1
 71
0
 91
1
 92
3
 72
0
 73
1
 93
4
 10
652.0
 20
-123.0
 10
740.0
 20
-123.0
 10
740.0
 20
-138.0
 10
652.0
 20
-138.0
 97
0
 75
1
 76
1
 98
0
  0
LWPOLYLINE
  5
245
330
17
100
AcDbEntity
  8
UI-HAIRLINE
100
AcDbPolyline
 90
4
 70
1
 10
652.0
 20
-123.0
 10
740.0
 20
-123.0
 10
740.0
 20
-138.0
 10
652.0
 20
-138.0
  0
CIRCLE
  5
246
330
17
100
AcDbEntity
  8
UI-ACCENT
100
AcDbCircle
 10
658.0
 20
-130.5
 30
0.0
 40
3.0
  0
TEXT
  5
247
330
17
100
AcDbEntity
  8
UI-TEXT
100
AcDbText
 10
666.0
 20
-130.5
 30
0.0
 40
8.0
  1
Reverb
 11
666.0
 21
-130.5
 31
0.0
100
AcDbText
 73
2
  0
LINE
  5
248
330
17
100
AcDbEntity
  8
UI-TEXT-SEC
100
AcDbLine
 10
731.6
 20
-128.1
 30
0.0
 11
736.4
 21
-132.9
 31
0.0
  0
LINE
  5
249
330
17
100
AcDbEntity
  8
UI-TEXT-SEC
100
AcDbLine
 10
731.6
 20
-132.9
 30
0.0
 11
736.4
 21
-128.1
 31
0.0
  0
HATCH
  5
24A
330
17
100
AcDbEntity
  8
UI-RAISED
100
AcDbHatch
 10
0.0
 20
0.0
 30
0.0
210
0.0
220
0.0
230
1.0
  2
SOLID
 70
1
 71
0
 91
1
 92
3
 72
0
 73
1
 93
4
 10
652.0
 20
-139.0
 10
740.0
 20
-139.0
 10
740.0
 20
-154.0
 10
652.0
 20
-154.0
 97
0
 75
1
 76
1
 98
0
  0
LWPOLYLINE
  5
24B
330
17
100
AcDbEntity
  8
UI-HAIRLINE
100
AcDbPolyline
 90
4
 70
1
 10
652.0
 20
-139.0
 10
740.0
 20
-139.0
 10
740.0
 20
-154.0
 10
652.0
 20
-154.0
  0
TEXT
  5
24C
330
17
100
AcDbEntity
  8
UI-ACCENT
100
AcDbText
 10
696.0
 20
-146.5
 30
0.0
 40
8.0
  1
+ insert
 72
1
 11
696.0
 21
-146.5
 31
0.0
100
AcDbText
 73
2
  0
HATCH
  5
24D
330
17
100
AcDbEntity
  8
UI-PANEL-BG
100
AcDbHatch
 10
0.0
 20
0.0
 30
0.0
210
0.0
220
0.0
230
1.0
  2
SOLID
 70
1
 71
0
 91
1
 92
3
 72
0
 73
1
 93
4
 10
656.0
 20
-161.0
 10
664.0
 20
-161.0
 10
664.0
 20
-946.0
 10
656.0
 20
-946.0
 97
0
 75
1
 76
1
 98
0
  0
LWPOLYLINE
  5
24E
330
17
100
AcDbEntity
  8
UI-HAIRLINE
100
AcDbPolyline
 90
4
 70
1
 10
656.0
 20
-161.0
 10
664.0
 20
-161.0
 10
664.0
 20
-946.0
 10
656.0
 20
-946.0
  0
HATCH
  5
24F
330
17
100
AcDbEntity
  8
UI-METER
 62
7
420
5744995
100
AcDbHatch
 10
0.0
 20
0.0
 30
0.0
210
0.0
220
0.0
230
1.0
  2
SOLID
 70
1
 71
0
 91
1
 92
3
 72
0
 73
1
 93
4
 10
657.0
 20
-427.9000000000001
 10
663.0
 20
-427.9000000000001
 10
663.0
 20
-946.0
 10
657.0
 20
-946.0
 97
0
 75
1
 76
1
 98
0
  0
LINE
  5
250
330
17
100
AcDbEntity
  8
UI-ACCENT
100
AcDbLine
 10
656.0
 20
-365.1
 30
0.0
 11
664.0
 21
-365.1
 31
0.0
  0
TEXT
  5
251
330
17
100
AcDbEntity
  8
UI-TEXT-SEC
100
AcDbText
 10
666.0
 20
-161.0
 30
0.0
 40
7.0
  1
+6
 11
666.0
 21
-161.0
 31
0.0
100
AcDbText
 73
2
  0
TEXT
  5
252
330
17
100
AcDbEntity
  8
UI-TEXT-SEC
100
AcDbText
 10
666.0
 20
-294.45000000000005
 30
0.0
 40
7.0
  1
0
 11
666.0
 21
-294.45000000000005
 31
0.0
100
AcDbText
 73
2
  0
TEXT
  5
253
330
17
100
AcDbEntity
  8
UI-TEXT-SEC
100
AcDbText
 10
666.0
 20
-553.5
 30
0.0
 40
7.0
  1
-12
 11
666.0
 21
-553.5
 31
0.0
100
AcDbText
 73
2
  0
TEXT
  5
254
330
17
100
AcDbEntity
  8
UI-TEXT-SEC
100
AcDbText
 10
666.0
 20
-820.4
 30
0.0
 40
7.0
  1
-36
 11
666.0
 21
-820.4
 31
0.0
100
AcDbText
 73
2
  0
LINE
  5
255
330
17
100
AcDbEntity
  8
UI-HAIRLINE
100
AcDbLine
 10
722.0
 20
-167.0
 30
0.0
 11
722.0
 21
-922.0
 31
0.0
  0
LINE
  5
256
330
17
100
AcDbEntity
  8
UI-HAIRLINE
100
AcDbLine
 10
726.0
 20
-922.0
 30
0.0
 11
729.0
 21
-922.0
 31
0.0
  0
LINE
  5
257
330
17
100
AcDbEntity
  8
UI-HAIRLINE
100
AcDbLine
 10
726.0
 20
-733.25
 30
0.0
 11
729.0
 21
-733.25
 31
0.0
  0
LINE
  5
258
330
17
100
AcDbEntity
  8
UI-HAIRLINE
100
AcDbLine
 10
726.0
 20
-544.5
 30
0.0
 11
729.0
 21
-544.5
 31
0.0
  0
LINE
  5
259
330
17
100
AcDbEntity
  8
UI-HAIRLINE
100
AcDbLine
 10
726.0
 20
-355.75
 30
0.0
 11
729.0
 21
-355.75
 31
0.0
  0
LINE
  5
25A
330
17
100
AcDbEntity
  8
UI-HAIRLINE
100
AcDbLine
 10
726.0
 20
-167.0
 30
0.0
 11
729.0
 21
-167.0
 31
0.0
  0
HATCH
  5
25B
330
17
100
AcDbEntity
  8
UI-RAISED
100
AcDbHatch
 10
0.0
 20
0.0
 30
0.0
210
0.0
220
0.0
230
1.0
  2
SOLID
 70
1
 71
0
 91
1
 92
3
 72
0
 73
1
 93
4
 10
714.0
 20
-348.75
 10
730.0
 20
-348.75
 10
730.0
 20
-362.75
 10
714.0
 20
-362.75
 97
0
 75
1
 76
1
 98
0
  0
LWPOLYLINE
  5
25C
330
17
100
AcDbEntity
  8
UI-ACCENT
100
AcDbPolyline
 90
4
 70
1
 10
714.0
 20
-348.75
 10
730.0
 20
-348.75
 10
730.0
 20
-362.75
 10
714.0
 20
-362.75
  0
LINE
  5
25D
330
17
100
AcDbEntity
  8
UI-ACCENT
100
AcDbLine
 10
715.0
 20
-355.75
 30
0.0
 11
729.0
 21
-355.75
 31
0.0
  0
HATCH
  5
25E
330
17
100
AcDbEntity
  8
UI-RAISED
100
AcDbHatch
 10
0.0
 20
0.0
 30
0.0
210
0.0
220
0.0
230
1.0
  2
SOLID
 70
1
 71
0
 91
1
 92
3
 72
0
 73
1
 93
4
 10
656.0
 20
-930.0
 10
736.0
 20
-930.0
 10
736.0
 20
-946.0
 10
656.0
 20
-946.0
 97
0
 75
1
 76
1
 98
0
  0
LWPOLYLINE
  5
25F
330
17
100
AcDbEntity
  8
UI-HAIRLINE
100
AcDbPolyline
 90
4
 70
1
 10
656.0
 20
-930.0
 10
736.0
 20
-930.0
 10
736.0
 20
-946.0
 10
656.0
 20
-946.0
  0
TEXT
  5
260
330
17
100
AcDbEntity
  8
UI-TEXT
100
AcDbText
 10
696.0
 20
-938.0
 30
0.0
 40
8.0
  1
-2.9 dB
 72
1
 11
696.0
 21
-938.0
 31
0.0
100
AcDbText
 73
2
  0
HATCH
  5
261
330
17
100
AcDbEntity
  8
UI-RAISED
100
AcDbHatch
 10
0.0
 20
0.0
 30
0.0
210
0.0
220
0.0
230
1.0
  2
SOLID
 70
1
 71
0
 91
1
 92
3
 72
0
 73
1
 93
4
 10
656.0
 20
-948.0
 10
694.0
 20
-948.0
 10
694.0
 20
-970.0
 10
656.0
 20
-970.0
 97
0
 75
1
 76
1
 98
0
  0
LWPOLYLINE
  5
262
330
17
100
AcDbEntity
  8
UI-HAIRLINE
100
AcDbPolyline
 90
4
 70
1
 10
656.0
 20
-948.0
 10
694.0
 20
-948.0
 10
694.0
 20
-970.0
 10
656.0
 20
-970.0
  0
TEXT
  5
263
330
17
100
AcDbEntity
  8
UI-TEXT
100
AcDbText
 10
675.0
 20
-959.0
 30
0.0
 40
9.0
  1
M
 72
1
 11
675.0
 21
-959.0
 31
0.0
100
AcDbText
 73
2
  0
HATCH
  5
264
330
17
100
AcDbEntity
  8
UI-RAISED
100
AcDbHatch
 10
0.0
 20
0.0
 30
0.0
210
0.0
220
0.0
230
1.0
  2
SOLID
 70
1
 71
0
 91
1
 92
3
 72
0
 73
1
 93
4
 10
698.0
 20
-948.0
 10
736.0
 20
-948.0
 10
736.0
 20
-970.0
 10
698.0
 20
-970.0
 97
0
 75
1
 76
1
 98
0
  0
LWPOLYLINE
  5
265
330
17
100
AcDbEntity
  8
UI-HAIRLINE
100
AcDbPolyline
 90
4
 70
1
 10
698.0
 20
-948.0
 10
736.0
 20
-948.0
 10
736.0
 20
-970.0
 10
698.0
 20
-970.0
  0
TEXT
  5
266
330
17
100
AcDbEntity
  8
UI-TEXT
100
AcDbText
 10
717.0
 20
-959.0
 30
0.0
 40
9.0
  1
S
 72
1
 11
717.0
 21
-959.0
 31
0.0
100
AcDbText
 73
2
  0
LINE
  5
267
330
17
100
AcDbEntity
  8
UI-HAIRLINE
100
AcDbLine
 10
745.0
 20
-52.0
 30
0.0
 11
745.0
 21
-970.0
 31
0.0
  0
TEXT
  5
268
330
17
100
AcDbEntity
  8
UI-TEXT-SEC
100
AcDbText
 10
751.0
 20
-44.0
 30
0.0
 40
9.0
  1
RETURNS
 11
751.0
 21
-44.0
 31
0.0
100
AcDbText
 73
1
  0
HATCH
  5
269
330
17
100
AcDbEntity
  8
UI-CLIP
 62
7
420
8161941
100
AcDbHatch
 10
0.0
 20
0.0
 30
0.0
210
0.0
220
0.0
230
1.0
  2
SOLID
 70
1
 71
0
 91
1
 92
3
 72
0
 73
1
 93
4
 10
749.0
 20
-46.0
 10
841.0
 20
-46.0
 10
841.0
 20
-51.0
 10
749.0
 20
-51.0
 97
0
 75
1
 76
1
 98
0
  0
HATCH
  5
26A
330
17
100
AcDbEntity
  8
UI-PANEL-BG
100
AcDbHatch
 10
0.0
 20
0.0
 30
0.0
210
0.0
220
0.0
230
1.0
  2
SOLID
 70
1
 71
0
 91
1
 92
3
 72
0
 73
1
 93
4
 10
749.0
 20
-51.0
 10
841.0
 20
-51.0
 10
841.0
 20
-71.0
 10
749.0
 20
-71.0
 97
0
 75
1
 76
1
 98
0
  0
TEXT
  5
26B
330
17
100
AcDbEntity
  8
UI-TEXT
100
AcDbText
 10
795.0
 20
-61.0
 30
0.0
 40
9.0
  1
A · Reverb
 72
1
 11
795.0
 21
-61.0
 31
0.0
100
AcDbText
 73
2
  0
LINE
  5
26C
330
17
100
AcDbEntity
  8
UI-HAIRLINE
100
AcDbLine
 10
840.0
 20
-46.0
 30
0.0
 11
840.0
 21
-976.0
 31
0.0
  0
HATCH
  5
26D
330
17
100
AcDbEntity
  8
UI-RAISED
100
AcDbHatch
 10
0.0
 20
0.0
 30
0.0
210
0.0
220
0.0
230
1.0
  2
SOLID
 70
1
 71
0
 91
1
 92
1
 93
1
 72
2
 10
795.0
 20
-97.0
 40
18
 50
0
 51
360
 73
1
 97
0
 75
1
 76
1
 98
0
  0
CIRCLE
  5
26E
330
17
100
AcDbEntity
  8
UI-HAIRLINE
100
AcDbCircle
 10
795.0
 20
-97.0
 30
0.0
 40
18.0
  0
LINE
  5
26F
330
17
100
AcDbEntity
  8
UI-ACCENT
100
AcDbLine
 10
795.0
 20
-97.0
 30
0.0
 11
795.0
 21
-81.0
 31
0.0
  0
ARC
  5
270
330
17
100
AcDbEntity
  8
UI-ACCENT
100
AcDbCircle
 10
795.0
 20
-97.0
 30
0.0
 40
21.0
100
AcDbArc
 50
90.0
 51
225.0
  0
TEXT
  5
271
330
17
100
AcDbEntity
  8
UI-TEXT-SEC
100
AcDbText
 10
795.0
 20
-124.0
 30
0.0
 40
9.0
  1
pan
 72
1
 11
795.0
 21
-124.0
 31
0.0
100
AcDbText
 73
2
  0
HATCH
  5
272
330
17
100
AcDbEntity
  8
UI-PANEL-BG
100
AcDbHatch
 10
0.0
 20
0.0
 30
0.0
210
0.0
220
0.0
230
1.0
  2
SOLID
 70
1
 71
0
 91
1
 92
3
 72
0
 73
1
 93
4
 10
751.0
 20
-123.0
 10
839.0
 20
-123.0
 10
839.0
 20
-138.0
 10
751.0
 20
-138.0
 97
0
 75
1
 76
1
 98
0
  0
LWPOLYLINE
  5
273
330
17
100
AcDbEntity
  8
UI-HAIRLINE
100
AcDbPolyline
 90
4
 70
1
 10
751.0
 20
-123.0
 10
839.0
 20
-123.0
 10
839.0
 20
-138.0
 10
751.0
 20
-138.0
  0
CIRCLE
  5
274
330
17
100
AcDbEntity
  8
UI-ACCENT
100
AcDbCircle
 10
757.0
 20
-130.5
 30
0.0
 40
3.0
  0
TEXT
  5
275
330
17
100
AcDbEntity
  8
UI-TEXT
100
AcDbText
 10
765.0
 20
-130.5
 30
0.0
 40
8.0
  1
Reverb
 11
765.0
 21
-130.5
 31
0.0
100
AcDbText
 73
2
  0
LINE
  5
276
330
17
100
AcDbEntity
  8
UI-TEXT-SEC
100
AcDbLine
 10
830.6
 20
-128.1
 30
0.0
 11
835.4
 21
-132.9
 31
0.0
  0
LINE
  5
277
330
17
100
AcDbEntity
  8
UI-TEXT-SEC
100
AcDbLine
 10
830.6
 20
-132.9
 30
0.0
 11
835.4
 21
-128.1
 31
0.0
  0
HATCH
  5
278
330
17
100
AcDbEntity
  8
UI-RAISED
100
AcDbHatch
 10
0.0
 20
0.0
 30
0.0
210
0.0
220
0.0
230
1.0
  2
SOLID
 70
1
 71
0
 91
1
 92
3
 72
0
 73
1
 93
4
 10
751.0
 20
-139.0
 10
839.0
 20
-139.0
 10
839.0
 20
-154.0
 10
751.0
 20
-154.0
 97
0
 75
1
 76
1
 98
0
  0
LWPOLYLINE
  5
279
330
17
100
AcDbEntity
  8
UI-HAIRLINE
100
AcDbPolyline
 90
4
 70
1
 10
751.0
 20
-139.0
 10
839.0
 20
-139.0
 10
839.0
 20
-154.0
 10
751.0
 20
-154.0
  0
TEXT
  5
27A
330
17
100
AcDbEntity
  8
UI-ACCENT
100
AcDbText
 10
795.0
 20
-146.5
 30
0.0
 40
8.0
  1
+ insert
 72
1
 11
795.0
 21
-146.5
 31
0.0
100
AcDbText
 73
2
  0
HATCH
  5
27B
330
17
100
AcDbEntity
  8
UI-PANEL-BG
100
AcDbHatch
 10
0.0
 20
0.0
 30
0.0
210
0.0
220
0.0
230
1.0
  2
SOLID
 70
1
 71
0
 91
1
 92
3
 72
0
 73
1
 93
4
 10
755.0
 20
-161.0
 10
763.0
 20
-161.0
 10
763.0
 20
-946.0
 10
755.0
 20
-946.0
 97
0
 75
1
 76
1
 98
0
  0
LWPOLYLINE
  5
27C
330
17
100
AcDbEntity
  8
UI-HAIRLINE
100
AcDbPolyline
 90
4
 70
1
 10
755.0
 20
-161.0
 10
763.0
 20
-161.0
 10
763.0
 20
-946.0
 10
755.0
 20
-946.0
  0
HATCH
  5
27D
330
17
100
AcDbEntity
  8
UI-METER
 62
7
420
5744995
100
AcDbHatch
 10
0.0
 20
0.0
 30
0.0
210
0.0
220
0.0
230
1.0
  2
SOLID
 70
1
 71
0
 91
1
 92
3
 72
0
 73
1
 93
4
 10
756.0
 20
-710.5
 10
762.0
 20
-710.5
 10
762.0
 20
-946.0
 10
756.0
 20
-946.0
 97
0
 75
1
 76
1
 98
0
  0
LINE
  5
27E
330
17
100
AcDbEntity
  8
UI-ACCENT
100
AcDbLine
 10
755.0
 20
-553.5
 30
0.0
 11
763.0
 21
-553.5
 31
0.0
  0
TEXT
  5
27F
330
17
100
AcDbEntity
  8
UI-TEXT-SEC
100
AcDbText
 10
765.0
 20
-161.0
 30
0.0
 40
7.0
  1
+6
 11
765.0
 21
-161.0
 31
0.0
100
AcDbText
 73
2
  0
TEXT
  5
280
330
17
100
AcDbEntity
  8
UI-TEXT-SEC
100
AcDbText
 10
765.0
 20
-294.45000000000005
 30
0.0
 40
7.0
  1
0
 11
765.0
 21
-294.45000000000005
 31
0.0
100
AcDbText
 73
2
  0
TEXT
  5
281
330
17
100
AcDbEntity
  8
UI-TEXT-SEC
100
AcDbText
 10
765.0
 20
-553.5
 30
0.0
 40
7.0
  1
-12
 11
765.0
 21
-553.5
 31
0.0
100
AcDbText
 73
2
  0
TEXT
  5
282
330
17
100
AcDbEntity
  8
UI-TEXT-SEC
100
AcDbText
 10
765.0
 20
-820.4
 30
0.0
 40
7.0
  1
-36
 11
765.0
 21
-820.4
 31
0.0
100
AcDbText
 73
2
  0
LINE
  5
283
330
17
100
AcDbEntity
  8
UI-HAIRLINE
100
AcDbLine
 10
821.0
 20
-167.0
 30
0.0
 11
821.0
 21
-922.0
 31
0.0
  0
LINE
  5
284
330
17
100
AcDbEntity
  8
UI-HAIRLINE
100
AcDbLine
 10
825.0
 20
-922.0
 30
0.0
 11
828.0
 21
-922.0
 31
0.0
  0
LINE
  5
285
330
17
100
AcDbEntity
  8
UI-HAIRLINE
100
AcDbLine
 10
825.0
 20
-733.25
 30
0.0
 11
828.0
 21
-733.25
 31
0.0
  0
LINE
  5
286
330
17
100
AcDbEntity
  8
UI-HAIRLINE
100
AcDbLine
 10
825.0
 20
-544.5
 30
0.0
 11
828.0
 21
-544.5
 31
0.0
  0
LINE
  5
287
330
17
100
AcDbEntity
  8
UI-HAIRLINE
100
AcDbLine
 10
825.0
 20
-355.75
 30
0.0
 11
828.0
 21
-355.75
 31
0.0
  0
LINE
  5
288
330
17
100
AcDbEntity
  8
UI-HAIRLINE
100
AcDbLine
 10
825.0
 20
-167.0
 30
0.0
 11
828.0
 21
-167.0
 31
0.0
  0
HATCH
  5
289
330
17
100
AcDbEntity
  8
UI-RAISED
100
AcDbHatch
 10
0.0
 20
0.0
 30
0.0
210
0.0
220
0.0
230
1.0
  2
SOLID
 70
1
 71
0
 91
1
 92
3
 72
0
 73
1
 93
4
 10
813.0
 20
-386.5
 10
829.0
 20
-386.5
 10
829.0
 20
-400.5
 10
813.0
 20
-400.5
 97
0
 75
1
 76
1
 98
0
  0
LWPOLYLINE
  5
28A
330
17
100
AcDbEntity
  8
UI-ACCENT
100
AcDbPolyline
 90
4
 70
1
 10
813.0
 20
-386.5
 10
829.0
 20
-386.5
 10
829.0
 20
-400.5
 10
813.0
 20
-400.5
  0
LINE
  5
28B
330
17
100
AcDbEntity
  8
UI-ACCENT
100
AcDbLine
 10
814.0
 20
-393.5
 30
0.0
 11
828.0
 21
-393.5
 31
0.0
  0
HATCH
  5
28C
330
17
100
AcDbEntity
  8
UI-RAISED
100
AcDbHatch
 10
0.0
 20
0.0
 30
0.0
210
0.0
220
0.0
230
1.0
  2
SOLID
 70
1
 71
0
 91
1
 92
3
 72
0
 73
1
 93
4
 10
755.0
 20
-930.0
 10
835.0
 20
-930.0
 10
835.0
 20
-946.0
 10
755.0
 20
-946.0
 97
0
 75
1
 76
1
 98
0
  0
LWPOLYLINE
  5
28D
330
17
100
AcDbEntity
  8
UI-HAIRLINE
100
AcDbPolyline
 90
4
 70
1
 10
755.0
 20
-930.0
 10
835.0
 20
-930.0
 10
835.0
 20
-946.0
 10
755.0
 20
-946.0
  0
TEXT
  5
28E
330
17
100
AcDbEntity
  8
UI-TEXT
100
AcDbText
 10
795.0
 20
-938.0
 30
0.0
 40
8.0
  1
-4.7 dB
 72
1
 11
795.0
 21
-938.0
 31
0.0
100
AcDbText
 73
2
  0
HATCH
  5
28F
330
17
100
AcDbEntity
  8
UI-RAISED
100
AcDbHatch
 10
0.0
 20
0.0
 30
0.0
210
0.0
220
0.0
230
1.0
  2
SOLID
 70
1
 71
0
 91
1
 92
3
 72
0
 73
1
 93
4
 10
755.0
 20
-948.0
 10
793.0
 20
-948.0
 10
793.0
 20
-970.0
 10
755.0
 20
-970.0
 97
0
 75
1
 76
1
 98
0
  0
LWPOLYLINE
  5
290
330
17
100
AcDbEntity
  8
UI-HAIRLINE
100
AcDbPolyline
 90
4
 70
1
 10
755.0
 20
-948.0
 10
793.0
 20
-948.0
 10
793.0
 20
-970.0
 10
755.0
 20
-970.0
  0
TEXT
  5
291
330
17
100
AcDbEntity
  8
UI-TEXT
100
AcDbText
 10
774.0
 20
-959.0
 30
0.0
 40
9.0
  1
M
 72
1
 11
774.0
 21
-959.0
 31
0.0
100
AcDbText
 73
2
  0
HATCH
  5
292
330
17
100
AcDbEntity
  8
UI-RAISED
100
AcDbHatch
 10
0.0
 20
0.0
 30
0.0
210
0.0
220
0.0
230
1.0
  2
SOLID
 70
1
 71
0
 91
1
 92
3
 72
0
 73
1
 93
4
 10
797.0
 20
-948.0
 10
835.0
 20
-948.0
 10
835.0
 20
-970.0
 10
797.0
 20
-970.0
 97
0
 75
1
 76
1
 98
0
  0
LWPOLYLINE
  5
293
330
17
100
AcDbEntity
  8
UI-HAIRLINE
100
AcDbPolyline
 90
4
 70
1
 10
797.0
 20
-948.0
 10
835.0
 20
-948.0
 10
835.0
 20
-970.0
 10
797.0
 20
-970.0
  0
TEXT
  5
294
330
17
100
AcDbEntity
  8
UI-TEXT
100
AcDbText
 10
816.0
 20
-959.0
 30
0.0
 40
9.0
  1
S
 72
1
 11
816.0
 21
-959.0
 31
0.0
100
AcDbText
 73
2
  0
HATCH
  5
295
330
17
100
AcDbEntity
  8
UI-CLIP
 62
7
420
5932740
100
AcDbHatch
 10
0.0
 20
0.0
 30
0.0
210
0.0
220
0.0
230
1.0
  2
SOLID
 70
1
 71
0
 91
1
 92
3
 72
0
 73
1
 93
4
 10
841.0
 20
-46.0
 10
933.0
 20
-46.0
 10
933.0
 20
-51.0
 10
841.0
 20
-51.0
 97
0
 75
1
 76
1
 98
0
  0
HATCH
  5
296
330
17
100
AcDbEntity
  8
UI-PANEL-BG
100
AcDbHatch
 10
0.0
 20
0.0
 30
0.0
210
0.0
220
0.0
230
1.0
  2
SOLID
 70
1
 71
0
 91
1
 92
3
 72
0
 73
1
 93
4
 10
841.0
 20
-51.0
 10
933.0
 20
-51.0
 10
933.0
 20
-71.0
 10
841.0
 20
-71.0
 97
0
 75
1
 76
1
 98
0
  0
TEXT
  5
297
330
17
100
AcDbEntity
  8
UI-TEXT
100
AcDbText
 10
887.0
 20
-61.0
 30
0.0
 40
9.0
  1
B · Delay
 72
1
 11
887.0
 21
-61.0
 31
0.0
100
AcDbText
 73
2
  0
LINE
  5
298
330
17
100
AcDbEntity
  8
UI-HAIRLINE
100
AcDbLine
 10
932.0
 20
-46.0
 30
0.0
 11
932.0
 21
-976.0
 31
0.0
  0
HATCH
  5
299
330
17
100
AcDbEntity
  8
UI-RAISED
100
AcDbHatch
 10
0.0
 20
0.0
 30
0.0
210
0.0
220
0.0
230
1.0
  2
SOLID
 70
1
 71
0
 91
1
 92
1
 93
1
 72
2
 10
887.0
 20
-97.0
 40
18
 50
0
 51
360
 73
1
 97
0
 75
1
 76
1
 98
0
  0
CIRCLE
  5
29A
330
17
100
AcDbEntity
  8
UI-HAIRLINE
100
AcDbCircle
 10
887.0
 20
-97.0
 30
0.0
 40
18.0
  0
LINE
  5
29B
330
17
100
AcDbEntity
  8
UI-ACCENT
100
AcDbLine
 10
887.0
 20
-97.0
 30
0.0
 11
887.0
 21
-81.0
 31
0.0
  0
ARC
  5
29C
330
17
100
AcDbEntity
  8
UI-ACCENT
100
AcDbCircle
 10
887.0
 20
-97.0
 30
0.0
 40
21.0
100
AcDbArc
 50
90.0
 51
225.0
  0
TEXT
  5
29D
330
17
100
AcDbEntity
  8
UI-TEXT-SEC
100
AcDbText
 10
887.0
 20
-124.0
 30
0.0
 40
9.0
  1
pan
 72
1
 11
887.0
 21
-124.0
 31
0.0
100
AcDbText
 73
2
  0
HATCH
  5
29E
330
17
100
AcDbEntity
  8
UI-PANEL-BG
100
AcDbHatch
 10
0.0
 20
0.0
 30
0.0
210
0.0
220
0.0
230
1.0
  2
SOLID
 70
1
 71
0
 91
1
 92
3
 72
0
 73
1
 93
4
 10
843.0
 20
-123.0
 10
931.0
 20
-123.0
 10
931.0
 20
-138.0
 10
843.0
 20
-138.0
 97
0
 75
1
 76
1
 98
0
  0
LWPOLYLINE
  5
29F
330
17
100
AcDbEntity
  8
UI-HAIRLINE
100
AcDbPolyline
 90
4
 70
1
 10
843.0
 20
-123.0
 10
931.0
 20
-123.0
 10
931.0
 20
-138.0
 10
843.0
 20
-138.0
  0
CIRCLE
  5
2A0
330
17
100
AcDbEntity
  8
UI-ACCENT
100
AcDbCircle
 10
849.0
 20
-130.5
 30
0.0
 40
3.0
  0
TEXT
  5
2A1
330
17
100
AcDbEntity
  8
UI-TEXT
100
AcDbText
 10
857.0
 20
-130.5
 30
0.0
 40
8.0
  1
Delay
 11
857.0
 21
-130.5
 31
0.0
100
AcDbText
 73
2
  0
LINE
  5
2A2
330
17
100
AcDbEntity
  8
UI-TEXT-SEC
100
AcDbLine
 10
922.6
 20
-128.1
 30
0.0
 11
927.4
 21
-132.9
 31
0.0
  0
LINE
  5
2A3
330
17
100
AcDbEntity
  8
UI-TEXT-SEC
100
AcDbLine
 10
922.6
 20
-132.9
 30
0.0
 11
927.4
 21
-128.1
 31
0.0
  0
HATCH
  5
2A4
330
17
100
AcDbEntity
  8
UI-PANEL-BG
100
AcDbHatch
 10
0.0
 20
0.0
 30
0.0
210
0.0
220
0.0
230
1.0
  2
SOLID
 70
1
 71
0
 91
1
 92
3
 72
0
 73
1
 93
4
 10
843.0
 20
-139.0
 10
931.0
 20
-139.0
 10
931.0
 20
-154.0
 10
843.0
 20
-154.0
 97
0
 75
1
 76
1
 98
0
  0
LWPOLYLINE
  5
2A5
330
17
100
AcDbEntity
  8
UI-HAIRLINE
100
AcDbPolyline
 90
4
 70
1
 10
843.0
 20
-139.0
 10
931.0
 20
-139.0
 10
931.0
 20
-154.0
 10
843.0
 20
-154.0
  0
CIRCLE
  5
2A6
330
17
100
AcDbEntity
  8
UI-ACCENT
100
AcDbCircle
 10
849.0
 20
-146.5
 30
0.0
 40
3.0
  0
TEXT
  5
2A7
330
17
100
AcDbEntity
  8
UI-TEXT
100
AcDbText
 10
857.0
 20
-146.5
 30
0.0
 40
8.0
  1
Filter
 11
857.0
 21
-146.5
 31
0.0
100
AcDbText
 73
2
  0
LINE
  5
2A8
330
17
100
AcDbEntity
  8
UI-TEXT-SEC
100
AcDbLine
 10
922.6
 20
-144.1
 30
0.0
 11
927.4
 21
-148.9
 31
0.0
  0
LINE
  5
2A9
330
17
100
AcDbEntity
  8
UI-TEXT-SEC
100
AcDbLine
 10
922.6
 20
-148.9
 30
0.0
 11
927.4
 21
-144.1
 31
0.0
  0
HATCH
  5
2AA
330
17
100
AcDbEntity
  8
UI-RAISED
100
AcDbHatch
 10
0.0
 20
0.0
 30
0.0
210
0.0
220
0.0
230
1.0
  2
SOLID
 70
1
 71
0
 91
1
 92
3
 72
0
 73
1
 93
4
 10
843.0
 20
-155.0
 10
931.0
 20
-155.0
 10
931.0
 20
-170.0
 10
843.0
 20
-170.0
 97
0
 75
1
 76
1
 98
0
  0
LWPOLYLINE
  5
2AB
330
17
100
AcDbEntity
  8
UI-HAIRLINE
100
AcDbPolyline
 90
4
 70
1
 10
843.0
 20
-155.0
 10
931.0
 20
-155.0
 10
931.0
 20
-170.0
 10
843.0
 20
-170.0
  0
TEXT
  5
2AC
330
17
100
AcDbEntity
  8
UI-ACCENT
100
AcDbText
 10
887.0
 20
-162.5
 30
0.0
 40
8.0
  1
+ insert
 72
1
 11
887.0
 21
-162.5
 31
0.0
100
AcDbText
 73
2
  0
HATCH
  5
2AD
330
17
100
AcDbEntity
  8
UI-PANEL-BG
100
AcDbHatch
 10
0.0
 20
0.0
 30
0.0
210
0.0
220
0.0
230
1.0
  2
SOLID
 70
1
 71
0
 91
1
 92
3
 72
0
 73
1
 93
4
 10
847.0
 20
-177.0
 10
855.0
 20
-177.0
 10
855.0
 20
-946.0
 10
847.0
 20
-946.0
 97
0
 75
1
 76
1
 98
0
  0
LWPOLYLINE
  5
2AE
330
17
100
AcDbEntity
  8
UI-HAIRLINE
100
AcDbPolyline
 90
4
 70
1
 10
847.0
 20
-177.0
 10
855.0
 20
-177.0
 10
855.0
 20
-946.0
 10
847.0
 20
-946.0
  0
HATCH
  5
2AF
330
17
100
AcDbEntity
  8
UI-METER
 62
7
420
5744995
100
AcDbHatch
 10
0.0
 20
0.0
 30
0.0
210
0.0
220
0.0
230
1.0
  2
SOLID
 70
1
 71
0
 91
1
 92
3
 72
0
 73
1
 93
4
 10
848.0
 20
-761.44
 10
854.0
 20
-761.44
 10
854.0
 20
-946.0
 10
848.0
 20
-946.0
 97
0
 75
1
 76
1
 98
0
  0
LINE
  5
2B0
330
17
100
AcDbEntity
  8
UI-ACCENT
100
AcDbLine
 10
847.0
 20
-623.02
 30
0.0
 11
855.0
 21
-623.02
 31
0.0
  0
TEXT
  5
2B1
330
17
100
AcDbEntity
  8
UI-TEXT-SEC
100
AcDbText
 10
857.0
 20
-177.0
 30
0.0
 40
7.0
  1
+6
 11
857.0
 21
-177.0
 31
0.0
100
AcDbText
 73
2
  0
TEXT
  5
2B2
330
17
100
AcDbEntity
  8
UI-TEXT-SEC
100
AcDbText
 10
857.0
 20
-307.73
 30
0.0
 40
7.0
  1
0
 11
857.0
 21
-307.73
 31
0.0
100
AcDbText
 73
2
  0
TEXT
  5
2B3
330
17
100
AcDbEntity
  8
UI-TEXT-SEC
100
AcDbText
 10
857.0
 20
-561.5
 30
0.0
 40
7.0
  1
-12
 11
857.0
 21
-561.5
 31
0.0
100
AcDbText
 73
2
  0
TEXT
  5
2B4
330
17
100
AcDbEntity
  8
UI-TEXT-SEC
100
AcDbText
 10
857.0
 20
-822.9599999999999
 30
0.0
 40
7.0
  1
-36
 11
857.0
 21
-822.9599999999999
 31
0.0
100
AcDbText
 73
2
  0
LINE
  5
2B5
330
17
100
AcDbEntity
  8
UI-HAIRLINE
100
AcDbLine
 10
913.0
 20
-183.0
 30
0.0
 11
913.0
 21
-922.0
 31
0.0
  0
LINE
  5
2B6
330
17
100
AcDbEntity
  8
UI-HAIRLINE
100
AcDbLine
 10
917.0
 20
-922.0
 30
0.0
 11
920.0
 21
-922.0
 31
0.0
  0
LINE
  5
2B7
330
17
100
AcDbEntity
  8
UI-HAIRLINE
100
AcDbLine
 10
917.0
 20
-737.25
 30
0.0
 11
920.0
 21
-737.25
 31
0.0
  0
LINE
  5
2B8
330
17
100
AcDbEntity
  8
UI-HAIRLINE
100
AcDbLine
 10
917.0
 20
-552.5
 30
0.0
 11
920.0
 21
-552.5
 31
0.0
  0
LINE
  5
2B9
330
17
100
AcDbEntity
  8
UI-HAIRLINE
100
AcDbLine
 10
917.0
 20
-367.75
 30
0.0
 11
920.0
 21
-367.75
 31
0.0
  0
LINE
  5
2BA
330
17
100
AcDbEntity
  8
UI-HAIRLINE
100
AcDbLine
 10
917.0
 20
-183.0
 30
0.0
 11
920.0
 21
-183.0
 31
0.0
  0
HATCH
  5
2BB
330
17
100
AcDbEntity
  8
UI-RAISED
100
AcDbHatch
 10
0.0
 20
0.0
 30
0.0
210
0.0
220
0.0
230
1.0
  2
SOLID
 70
1
 71
0
 91
1
 92
3
 72
0
 73
1
 93
4
 10
905.0
 20
-427.26
 10
921.0
 20
-427.26
 10
921.0
 20
-441.26
 10
905.0
 20
-441.26
 97
0
 75
1
 76
1
 98
0
  0
LWPOLYLINE
  5
2BC
330
17
100
AcDbEntity
  8
UI-ACCENT
100
AcDbPolyline
 90
4
 70
1
 10
905.0
 20
-427.26
 10
921.0
 20
-427.26
 10
921.0
 20
-441.26
 10
905.0
 20
-441.26
  0
LINE
  5
2BD
330
17
100
AcDbEntity
  8
UI-ACCENT
100
AcDbLine
 10
906.0
 20
-434.26
 30
0.0
 11
920.0
 21
-434.26
 31
0.0
  0
HATCH
  5
2BE
330
17
100
AcDbEntity
  8
UI-RAISED
100
AcDbHatch
 10
0.0
 20
0.0
 30
0.0
210
0.0
220
0.0
230
1.0
  2
SOLID
 70
1
 71
0
 91
1
 92
3
 72
0
 73
1
 93
4
 10
847.0
 20
-930.0
 10
927.0
 20
-930.0
 10
927.0
 20
-946.0
 10
847.0
 20
-946.0
 97
0
 75
1
 76
1
 98
0
  0
LWPOLYLINE
  5
2BF
330
17
100
AcDbEntity
  8
UI-HAIRLINE
100
AcDbPolyline
 90
4
 70
1
 10
847.0
 20
-930.0
 10
927.0
 20
-930.0
 10
927.0
 20
-946.0
 10
847.0
 20
-946.0
  0
TEXT
  5
2C0
330
17
100
AcDbEntity
  8
UI-TEXT
100
AcDbText
 10
887.0
 20
-938.0
 30
0.0
 40
8.0
  1
-6.1 dB
 72
1
 11
887.0
 21
-938.0
 31
0.0
100
AcDbText
 73
2
  0
HATCH
  5
2C1
330
17
100
AcDbEntity
  8
UI-RAISED
100
AcDbHatch
 10
0.0
 20
0.0
 30
0.0
210
0.0
220
0.0
230
1.0
  2
SOLID
 70
1
 71
0
 91
1
 92
3
 72
0
 73
1
 93
4
 10
847.0
 20
-948.0
 10
885.0
 20
-948.0
 10
885.0
 20
-970.0
 10
847.0
 20
-970.0
 97
0
 75
1
 76
1
 98
0
  0
LWPOLYLINE
  5
2C2
330
17
100
AcDbEntity
  8
UI-HAIRLINE
100
AcDbPolyline
 90
4
 70
1
 10
847.0
 20
-948.0
 10
885.0
 20
-948.0
 10
885.0
 20
-970.0
 10
847.0
 20
-970.0
  0
TEXT
  5
2C3
330
17
100
AcDbEntity
  8
UI-TEXT
100
AcDbText
 10
866.0
 20
-959.0
 30
0.0
 40
9.0
  1
M
 72
1
 11
866.0
 21
-959.0
 31
0.0
100
AcDbText
 73
2
  0
HATCH
  5
2C4
330
17
100
AcDbEntity
  8
UI-RAISED
100
AcDbHatch
 10
0.0
 20
0.0
 30
0.0
210
0.0
220
0.0
230
1.0
  2
SOLID
 70
1
 71
0
 91
1
 92
3
 72
0
 73
1
 93
4
 10
889.0
 20
-948.0
 10
927.0
 20
-948.0
 10
927.0
 20
-970.0
 10
889.0
 20
-970.0
 97
0
 75
1
 76
1
 98
0
  0
LWPOLYLINE
  5
2C5
330
17
100
AcDbEntity
  8
UI-HAIRLINE
100
AcDbPolyline
 90
4
 70
1
 10
889.0
 20
-948.0
 10
927.0
 20
-948.0
 10
927.0
 20
-970.0
 10
889.0
 20
-970.0
  0
TEXT
  5
2C6
330
17
100
AcDbEntity
  8
UI-TEXT
100
AcDbText
 10
908.0
 20
-959.0
 30
0.0
 40
9.0
  1
S
 72
1
 11
908.0
 21
-959.0
 31
0.0
100
AcDbText
 73
2
  0
LINE
  5
2C7
330
17
100
AcDbEntity
  8
UI-HAIRLINE
100
AcDbLine
 10
936.0
 20
-52.0
 30
0.0
 11
936.0
 21
-970.0
 31
0.0
  0
HATCH
  5
2C8
330
17
100
AcDbEntity
  8
UI-CLIP
 62
7
420
14716975
100
AcDbHatch
 10
0.0
 20
0.0
 30
0.0
210
0.0
220
0.0
230
1.0
  2
SOLID
 70
1
 71
0
 91
1
 92
3
 72
0
 73
1
 93
4
 10
940.0
 20
-46.0
 10
1036.0
 20
-46.0
 10
1036.0
 20
-51.0
 10
940.0
 20
-51.0
 97
0
 75
1
 76
1
 98
0
  0
HATCH
  5
2C9
330
17
100
AcDbEntity
  8
UI-PANEL-BG
100
AcDbHatch
 10
0.0
 20
0.0
 30
0.0
210
0.0
220
0.0
230
1.0
  2
SOLID
 70
1
 71
0
 91
1
 92
3
 72
0
 73
1
 93
4
 10
940.0
 20
-51.0
 10
1036.0
 20
-51.0
 10
1036.0
 20
-71.0
 10
940.0
 20
-71.0
 97
0
 75
1
 76
1
 98
0
  0
TEXT
  5
2CA
330
17
100
AcDbEntity
  8
UI-ACCENT
100
AcDbText
 10
988.0
 20
-61.0
 30
0.0
 40
9.0
  1
MASTER
 72
1
 11
988.0
 21
-61.0
 31
0.0
100
AcDbText
 73
2
  0
LINE
  5
2CB
330
17
100
AcDbEntity
  8
UI-HAIRLINE
100
AcDbLine
 10
940.0
 20
-46.0
 30
0.0
 11
940.0
 21
-976.0
 31
0.0
  0
HATCH
  5
2CC
330
17
100
AcDbEntity
  8
UI-PANEL-BG
100
AcDbHatch
 10
0.0
 20
0.0
 30
0.0
210
0.0
220
0.0
230
1.0
  2
SOLID
 70
1
 71
0
 91
1
 92
3
 72
0
 73
1
 93
4
 10
946.0
 20
-76.0
 10
1030.0
 20
-76.0
 10
1030.0
 20
-106.0
 10
946.0
 20
-106.0
 97
0
 75
1
 76
1
 98
0
  0
LWPOLYLINE
  5
2CD
330
17
100
AcDbEntity
  8
UI-HAIRLINE
100
AcDbPolyline
 90
4
 70
1
 10
946.0
 20
-76.0
 10
1030.0
 20
-76.0
 10
1030.0
 20
-106.0
 10
946.0
 20
-106.0
  0
TEXT
  5
2CE
330
17
100
AcDbEntity
  8
UI-TEXT
100
AcDbText
 10
988.0
 20
-86.0
 30
0.0
 40
9.0
  1
-14.2 LUFS
 72
1
 11
988.0
 21
-86.0
 31
0.0
100
AcDbText
 73
2
  0
TEXT
  5
2CF
330
17
100
AcDbEntity
  8
UI-TEXT-SEC
100
AcDbText
 10
988.0
 20
-98.0
 30
0.0
 40
7.0
  1
integrated
 72
1
 11
988.0
 21
-98.0
 31
0.0
100
AcDbText
 73
2
  0
HATCH
  5
2D0
330
17
100
AcDbEntity
  8
UI-PANEL-BG
100
AcDbHatch
 10
0.0
 20
0.0
 30
0.0
210
0.0
220
0.0
230
1.0
  2
SOLID
 70
1
 71
0
 91
1
 92
3
 72
0
 73
1
 93
4
 10
948.0
 20
-114.0
 10
958.0
 20
-114.0
 10
958.0
 20
-946.0
 10
948.0
 20
-946.0
 97
0
 75
1
 76
1
 98
0
  0
LWPOLYLINE
  5
2D1
330
17
100
AcDbEntity
  8
UI-HAIRLINE
100
AcDbPolyline
 90
4
 70
1
 10
948.0
 20
-114.0
 10
958.0
 20
-114.0
 10
958.0
 20
-946.0
 10
948.0
 20
-946.0
  0
HATCH
  5
2D2
330
17
100
AcDbEntity
  8
UI-METER
 62
7
420
5744995
100
AcDbHatch
 10
0.0
 20
0.0
 30
0.0
210
0.0
220
0.0
230
1.0
  2
SOLID
 70
1
 71
0
 91
1
 92
3
 72
0
 73
1
 93
4
 10
949.0
 20
-396.88
 10
957.0
 20
-396.88
 10
957.0
 20
-946.0
 10
949.0
 20
-946.0
 97
0
 75
1
 76
1
 98
0
  0
LINE
  5
2D3
330
17
100
AcDbEntity
  8
UI-ACCENT
100
AcDbLine
 10
948.0
 20
-280.4
 30
0.0
 11
958.0
 21
-280.4
 31
0.0
  0
HATCH
  5
2D4
330
17
100
AcDbEntity
  8
UI-PANEL-BG
100
AcDbHatch
 10
0.0
 20
0.0
 30
0.0
210
0.0
220
0.0
230
1.0
  2
SOLID
 70
1
 71
0
 91
1
 92
3
 72
0
 73
1
 93
4
 10
960.0
 20
-114.0
 10
970.0
 20
-114.0
 10
970.0
 20
-946.0
 10
960.0
 20
-946.0
 97
0
 75
1
 76
1
 98
0
  0
LWPOLYLINE
  5
2D5
330
17
100
AcDbEntity
  8
UI-HAIRLINE
100
AcDbPolyline
 90
4
 70
1
 10
960.0
 20
-114.0
 10
970.0
 20
-114.0
 10
970.0
 20
-946.0
 10
960.0
 20
-946.0
  0
HATCH
  5
2D6
330
17
100
AcDbEntity
  8
UI-METER
 62
7
420
5744995
100
AcDbHatch
 10
0.0
 20
0.0
 30
0.0
210
0.0
220
0.0
230
1.0
  2
SOLID
 70
1
 71
0
 91
1
 92
3
 72
0
 73
1
 93
4
 10
961.0
 20
-446.8
 10
969.0
 20
-446.8
 10
969.0
 20
-946.0
 10
961.0
 20
-946.0
 97
0
 75
1
 76
1
 98
0
  0
LINE
  5
2D7
330
17
100
AcDbEntity
  8
UI-ACCENT
100
AcDbLine
 10
960.0
 20
-330.32000000000005
 30
0.0
 11
970.0
 21
-330.32000000000005
 31
0.0
  0
LINE
  5
2D8
330
17
100
AcDbEntity
  8
UI-HAIRLINE
100
AcDbLine
 10
1016.0
 20
-120.0
 30
0.0
 11
1016.0
 21
-922.0
 31
0.0
  0
LINE
  5
2D9
330
17
100
AcDbEntity
  8
UI-HAIRLINE
100
AcDbLine
 10
1020.0
 20
-922.0
 30
0.0
 11
1023.0
 21
-922.0
 31
0.0
  0
LINE
  5
2DA
330
17
100
AcDbEntity
  8
UI-HAIRLINE
100
AcDbLine
 10
1020.0
 20
-721.5
 30
0.0
 11
1023.0
 21
-721.5
 31
0.0
  0
LINE
  5
2DB
330
17
100
AcDbEntity
  8
UI-HAIRLINE
100
AcDbLine
 10
1020.0
 20
-521.0
 30
0.0
 11
1023.0
 21
-521.0
 31
0.0
  0
LINE
  5
2DC
330
17
100
AcDbEntity
  8
UI-HAIRLINE
100
AcDbLine
 10
1020.0
 20
-320.5
 30
0.0
 11
1023.0
 21
-320.5
 31
0.0
  0
LINE
  5
2DD
330
17
100
AcDbEntity
  8
UI-HAIRLINE
100
AcDbLine
 10
1020.0
 20
-120.0
 30
0.0
 11
1023.0
 21
-120.0
 31
0.0
  0
HATCH
  5
2DE
330
17
100
AcDbEntity
  8
UI-RAISED
100
AcDbHatch
 10
0.0
 20
0.0
 30
0.0
210
0.0
220
0.0
230
1.0
  2
SOLID
 70
1
 71
0
 91
1
 92
3
 72
0
 73
1
 93
4
 10
1008.0
 20
-249.34000000000003
 10
1024.0
 20
-249.34000000000003
 10
1024.0
 20
-263.34000000000003
 10
1008.0
 20
-263.34000000000003
 97
0
 75
1
 76
1
 98
0
  0
LWPOLYLINE
  5
2DF
330
17
100
AcDbEntity
  8
UI-ACCENT
100
AcDbPolyline
 90
4
 70
1
 10
1008.0
 20
-249.34000000000003
 10
1024.0
 20
-249.34000000000003
 10
1024.0
 20
-263.34000000000003
 10
1008.0
 20
-263.34000000000003
  0
LINE
  5
2E0
330
17
100
AcDbEntity
  8
UI-ACCENT
100
AcDbLine
 10
1009.0
 20
-256.34000000000003
 30
0.0
 11
1023.0
 21
-256.34000000000003
 31
0.0
  0
HATCH
  5
2E1
330
17
100
AcDbEntity
  8
UI-RAISED
100
AcDbHatch
 10
0.0
 20
0.0
 30
0.0
210
0.0
220
0.0
230
1.0
  2
SOLID
 70
1
 71
0
 91
1
 92
3
 72
0
 73
1
 93
4
 10
946.0
 20
-930.0
 10
1030.0
 20
-930.0
 10
1030.0
 20
-946.0
 10
946.0
 20
-946.0
 97
0
 75
1
 76
1
 98
0
  0
LWPOLYLINE
  5
2E2
330
17
100
AcDbEntity
  8
UI-HAIRLINE
100
AcDbPolyline
 90
4
 70
1
 10
946.0
 20
-930.0
 10
1030.0
 20
-930.0
 10
1030.0
 20
-946.0
 10
946.0
 20
-946.0
  0
TEXT
  5
2E3
330
17
100
AcDbEntity
  8
UI-TEXT
100
AcDbText
 10
988.0
 20
-938.0
 30
0.0
 40
8.0
  1
0.0 dB
 72
1
 11
988.0
 21
-938.0
 31
0.0
100
AcDbText
 73
2
  0
HATCH
  5
2E4
330
17
100
AcDbEntity
  8
UI-RAISED
100
AcDbHatch
 10
0.0
 20
0.0
 30
0.0
210
0.0
220
0.0
230
1.0
  2
SOLID
 70
1
 71
0
 91
1
 92
3
 72
0
 73
1
 93
4
 10
946.0
 20
-948.0
 10
1030.0
 20
-948.0
 10
1030.0
 20
-970.0
 10
946.0
 20
-970.0
 97
0
 75
1
 76
1
 98
0
  0
LWPOLYLINE
  5
2E5
330
17
100
AcDbEntity
  8
UI-HAIRLINE
100
AcDbPolyline
 90
4
 70
1
 10
946.0
 20
-948.0
 10
1030.0
 20
-948.0
 10
1030.0
 20
-970.0
 10
946.0
 20
-970.0
  0
TEXT
  5
2E6
330
17
100
AcDbEntity
  8
UI-TEXT
100
AcDbText
 10
988.0
 20
-959.0
 30
0.0
 40
8.0
  1
Stereo Out
 72
1
 11
988.0
 21
-959.0
 31
0.0
100
AcDbText
 73
2
  0
TEXT
  5
2E7
330
17
100
AcDbEntity
  8
UI-TEXT-SEC
100
AcDbText
 10
1060.0
 20
-60.0
 30
0.0
 40
9.0
  1
(strips scroll horizontally · master pinned right)
 11
1060.0
 21
-60.0
 31
0.0
100
AcDbText
 73
2
  0
HATCH
  5
2E8
330
17
100
AcDbEntity
  8
UI-PANEL-BG
100
AcDbHatch
 10
0.0
 20
0.0
 30
0.0
210
0.0
220
0.0
230
1.0
  2
SOLID
 70
1
 71
0
 91
1
 92
3
 72
0
 73
1
 93
4
 10
0.0
 20
-976.0
 10
1600.0
 20
-976.0
 10
1600.0
 20
-1000.0
 10
0.0
 20
-1000.0
 97
0
 75
1
 76
1
 98
0
  0
LINE
  5
2E9
330
17
100
AcDbEntity
  8
UI-HAIRLINE
100
AcDbLine
 10
0.0
 20
-976.0
 30
0.0
 11
1600.0
 21
-976.0
 31
0.0
  0
TEXT
  5
2EA
330
17
100
AcDbEntity
  8
UI-TEXT-SEC
100
AcDbText
 10
10.0
 20
-988.0
 30
0.0
 40
11.0
  1
Song_Idea_04.tracktionedit  ·  8 tracks + 2 returns  ·  Bass muted · Vox soloed  ·  stopped
 11
10.0
 21
-988.0
 31
0.0
100
AcDbText
 73
2
  0
TEXT
  5
2EB
330
17
100
AcDbEntity
  8
UI-TEXT-SEC
100
AcDbText
 10
1590.0
 20
-988.0
 30
0.0
 40
11.0
  1
Master  -14.2 LUFS
 72
2
 11
1590.0
 21
-988.0
 31
0.0
100
AcDbText
 73
2
  0
ENDSEC
  0
SECTION
  2
OBJECTS
  0
DICTIONARY
  5
A
330
0
100
AcDbDictionary
281
1
  3
ACAD_COLOR
350
B
  3
ACAD_GROUP
350
C
  3
ACAD_LAYOUT
350
D
  3
ACAD_MATERIAL
350
E
  3
ACAD_MLEADERSTYLE
350
F
  3
ACAD_MLINESTYLE
350
10
  3
ACAD_PLOTSETTINGS
350
11
  3
ACAD_PLOTSTYLENAME
350
12
  3
ACAD_SCALELIST
350
14
  3
ACAD_TABLESTYLE
350
15
  3
ACAD_VISUALSTYLE
350
16
  3
EZDXF_META
350
2D
  0
DICTIONARY
  5
B
330
A
100
AcDbDictionary
281
1
  0
DICTIONARY
  5
C
330
A
100
AcDbDictionary
281
1
  0
DICTIONARY
  5
D
330
A
100
AcDbDictionary
281
1
  3
Model
350
1A
  3
Layout1
350
1E
  0
DICTIONARY
  5
E
330
A
100
AcDbDictionary
281
1
  3
ByBlock
350
1F
  3
ByLayer
350
20
  3
Global
350
21
  0
DICTIONARY
  5
F
330
A
100
AcDbDictionary
281
1
  3
Standard
350
2C
  0
DICTIONARY
  5
10
330
A
100
AcDbDictionary
281
1
  3
Standard
350
22
  0
DICTIONARY
  5
11
330
A
100
AcDbDictionary
281
1
  0
ACDBDICTIONARYWDFLT
  5
12
330
A
100
AcDbDictionary
281
1
  3
Normal
350
13
100
AcDbDictionaryWithDefault
340
13
  0
ACDBPLACEHOLDER
  5
13
330
12
  0
DICTIONARY
  5
14
330
A
100
AcDbDictionary
281
1
  0
DICTIONARY
  5
15
330
A
100
AcDbDictionary
281
1
  0
DICTIONARY
  5
16
330
A
100
AcDbDictionary
281
1
  3
2dWireframe
350
5A
  3
Basic
350
5B
  3
Brighten
350
5C
  3
ColorChange
350
5D
  3
Conceptual
350
5E
  3
Dim
350
5F
  3
EdgeColorOff
350
60
  3
Facepattern
350
61
  3
Flat
350
62
  3
FlatWithEdges
350
63
  3
Gouraud
350
64
  3
GouraudWithEdges
350
65
  3
Hidden
350
66
  3
JitterOff
350
67
  3
Linepattern
350
68
  3
Modeling
350
69
  3
OverhangOff
350
6A
  3
Realistic
350
6B
  3
Shaded
350
6C
  3
Shaded with edges
350
6D
  3
Shades of Gray
350
6E
  3
Sketchy
350
6F
  3
Thicken
350
70
  3
Wireframe
350
71
  3
X-Ray
350
72
  0
LAYOUT
  5
1A
330
D
100
AcDbPlotSettings
  1

  4
A3
  6

 40
7.5
 41
20.0
 42
7.5
 43
20.0
 44
420.0
 45
297.0
 46
0.0
 47
0.0
 48
0.0
 49
0.0
140
0.0
141
0.0
142
1.0
143
1.0
 70
1024
 72
1
 73
0
 74
5
  7

 75
16
 76
0
 77
2
 78
300
147
1.0
148
0.0
149
0.0
100
AcDbLayout
  1
Model
 70
1
 71
0
 10
0.0
 20
0.0
 11
420.0
 21
297.0
 12
0.0
 22
0.0
 32
0.0
 14
1e+20
 24
1e+20
 34
1e+20
 15
-1e+20
 25
-1e+20
 35
-1e+20
146
0.0
 13
0.0
 23
0.0
 33
0.0
 16
1.0
 26
0.0
 36
0.0
 17
0.0
 27
1.0
 37
0.0
 76
1
330
17
  0
LAYOUT
  5
1E
330
D
100
AcDbPlotSettings
  1

  4
A3
  6

 40
7.5
 41
20.0
 42
7.5
 43
20.0
 44
420.0
 45
297.0
 46
0.0
 47
0.0
 48
0.0
 49
0.0
140
0.0
141
0.0
142
1.0
143
1.0
 70
0
 72
1
 73
0
 74
5
  7

 75
16
 76
0
 77
2
 78
300
147
1.0
148
0.0
149
0.0
100
AcDbLayout
  1
Layout1
 70
1
 71
1
 10
0.0
 20
0.0
 11
420.0
 21
297.0
 12
0.0
 22
0.0
 32
0.0
 14
1e+20
 24
1e+20
 34
1e+20
 15
-1e+20
 25
-1e+20
 35
-1e+20
146
0.0
 13
0.0
 23
0.0
 33
0.0
 16
1.0
 26
0.0
 36
0.0
 17
0.0
 27
1.0
 37
0.0
 76
1
330
1B
  0
MATERIAL
  5
1F
102
{ACAD_REACTORS
330
E
102
}
330
E
100
AcDbMaterial
  1
ByBlock
  2

 70
0
 40
1.0
 71
1
 41
1.0
 91
-1023410177
 42
1.0
 72
1
  3

 73
1
 74
1
 75
1
 44
0.5
 73
0
 45
1.0
 46
1.0
 77
1
  4

 78
1
 79
1
170
1
 48
1.0
171
1
  6

172
1
173
1
174
1
140
1.0
141
1.0
175
1
  7

176
1
177
1
178
1
143
1.0
179
1
  8

270
1
271
1
272
1
145
1.0
146
1.0
273
1
  9

274
1
275
1
276
1
 42
1.0
 72
1
  3

 73
1
 74
1
 75
1
 94
63
  0
MATERIAL
  5
20
102
{ACAD_REACTORS
330
E
102
}
330
E
100
AcDbMaterial
  1
ByLayer
  2

 70
0
 40
1.0
 71
1
 41
1.0
 91
-1023410177
 42
1.0
 72
1
  3

 73
1
 74
1
 75
1
 44
0.5
 73
0
 45
1.0
 46
1.0
 77
1
  4

 78
1
 79
1
170
1
 48
1.0
171
1
  6

172
1
173
1
174
1
140
1.0
141
1.0
175
1
  7

176
1
177
1
178
1
143
1.0
179
1
  8

270
1
271
1
272
1
145
1.0
146
1.0
273
1
  9

274
1
275
1
276
1
 42
1.0
 72
1
  3

 73
1
 74
1
 75
1
 94
63
  0
MATERIAL
  5
21
102
{ACAD_REACTORS
330
E
102
}
330
E
100
AcDbMaterial
  1
Global
  2

 70
0
 40
1.0
 71
1
 41
1.0
 91
-1023410177
 42
1.0
 72
1
  3

 73
1
 74
1
 75
1
 44
0.5
 73
0
 45
1.0
 46
1.0
 77
1
  4

 78
1
 79
1
170
1
 48
1.0
171
1
  6

172
1
173
1
174
1
140
1.0
141
1.0
175
1
  7

176
1
177
1
178
1
143
1.0
179
1
  8

270
1
271
1
272
1
145
1.0
146
1.0
273
1
  9

274
1
275
1
276
1
 42
1.0
 72
1
  3

 73
1
 74
1
 75
1
 94
63
  0
MLINESTYLE
  5
22
102
{ACAD_REACTORS
330
10
102
}
330
10
100
AcDbMlineStyle
  2
Standard
 70
0
  3

 62
256
 51
90.0
 52
90.0
 71
2
 49
0.5
 62
256
  6
BYLAYER
 49
-0.5
 62
256
  6
BYLAYER
  0
MLEADERSTYLE
  5
2C
102
{ACAD_REACTORS
330
F
102
}
330
F
100
AcDbMLeaderStyle
179
2
170
2
171
1
172
0
 90
2
 40
0.0
 41
0.0
173
1
 91
-1056964608
 92
-2
290
1
 42
2.0
291
1
 43
8.0
  3
Standard
 44
4.0
300

342
29
174
1
175
1
176
0
178
1
 93
-1056964608
 45
4.0
292
0
297
0
 46
4.0
 94
-1056964608
 47
1.0
 49
1.0
140
1.0
294
1
141
0.0
177
0
142
1.0
295
0
296
0
143
3.75
271
0
272
9
273
9
  0
DICTIONARY
  5
2D
330
A
100
AcDbDictionary
280
1
281
1
  3
CREATED_BY_EZDXF
350
2E
  3
WRITTEN_BY_EZDXF
350
2EE
  0
DICTIONARYVAR
  5
2E
330
2D
100
DictionaryVariables
280
0
  1
1.4.4 @ 2026-06-30T16:59:01.999096+00:00
  0
VISUALSTYLE
  5
5A
102
{ACAD_REACTORS
330
16
102
}
330
16
100
AcDbVisualStyle
  2
2dWireframe
 70
4
 90
0
 40
0.6
 62
7
290
0
291
0
  0
VISUALSTYLE
  5
5B
102
{ACAD_REACTORS
330
16
102
}
330
16
100
AcDbVisualStyle
  2
Basic
 70
7
 90
1
 40
0.6
 62
7
290
0
291
1
  0
VISUALSTYLE
  5
5C
102
{ACAD_REACTORS
330
16
102
}
330
16
100
AcDbVisualStyle
  2
Brighten
 70
12
 90
2
 40
0.6
 62
7
290
0
291
1
  0
VISUALSTYLE
  5
5D
102
{ACAD_REACTORS
330
16
102
}
330
16
100
AcDbVisualStyle
  2
ColorChange
 70
16
 90
2
 40
0.6
 62
8
290
0
291
1
  0
VISUALSTYLE
  5
5E
102
{ACAD_REACTORS
330
16
102
}
330
16
100
AcDbVisualStyle
  2
Conceptual
 70
9
 90
3
 40
0.6
 62
7
290
0
291
0
  0
VISUALSTYLE
  5
5F
102
{ACAD_REACTORS
330
16
102
}
330
16
100
AcDbVisualStyle
  2
Dim
 70
11
 90
2
 40
0.6
 62
7
290
0
291
1
  0
VISUALSTYLE
  5
60
102
{ACAD_REACTORS
330
16
102
}
330
16
100
AcDbVisualStyle
  2
EdgeColorOff
 70
22
 90
2
 40
0.6
 62
7
290
0
291
1
  0
VISUALSTYLE
  5
61
102
{ACAD_REACTORS
330
16
102
}
330
16
100
AcDbVisualStyle
  2
Facepattern
 70
15
 90
2
 40
0.6
 62
7
290
0
291
1
  0
VISUALSTYLE
  5
62
102
{ACAD_REACTORS
330
16
102
}
330
16
100
AcDbVisualStyle
  2
Flat
 70
0
 90
2
 40
0.6
 62
7
290
0
291
1
  0
VISUALSTYLE
  5
63
102
{ACAD_REACTORS
330
16
102
}
330
16
100
AcDbVisualStyle
  2
FlatWithEdges
 70
1
 90
2
 40
0.6
 62
7
290
0
291
1
  0
VISUALSTYLE
  5
64
102
{ACAD_REACTORS
330
16
102
}
330
16
100
AcDbVisualStyle
  2
Gouraud
 70
2
 90
2
 40
0.6
 62
7
290
0
291
1
  0
VISUALSTYLE
  5
65
102
{ACAD_REACTORS
330
16
102
}
330
16
100
AcDbVisualStyle
  2
GouraudWithEdges
 70
3
 90
2
 40
0.6
 62
7
290
0
291
1
  0
VISUALSTYLE
  5
66
102
{ACAD_REACTORS
330
16
102
}
330
16
100
AcDbVisualStyle
  2
Hidden
 70
6
 90
1
 40
0.6
 62
7
290
0
291
0
  0
VISUALSTYLE
  5
67
102
{ACAD_REACTORS
330
16
102
}
330
16
100
AcDbVisualStyle
  2
JitterOff
 70
20
 90
2
 40
0.6
 62
7
290
0
291
1
  0
VISUALSTYLE
  5
68
102
{ACAD_REACTORS
330
16
102
}
330
16
100
AcDbVisualStyle
  2
Linepattern
 70
14
 90
2
 40
0.6
 62
7
290
0
291
1
  0
VISUALSTYLE
  5
69
102
{ACAD_REACTORS
330
16
102
}
330
16
100
AcDbVisualStyle
  2
Modeling
 70
10
 90
2
 40
0.6
 62
7
290
0
291
0
  0
VISUALSTYLE
  5
6A
102
{ACAD_REACTORS
330
16
102
}
330
16
100
AcDbVisualStyle
  2
OverhangOff
 70
21
 90
2
 40
0.6
 62
7
290
0
291
1
  0
VISUALSTYLE
  5
6B
102
{ACAD_REACTORS
330
16
102
}
330
16
100
AcDbVisualStyle
  2
Realistic
 70
8
 90
2
 40
0.6
 62
7
290
0
291
0
  0
VISUALSTYLE
  5
6C
102
{ACAD_REACTORS
330
16
102
}
330
16
100
AcDbVisualStyle
  2
Shaded
 70
27
 90
2
 40
0.6
 62
7
290
0
291
0
  0
VISUALSTYLE
  5
6D
102
{ACAD_REACTORS
330
16
102
}
330
16
100
AcDbVisualStyle
  2
Shaded with edges
 70
26
 90
2
 40
0.6
 62
7
290
0
291
0
  0
VISUALSTYLE
  5
6E
102
{ACAD_REACTORS
330
16
102
}
330
16
100
AcDbVisualStyle
  2
Shades of Gray
 70
23
 90
2
 40
0.6
 62
7
290
0
291
0
  0
VISUALSTYLE
  5
6F
102
{ACAD_REACTORS
330
16
102
}
330
16
100
AcDbVisualStyle
  2
Sketchy
 70
24
 90
1
 40
0.6
 62
7
290
0
291
0
  0
VISUALSTYLE
  5
70
102
{ACAD_REACTORS
330
16
102
}
330
16
100
AcDbVisualStyle
  2
Thicken
 70
13
 90
2
 40
0.6
 62
7
290
0
291
1
  0
VISUALSTYLE
  5
71
102
{ACAD_REACTORS
330
16
102
}
330
16
100
AcDbVisualStyle
  2
Wireframe
 70
5
 90
0
 40
0.6
 62
7
290
0
291
0
  0
VISUALSTYLE
  5
72
102
{ACAD_REACTORS
330
16
102
}
330
16
100
AcDbVisualStyle
  2
X-Ray
 70
25
 90
2
 40
0.5
 62
7
290
0
291
0
  0
DICTIONARYVAR
  5
2EE
330
2D
100
DictionaryVariables
280
0
  1
1.4.4 @ 2026-06-30T16:59:02.022776+00:00
  0
ENDSEC
  0
EOF
