  0
SECTION
  2
HEADER
  9
$ACADVER
  1
AC1024
  9
$ACADMAINTVER
 70
6
  9
$DWGCODEPAGE
  3
ANSI_1252
  9
$LASTSAVEDBY
  1
ezdxf
  9
$INSBASE
 10
0.0
 20
0.0
 30
0.0
  9
$EXTMIN
 10
1e+20
 20
1e+20
 30
1e+20
  9
$EXTMAX
 10
-1e+20
 20
-1e+20
 30
-1e+20
  9
$LIMMIN
 10
0.0
 20
0.0
  9
$LIMMAX
 10
420.0
 20
297.0
  9
$ORTHOMODE
 70
0
  9
$REGENMODE
 70
1
  9
$FILLMODE
 70
1
  9
$QTEXTMODE
 70
0
  9
$MIRRTEXT
 70
1
  9
$LTSCALE
 40
1.0
  9
$ATTMODE
 70
1
  9
$TEXTSIZE
 40
2.5
  9
$TRACEWID
 40
1.0
  9
$TEXTSTYLE
  7
OpenSans
  9
$CLAYER
  8
0
  9
$CELTYPE
  6
ByLayer
  9
$CECOLOR
 62
256
  9
$CELTSCALE
 40
1.0
  9
$DISPSILH
 70
0
  9
$DIMSCALE
 40
1.0
  9
$DIMASZ
 40
0.175
  9
$DIMEXO
 40
0.125
  9
$DIMDLI
 40
3.75
  9
$DIMRND
 40
0.0
  9
$DIMDLE
 40
0.0
  9
$DIMEXE
 40
0.375
  9
$DIMTP
 40
0.0
  9
$DIMTM
 40
0.0
  9
$DIMTXT
 40
0.25
  9
$DIMCEN
 40
2.5
  9
$DIMTSZ
 40
0.0
  9
$DIMTOL
 70
0
  9
$DIMLIM
 70
0
  9
$DIMTIH
 70
0
  9
$DIMTOH
 70
0
  9
$DIMSE1
 70
0
  9
$DIMSE2
 70
0
  9
$DIMTAD
 70
1
  9
$DIMZIN
 70
12
  9
$DIMBLK
  1
ARCHTICK
  9
$DIMASO
 70
1
  9
$DIMSHO
 70
1
  9
$DIMPOST
  1

  9
$DIMAPOST
  1

  9
$DIMALT
 70
0
  9
$DIMALTD
 70
3
  9
$DIMALTF
 40
0.03937007874
  9
$DIMLFAC
 40
100.0
  9
$DIMTOFL
 70
1
  9
$DIMTVP
 40
0.0
  9
$DIMTIX
 70
0
  9
$DIMSOXD
 70
0
  9
$DIMSAH
 70
0
  9
$DIMBLK1
  1

  9
$DIMBLK2
  1

  9
$DIMSTYLE
  2
EZDXF
  9
$DIMCLRD
 70
0
  9
$DIMCLRE
 70
0
  9
$DIMCLRT
 70
0
  9
$DIMTFAC
 40
0.5
  9
$DIMGAP
 40
0.1
  9
$DIMJUST
 70
0
  9
$DIMSD1
 70
0
  9
$DIMSD2
 70
0
  9
$DIMTOLJ
 70
0
  9
$DIMTZIN
 70
8
  9
$DIMALTZ
 70
0
  9
$DIMALTTZ
 70
0
  9
$DIMUPT
 70
1
  9
$DIMDEC
 70
2
  9
$DIMTDEC
 70
2
  9
$DIMALTU
 70
2
  9
$DIMALTTD
 70
3
  9
$DIMTXSTY
  7
OpenSansCondensed-Light
  9
$DIMAUNIT
 70
0
  9
$DIMADEC
 70
2
  9
$DIMALTRND
 40
0.0
  9
$DIMAZIN
 70
3
  9
$DIMDSEP
 70
46
  9
$DIMATFIT
 70
3
  9
$DIMFRAC
 70
0
  9
$DIMLDRBLK
  1

  9
$DIMLUNIT
 70
2
  9
$DIMLWD
 70
-2
  9
$DIMLWE
 70
-2
  9
$DIMTMOVE
 70
2
  9
$DIMFXL
 40
1.0
  9
$DIMFXLON
 70
0
  9
$DIMJOGANG
 40
0.785398163397
  9
$DIMTFILL
 70
0
  9
$DIMTFILLCLR
 70
0
  9
$DIMARCSYM
 70
0
  9
$DIMLTYPE
  6

  9
$DIMLTEX1
  6

  9
$DIMLTEX2
  6

  9
$DIMTXTDIRECTION
 70
0
  9
$LUNITS
 70
2
  9
$LUPREC
 70
4
  9
$SKETCHINC
 40
1.0
  9
$FILLETRAD
 40
10.0
  9
$AUNITS
 70
0
  9
$AUPREC
 70
2
  9
$MENU
  1
.
  9
$ELEVATION
 40
0.0
  9
$PELEVATION
 40
0.0
  9
$THICKNESS
 40
0.0
  9
$LIMCHECK
 70
0
  9
$CHAMFERA
 40
0.0
  9
$CHAMFERB
 40
0.0
  9
$CHAMFERC
 40
0.0
  9
$CHAMFERD
 40
0.0
  9
$SKPOLY
 70
0
  9
$TDCREATE
 40
2461222.707673611
  9
$TDUCREATE
 40
2458532.153996898
  9
$TDUPDATE
 40
2461222.707673611
  9
$TDUUPDATE
 40
2458532.1544311
  9
$TDINDWG
 40
0.0
  9
$TDUSRTIMER
 40
0.0
  9
$USRTIMER
 70
1
  9
$ANGBASE
 50
0.0
  9
$ANGDIR
 70
0
  9
$PDMODE
 70
0
  9
$PDSIZE
 40
0.0
  9
$PLINEWID
 40
0.0
  9
$SPLFRAME
 70
0
  9
$SPLINETYPE
 70
6
  9
$SPLINESEGS
 70
8
  9
$HANDSEED
  5
208
  9
$SURFTAB1
 70
6
  9
$SURFTAB2
 70
6
  9
$SURFTYPE
 70
6
  9
$SURFU
 70
6
  9
$SURFV
 70
6
  9
$UCSBASE
  2

  9
$UCSNAME
  2

  9
$UCSORG
 10
0.0
 20
0.0
 30
0.0
  9
$UCSXDIR
 10
1.0
 20
0.0
 30
0.0
  9
$UCSYDIR
 10
0.0
 20
1.0
 30
0.0
  9
$UCSORTHOREF
  2

  9
$UCSORTHOVIEW
 70
0
  9
$UCSORGTOP
 10
0.0
 20
0.0
 30
0.0
  9
$UCSORGBOTTOM
 10
0.0
 20
0.0
 30
0.0
  9
$UCSORGLEFT
 10
0.0
 20
0.0
 30
0.0
  9
$UCSORGRIGHT
 10
0.0
 20
0.0
 30
0.0
  9
$UCSORGFRONT
 10
0.0
 20
0.0
 30
0.0
  9
$UCSORGBACK
 10
0.0
 20
0.0
 30
0.0
  9
$PUCSBASE
  2

  9
$PUCSNAME
  2

  9
$PUCSORG
 10
0.0
 20
0.0
 30
0.0
  9
$PUCSXDIR
 10
1.0
 20
0.0
 30
0.0
  9
$PUCSYDIR
 10
0.0
 20
1.0
 30
0.0
  9
$PUCSORTHOREF
  2

  9
$PUCSORTHOVIEW
 70
0
  9
$PUCSORGTOP
 10
0.0
 20
0.0
 30
0.0
  9
$PUCSORGBOTTOM
 10
0.0
 20
0.0
 30
0.0
  9
$PUCSORGLEFT
 10
0.0
 20
0.0
 30
0.0
  9
$PUCSORGRIGHT
 10
0.0
 20
0.0
 30
0.0
  9
$PUCSORGFRONT
 10
0.0
 20
0.0
 30
0.0
  9
$PUCSORGBACK
 10
0.0
 20
0.0
 30
0.0
  9
$USERI1
 70
0
  9
$USERI2
 70
0
  9
$USERI3
 70
0
  9
$USERI4
 70
0
  9
$USERI5
 70
0
  9
$USERR1
 40
0.0
  9
$USERR2
 40
0.0
  9
$USERR3
 40
0.0
  9
$USERR4
 40
0.0
  9
$USERR5
 40
0.0
  9
$WORLDVIEW
 70
1
  9
$SHADEDGE
 70
3
  9
$SHADEDIF
 70
70
  9
$TILEMODE
 70
1
  9
$MAXACTVP
 70
64
  9
$PINSBASE
 10
0.0
 20
0.0
 30
0.0
  9
$PLIMCHECK
 70
0
  9
$PEXTMIN
 10
1e+20
 20
1e+20
 30
1e+20
  9
$PEXTMAX
 10
-1e+20
 20
-1e+20
 30
-1e+20
  9
$PLIMMIN
 10
0.0
 20
0.0
  9
$PLIMMAX
 10
420.0
 20
297.0
  9
$UNITMODE
 70
0
  9
$VISRETAIN
 70
1
  9
$PLINEGEN
 70
0
  9
$PSLTSCALE
 70
1
  9
$TREEDEPTH
 70
3020
  9
$CMLSTYLE
  2
Standard
  9
$CMLJUST
 70
0
  9
$CMLSCALE
 40
20.0
  9
$PROXYGRAPHICS
 70
1
  9
$MEASUREMENT
 70
1
  9
$CELWEIGHT
370
-1
  9
$ENDCAPS
280
0
  9
$JOINSTYLE
280
0
  9
$LWDISPLAY
290
0
  9
$INSUNITS
 70
0
  9
$HYPERLINKBASE
  1

  9
$STYLESHEET
  1

  9
$XEDIT
290
1
  9
$CEPSNTYPE
380
0
  9
$PSTYLEMODE
290
1
  9
$FINGERPRINTGUID
  2
{BD281FA3-98F5-4481-80B1-85F026226E9F}
  9
$VERSIONGUID
  2
{EDD140C2-50D2-4DCF-BBDC-5FD2B7B8CAD7}
  9
$EXTNAMES
290
1
  9
$PSVPSCALE
 40
0.0
  9
$OLESTARTUP
290
0
  9
$SORTENTS
280
127
  9
$INDEXCTL
280
0
  9
$HIDETEXT
280
1
  9
$XCLIPFRAME
280
1
  9
$HALOGAP
280
0
  9
$OBSCOLOR
 70
257
  9
$OBSLTYPE
280
0
  9
$INTERSECTIONDISPLAY
280
0
  9
$INTERSECTIONCOLOR
 70
257
  9
$DIMASSOC
280
2
  9
$PROJECTNAME
  1

  9
$CAMERADISPLAY
290
0
  9
$LENSLENGTH
 40
50.0
  9
$CAMERAHEIGHT
 40
0.0
  9
$STEPSPERSEC
 40
24.0
  9
$STEPSIZE
 40
100.0
  9
$3DDWFPREC
 40
2.0
  9
$PSOLWIDTH
 40
0.005
  9
$PSOLHEIGHT
 40
0.08
  9
$LOFTANG1
 40
1.570796326795
  9
$LOFTANG2
 40
1.570796326795
  9
$LOFTMAG1
 40
0.0
  9
$LOFTMAG2
 40
0.0
  9
$LOFTPARAM
 70
7
  9
$LOFTNORMALS
280
1
  9
$LATITUDE
 40
37.795
  9
$LONGITUDE
 40
-122.394
  9
$NORTHDIRECTION
 40
0.0
  9
$TIMEZONE
 70
-8000
  9
$LIGHTGLYPHDISPLAY
280
1
  9
$TILEMODELIGHTSYNCH
280
1
  9
$CMATERIAL
347
20
  9
$SOLIDHIST
280
0
  9
$SHOWHIST
280
1
  9
$DWFFRAME
280
2
  9
$DGNFRAME
280
2
  9
$REALWORLDSCALE
290
1
  9
$INTERFERECOLOR
 62
256
  9
$CSHADOW
280
0
  9
$SHADOWPLANELOCATION
 40
0.0
  0
ENDSEC
  0
SECTION
  2
CLASSES
  0
CLASS
  1
ACDBDICTIONARYWDFLT
  2
AcDbDictionaryWithDefault
  3
ObjectDBX Classes
 90
0
 91
0
280
0
281
0
  0
CLASS
  1
SUN
  2
AcDbSun
  3
SCENEOE
 90
1153
 91
0
280
0
281
0
  0
CLASS
  1
VISUALSTYLE
  2
AcDbVisualStyle
  3
ObjectDBX Classes
 90
4095
 91
0
280
0
281
0
  0
CLASS
  1
MATERIAL
  2
AcDbMaterial
  3
ObjectDBX Classes
 90
1153
 91
0
280
0
281
0
  0
CLASS
  1
SCALE
  2
AcDbScale
  3
ObjectDBX Classes
 90
1153
 91
0
280
0
281
0
  0
CLASS
  1
TABLESTYLE
  2
AcDbTableStyle
  3
ObjectDBX Classes
 90
4095
 91
0
280
0
281
0
  0
CLASS
  1
MLEADERSTYLE
  2
AcDbMLeaderStyle
  3
ACDB_MLEADERSTYLE_CLASS
 90
4095
 91
0
280
0
281
0
  0
CLASS
  1
DICTIONARYVAR
  2
AcDbDictionaryVar
  3
ObjectDBX Classes
 90
0
 91
0
280
0
281
0
  0
CLASS
  1
CELLSTYLEMAP
  2
AcDbCellStyleMap
  3
ObjectDBX Classes
 90
1152
 91
0
280
0
281
0
  0
CLASS
  1
MENTALRAYRENDERSETTINGS
  2
AcDbMentalRayRenderSettings
  3
SCENEOE
 90
1024
 91
0
280
0
281
0
  0
CLASS
  1
ACDBDETAILVIEWSTYLE
  2
AcDbDetailViewStyle
  3
ObjectDBX Classes
 90
1025
 91
0
280
0
281
0
  0
CLASS
  1
ACDBSECTIONVIEWSTYLE
  2
AcDbSectionViewStyle
  3
ObjectDBX Classes
 90
1025
 91
0
280
0
281
0
  0
CLASS
  1
RASTERVARIABLES
  2
AcDbRasterVariables
  3
ISM
 90
0
 91
0
280
0
281
0
  0
CLASS
  1
ACDBPLACEHOLDER
  2
AcDbPlaceHolder
  3
ObjectDBX Classes
 90
0
 91
0
280
0
281
0
  0
CLASS
  1
LAYOUT
  2
AcDbLayout
  3
ObjectDBX Classes
 90
0
 91
0
280
0
281
0
  0
ENDSEC
  0
SECTION
  2
TABLES
  0
TABLE
  2
VPORT
  5
8
330
0
100
AcDbSymbolTable
 70
1
  0
VPORT
  5
23
330
8
100
AcDbSymbolTableRecord
100
AcDbViewportTableRecord
  2
*Active
 70
0
 10
0.0
 20
0.0
 11
1.0
 21
1.0
 12
0.0
 22
0.0
 13
0.0
 23
0.0
 14
0.5
 24
0.5
 15
0.5
 25
0.5
 16
0.0
 26
0.0
 36
1.0
 17
0.0
 27
0.0
 37
0.0
 40
1000.0
 41
1.34
 42
50.0
 43
0.0
 44
0.0
 50
0.0
 51
0.0
 71
0
 72
1000
 73
1
 74
3
 75
0
 76
0
 77
0
 78
0
281
0
 65
0
146
0.0
  0
ENDTAB
  0
TABLE
  2
LTYPE
  5
2
330
0
100
AcDbSymbolTable
 70
21
  0
LTYPE
  5
24
330
2
100
AcDbSymbolTableRecord
100
AcDbLinetypeTableRecord
  2
ByBlock
 70
0
  3

 72
65
 73
0
 40
0.0
  0
LTYPE
  5
25
330
2
100
AcDbSymbolTableRecord
100
AcDbLinetypeTableRecord
  2
ByLayer
 70
0
  3

 72
65
 73
0
 40
0.0
  0
LTYPE
  5
26
330
2
100
AcDbSymbolTableRecord
100
AcDbLinetypeTableRecord
  2
Continuous
 70
0
  3

 72
65
 73
0
 40
0.0
  0
LTYPE
  5
2F
330
2
100
AcDbSymbolTableRecord
100
AcDbLinetypeTableRecord
  2
CENTER
 70
0
  3
Center ____ _ ____ _ ____ _ ____ _ ____ _ ____
 72
65
 73
4
 40
5.08
 49
3.175
 74
0
 49
-0.635
 74
0
 49
0.635
 74
0
 49
-0.635
 74
0
  0
LTYPE
  5
30
330
2
100
AcDbSymbolTableRecord
100
AcDbLinetypeTableRecord
  2
CENTERX2
 70
0
  3
Center (2x) ________  __  ________  __  ________
 72
65
 73
4
 40
8.89
 49
6.35
 74
0
 49
-0.635
 74
0
 49
1.27
 74
0
 49
-0.635
 74
0
  0
LTYPE
  5
31
330
2
100
AcDbSymbolTableRecord
100
AcDbLinetypeTableRecord
  2
CENTER2
 70
0
  3
Center (.5x) ____ _ ____ _ ____ _ ____ _ ____
 72
65
 73
4
 40
2.54
 49
1.587
 74
0
 49
-0.318
 74
0
 49
0.318
 74
0
 49
-0.318
 74
0
  0
LTYPE
  5
32
330
2
100
AcDbSymbolTableRecord
100
AcDbLinetypeTableRecord
  2
DASHED
 70
0
  3
Dashed __ __ __ __ __ __ __ __ __ __ __ __ __ _
 72
65
 73
2
 40
1.524
 49
1.27
 74
0
 49
-0.254
 74
0
  0
LTYPE
  5
33
330
2
100
AcDbSymbolTableRecord
100
AcDbLinetypeTableRecord
  2
DASHEDX2
 70
0
  3
Dashed (2x) ____  ____  ____  ____  ____  ____
 72
65
 73
2
 40
3.048
 49
2.54
 74
0
 49
-0.508
 74
0
  0
LTYPE
  5
34
330
2
100
AcDbSymbolTableRecord
100
AcDbLinetypeTableRecord
  2
DASHED2
 70
0
  3
Dashed (.5x) _ _ _ _ _ _ _ _ _ _ _ _ _ _
 72
65
 73
2
 40
0.762
 49
0.635
 74
0
 49
-0.127
 74
0
  0
LTYPE
  5
35
330
2
100
AcDbSymbolTableRecord
100
AcDbLinetypeTableRecord
  2
PHANTOM
 70
0
  3
Phantom ______  __  __  ______  __  __  ______
 72
65
 73
6
 40
6.35
 49
3.175
 74
0
 49
-0.635
 74
0
 49
0.635
 74
0
 49
-0.635
 74
0
 49
0.635
 74
0
 49
-0.635
 74
0
  0
LTYPE
  5
36
330
2
100
AcDbSymbolTableRecord
100
AcDbLinetypeTableRecord
  2
PHANTOMX2
 70
0
  3
Phantom (2x)____________    ____    ____    ____________
 72
65
 73
6
 40
10.795
 49
6.35
 74
0
 49
-0.635
 74
0
 49
1.27
 74
0
 49
-0.635
 74
0
 49
1.27
 74
0
 49
-0.635
 74
0
  0
LTYPE
  5
37
330
2
100
AcDbSymbolTableRecord
100
AcDbLinetypeTableRecord
  2
PHANTOM2
 70
0
  3
Phantom (.5x) ___ _ _ ___ _ _ ___ _ _ ___ _ _ ___
 72
65
 73
6
 40
3.175
 49
1.587
 74
0
 49
-0.318
 74
0
 49
0.318
 74
0
 49
-0.318
 74
0
 49
0.318
 74
0
 49
-0.318
 74
0
  0
LTYPE
  5
38
330
2
100
AcDbSymbolTableRecord
100
AcDbLinetypeTableRecord
  2
DASHDOT
 70
0
  3
Dash dot __ . __ . __ . __ . __ . __ . __ . __
 72
65
 73
4
 40
3.556
 49
2.54
 74
0
 49
-0.508
 74
0
 49
0.0
 74
0
 49
-0.508
 74
0
  0
LTYPE
  5
39
330
2
100
AcDbSymbolTableRecord
100
AcDbLinetypeTableRecord
  2
DASHDOTX2
 70
0
  3
Dash dot (2x) ____  .  ____  .  ____  .  ____
 72
65
 73
4
 40
6.096
 49
5.08
 74
0
 49
-0.508
 74
0
 49
0.0
 74
0
 49
-0.508
 74
0
  0
LTYPE
  5
3A
330
2
100
AcDbSymbolTableRecord
100
AcDbLinetypeTableRecord
  2
DASHDOT2
 70
0
  3
Dash dot (.5x) _ . _ . _ . _ . _ . _ . _ . _
 72
65
 73
4
 40
1.778
 49
1.27
 74
0
 49
-0.254
 74
0
 49
0.0
 74
0
 49
-0.254
 74
0
  0
LTYPE
  5
3B
330
2
100
AcDbSymbolTableRecord
100
AcDbLinetypeTableRecord
  2
DOT
 70
0
  3
Dot .  .  .  .  .  .  .  .  .  .  .  .  .  .  .  .
 72
65
 73
2
 40
0.508
 49
0.0
 74
0
 49
-0.508
 74
0
  0
LTYPE
  5
3C
330
2
100
AcDbSymbolTableRecord
100
AcDbLinetypeTableRecord
  2
DOTX2
 70
0
  3
Dot (2x) .    .    .    .    .    .    .    . 
 72
65
 73
2
 40
1.016
 49
0.0
 74
0
 49
-1.016
 74
0
  0
LTYPE
  5
3D
330
2
100
AcDbSymbolTableRecord
100
AcDbLinetypeTableRecord
  2
DOT2
 70
0
  3
Dot (.5) . . . . . . . . . . . . . . . . . . . 
 72
65
 73
2
 40
0.254
 49
0.0
 74
0
 49
-0.254
 74
0
  0
LTYPE
  5
3E
330
2
100
AcDbSymbolTableRecord
100
AcDbLinetypeTableRecord
  2
DIVIDE
 70
0
  3
Divide __ . . __ . . __ . . __ . . __ . . __
 72
65
 73
6
 40
4.064
 49
2.54
 74
0
 49
-0.508
 74
0
 49
0.0
 74
0
 49
-0.508
 74
0
 49
0.0
 74
0
 49
-0.508
 74
0
  0
LTYPE
  5
3F
330
2
100
AcDbSymbolTableRecord
100
AcDbLinetypeTableRecord
  2
DIVIDEX2
 70
0
  3
Divide (2x) ____  . .  ____  . .  ____  . .  ____
 72
65
 73
6
 40
6.604
 49
5.08
 74
0
 49
-0.508
 74
0
 49
0.0
 74
0
 49
-0.508
 74
0
 49
0.0
 74
0
 49
-0.508
 74
0
  0
LTYPE
  5
40
330
2
100
AcDbSymbolTableRecord
100
AcDbLinetypeTableRecord
  2
DIVIDE2
 70
0
  3
Divide(.5x) _ . _ . _ . _ . _ . _ . _ . _
 72
65
 73
6
 40
2.032
 49
1.27
 74
0
 49
-0.254
 74
0
 49
0.0
 74
0
 49
-0.254
 74
0
 49
0.0
 74
0
 49
-0.254
 74
0
  0
ENDTAB
  0
TABLE
  2
LAYER
  5
1
330
0
100
AcDbSymbolTable
 70
20
  0
LAYER
  5
27
330
1
100
AcDbSymbolTableRecord
100
AcDbLayerTableRecord
  2
0
 70
0
 62
7
  6
Continuous
370
-3
390
13
347
21
  0
LAYER
  5
28
330
1
100
AcDbSymbolTableRecord
100
AcDbLayerTableRecord
  2
Defpoints
 70
0
 62
7
  6
Continuous
290
0
370
-3
390
13
347
21
  0
LAYER
  5
8A
330
1
100
AcDbSymbolTableRecord
100
AcDbLayerTableRecord
  2
FORGE-SHEET
 70
0
 62
7
420
10134184
  6
Continuous
370
35
390
13
347
21
  0
LAYER
  5
8B
330
1
100
AcDbSymbolTableRecord
100
AcDbLayerTableRecord
  2
FORGE-TITLE
 70
0
 62
7
420
14080476
  6
Continuous
370
-3
390
13
347
21
  0
LAYER
  5
8C
330
1
100
AcDbSymbolTableRecord
100
AcDbLayerTableRecord
  2
FORGE-DIM
 70
0
 62
7
420
10134184
  6
Continuous
370
9
390
13
347
21
  0
LAYER
  5
8D
330
1
100
AcDbSymbolTableRecord
100
AcDbLayerTableRecord
  2
FORGE-NOTE
 70
0
 62
7
420
5219271
  6
Continuous
370
13
390
13
347
21
  0
LAYER
  5
8E
330
1
100
AcDbSymbolTableRecord
100
AcDbLayerTableRecord
  2
UI-SHELL-BG
 70
0
 62
7
420
1711134
  6
Continuous
370
-3
390
13
347
21
  0
LAYER
  5
8F
330
1
100
AcDbSymbolTableRecord
100
AcDbLayerTableRecord
  2
UI-PANEL-BG
 70
0
 62
7
420
2303529
  6
Continuous
370
-3
390
13
347
21
  0
LAYER
  5
90
330
1
100
AcDbSymbolTableRecord
100
AcDbLayerTableRecord
  2
UI-RAISED
 70
0
 62
7
420
2961717
  6
Continuous
370
-3
390
13
347
21
  0
LAYER
  5
91
330
1
100
AcDbSymbolTableRecord
100
AcDbLayerTableRecord
  2
UI-HAIRLINE
 70
0
 62
7
420
3422268
  6
Continuous
370
9
390
13
347
21
  0
LAYER
  5
92
330
1
100
AcDbSymbolTableRecord
100
AcDbLayerTableRecord
  2
UI-TEXT
 70
0
 62
7
420
14080476
  6
Continuous
370
-3
390
13
347
21
  0
LAYER
  5
93
330
1
100
AcDbSymbolTableRecord
100
AcDbLayerTableRecord
  2
UI-TEXT-SEC
 70
0
 62
7
420
9080981
  6
Continuous
370
-3
390
13
347
21
  0
LAYER
  5
94
330
1
100
AcDbSymbolTableRecord
100
AcDbLayerTableRecord
  2
UI-ACCENT
 70
0
 62
7
420
14716975
  6
Continuous
370
18
390
13
347
21
  0
LAYER
  5
95
330
1
100
AcDbSymbolTableRecord
100
AcDbLayerTableRecord
  2
UI-RECORD
 70
0
 62
7
420
14830410
  6
Continuous
370
18
390
13
347
21
  0
LAYER
  5
96
330
1
100
AcDbSymbolTableRecord
100
AcDbLayerTableRecord
  2
UI-WAVEFORM
 70
0
 62
7
420
7371652
  6
Continuous
370
-3
390
13
347
21
  0
LAYER
  5
97
330
1
100
AcDbSymbolTableRecord
100
AcDbLayerTableRecord
  2
UI-MIDI-NOTE
 70
0
 62
7
420
14716975
  6
Continuous
370
-3
390
13
347
21
  0
LAYER
  5
98
330
1
100
AcDbSymbolTableRecord
100
AcDbLayerTableRecord
  2
UI-METER
 70
0
 62
7
420
5744995
  6
Continuous
370
-3
390
13
347
21
  0
LAYER
  5
99
330
1
100
AcDbSymbolTableRecord
100
AcDbLayerTableRecord
  2
UI-SELECT
 70
0
 62
7
420
14716975
  6
Continuous
370
25
390
13
347
21
  0
LAYER
  5
9A
330
1
100
AcDbSymbolTableRecord
100
AcDbLayerTableRecord
  2
UI-CLIP
 70
0
 62
7
420
2961717
  6
Continuous
370
13
390
13
347
21
  0
LAYER
  5
9B
330
1
100
AcDbSymbolTableRecord
100
AcDbLayerTableRecord
  2
UI-GHOST
 70
0
 62
7
420
5594210
  6
Continuous
370
9
390
13
347
21
  0
ENDTAB
  0
TABLE
  2
STYLE
  5
5
330
0
100
AcDbSymbolTable
 70
26
  0
STYLE
  5
29
330
5
100
AcDbSymbolTableRecord
100
AcDbTextStyleTableRecord
  2
Standard
 70
0
 40
0.0
 41
1.0
 50
0.0
 71
0
 42
2.5
  3
txt
  4

  0
STYLE
  5
41
330
5
100
AcDbSymbolTableRecord
100
AcDbTextStyleTableRecord
  2
OpenSans-Light
 70
0
 40
0.0
 41
1.0
 50
0.0
 71
0
 42
2.5
  3
OpenSans-Light.ttf
  4

  0
STYLE
  5
42
330
5
100
AcDbSymbolTableRecord
100
AcDbTextStyleTableRecord
  2
OpenSans-Light-Italic
 70
0
 40
0.0
 41
1.0
 50
0.0
 71
0
 42
2.5
  3
OpenSans-LightItalic.ttf
  4

  0
STYLE
  5
43
330
5
100
AcDbSymbolTableRecord
100
AcDbTextStyleTableRecord
  2
OpenSans
 70
0
 40
0.0
 41
1.0
 50
0.0
 71
0
 42
2.5
  3
OpenSans-Regular.ttf
  4

  0
STYLE
  5
44
330
5
100
AcDbSymbolTableRecord
100
AcDbTextStyleTableRecord
  2
OpenSans-Italic
 70
0
 40
0.0
 41
1.0
 50
0.0
 71
0
 42
2.5
  3
OpenSans-Italic.ttf
  4

  0
STYLE
  5
45
330
5
100
AcDbSymbolTableRecord
100
AcDbTextStyleTableRecord
  2
OpenSans-SemiBold
 70
0
 40
0.0
 41
1.0
 50
0.0
 71
0
 42
2.5
  3
OpenSans-SemiBold.ttf
  4

  0
STYLE
  5
46
330
5
100
AcDbSymbolTableRecord
100
AcDbTextStyleTableRecord
  2
OpenSans-SemiBoldItalic
 70
0
 40
0.0
 41
1.0
 50
0.0
 71
0
 42
2.5
  3
OpenSans-SemiBoldItalic.ttf
  4

  0
STYLE
  5
47
330
5
100
AcDbSymbolTableRecord
100
AcDbTextStyleTableRecord
  2
OpenSans-Bold
 70
0
 40
0.0
 41
1.0
 50
0.0
 71
0
 42
2.5
  3
OpenSans-Bold.ttf
  4

  0
STYLE
  5
48
330
5
100
AcDbSymbolTableRecord
100
AcDbTextStyleTableRecord
  2
OpenSans-BoldItalic
 70
0
 40
0.0
 41
1.0
 50
0.0
 71
0
 42
2.5
  3
OpenSans-BoldItalic.ttf
  4

  0
STYLE
  5
49
330
5
100
AcDbSymbolTableRecord
100
AcDbTextStyleTableRecord
  2
OpenSans-ExtraBold
 70
0
 40
0.0
 41
1.0
 50
0.0
 71
0
 42
2.5
  3
OpenSans-ExtraBold.ttf
  4

  0
STYLE
  5
4A
330
5
100
AcDbSymbolTableRecord
100
AcDbTextStyleTableRecord
  2
OpenSans-ExtraBoldItalic
 70
0
 40
0.0
 41
1.0
 50
0.0
 71
0
 42
2.5
  3
OpenSans-ExtraBoldItalic.ttf
  4

  0
STYLE
  5
4B
330
5
100
AcDbSymbolTableRecord
100
AcDbTextStyleTableRecord
  2
OpenSansCondensed-Bold
 70
0
 40
0.0
 41
1.0
 50
0.0
 71
0
 42
2.5
  3
OpenSansCondensed-Bold.ttf
  4

  0
STYLE
  5
4C
330
5
100
AcDbSymbolTableRecord
100
AcDbTextStyleTableRecord
  2
OpenSansCondensed-Light
 70
0
 40
0.0
 41
1.0
 50
0.0
 71
0
 42
2.5
  3
OpenSansCondensed-Light.ttf
  4

  0
STYLE
  5
4D
330
5
100
AcDbSymbolTableRecord
100
AcDbTextStyleTableRecord
  2
OpenSansCondensed-Italic
 70
0
 40
0.0
 41
1.0
 50
0.0
 71
0
 42
2.5
  3
OpenSansCondensed-LightItalic.ttf
  4

  0
STYLE
  5
4E
330
5
100
AcDbSymbolTableRecord
100
AcDbTextStyleTableRecord
  2
LiberationSans
 70
0
 40
0.0
 41
1.0
 50
0.0
 71
0
 42
2.5
  3
LiberationSans-Regular.ttf
  4

  0
STYLE
  5
4F
330
5
100
AcDbSymbolTableRecord
100
AcDbTextStyleTableRecord
  2
LiberationSans-Bold
 70
0
 40
0.0
 41
1.0
 50
0.0
 71
0
 42
2.5
  3
LiberationSans-Bold.ttf
  4

  0
STYLE
  5
50
330
5
100
AcDbSymbolTableRecord
100
AcDbTextStyleTableRecord
  2
LiberationSans-BoldItalic
 70
0
 40
0.0
 41
1.0
 50
0.0
 71
0
 42
2.5
  3
LiberationSans-BoldItalic.ttf
  4

  0
STYLE
  5
51
330
5
100
AcDbSymbolTableRecord
100
AcDbTextStyleTableRecord
  2
LiberationSans-Italic
 70
0
 40
0.0
 41
1.0
 50
0.0
 71
0
 42
2.5
  3
LiberationSans-Italic.ttf
  4

  0
STYLE
  5
52
330
5
100
AcDbSymbolTableRecord
100
AcDbTextStyleTableRecord
  2
LiberationSerif
 70
0
 40
0.0
 41
1.0
 50
0.0
 71
0
 42
2.5
  3
LiberationSerif-Regular.ttf
  4

  0
STYLE
  5
53
330
5
100
AcDbSymbolTableRecord
100
AcDbTextStyleTableRecord
  2
LiberationSerif-Bold
 70
0
 40
0.0
 41
1.0
 50
0.0
 71
0
 42
2.5
  3
LiberationSerif-Bold.ttf
  4

  0
STYLE
  5
54
330
5
100
AcDbSymbolTableRecord
100
AcDbTextStyleTableRecord
  2
LiberationSerif-BoldItalic
 70
0
 40
0.0
 41
1.0
 50
0.0
 71
0
 42
2.5
  3
LiberationSerif-BoldItalic.ttf
  4

  0
STYLE
  5
55
330
5
100
AcDbSymbolTableRecord
100
AcDbTextStyleTableRecord
  2
LiberationSerif-Italic
 70
0
 40
0.0
 41
1.0
 50
0.0
 71
0
 42
2.5
  3
LiberationSerif-Italic.ttf
  4

  0
STYLE
  5
56
330
5
100
AcDbSymbolTableRecord
100
AcDbTextStyleTableRecord
  2
LiberationMono
 70
0
 40
0.0
 41
1.0
 50
0.0
 71
0
 42
2.5
  3
LiberationMono-Regular.ttf
  4

  0
STYLE
  5
57
330
5
100
AcDbSymbolTableRecord
100
AcDbTextStyleTableRecord
  2
LiberationMono-Bold
 70
0
 40
0.0
 41
1.0
 50
0.0
 71
0
 42
2.5
  3
LiberationMono-Bold.ttf
  4

  0
STYLE
  5
58
330
5
100
AcDbSymbolTableRecord
100
AcDbTextStyleTableRecord
  2
LiberationMono-BoldItalic
 70
0
 40
0.0
 41
1.0
 50
0.0
 71
0
 42
2.5
  3
LiberationMono-BoldItalic.ttf
  4

  0
STYLE
  5
59
330
5
100
AcDbSymbolTableRecord
100
AcDbTextStyleTableRecord
  2
LiberationMono-Italic
 70
0
 40
0.0
 41
1.0
 50
0.0
 71
0
 42
2.5
  3
LiberationMono-Italic.ttf
  4

  0
ENDTAB
  0
TABLE
  2
VIEW
  5
7
330
0
100
AcDbSymbolTable
 70
0
  0
ENDTAB
  0
TABLE
  2
UCS
  5
6
330
0
100
AcDbSymbolTable
 70
0
  0
ENDTAB
  0
TABLE
  2
APPID
  5
3
330
0
100
AcDbSymbolTable
 70
3
  0
APPID
  5
2A
330
3
100
AcDbSymbolTableRecord
100
AcDbRegAppTableRecord
  2
ACAD
 70
0
  0
APPID
  5
205
330
3
100
AcDbSymbolTableRecord
100
AcDbRegAppTableRecord
  2
HATCHBACKGROUNDCOLOR
 70
0
  0
APPID
  5
206
330
3
100
AcDbSymbolTableRecord
100
AcDbRegAppTableRecord
  2
EZDXF
 70
0
  0
ENDTAB
  0
TABLE
  2
DIMSTYLE
  5
4
330
0
100
AcDbSymbolTable
 70
12
100
AcDbDimStyleTable
  0
DIMSTYLE
105
2B
330
4
100
AcDbSymbolTableRecord
100
AcDbDimStyleTableRecord
  2
Standard
 70
0
 40
1.0
 41
2.5
 42
0.625
 43
3.75
 44
1.25
 45
0.0
 46
0.0
 47
0.0
 48
0.0
 49
2.5
140
2.5
141
2.5
142
0.0
143
0.03937007874
144
1.0
145
0.0
146
1.0
147
0.625
148
0.0
 69
0
 70
0
 71
0
 72
0
 73
0
 74
0
 75
0
 76
0
 77
1
 78
8
 79
3
170
0
171
3
172
1
173
0
174
0
175
0
176
0
177
0
178
0
179
2
271
2
272
2
273
2
274
3
275
0
276
0
277
2
278
44
279
0
280
0
281
0
282
0
283
0
284
8
285
0
286
0
288
0
289
3
290
0
371
-2
372
-2
  0
DIMSTYLE
105
73
330
4
100
AcDbSymbolTableRecord
100
AcDbDimStyleTableRecord
  2
EZDXF
 70
0
 40
1.0
 41
0.175
 42
0.125
 43
3.75
 44
0.375
 45
0.0
 46
0.0
 47
0.0
 48
0.0
 49
2.5
140
0.25
141
2.5
142
0.0
143
0.03937007874
144
100.0
145
0.0
146
0.5
147
0.1
148
0.0
 69
0
 70
0
 71
0
 72
0
 73
0
 74
0
 75
0
 76
0
 77
1
 78
12
 79
3
170
0
171
3
172
1
173
0
174
0
175
0
176
0
177
0
178
0
179
2
271
2
272
2
273
2
274
3
275
0
276
0
277
2
278
46
279
2
280
0
281
0
282
0
283
0
284
8
285
0
286
0
288
1
289
3
290
0
340
4C
342
74
371
-2
372
-2
  0
DIMSTYLE
105
7C
330
4
100
AcDbSymbolTableRecord
100
AcDbDimStyleTableRecord
  2
EZ_M_100_H25_CM
 70
0
 40
1.0
 41
0.25
 42
0.125
 43
3.75
 44
0.375
 45
0.0
 46
0.0
 47
0.0
 48
0.0
 49
2.5
140
0.25
141
2.5
142
0.125
143
0.03937007874
144
100.0
145
0.0
146
0.5
147
0.1
148
0.0
 69
0
 70
0
 71
0
 72
0
 73
0
 74
0
 75
0
 76
0
 77
1
 78
12
 79
3
170
0
171
3
172
1
173
0
174
0
175
0
176
0
177
0
178
0
179
2
271
2
272
2
273
2
274
3
275
0
276
0
277
2
278
46
279
2
280
0
281
0
282
0
283
0
284
8
285
0
286
0
288
1
289
3
290
0
340
4C
371
-2
372
-2
  0
DIMSTYLE
105
7D
330
4
100
AcDbSymbolTableRecord
100
AcDbDimStyleTableRecord
  2
EZ_M_50_H25_CM
 70
0
 40
1.0
 41
0.125
 42
0.0625
 43
3.75
 44
0.1875
 45
0.0
 46
0.0
 47
0.0
 48
0.0
 49
2.5
140
0.125
141
2.5
142
0.0625
143
0.03937007874
144
100.0
145
0.0
146
0.5
147
0.05
148
0.0
 69
0
 70
0
 71
0
 72
0
 73
0
 74
0
 75
0
 76
0
 77
1
 78
12
 79
3
170
0
171
3
172
1
173
0
174
0
175
0
176
0
177
0
178
0
179
2
271
2
272
2
273
2
274
3
275
0
276
0
277
2
278
46
279
2
280
0
281
0
282
0
283
0
284
8
285
0
286
0
288
1
289
3
290
0
340
4C
371
-2
372
-2
  0
DIMSTYLE
105
7E
330
4
100
AcDbSymbolTableRecord
100
AcDbDimStyleTableRecord
  2
EZ_M_25_H25_CM
 70
0
 40
1.0
 41
0.0625
 42
0.03125
 43
3.75
 44
0.09375
 45
0.0
 46
0.0
 47
0.0
 48
0.0
 49
2.5
140
0.0625
141
2.5
142
0.03125
143
0.03937007874
144
100.0
145
0.0
146
0.5
147
0.025
148
0.0
 69
0
 70
0
 71
0
 72
0
 73
0
 74
0
 75
0
 76
0
 77
1
 78
12
 79
3
170
0
171
3
172
1
173
0
174
0
175
0
176
0
177
0
178
0
179
2
271
2
272
2
273
2
274
3
275
0
276
0
277
2
278
46
279
2
280
0
281
0
282
0
283
0
284
8
285
0
286
0
288
1
289
3
290
0
340
4C
371
-2
372
-2
  0
DIMSTYLE
105
7F
330
4
100
AcDbSymbolTableRecord
100
AcDbDimStyleTableRecord
  2
EZ_M_20_H25_CM
 70
0
 40
1.0
 41
0.05
 42
0.025
 43
3.75
 44
0.07500000000000001
 45
0.0
 46
0.0
 47
0.0
 48
0.0
 49
2.5
140
0.05
141
2.5
142
0.025
143
0.03937007874
144
100.0
145
0.0
146
0.5
147
0.020000000000000004
148
0.0
 69
0
 70
0
 71
0
 72
0
 73
0
 74
0
 75
0
 76
0
 77
1
 78
12
 79
3
170
0
171
3
172
1
173
0
174
0
175
0
176
0
177
0
178
0
179
2
271
2
272
2
273
2
274
3
275
0
276
0
277
2
278
46
279
2
280
0
281
0
282
0
283
0
284
8
285
0
286
0
288
1
289
3
290
0
340
4C
371
-2
372
-2
  0
DIMSTYLE
105
80
330
4
100
AcDbSymbolTableRecord
100
AcDbDimStyleTableRecord
  2
EZ_M_10_H25_CM
 70
0
 40
1.0
 41
0.025
 42
0.0125
 43
3.75
 44
0.037500000000000006
 45
0.0
 46
0.0
 47
0.0
 48
0.0
 49
2.5
140
0.025
141
2.5
142
0.0125
143
0.03937007874
144
100.0
145
0.0
146
0.5
147
0.010000000000000002
148
0.0
 69
0
 70
0
 71
0
 72
0
 73
0
 74
0
 75
0
 76
0
 77
1
 78
12
 79
3
170
0
171
3
172
1
173
0
174
0
175
0
176
0
177
0
178
0
179
2
271
2
272
2
273
2
274
3
275
0
276
0
277
2
278
46
279
2
280
0
281
0
282
0
283
0
284
8
285
0
286
0
288
1
289
3
290
0
340
4C
371
-2
372
-2
  0
DIMSTYLE
105
81
330
4
100
AcDbSymbolTableRecord
100
AcDbDimStyleTableRecord
  2
EZ_M_5_H25_CM
 70
0
 40
1.0
 41
0.0125
 42
0.00625
 43
3.75
 44
0.018750000000000003
 45
0.0
 46
0.0
 47
0.0
 48
0.0
 49
2.5
140
0.0125
141
2.5
142
0.00625
143
0.03937007874
144
100.0
145
0.0
146
0.5
147
0.005000000000000001
148
0.0
 69
0
 70
0
 71
0
 72
0
 73
0
 74
0
 75
0
 76
0
 77
1
 78
12
 79
3
170
0
171
3
172
1
173
0
174
0
175
0
176
0
177
0
178
0
179
2
271
2
272
2
273
2
274
3
275
0
276
0
277
2
278
46
279
2
280
0
281
0
282
0
283
0
284
8
285
0
286
0
288
1
289
3
290
0
340
4C
371
-2
372
-2
  0
DIMSTYLE
105
82
330
4
100
AcDbSymbolTableRecord
100
AcDbDimStyleTableRecord
  2
EZ_M_1_H25_CM
 70
0
 40
1.0
 41
0.0025
 42
0.00125
 43
3.75
 44
0.00375
 45
0.0
 46
0.0
 47
0.0
 48
0.0
 49
2.5
140
0.0025
141
2.5
142
0.00125
143
0.03937007874
144
100.0
145
0.0
146
0.5
147
0.001
148
0.0
 69
0
 70
0
 71
0
 72
0
 73
0
 74
0
 75
0
 76
0
 77
1
 78
12
 79
3
170
0
171
3
172
1
173
0
174
0
175
0
176
0
177
0
178
0
179
2
271
2
272
2
273
2
274
3
275
0
276
0
277
2
278
46
279
2
280
0
281
0
282
0
283
0
284
8
285
0
286
0
288
1
289
3
290
0
340
4C
371
-2
372
-2
  0
DIMSTYLE
105
83
330
4
100
AcDbSymbolTableRecord
100
AcDbDimStyleTableRecord
  2
EZ_RADIUS
 70
0
 40
1.0
 41
0.25
 42
0.125
 43
3.75
 44
0.375
 45
0.0
 46
0.0
 47
0.0
 48
0.0
 49
2.5
140
0.25
141
0.0
142
0.0
143
0.03937007874
144
100.0
145
0.0
146
0.5
147
0.1
148
0.0
 69
0
 70
0
 71
0
 72
0
 73
0
 74
0
 75
0
 76
0
 77
1
 78
12
 79
3
170
0
171
3
172
0
173
0
174
0
175
0
176
0
177
0
178
0
179
2
271
2
272
2
273
2
274
3
275
0
276
0
277
2
278
46
279
1
280
0
281
0
282
0
283
0
284
8
285
0
286
0
288
1
289
3
290
0
340
4C
342
84
371
-2
372
-2
  0
DIMSTYLE
105
88
330
4
100
AcDbSymbolTableRecord
100
AcDbDimStyleTableRecord
  2
EZ_RADIUS_INSIDE
 70
0
 40
1.0
 41
0.25
 42
0.125
 43
3.75
 44
0.375
 45
0.0
 46
0.0
 47
0.0
 48
0.0
 49
2.5
140
0.25
141
0.0
142
0.0
143
0.03937007874
144
100.0
145
0.0
146
0.5
147
0.1
148
0.0
 69
0
 70
0
 71
0
 72
0
 73
0
 74
0
 75
0
 76
0
 77
0
 78
12
 79
3
170
0
171
3
172
0
173
0
174
1
175
0
176
0
177
0
178
0
179
2
271
2
272
2
273
2
274
3
275
0
276
0
277
2
278
46
279
0
280
0
281
0
282
0
283
0
284
8
285
0
286
0
288
1
289
0
290
0
340
4C
342
84
371
-2
372
-2
  0
DIMSTYLE
105
89
330
4
100
AcDbSymbolTableRecord
100
AcDbDimStyleTableRecord
  2
EZ_CURVED
 70
0
 40
1.0
 41
0.25
 42
0.125
 43
3.75
 44
0.375
 45
0.0
 46
0.0
 47
0.0
 48
0.0
 49
2.5
140
0.25
141
2.5
142
0.0
143
0.03937007874
144
100.0
145
0.0
146
0.5
147
0.1
148
0.0
 69
0
 70
0
 71
0
 72
0
 73
0
 74
0
 75
0
 76
0
 77
1
 78
12
 79
2
 90
2
170
0
171
3
172
1
173
0
174
0
175
0
176
0
177
0
178
0
179
2
271
2
272
2
273
2
274
3
275
0
276
0
277
2
278
46
279
2
280
0
281
0
282
0
283
0
284
8
285
0
286
0
288
1
289
3
290
0
340
4C
371
-2
372
-2
  0
ENDTAB
  0
TABLE
  2
BLOCK_RECORD
  5
9
330
0
100
AcDbSymbolTable
 70
5
  0
BLOCK_RECORD
  5
17
330
9
100
AcDbSymbolTableRecord
100
AcDbBlockTableRecord
  2
*Model_Space
340
1A
 70
0
280
1
281
0
  0
BLOCK_RECORD
  5
1B
330
9
100
AcDbSymbolTableRecord
100
AcDbBlockTableRecord
  2
*Paper_Space
340
1E
 70
0
280
1
281
0
  0
BLOCK_RECORD
  5
74
330
9
100
AcDbSymbolTableRecord
100
AcDbBlockTableRecord
  2
_ARCHTICK
340
0
 70
0
280
1
281
0
  0
BLOCK_RECORD
  5
78
330
9
100
AcDbSymbolTableRecord
100
AcDbBlockTableRecord
  2
_CLOSEDFILLED
340
0
 70
0
280
1
281
0
  0
BLOCK_RECORD
  5
84
330
9
100
AcDbSymbolTableRecord
100
AcDbBlockTableRecord
  2
_CLOSEDBLANK
340
0
 70
0
280
1
281
0
  0
ENDTAB
  0
ENDSEC
  0
SECTION
  2
BLOCKS
  0
BLOCK
  5
18
330
17
100
AcDbEntity
  8
0
100
AcDbBlockBegin
  2
*Model_Space
 70
0
 10
0.0
 20
0.0
 30
0.0
  3
*Model_Space
  1

  0
ENDBLK
  5
19
330
17
100
AcDbEntity
  8
0
100
AcDbBlockEnd
  0
BLOCK
  5
1C
330
1B
100
AcDbEntity
  8
0
100
AcDbBlockBegin
  2
*Paper_Space
 70
0
 10
0.0
 20
0.0
 30
0.0
  3
*Paper_Space
  1

  0
ENDBLK
  5
1D
330
1B
100
AcDbEntity
  8
0
100
AcDbBlockEnd
  0
BLOCK
  5
75
330
74
100
AcDbEntity
  8
0
100
AcDbBlockBegin
  2
_ARCHTICK
 70
0
 10
0.0
 20
0.0
 30
0.0
  3
_ARCHTICK
  1

  0
LWPOLYLINE
  5
77
330
74
100
AcDbEntity
  8
0
  6
BYBLOCK
 62
0
100
AcDbPolyline
 90
2
 70
0
 43
0.15
 10
-0.5
 20
-0.5
 10
0.5
 20
0.5
  0
ENDBLK
  5
76
330
74
100
AcDbEntity
  8
0
100
AcDbBlockEnd
  0
BLOCK
  5
79
330
78
100
AcDbEntity
  8
0
100
AcDbBlockBegin
  2
_CLOSEDFILLED
 70
0
 10
0.0
 20
0.0
 30
0.0
  3
_CLOSEDFILLED
  1

  0
SOLID
  5
7B
330
78
100
AcDbEntity
  8
0
  6
BYBLOCK
 62
0
100
AcDbTrace
 10
-1.0
 20
0.16439898372402537
 30
0.0
 11
0.0
 21
0.0
 31
0.0
 12
-1.0
 22
-0.16439898372402537
 32
0.0
 13
-1.0
 23
-0.16439898372402537
 33
0.0
  0
ENDBLK
  5
7A
330
78
100
AcDbEntity
  8
0
100
AcDbBlockEnd
  0
BLOCK
  5
85
330
84
100
AcDbEntity
  8
0
100
AcDbBlockBegin
  2
_CLOSEDBLANK
 70
0
 10
0.0
 20
0.0
 30
0.0
  3
_CLOSEDBLANK
  1

  0
LWPOLYLINE
  5
87
330
84
100
AcDbEntity
  8
0
  6
BYBLOCK
 62
0
100
AcDbPolyline
 90
3
 70
1
 10
-1.0
 20
0.16439898372402537
 10
0.0
 20
0.0
 10
-1.0
 20
-0.16439898372402537
  0
ENDBLK
  5
86
330
84
100
AcDbEntity
  8
0
100
AcDbBlockEnd
  0
ENDSEC
  0
SECTION
  2
ENTITIES
  0
LWPOLYLINE
  5
9C
330
17
100
AcDbEntity
  8
FORGE-SHEET
100
AcDbPolyline
 90
4
 70
1
 10
-16.0
 20
16.0
 10
1616.0
 20
16.0
 10
1616.0
 20
-1056.0
 10
-16.0
 20
-1056.0
  0
LINE
  5
9D
330
17
100
AcDbEntity
  8
FORGE-SHEET
100
AcDbLine
 10
-16.0
 20
-1016.0
 30
0.0
 11
1616.0
 21
-1016.0
 31
0.0
  0
TEXT
  5
9E
330
17
100
AcDbEntity
  8
FORGE-TITLE
100
AcDbText
 10
-8.0
 20
-1036.0
 30
0.0
 40
26.0
  1
07
 11
-8.0
 21
-1036.0
 31
0.0
100
AcDbText
 73
2
  0
TEXT
  5
9F
330
17
100
AcDbEntity
  8
FORGE-TITLE
100
AcDbText
 10
48.0
 20
-1030.0
 30
0.0
 40
15.0
  1
ANATOMY & THEME SPEC
 11
48.0
 21
-1030.0
 31
0.0
100
AcDbText
 73
2
  0
TEXT
  5
A0
330
17
100
AcDbEntity
  8
FORGE-DIM
100
AcDbText
 10
48.0
 20
-1046.0
 30
0.0
 40
11.0
  1
dimensioned components · palette legend · CAD layer key
 11
48.0
 21
-1046.0
 31
0.0
100
AcDbText
 73
2
  0
HATCH
  5
A1
330
17
100
AcDbEntity
  8
UI-SHELL-BG
100
AcDbHatch
 10
0.0
 20
0.0
 30
0.0
210
0.0
220
0.0
230
1.0
  2
SOLID
 70
1
 71
0
 91
1
 92
3
 72
0
 73
1
 93
4
 10
0.0
 20
0.0
 10
1600.0
 20
0.0
 10
1600.0
 20
-1000.0
 10
0.0
 20
-1000.0
 97
0
 75
1
 76
1
 98
0
  0
TEXT
  5
A2
330
17
100
AcDbEntity
  8
UI-ACCENT
100
AcDbText
 10
40.0
 20
-34.0
 30
0.0
 40
26.0
  1
FORGE — UI ANATOMY · THEME · CAD LAYER KEY
 11
40.0
 21
-34.0
 31
0.0
100
AcDbText
 73
2
  0
TEXT
  5
A3
330
17
100
AcDbEntity
  8
UI-TEXT-SEC
100
AcDbText
 10
40.0
 20
-62.0
 30
0.0
 40
11.0
  1
1 drawing unit = 1 logical UI pixel · all dimensions trace the source (ForgeShell / ArrangeView / MixerView / PianoRollView / DetailView)
 11
40.0
 21
-62.0
 31
0.0
100
AcDbText
 73
2
  0
TEXT
  5
A4
330
17
100
AcDbEntity
  8
UI-ACCENT
100
AcDbText
 10
40.0
 20
-96.0
 30
0.0
 40
15.0
  1
PALETTE  →  CAD LAYER
 11
40.0
 21
-96.0
 31
0.0
100
AcDbText
 73
2
  0
LINE
  5
A5
330
17
100
AcDbEntity
  8
UI-HAIRLINE
100
AcDbLine
 10
40.0
 20
-107.0
 30
0.0
 11
600.0
 21
-107.0
 31
0.0
  0
HATCH
  5
A6
330
17
100
AcDbEntity
  8
UI-CLIP
 62
7
420
1711134
100
AcDbHatch
 10
0.0
 20
0.0
 30
0.0
210
0.0
220
0.0
230
1.0
  2
SOLID
 70
1
 71
0
 91
1
 92
3
 72
0
 73
1
 93
4
 10
40.0
 20
-122.0
 10
90.0
 20
-122.0
 10
90.0
 20
-144.0
 10
40.0
 20
-144.0
 97
0
 75
1
 76
1
 98
0
  0
LWPOLYLINE
  5
A7
330
17
100
AcDbEntity
  8
UI-HAIRLINE
100
AcDbPolyline
 90
4
 70
1
 10
40.0
 20
-122.0
 10
90.0
 20
-122.0
 10
90.0
 20
-144.0
 10
40.0
 20
-144.0
  0
TEXT
  5
A8
330
17
100
AcDbEntity
  8
UI-TEXT
100
AcDbText
 10
100.0
 20
-128.0
 30
0.0
 40
11.0
  1
#1A1C1E
 11
100.0
 21
-128.0
 31
0.0
100
AcDbText
 73
2
  0
TEXT
  5
A9
330
17
100
AcDbEntity
  8
UI-TEXT
100
AcDbText
 10
178.0
 20
-128.0
 30
0.0
 40
11.0
  1
shellBg
 11
178.0
 21
-128.0
 31
0.0
100
AcDbText
 73
2
  0
TEXT
  5
AA
330
17
100
AcDbEntity
  8
UI-TEXT-SEC
100
AcDbText
 10
100.0
 20
-140.0
 30
0.0
 40
9.0
  1
UI-SHELL-BG
 11
100.0
 21
-140.0
 31
0.0
100
AcDbText
 73
2
  0
TEXT
  5
AB
330
17
100
AcDbEntity
  8
UI-TEXT-SEC
100
AcDbText
 10
270.0
 20
-133.0
 30
0.0
 40
9.0
  1
window / shell
 11
270.0
 21
-133.0
 31
0.0
100
AcDbText
 73
2
  0
HATCH
  5
AC
330
17
100
AcDbEntity
  8
UI-CLIP
 62
7
420
2303529
100
AcDbHatch
 10
0.0
 20
0.0
 30
0.0
210
0.0
220
0.0
230
1.0
  2
SOLID
 70
1
 71
0
 91
1
 92
3
 72
0
 73
1
 93
4
 10
40.0
 20
-151.0
 10
90.0
 20
-151.0
 10
90.0
 20
-173.0
 10
40.0
 20
-173.0
 97
0
 75
1
 76
1
 98
0
  0
LWPOLYLINE
  5
AD
330
17
100
AcDbEntity
  8
UI-HAIRLINE
100
AcDbPolyline
 90
4
 70
1
 10
40.0
 20
-151.0
 10
90.0
 20
-151.0
 10
90.0
 20
-173.0
 10
40.0
 20
-173.0
  0
TEXT
  5
AE
330
17
100
AcDbEntity
  8
UI-TEXT
100
AcDbText
 10
100.0
 20
-157.0
 30
0.0
 40
11.0
  1
#232629
 11
100.0
 21
-157.0
 31
0.0
100
AcDbText
 73
2
  0
TEXT
  5
AF
330
17
100
AcDbEntity
  8
UI-TEXT
100
AcDbText
 10
178.0
 20
-157.0
 30
0.0
 40
11.0
  1
panelBg
 11
178.0
 21
-157.0
 31
0.0
100
AcDbText
 73
2
  0
TEXT
  5
B0
330
17
100
AcDbEntity
  8
UI-TEXT-SEC
100
AcDbText
 10
100.0
 20
-169.0
 30
0.0
 40
9.0
  1
UI-PANEL-BG
 11
100.0
 21
-169.0
 31
0.0
100
AcDbText
 73
2
  0
TEXT
  5
B1
330
17
100
AcDbEntity
  8
UI-TEXT-SEC
100
AcDbText
 10
270.0
 20
-162.0
 30
0.0
 40
9.0
  1
docked panels, headers
 11
270.0
 21
-162.0
 31
0.0
100
AcDbText
 73
2
  0
HATCH
  5
B2
330
17
100
AcDbEntity
  8
UI-CLIP
 62
7
420
2961717
100
AcDbHatch
 10
0.0
 20
0.0
 30
0.0
210
0.0
220
0.0
230
1.0
  2
SOLID
 70
1
 71
0
 91
1
 92
3
 72
0
 73
1
 93
4
 10
40.0
 20
-180.0
 10
90.0
 20
-180.0
 10
90.0
 20
-202.0
 10
40.0
 20
-202.0
 97
0
 75
1
 76
1
 98
0
  0
LWPOLYLINE
  5
B3
330
17
100
AcDbEntity
  8
UI-HAIRLINE
100
AcDbPolyline
 90
4
 70
1
 10
40.0
 20
-180.0
 10
90.0
 20
-180.0
 10
90.0
 20
-202.0
 10
40.0
 20
-202.0
  0
TEXT
  5
B4
330
17
100
AcDbEntity
  8
UI-TEXT
100
AcDbText
 10
100.0
 20
-186.0
 30
0.0
 40
11.0
  1
#2D3135
 11
100.0
 21
-186.0
 31
0.0
100
AcDbText
 73
2
  0
TEXT
  5
B5
330
17
100
AcDbEntity
  8
UI-TEXT
100
AcDbText
 10
178.0
 20
-186.0
 30
0.0
 40
11.0
  1
raisedBg
 11
178.0
 21
-186.0
 31
0.0
100
AcDbText
 73
2
  0
TEXT
  5
B6
330
17
100
AcDbEntity
  8
UI-TEXT-SEC
100
AcDbText
 10
100.0
 20
-198.0
 30
0.0
 40
9.0
  1
UI-RAISED
 11
100.0
 21
-198.0
 31
0.0
100
AcDbText
 73
2
  0
TEXT
  5
B7
330
17
100
AcDbEntity
  8
UI-TEXT-SEC
100
AcDbText
 10
270.0
 20
-191.0
 30
0.0
 40
9.0
  1
raised controls / buttons
 11
270.0
 21
-191.0
 31
0.0
100
AcDbText
 73
2
  0
HATCH
  5
B8
330
17
100
AcDbEntity
  8
UI-CLIP
 62
7
420
14080476
100
AcDbHatch
 10
0.0
 20
0.0
 30
0.0
210
0.0
220
0.0
230
1.0
  2
SOLID
 70
1
 71
0
 91
1
 92
3
 72
0
 73
1
 93
4
 10
40.0
 20
-209.0
 10
90.0
 20
-209.0
 10
90.0
 20
-231.0
 10
40.0
 20
-231.0
 97
0
 75
1
 76
1
 98
0
  0
LWPOLYLINE
  5
B9
330
17
100
AcDbEntity
  8
UI-HAIRLINE
100
AcDbPolyline
 90
4
 70
1
 10
40.0
 20
-209.0
 10
90.0
 20
-209.0
 10
90.0
 20
-231.0
 10
40.0
 20
-231.0
  0
TEXT
  5
BA
330
17
100
AcDbEntity
  8
UI-TEXT
100
AcDbText
 10
100.0
 20
-215.0
 30
0.0
 40
11.0
  1
#D6D9DC
 11
100.0
 21
-215.0
 31
0.0
100
AcDbText
 73
2
  0
TEXT
  5
BB
330
17
100
AcDbEntity
  8
UI-TEXT
100
AcDbText
 10
178.0
 20
-215.0
 30
0.0
 40
11.0
  1
textPrim
 11
178.0
 21
-215.0
 31
0.0
100
AcDbText
 73
2
  0
TEXT
  5
BC
330
17
100
AcDbEntity
  8
UI-TEXT-SEC
100
AcDbText
 10
100.0
 20
-227.0
 30
0.0
 40
9.0
  1
UI-TEXT
 11
100.0
 21
-227.0
 31
0.0
100
AcDbText
 73
2
  0
TEXT
  5
BD
330
17
100
AcDbEntity
  8
UI-TEXT-SEC
100
AcDbText
 10
270.0
 20
-220.0
 30
0.0
 40
9.0
  1
primary text
 11
270.0
 21
-220.0
 31
0.0
100
AcDbText
 73
2
  0
HATCH
  5
BE
330
17
100
AcDbEntity
  8
UI-CLIP
 62
7
420
9080981
100
AcDbHatch
 10
0.0
 20
0.0
 30
0.0
210
0.0
220
0.0
230
1.0
  2
SOLID
 70
1
 71
0
 91
1
 92
3
 72
0
 73
1
 93
4
 10
40.0
 20
-238.0
 10
90.0
 20
-238.0
 10
90.0
 20
-260.0
 10
40.0
 20
-260.0
 97
0
 75
1
 76
1
 98
0
  0
LWPOLYLINE
  5
BF
330
17
100
AcDbEntity
  8
UI-HAIRLINE
100
AcDbPolyline
 90
4
 70
1
 10
40.0
 20
-238.0
 10
90.0
 20
-238.0
 10
90.0
 20
-260.0
 10
40.0
 20
-260.0
  0
TEXT
  5
C0
330
17
100
AcDbEntity
  8
UI-TEXT
100
AcDbText
 10
100.0
 20
-244.0
 30
0.0
 40
11.0
  1
#8A9095
 11
100.0
 21
-244.0
 31
0.0
100
AcDbText
 73
2
  0
TEXT
  5
C1
330
17
100
AcDbEntity
  8
UI-TEXT
100
AcDbText
 10
178.0
 20
-244.0
 30
0.0
 40
11.0
  1
textSec
 11
178.0
 21
-244.0
 31
0.0
100
AcDbText
 73
2
  0
TEXT
  5
C2
330
17
100
AcDbEntity
  8
UI-TEXT-SEC
100
AcDbText
 10
100.0
 20
-256.0
 30
0.0
 40
9.0
  1
UI-TEXT-SEC
 11
100.0
 21
-256.0
 31
0.0
100
AcDbText
 73
2
  0
TEXT
  5
C3
330
17
100
AcDbEntity
  8
UI-TEXT-SEC
100
AcDbText
 10
270.0
 20
-249.0
 30
0.0
 40
9.0
  1
labels / metadata
 11
270.0
 21
-249.0
 31
0.0
100
AcDbText
 73
2
  0
HATCH
  5
C4
330
17
100
AcDbEntity
  8
UI-CLIP
 62
7
420
3422268
100
AcDbHatch
 10
0.0
 20
0.0
 30
0.0
210
0.0
220
0.0
230
1.0
  2
SOLID
 70
1
 71
0
 91
1
 92
3
 72
0
 73
1
 93
4
 10
40.0
 20
-267.0
 10
90.0
 20
-267.0
 10
90.0
 20
-289.0
 10
40.0
 20
-289.0
 97
0
 75
1
 76
1
 98
0
  0
LWPOLYLINE
  5
C5
330
17
100
AcDbEntity
  8
UI-HAIRLINE
100
AcDbPolyline
 90
4
 70
1
 10
40.0
 20
-267.0
 10
90.0
 20
-267.0
 10
90.0
 20
-289.0
 10
40.0
 20
-289.0
  0
TEXT
  5
C6
330
17
100
AcDbEntity
  8
UI-TEXT
100
AcDbText
 10
100.0
 20
-273.0
 30
0.0
 40
11.0
  1
#34383C
 11
100.0
 21
-273.0
 31
0.0
100
AcDbText
 73
2
  0
TEXT
  5
C7
330
17
100
AcDbEntity
  8
UI-TEXT
100
AcDbText
 10
178.0
 20
-273.0
 30
0.0
 40
11.0
  1
hairline
 11
178.0
 21
-273.0
 31
0.0
100
AcDbText
 73
2
  0
TEXT
  5
C8
330
17
100
AcDbEntity
  8
UI-TEXT-SEC
100
AcDbText
 10
100.0
 20
-285.0
 30
0.0
 40
9.0
  1
UI-HAIRLINE
 11
100.0
 21
-285.0
 31
0.0
100
AcDbText
 73
2
  0
TEXT
  5
C9
330
17
100
AcDbEntity
  8
UI-TEXT-SEC
100
AcDbText
 10
270.0
 20
-278.0
 30
0.0
 40
9.0
  1
separators / hairlines
 11
270.0
 21
-278.0
 31
0.0
100
AcDbText
 73
2
  0
HATCH
  5
CA
330
17
100
AcDbEntity
  8
UI-CLIP
 62
7
420
14716975
100
AcDbHatch
 10
0.0
 20
0.0
 30
0.0
210
0.0
220
0.0
230
1.0
  2
SOLID
 70
1
 71
0
 91
1
 92
3
 72
0
 73
1
 93
4
 10
40.0
 20
-296.0
 10
90.0
 20
-296.0
 10
90.0
 20
-318.0
 10
40.0
 20
-318.0
 97
0
 75
1
 76
1
 98
0
  0
LWPOLYLINE
  5
CB
330
17
100
AcDbEntity
  8
UI-HAIRLINE
100
AcDbPolyline
 90
4
 70
1
 10
40.0
 20
-296.0
 10
90.0
 20
-296.0
 10
90.0
 20
-318.0
 10
40.0
 20
-318.0
  0
TEXT
  5
CC
330
17
100
AcDbEntity
  8
UI-TEXT
100
AcDbText
 10
100.0
 20
-302.0
 30
0.0
 40
11.0
  1
#E0902F
 11
100.0
 21
-302.0
 31
0.0
100
AcDbText
 73
2
  0
TEXT
  5
CD
330
17
100
AcDbEntity
  8
UI-TEXT
100
AcDbText
 10
178.0
 20
-302.0
 30
0.0
 40
11.0
  1
accent
 11
178.0
 21
-302.0
 31
0.0
100
AcDbText
 73
2
  0
TEXT
  5
CE
330
17
100
AcDbEntity
  8
UI-TEXT-SEC
100
AcDbText
 10
100.0
 20
-314.0
 30
0.0
 40
9.0
  1
UI-ACCENT
 11
100.0
 21
-314.0
 31
0.0
100
AcDbText
 73
2
  0
TEXT
  5
CF
330
17
100
AcDbEntity
  8
UI-TEXT-SEC
100
AcDbText
 10
270.0
 20
-307.0
 30
0.0
 40
9.0
  1
playhead · arm · selection · focus
 11
270.0
 21
-307.0
 31
0.0
100
AcDbText
 73
2
  0
HATCH
  5
D0
330
17
100
AcDbEntity
  8
UI-CLIP
 62
7
420
2364928
100
AcDbHatch
 10
0.0
 20
0.0
 30
0.0
210
0.0
220
0.0
230
1.0
  2
SOLID
 70
1
 71
0
 91
1
 92
3
 72
0
 73
1
 93
4
 10
40.0
 20
-325.0
 10
90.0
 20
-325.0
 10
90.0
 20
-347.0
 10
40.0
 20
-347.0
 97
0
 75
1
 76
1
 98
0
  0
LWPOLYLINE
  5
D1
330
17
100
AcDbEntity
  8
UI-HAIRLINE
100
AcDbPolyline
 90
4
 70
1
 10
40.0
 20
-325.0
 10
90.0
 20
-325.0
 10
90.0
 20
-347.0
 10
40.0
 20
-347.0
  0
TEXT
  5
D2
330
17
100
AcDbEntity
  8
UI-TEXT
100
AcDbText
 10
100.0
 20
-331.0
 30
0.0
 40
11.0
  1
#241600
 11
100.0
 21
-331.0
 31
0.0
100
AcDbText
 73
2
  0
TEXT
  5
D3
330
17
100
AcDbEntity
  8
UI-TEXT
100
AcDbText
 10
178.0
 20
-331.0
 30
0.0
 40
11.0
  1
onAccent
 11
178.0
 21
-331.0
 31
0.0
100
AcDbText
 73
2
  0
TEXT
  5
D4
330
17
100
AcDbEntity
  8
UI-TEXT-SEC
100
AcDbText
 10
100.0
 20
-343.0
 30
0.0
 40
9.0
  1
(on accent)
 11
100.0
 21
-343.0
 31
0.0
100
AcDbText
 73
2
  0
TEXT
  5
D5
330
17
100
AcDbEntity
  8
UI-TEXT-SEC
100
AcDbText
 10
270.0
 20
-336.0
 30
0.0
 40
9.0
  1
text drawn on the amber fill
 11
270.0
 21
-336.0
 31
0.0
100
AcDbText
 73
2
  0
HATCH
  5
D6
330
17
100
AcDbEntity
  8
UI-CLIP
 62
7
420
14830410
100
AcDbHatch
 10
0.0
 20
0.0
 30
0.0
210
0.0
220
0.0
230
1.0
  2
SOLID
 70
1
 71
0
 91
1
 92
3
 72
0
 73
1
 93
4
 10
40.0
 20
-354.0
 10
90.0
 20
-354.0
 10
90.0
 20
-376.0
 10
40.0
 20
-376.0
 97
0
 75
1
 76
1
 98
0
  0
LWPOLYLINE
  5
D7
330
17
100
AcDbEntity
  8
UI-HAIRLINE
100
AcDbPolyline
 90
4
 70
1
 10
40.0
 20
-354.0
 10
90.0
 20
-354.0
 10
90.0
 20
-376.0
 10
40.0
 20
-376.0
  0
TEXT
  5
D8
330
17
100
AcDbEntity
  8
UI-TEXT
100
AcDbText
 10
100.0
 20
-360.0
 30
0.0
 40
11.0
  1
#E24B4A
 11
100.0
 21
-360.0
 31
0.0
100
AcDbText
 73
2
  0
TEXT
  5
D9
330
17
100
AcDbEntity
  8
UI-TEXT
100
AcDbText
 10
178.0
 20
-360.0
 30
0.0
 40
11.0
  1
recordRed
 11
178.0
 21
-360.0
 31
0.0
100
AcDbText
 73
2
  0
TEXT
  5
DA
330
17
100
AcDbEntity
  8
UI-TEXT-SEC
100
AcDbText
 10
100.0
 20
-372.0
 30
0.0
 40
9.0
  1
UI-RECORD
 11
100.0
 21
-372.0
 31
0.0
100
AcDbText
 73
2
  0
TEXT
  5
DB
330
17
100
AcDbEntity
  8
UI-TEXT-SEC
100
AcDbText
 10
270.0
 20
-365.0
 30
0.0
 40
9.0
  1
active recording · clipping (reserved)
 11
270.0
 21
-365.0
 31
0.0
100
AcDbText
 73
2
  0
TEXT
  5
DC
330
17
100
AcDbEntity
  8
UI-ACCENT
100
AcDbText
 10
640.0
 20
-96.0
 30
0.0
 40
15.0
  1
DRAWING LAYERS  (toggle / freeze categories in CAD)
 11
640.0
 21
-96.0
 31
0.0
100
AcDbText
 73
2
  0
LINE
  5
DD
330
17
100
AcDbEntity
  8
UI-HAIRLINE
100
AcDbLine
 10
640.0
 20
-107.0
 30
0.0
 11
1560.0
 21
-107.0
 31
0.0
  0
HATCH
  5
DE
330
17
100
AcDbEntity
  8
UI-CLIP
 62
7
420
10134184
100
AcDbHatch
 10
0.0
 20
0.0
 30
0.0
210
0.0
220
0.0
230
1.0
  2
SOLID
 70
1
 71
0
 91
1
 92
3
 72
0
 73
1
 93
4
 10
640.0
 20
-122.0
 10
658.0
 20
-122.0
 10
658.0
 20
-134.0
 10
640.0
 20
-134.0
 97
0
 75
1
 76
1
 98
0
  0
LWPOLYLINE
  5
DF
330
17
100
AcDbEntity
  8
UI-HAIRLINE
100
AcDbPolyline
 90
4
 70
1
 10
640.0
 20
-122.0
 10
658.0
 20
-122.0
 10
658.0
 20
-134.0
 10
640.0
 20
-134.0
  0
TEXT
  5
E0
330
17
100
AcDbEntity
  8
UI-TEXT
100
AcDbText
 10
666.0
 20
-128.0
 30
0.0
 40
9.0
  1
FORGE-SHEET
 11
666.0
 21
-128.0
 31
0.0
100
AcDbText
 73
2
  0
HATCH
  5
E1
330
17
100
AcDbEntity
  8
UI-CLIP
 62
7
420
14080476
100
AcDbHatch
 10
0.0
 20
0.0
 30
0.0
210
0.0
220
0.0
230
1.0
  2
SOLID
 70
1
 71
0
 91
1
 92
3
 72
0
 73
1
 93
4
 10
640.0
 20
-140.0
 10
658.0
 20
-140.0
 10
658.0
 20
-152.0
 10
640.0
 20
-152.0
 97
0
 75
1
 76
1
 98
0
  0
LWPOLYLINE
  5
E2
330
17
100
AcDbEntity
  8
UI-HAIRLINE
100
AcDbPolyline
 90
4
 70
1
 10
640.0
 20
-140.0
 10
658.0
 20
-140.0
 10
658.0
 20
-152.0
 10
640.0
 20
-152.0
  0
TEXT
  5
E3
330
17
100
AcDbEntity
  8
UI-TEXT
100
AcDbText
 10
666.0
 20
-146.0
 30
0.0
 40
9.0
  1
FORGE-TITLE
 11
666.0
 21
-146.0
 31
0.0
100
AcDbText
 73
2
  0
HATCH
  5
E4
330
17
100
AcDbEntity
  8
UI-CLIP
 62
7
420
10134184
100
AcDbHatch
 10
0.0
 20
0.0
 30
0.0
210
0.0
220
0.0
230
1.0
  2
SOLID
 70
1
 71
0
 91
1
 92
3
 72
0
 73
1
 93
4
 10
640.0
 20
-158.0
 10
658.0
 20
-158.0
 10
658.0
 20
-170.0
 10
640.0
 20
-170.0
 97
0
 75
1
 76
1
 98
0
  0
LWPOLYLINE
  5
E5
330
17
100
AcDbEntity
  8
UI-HAIRLINE
100
AcDbPolyline
 90
4
 70
1
 10
640.0
 20
-158.0
 10
658.0
 20
-158.0
 10
658.0
 20
-170.0
 10
640.0
 20
-170.0
  0
TEXT
  5
E6
330
17
100
AcDbEntity
  8
UI-TEXT
100
AcDbText
 10
666.0
 20
-164.0
 30
0.0
 40
9.0
  1
FORGE-DIM
 11
666.0
 21
-164.0
 31
0.0
100
AcDbText
 73
2
  0
HATCH
  5
E7
330
17
100
AcDbEntity
  8
UI-CLIP
 62
7
420
5219271
100
AcDbHatch
 10
0.0
 20
0.0
 30
0.0
210
0.0
220
0.0
230
1.0
  2
SOLID
 70
1
 71
0
 91
1
 92
3
 72
0
 73
1
 93
4
 10
640.0
 20
-176.0
 10
658.0
 20
-176.0
 10
658.0
 20
-188.0
 10
640.0
 20
-188.0
 97
0
 75
1
 76
1
 98
0
  0
LWPOLYLINE
  5
E8
330
17
100
AcDbEntity
  8
UI-HAIRLINE
100
AcDbPolyline
 90
4
 70
1
 10
640.0
 20
-176.0
 10
658.0
 20
-176.0
 10
658.0
 20
-188.0
 10
640.0
 20
-188.0
  0
TEXT
  5
E9
330
17
100
AcDbEntity
  8
UI-TEXT
100
AcDbText
 10
666.0
 20
-182.0
 30
0.0
 40
9.0
  1
FORGE-NOTE
 11
666.0
 21
-182.0
 31
0.0
100
AcDbText
 73
2
  0
HATCH
  5
EA
330
17
100
AcDbEntity
  8
UI-CLIP
 62
7
420
1711134
100
AcDbHatch
 10
0.0
 20
0.0
 30
0.0
210
0.0
220
0.0
230
1.0
  2
SOLID
 70
1
 71
0
 91
1
 92
3
 72
0
 73
1
 93
4
 10
640.0
 20
-194.0
 10
658.0
 20
-194.0
 10
658.0
 20
-206.0
 10
640.0
 20
-206.0
 97
0
 75
1
 76
1
 98
0
  0
LWPOLYLINE
  5
EB
330
17
100
AcDbEntity
  8
UI-HAIRLINE
100
AcDbPolyline
 90
4
 70
1
 10
640.0
 20
-194.0
 10
658.0
 20
-194.0
 10
658.0
 20
-206.0
 10
640.0
 20
-206.0
  0
TEXT
  5
EC
330
17
100
AcDbEntity
  8
UI-TEXT
100
AcDbText
 10
666.0
 20
-200.0
 30
0.0
 40
9.0
  1
UI-SHELL-BG
 11
666.0
 21
-200.0
 31
0.0
100
AcDbText
 73
2
  0
HATCH
  5
ED
330
17
100
AcDbEntity
  8
UI-CLIP
 62
7
420
2303529
100
AcDbHatch
 10
0.0
 20
0.0
 30
0.0
210
0.0
220
0.0
230
1.0
  2
SOLID
 70
1
 71
0
 91
1
 92
3
 72
0
 73
1
 93
4
 10
640.0
 20
-212.0
 10
658.0
 20
-212.0
 10
658.0
 20
-224.0
 10
640.0
 20
-224.0
 97
0
 75
1
 76
1
 98
0
  0
LWPOLYLINE
  5
EE
330
17
100
AcDbEntity
  8
UI-HAIRLINE
100
AcDbPolyline
 90
4
 70
1
 10
640.0
 20
-212.0
 10
658.0
 20
-212.0
 10
658.0
 20
-224.0
 10
640.0
 20
-224.0
  0
TEXT
  5
EF
330
17
100
AcDbEntity
  8
UI-TEXT
100
AcDbText
 10
666.0
 20
-218.0
 30
0.0
 40
9.0
  1
UI-PANEL-BG
 11
666.0
 21
-218.0
 31
0.0
100
AcDbText
 73
2
  0
HATCH
  5
F0
330
17
100
AcDbEntity
  8
UI-CLIP
 62
7
420
2961717
100
AcDbHatch
 10
0.0
 20
0.0
 30
0.0
210
0.0
220
0.0
230
1.0
  2
SOLID
 70
1
 71
0
 91
1
 92
3
 72
0
 73
1
 93
4
 10
640.0
 20
-230.0
 10
658.0
 20
-230.0
 10
658.0
 20
-242.0
 10
640.0
 20
-242.0
 97
0
 75
1
 76
1
 98
0
  0
LWPOLYLINE
  5
F1
330
17
100
AcDbEntity
  8
UI-HAIRLINE
100
AcDbPolyline
 90
4
 70
1
 10
640.0
 20
-230.0
 10
658.0
 20
-230.0
 10
658.0
 20
-242.0
 10
640.0
 20
-242.0
  0
TEXT
  5
F2
330
17
100
AcDbEntity
  8
UI-TEXT
100
AcDbText
 10
666.0
 20
-236.0
 30
0.0
 40
9.0
  1
UI-RAISED
 11
666.0
 21
-236.0
 31
0.0
100
AcDbText
 73
2
  0
HATCH
  5
F3
330
17
100
AcDbEntity
  8
UI-CLIP
 62
7
420
3422268
100
AcDbHatch
 10
0.0
 20
0.0
 30
0.0
210
0.0
220
0.0
230
1.0
  2
SOLID
 70
1
 71
0
 91
1
 92
3
 72
0
 73
1
 93
4
 10
640.0
 20
-248.0
 10
658.0
 20
-248.0
 10
658.0
 20
-260.0
 10
640.0
 20
-260.0
 97
0
 75
1
 76
1
 98
0
  0
LWPOLYLINE
  5
F4
330
17
100
AcDbEntity
  8
UI-HAIRLINE
100
AcDbPolyline
 90
4
 70
1
 10
640.0
 20
-248.0
 10
658.0
 20
-248.0
 10
658.0
 20
-260.0
 10
640.0
 20
-260.0
  0
TEXT
  5
F5
330
17
100
AcDbEntity
  8
UI-TEXT
100
AcDbText
 10
666.0
 20
-254.0
 30
0.0
 40
9.0
  1
UI-HAIRLINE
 11
666.0
 21
-254.0
 31
0.0
100
AcDbText
 73
2
  0
HATCH
  5
F6
330
17
100
AcDbEntity
  8
UI-CLIP
 62
7
420
14080476
100
AcDbHatch
 10
0.0
 20
0.0
 30
0.0
210
0.0
220
0.0
230
1.0
  2
SOLID
 70
1
 71
0
 91
1
 92
3
 72
0
 73
1
 93
4
 10
640.0
 20
-266.0
 10
658.0
 20
-266.0
 10
658.0
 20
-278.0
 10
640.0
 20
-278.0
 97
0
 75
1
 76
1
 98
0
  0
LWPOLYLINE
  5
F7
330
17
100
AcDbEntity
  8
UI-HAIRLINE
100
AcDbPolyline
 90
4
 70
1
 10
640.0
 20
-266.0
 10
658.0
 20
-266.0
 10
658.0
 20
-278.0
 10
640.0
 20
-278.0
  0
TEXT
  5
F8
330
17
100
AcDbEntity
  8
UI-TEXT
100
AcDbText
 10
666.0
 20
-272.0
 30
0.0
 40
9.0
  1
UI-TEXT
 11
666.0
 21
-272.0
 31
0.0
100
AcDbText
 73
2
  0
HATCH
  5
F9
330
17
100
AcDbEntity
  8
UI-CLIP
 62
7
420
9080981
100
AcDbHatch
 10
0.0
 20
0.0
 30
0.0
210
0.0
220
0.0
230
1.0
  2
SOLID
 70
1
 71
0
 91
1
 92
3
 72
0
 73
1
 93
4
 10
950.0
 20
-122.0
 10
968.0
 20
-122.0
 10
968.0
 20
-134.0
 10
950.0
 20
-134.0
 97
0
 75
1
 76
1
 98
0
  0
LWPOLYLINE
  5
FA
330
17
100
AcDbEntity
  8
UI-HAIRLINE
100
AcDbPolyline
 90
4
 70
1
 10
950.0
 20
-122.0
 10
968.0
 20
-122.0
 10
968.0
 20
-134.0
 10
950.0
 20
-134.0
  0
TEXT
  5
FB
330
17
100
AcDbEntity
  8
UI-TEXT
100
AcDbText
 10
976.0
 20
-128.0
 30
0.0
 40
9.0
  1
UI-TEXT-SEC
 11
976.0
 21
-128.0
 31
0.0
100
AcDbText
 73
2
  0
HATCH
  5
FC
330
17
100
AcDbEntity
  8
UI-CLIP
 62
7
420
14716975
100
AcDbHatch
 10
0.0
 20
0.0
 30
0.0
210
0.0
220
0.0
230
1.0
  2
SOLID
 70
1
 71
0
 91
1
 92
3
 72
0
 73
1
 93
4
 10
950.0
 20
-140.0
 10
968.0
 20
-140.0
 10
968.0
 20
-152.0
 10
950.0
 20
-152.0
 97
0
 75
1
 76
1
 98
0
  0
LWPOLYLINE
  5
FD
330
17
100
AcDbEntity
  8
UI-HAIRLINE
100
AcDbPolyline
 90
4
 70
1
 10
950.0
 20
-140.0
 10
968.0
 20
-140.0
 10
968.0
 20
-152.0
 10
950.0
 20
-152.0
  0
TEXT
  5
FE
330
17
100
AcDbEntity
  8
UI-TEXT
100
AcDbText
 10
976.0
 20
-146.0
 30
0.0
 40
9.0
  1
UI-ACCENT
 11
976.0
 21
-146.0
 31
0.0
100
AcDbText
 73
2
  0
HATCH
  5
FF
330
17
100
AcDbEntity
  8
UI-CLIP
 62
7
420
14830410
100
AcDbHatch
 10
0.0
 20
0.0
 30
0.0
210
0.0
220
0.0
230
1.0
  2
SOLID
 70
1
 71
0
 91
1
 92
3
 72
0
 73
1
 93
4
 10
950.0
 20
-158.0
 10
968.0
 20
-158.0
 10
968.0
 20
-170.0
 10
950.0
 20
-170.0
 97
0
 75
1
 76
1
 98
0
  0
LWPOLYLINE
  5
100
330
17
100
AcDbEntity
  8
UI-HAIRLINE
100
AcDbPolyline
 90
4
 70
1
 10
950.0
 20
-158.0
 10
968.0
 20
-158.0
 10
968.0
 20
-170.0
 10
950.0
 20
-170.0
  0
TEXT
  5
101
330
17
100
AcDbEntity
  8
UI-TEXT
100
AcDbText
 10
976.0
 20
-164.0
 30
0.0
 40
9.0
  1
UI-RECORD
 11
976.0
 21
-164.0
 31
0.0
100
AcDbText
 73
2
  0
HATCH
  5
102
330
17
100
AcDbEntity
  8
UI-CLIP
 62
7
420
7371652
100
AcDbHatch
 10
0.0
 20
0.0
 30
0.0
210
0.0
220
0.0
230
1.0
  2
SOLID
 70
1
 71
0
 91
1
 92
3
 72
0
 73
1
 93
4
 10
950.0
 20
-176.0
 10
968.0
 20
-176.0
 10
968.0
 20
-188.0
 10
950.0
 20
-188.0
 97
0
 75
1
 76
1
 98
0
  0
LWPOLYLINE
  5
103
330
17
100
AcDbEntity
  8
UI-HAIRLINE
100
AcDbPolyline
 90
4
 70
1
 10
950.0
 20
-176.0
 10
968.0
 20
-176.0
 10
968.0
 20
-188.0
 10
950.0
 20
-188.0
  0
TEXT
  5
104
330
17
100
AcDbEntity
  8
UI-TEXT
100
AcDbText
 10
976.0
 20
-182.0
 30
0.0
 40
9.0
  1
UI-WAVEFORM
 11
976.0
 21
-182.0
 31
0.0
100
AcDbText
 73
2
  0
HATCH
  5
105
330
17
100
AcDbEntity
  8
UI-CLIP
 62
7
420
14716975
100
AcDbHatch
 10
0.0
 20
0.0
 30
0.0
210
0.0
220
0.0
230
1.0
  2
SOLID
 70
1
 71
0
 91
1
 92
3
 72
0
 73
1
 93
4
 10
950.0
 20
-194.0
 10
968.0
 20
-194.0
 10
968.0
 20
-206.0
 10
950.0
 20
-206.0
 97
0
 75
1
 76
1
 98
0
  0
LWPOLYLINE
  5
106
330
17
100
AcDbEntity
  8
UI-HAIRLINE
100
AcDbPolyline
 90
4
 70
1
 10
950.0
 20
-194.0
 10
968.0
 20
-194.0
 10
968.0
 20
-206.0
 10
950.0
 20
-206.0
  0
TEXT
  5
107
330
17
100
AcDbEntity
  8
UI-TEXT
100
AcDbText
 10
976.0
 20
-200.0
 30
0.0
 40
9.0
  1
UI-MIDI-NOTE
 11
976.0
 21
-200.0
 31
0.0
100
AcDbText
 73
2
  0
HATCH
  5
108
330
17
100
AcDbEntity
  8
UI-CLIP
 62
7
420
5744995
100
AcDbHatch
 10
0.0
 20
0.0
 30
0.0
210
0.0
220
0.0
230
1.0
  2
SOLID
 70
1
 71
0
 91
1
 92
3
 72
0
 73
1
 93
4
 10
950.0
 20
-212.0
 10
968.0
 20
-212.0
 10
968.0
 20
-224.0
 10
950.0
 20
-224.0
 97
0
 75
1
 76
1
 98
0
  0
LWPOLYLINE
  5
109
330
17
100
AcDbEntity
  8
UI-HAIRLINE
100
AcDbPolyline
 90
4
 70
1
 10
950.0
 20
-212.0
 10
968.0
 20
-212.0
 10
968.0
 20
-224.0
 10
950.0
 20
-224.0
  0
TEXT
  5
10A
330
17
100
AcDbEntity
  8
UI-TEXT
100
AcDbText
 10
976.0
 20
-218.0
 30
0.0
 40
9.0
  1
UI-METER
 11
976.0
 21
-218.0
 31
0.0
100
AcDbText
 73
2
  0
HATCH
  5
10B
330
17
100
AcDbEntity
  8
UI-CLIP
 62
7
420
14716975
100
AcDbHatch
 10
0.0
 20
0.0
 30
0.0
210
0.0
220
0.0
230
1.0
  2
SOLID
 70
1
 71
0
 91
1
 92
3
 72
0
 73
1
 93
4
 10
950.0
 20
-230.0
 10
968.0
 20
-230.0
 10
968.0
 20
-242.0
 10
950.0
 20
-242.0
 97
0
 75
1
 76
1
 98
0
  0
LWPOLYLINE
  5
10C
330
17
100
AcDbEntity
  8
UI-HAIRLINE
100
AcDbPolyline
 90
4
 70
1
 10
950.0
 20
-230.0
 10
968.0
 20
-230.0
 10
968.0
 20
-242.0
 10
950.0
 20
-242.0
  0
TEXT
  5
10D
330
17
100
AcDbEntity
  8
UI-TEXT
100
AcDbText
 10
976.0
 20
-236.0
 30
0.0
 40
9.0
  1
UI-SELECT
 11
976.0
 21
-236.0
 31
0.0
100
AcDbText
 73
2
  0
HATCH
  5
10E
330
17
100
AcDbEntity
  8
UI-CLIP
 62
7
420
2961717
100
AcDbHatch
 10
0.0
 20
0.0
 30
0.0
210
0.0
220
0.0
230
1.0
  2
SOLID
 70
1
 71
0
 91
1
 92
3
 72
0
 73
1
 93
4
 10
950.0
 20
-248.0
 10
968.0
 20
-248.0
 10
968.0
 20
-260.0
 10
950.0
 20
-260.0
 97
0
 75
1
 76
1
 98
0
  0
LWPOLYLINE
  5
10F
330
17
100
AcDbEntity
  8
UI-HAIRLINE
100
AcDbPolyline
 90
4
 70
1
 10
950.0
 20
-248.0
 10
968.0
 20
-248.0
 10
968.0
 20
-260.0
 10
950.0
 20
-260.0
  0
TEXT
  5
110
330
17
100
AcDbEntity
  8
UI-TEXT
100
AcDbText
 10
976.0
 20
-254.0
 30
0.0
 40
9.0
  1
UI-CLIP
 11
976.0
 21
-254.0
 31
0.0
100
AcDbText
 73
2
  0
HATCH
  5
111
330
17
100
AcDbEntity
  8
UI-CLIP
 62
7
420
5594210
100
AcDbHatch
 10
0.0
 20
0.0
 30
0.0
210
0.0
220
0.0
230
1.0
  2
SOLID
 70
1
 71
0
 91
1
 92
3
 72
0
 73
1
 93
4
 10
950.0
 20
-266.0
 10
968.0
 20
-266.0
 10
968.0
 20
-278.0
 10
950.0
 20
-278.0
 97
0
 75
1
 76
1
 98
0
  0
LWPOLYLINE
  5
112
330
17
100
AcDbEntity
  8
UI-HAIRLINE
100
AcDbPolyline
 90
4
 70
1
 10
950.0
 20
-266.0
 10
968.0
 20
-266.0
 10
968.0
 20
-278.0
 10
950.0
 20
-278.0
  0
TEXT
  5
113
330
17
100
AcDbEntity
  8
UI-TEXT
100
AcDbText
 10
976.0
 20
-272.0
 30
0.0
 40
9.0
  1
UI-GHOST
 11
976.0
 21
-272.0
 31
0.0
100
AcDbText
 73
2
  0
TEXT
  5
114
330
17
100
AcDbEntity
  8
UI-TEXT-SEC
100
AcDbText
 10
640.0
 20
-312.0
 30
0.0
 40
9.0
  1
Freeze the *-BG fill layers → clean wireframe.   Each layer carries its true-colour:
 11
640.0
 21
-312.0
 31
0.0
100
AcDbText
 73
2
  0
TEXT
  5
115
330
17
100
AcDbEntity
  8
UI-TEXT-SEC
100
AcDbText
 10
640.0
 20
-328.0
 30
0.0
 40
9.0
  1
edit one layer colour to re-theme everything (mirrors ForgeLookAndFeel colour IDs).
 11
640.0
 21
-328.0
 31
0.0
100
AcDbText
 73
2
  0
TEXT
  5
116
330
17
100
AcDbEntity
  8
UI-ACCENT
100
AcDbText
 10
640.0
 20
-360.0
 30
0.0
 40
15.0
  1
CONTROL BAR  ·  46 px tall, full width
 11
640.0
 21
-360.0
 31
0.0
100
AcDbText
 73
2
  0
LINE
  5
117
330
17
100
AcDbEntity
  8
UI-HAIRLINE
100
AcDbLine
 10
640.0
 20
-371.0
 30
0.0
 11
1560.0
 21
-371.0
 31
0.0
  0
HATCH
  5
118
330
17
100
AcDbEntity
  8
UI-PANEL-BG
100
AcDbHatch
 10
0.0
 20
0.0
 30
0.0
210
0.0
220
0.0
230
1.0
  2
SOLID
 70
1
 71
0
 91
1
 92
3
 72
0
 73
1
 93
4
 10
640.0
 20
-388.0
 10
1560.0
 20
-388.0
 10
1560.0
 20
-434.0
 10
640.0
 20
-434.0
 97
0
 75
1
 76
1
 98
0
  0
LINE
  5
119
330
17
100
AcDbEntity
  8
UI-HAIRLINE
100
AcDbLine
 10
640.0
 20
-434.0
 30
0.0
 11
1560.0
 21
-434.0
 31
0.0
  0
HATCH
  5
11A
330
17
100
AcDbEntity
  8
UI-RAISED
100
AcDbHatch
 10
0.0
 20
0.0
 30
0.0
210
0.0
220
0.0
230
1.0
  2
SOLID
 70
1
 71
0
 91
1
 92
3
 72
0
 73
1
 93
4
 10
646.0
 20
-394.0
 10
706.0
 20
-394.0
 10
706.0
 20
-428.0
 10
646.0
 20
-428.0
 97
0
 75
1
 76
1
 98
0
  0
LWPOLYLINE
  5
11B
330
17
100
AcDbEntity
  8
UI-HAIRLINE
100
AcDbPolyline
 90
4
 70
1
 10
646.0
 20
-394.0
 10
706.0
 20
-394.0
 10
706.0
 20
-428.0
 10
646.0
 20
-428.0
  0
TEXT
  5
11C
330
17
100
AcDbEntity
  8
UI-TEXT
100
AcDbText
 10
676.0
 20
-411.0
 30
0.0
 40
9.0
  1
Browser
 72
1
 11
676.0
 21
-411.0
 31
0.0
100
AcDbText
 73
2
  0
HATCH
  5
11D
330
17
100
AcDbEntity
  8
UI-RAISED
100
AcDbHatch
 10
0.0
 20
0.0
 30
0.0
210
0.0
220
0.0
230
1.0
  2
SOLID
 70
1
 71
0
 91
1
 92
3
 72
0
 73
1
 93
4
 10
712.0
 20
-394.0
 10
760.0
 20
-394.0
 10
760.0
 20
-428.0
 10
712.0
 20
-428.0
 97
0
 75
1
 76
1
 98
0
  0
LWPOLYLINE
  5
11E
330
17
100
AcDbEntity
  8
UI-HAIRLINE
100
AcDbPolyline
 90
4
 70
1
 10
712.0
 20
-394.0
 10
760.0
 20
-394.0
 10
760.0
 20
-428.0
 10
712.0
 20
-428.0
  0
TEXT
  5
11F
330
17
100
AcDbEntity
  8
UI-TEXT
100
AcDbText
 10
736.0
 20
-411.0
 30
0.0
 40
9.0
  1
New
 72
1
 11
736.0
 21
-411.0
 31
0.0
100
AcDbText
 73
2
  0
HATCH
  5
120
330
17
100
AcDbEntity
  8
UI-RAISED
100
AcDbHatch
 10
0.0
 20
0.0
 30
0.0
210
0.0
220
0.0
230
1.0
  2
SOLID
 70
1
 71
0
 91
1
 92
3
 72
0
 73
1
 93
4
 10
763.0
 20
-394.0
 10
811.0
 20
-394.0
 10
811.0
 20
-428.0
 10
763.0
 20
-428.0
 97
0
 75
1
 76
1
 98
0
  0
LWPOLYLINE
  5
121
330
17
100
AcDbEntity
  8
UI-HAIRLINE
100
AcDbPolyline
 90
4
 70
1
 10
763.0
 20
-394.0
 10
811.0
 20
-394.0
 10
811.0
 20
-428.0
 10
763.0
 20
-428.0
  0
TEXT
  5
122
330
17
100
AcDbEntity
  8
UI-TEXT
100
AcDbText
 10
787.0
 20
-411.0
 30
0.0
 40
9.0
  1
Open
 72
1
 11
787.0
 21
-411.0
 31
0.0
100
AcDbText
 73
2
  0
HATCH
  5
123
330
17
100
AcDbEntity
  8
UI-RAISED
100
AcDbHatch
 10
0.0
 20
0.0
 30
0.0
210
0.0
220
0.0
230
1.0
  2
SOLID
 70
1
 71
0
 91
1
 92
3
 72
0
 73
1
 93
4
 10
814.0
 20
-394.0
 10
862.0
 20
-394.0
 10
862.0
 20
-428.0
 10
814.0
 20
-428.0
 97
0
 75
1
 76
1
 98
0
  0
LWPOLYLINE
  5
124
330
17
100
AcDbEntity
  8
UI-HAIRLINE
100
AcDbPolyline
 90
4
 70
1
 10
814.0
 20
-394.0
 10
862.0
 20
-394.0
 10
862.0
 20
-428.0
 10
814.0
 20
-428.0
  0
TEXT
  5
125
330
17
100
AcDbEntity
  8
UI-TEXT
100
AcDbText
 10
838.0
 20
-411.0
 30
0.0
 40
9.0
  1
Save
 72
1
 11
838.0
 21
-411.0
 31
0.0
100
AcDbText
 73
2
  0
HATCH
  5
126
330
17
100
AcDbEntity
  8
UI-RAISED
100
AcDbHatch
 10
0.0
 20
0.0
 30
0.0
210
0.0
220
0.0
230
1.0
  2
SOLID
 70
1
 71
0
 91
1
 92
3
 72
0
 73
1
 93
4
 10
865.0
 20
-394.0
 10
913.0
 20
-394.0
 10
913.0
 20
-428.0
 10
865.0
 20
-428.0
 97
0
 75
1
 76
1
 98
0
  0
LWPOLYLINE
  5
127
330
17
100
AcDbEntity
  8
UI-HAIRLINE
100
AcDbPolyline
 90
4
 70
1
 10
865.0
 20
-394.0
 10
913.0
 20
-394.0
 10
913.0
 20
-428.0
 10
865.0
 20
-428.0
  0
TEXT
  5
128
330
17
100
AcDbEntity
  8
UI-TEXT
100
AcDbText
 10
889.0
 20
-411.0
 30
0.0
 40
9.0
  1
…
 72
1
 11
889.0
 21
-411.0
 31
0.0
100
AcDbText
 73
2
  0
TEXT
  5
129
330
17
100
AcDbEntity
  8
UI-TEXT-SEC
100
AcDbText
 10
918.0
 20
-411.0
 30
0.0
 40
9.0
  1
file cmds
 11
918.0
 21
-411.0
 31
0.0
100
AcDbText
 73
2
  0
HATCH
  5
12A
330
17
100
AcDbEntity
  8
UI-RAISED
100
AcDbHatch
 10
0.0
 20
0.0
 30
0.0
210
0.0
220
0.0
230
1.0
  2
SOLID
 70
1
 71
0
 91
1
 92
3
 72
0
 73
1
 93
4
 10
1000.0
 20
-394.0
 10
1050.0
 20
-394.0
 10
1050.0
 20
-428.0
 10
1000.0
 20
-428.0
 97
0
 75
1
 76
1
 98
0
  0
LWPOLYLINE
  5
12B
330
17
100
AcDbEntity
  8
UI-HAIRLINE
100
AcDbPolyline
 90
4
 70
1
 10
1000.0
 20
-394.0
 10
1050.0
 20
-394.0
 10
1050.0
 20
-428.0
 10
1000.0
 20
-428.0
  0
LWPOLYLINE
  5
12C
330
17
100
AcDbEntity
  8
UI-TEXT
100
AcDbPolyline
 90
3
 70
1
 10
1020.0
 20
-405.0
 10
1032.0
 20
-411.0
 10
1020.0
 20
-417.0
  0
HATCH
  5
12D
330
17
100
AcDbEntity
  8
UI-RAISED
100
AcDbHatch
 10
0.0
 20
0.0
 30
0.0
210
0.0
220
0.0
230
1.0
  2
SOLID
 70
1
 71
0
 91
1
 92
3
 72
0
 73
1
 93
4
 10
1054.0
 20
-394.0
 10
1104.0
 20
-394.0
 10
1104.0
 20
-428.0
 10
1054.0
 20
-428.0
 97
0
 75
1
 76
1
 98
0
  0
LWPOLYLINE
  5
12E
330
17
100
AcDbEntity
  8
UI-HAIRLINE
100
AcDbPolyline
 90
4
 70
1
 10
1054.0
 20
-394.0
 10
1104.0
 20
-394.0
 10
1104.0
 20
-428.0
 10
1054.0
 20
-428.0
  0
HATCH
  5
12F
330
17
100
AcDbEntity
  8
UI-TEXT
100
AcDbHatch
 10
0.0
 20
0.0
 30
0.0
210
0.0
220
0.0
230
1.0
  2
SOLID
 70
1
 71
0
 91
1
 92
3
 72
0
 73
1
 93
4
 10
1073.5
 20
-405.5
 10
1084.5
 20
-405.5
 10
1084.5
 20
-416.5
 10
1073.5
 20
-416.5
 97
0
 75
1
 76
1
 98
0
  0
HATCH
  5
130
330
17
100
AcDbEntity
  8
UI-RAISED
100
AcDbHatch
 10
0.0
 20
0.0
 30
0.0
210
0.0
220
0.0
230
1.0
  2
SOLID
 70
1
 71
0
 91
1
 92
3
 72
0
 73
1
 93
4
 10
1108.0
 20
-394.0
 10
1158.0
 20
-394.0
 10
1158.0
 20
-428.0
 10
1108.0
 20
-428.0
 97
0
 75
1
 76
1
 98
0
  0
LWPOLYLINE
  5
131
330
17
100
AcDbEntity
  8
UI-HAIRLINE
100
AcDbPolyline
 90
4
 70
1
 10
1108.0
 20
-394.0
 10
1158.0
 20
-394.0
 10
1158.0
 20
-428.0
 10
1108.0
 20
-428.0
  0
HATCH
  5
132
330
17
100
AcDbEntity
  8
UI-RECORD
100
AcDbHatch
 10
0.0
 20
0.0
 30
0.0
210
0.0
220
0.0
230
1.0
  2
SOLID
 70
1
 71
0
 91
1
 92
1
 93
1
 72
2
 10
1133.0
 20
-411.0
 40
6.2
 50
0
 51
360
 73
1
 97
0
 75
1
 76
1
 98
0
  0
HATCH
  5
133
330
17
100
AcDbEntity
  8
UI-RAISED
100
AcDbHatch
 10
0.0
 20
0.0
 30
0.0
210
0.0
220
0.0
230
1.0
  2
SOLID
 70
1
 71
0
 91
1
 92
3
 72
0
 73
1
 93
4
 10
1162.0
 20
-394.0
 10
1212.0
 20
-394.0
 10
1212.0
 20
-428.0
 10
1162.0
 20
-428.0
 97
0
 75
1
 76
1
 98
0
  0
LWPOLYLINE
  5
134
330
17
100
AcDbEntity
  8
UI-HAIRLINE
100
AcDbPolyline
 90
4
 70
1
 10
1162.0
 20
-394.0
 10
1212.0
 20
-394.0
 10
1212.0
 20
-428.0
 10
1162.0
 20
-428.0
  0
ARC
  5
135
330
17
100
AcDbEntity
  8
UI-TEXT
100
AcDbCircle
 10
1187.0
 20
-411.0
 30
0.0
 40
6.2
100
AcDbArc
 50
130.0
 51
55.0
  0
LWPOLYLINE
  5
136
330
17
100
AcDbEntity
  8
UI-TEXT
100
AcDbPolyline
 90
3
 70
1
 10
1187.5561739053765
 20
-404.92125732540825
 10
1193.5561739053765
 20
-402.92125732540825
 10
1191.5561739053765
 20
-408.92125732540825
  0
HATCH
  5
137
330
17
100
AcDbEntity
  8
UI-RAISED
100
AcDbHatch
 10
0.0
 20
0.0
 30
0.0
210
0.0
220
0.0
230
1.0
  2
SOLID
 70
1
 71
0
 91
1
 92
3
 72
0
 73
1
 93
4
 10
1216.0
 20
-394.0
 10
1406.0
 20
-394.0
 10
1406.0
 20
-428.0
 10
1216.0
 20
-428.0
 97
0
 75
1
 76
1
 98
0
  0
LWPOLYLINE
  5
138
330
17
100
AcDbEntity
  8
UI-HAIRLINE
100
AcDbPolyline
 90
4
 70
1
 10
1216.0
 20
-394.0
 10
1406.0
 20
-394.0
 10
1406.0
 20
-428.0
 10
1216.0
 20
-428.0
  0
TEXT
  5
139
330
17
100
AcDbEntity
  8
UI-TEXT
100
AcDbText
 10
1226.0
 20
-411.0
 30
0.0
 40
13.0
  1
00:00:05.812
 11
1226.0
 21
-411.0
 31
0.0
100
AcDbText
 73
2
  0
TEXT
  5
13A
330
17
100
AcDbEntity
  8
UI-ACCENT
100
AcDbText
 10
1398.0
 20
-411.0
 30
0.0
 40
13.0
  1
3 . 2 . 1
 72
2
 11
1398.0
 21
-411.0
 31
0.0
100
AcDbText
 73
2
  0
HATCH
  5
13B
330
17
100
AcDbEntity
  8
UI-RAISED
100
AcDbHatch
 10
0.0
 20
0.0
 30
0.0
210
0.0
220
0.0
230
1.0
  2
SOLID
 70
1
 71
0
 91
1
 92
3
 72
0
 73
1
 93
4
 10
1498.0
 20
-394.0
 10
1554.0
 20
-394.0
 10
1554.0
 20
-428.0
 10
1498.0
 20
-428.0
 97
0
 75
1
 76
1
 98
0
  0
LWPOLYLINE
  5
13C
330
17
100
AcDbEntity
  8
UI-HAIRLINE
100
AcDbPolyline
 90
4
 70
1
 10
1498.0
 20
-394.0
 10
1554.0
 20
-394.0
 10
1554.0
 20
-428.0
 10
1498.0
 20
-428.0
  0
TEXT
  5
13D
330
17
100
AcDbEntity
  8
UI-TEXT
100
AcDbText
 10
1526.0
 20
-411.0
 30
0.0
 40
9.0
  1
Editor
 72
1
 11
1526.0
 21
-411.0
 31
0.0
100
AcDbText
 73
2
  0
HATCH
  5
13E
330
17
100
AcDbEntity
  8
UI-RAISED
100
AcDbHatch
 10
0.0
 20
0.0
 30
0.0
210
0.0
220
0.0
230
1.0
  2
SOLID
 70
1
 71
0
 91
1
 92
3
 72
0
 73
1
 93
4
 10
1440.0
 20
-394.0
 10
1488.0
 20
-394.0
 10
1488.0
 20
-428.0
 10
1440.0
 20
-428.0
 97
0
 75
1
 76
1
 98
0
  0
LWPOLYLINE
  5
13F
330
17
100
AcDbEntity
  8
UI-HAIRLINE
100
AcDbPolyline
 90
4
 70
1
 10
1440.0
 20
-394.0
 10
1488.0
 20
-394.0
 10
1488.0
 20
-428.0
 10
1440.0
 20
-428.0
  0
TEXT
  5
140
330
17
100
AcDbEntity
  8
UI-TEXT
100
AcDbText
 10
1464.0
 20
-411.0
 30
0.0
 40
9.0
  1
Mix
 72
1
 11
1464.0
 21
-411.0
 31
0.0
100
AcDbText
 73
2
  0
HATCH
  5
141
330
17
100
AcDbEntity
  8
UI-ACCENT
100
AcDbHatch
 10
0.0
 20
0.0
 30
0.0
210
0.0
220
0.0
230
1.0
  2
SOLID
 70
1
 71
0
 91
1
 92
3
 72
0
 73
1
 93
4
 10
1378.0
 20
-394.0
 10
1440.0
 20
-394.0
 10
1440.0
 20
-428.0
 10
1378.0
 20
-428.0
 97
0
 75
1
 76
1
 98
0
  0
LWPOLYLINE
  5
142
330
17
100
AcDbEntity
  8
UI-HAIRLINE
100
AcDbPolyline
 90
4
 70
1
 10
1378.0
 20
-394.0
 10
1440.0
 20
-394.0
 10
1440.0
 20
-428.0
 10
1378.0
 20
-428.0
  0
TEXT
  5
143
330
17
100
AcDbEntity
  8
UI-TEXT
420
2364928
100
AcDbText
 10
1409.0
 20
-411.0
 30
0.0
 40
9.0
  1
Arrange
 72
1
 11
1409.0
 21
-411.0
 31
0.0
100
AcDbText
 73
2
  0
LINE
  5
144
330
17
100
AcDbEntity
  8
FORGE-DIM
100
AcDbLine
 10
628.0
 20
-388.0
 30
0.0
 11
628.0
 21
-434.0
 31
0.0
  0
LINE
  5
145
330
17
100
AcDbEntity
  8
FORGE-DIM
100
AcDbLine
 10
624.0
 20
-388.0
 30
0.0
 11
632.0
 21
-388.0
 31
0.0
  0
LINE
  5
146
330
17
100
AcDbEntity
  8
FORGE-DIM
100
AcDbLine
 10
624.0
 20
-434.0
 30
0.0
 11
632.0
 21
-434.0
 31
0.0
  0
TEXT
  5
147
330
17
100
AcDbEntity
  8
FORGE-DIM
100
AcDbText
 10
623.0
 20
-411.0
 30
0.0
 40
9.0
  1
46
 72
2
 11
623.0
 21
-411.0
 31
0.0
100
AcDbText
 73
2
  0
LINE
  5
148
330
17
100
AcDbEntity
  8
FORGE-NOTE
100
AcDbLine
 10
1311.0
 20
-394.0
 30
0.0
 11
1276.0
 21
-374.0
 31
0.0
  0
HATCH
  5
149
330
17
100
AcDbEntity
  8
FORGE-NOTE
100
AcDbHatch
 10
0.0
 20
0.0
 30
0.0
210
0.0
220
0.0
230
1.0
  2
SOLID
 70
1
 71
0
 91
1
 92
1
 93
1
 72
2
 10
1311.0
 20
-394.0
 40
2.2
 50
0
 51
360
 73
1
 97
0
 75
1
 76
1
 98
0
  0
TEXT
  5
14A
330
17
100
AcDbEntity
  8
FORGE-NOTE
100
AcDbText
 10
1272.0
 20
-374.0
 30
0.0
 40
11.0
  1
transport · timecode + bars|beats
 72
2
 11
1272.0
 21
-374.0
 31
0.0
100
AcDbText
 73
2
  0
LINE
  5
14B
330
17
100
AcDbEntity
  8
FORGE-NOTE
100
AcDbLine
 10
1526.0
 20
-428.0
 30
0.0
 11
1568.0
 21
-454.0
 31
0.0
  0
HATCH
  5
14C
330
17
100
AcDbEntity
  8
FORGE-NOTE
100
AcDbHatch
 10
0.0
 20
0.0
 30
0.0
210
0.0
220
0.0
230
1.0
  2
SOLID
 70
1
 71
0
 91
1
 92
1
 93
1
 72
2
 10
1526.0
 20
-428.0
 40
2.2
 50
0
 51
360
 73
1
 97
0
 75
1
 76
1
 98
0
  0
TEXT
  5
14D
330
17
100
AcDbEntity
  8
FORGE-NOTE
100
AcDbText
 10
1572.0
 20
-454.0
 30
0.0
 40
11.0
  1
view-switch + drawer toggle
 11
1572.0
 21
-454.0
 31
0.0
100
AcDbText
 73
2
  0
TEXT
  5
14E
330
17
100
AcDbEntity
  8
UI-ACCENT
100
AcDbText
 10
40.0
 20
-470.0
 30
0.0
 40
15.0
  1
COMPONENTS  (drawn to scale)
 11
40.0
 21
-470.0
 31
0.0
100
AcDbText
 73
2
  0
LINE
  5
14F
330
17
100
AcDbEntity
  8
UI-HAIRLINE
100
AcDbLine
 10
40.0
 20
-482.0
 30
0.0
 11
1560.0
 21
-482.0
 31
0.0
  0
TEXT
  5
150
330
17
100
AcDbEntity
  8
UI-TEXT
100
AcDbText
 10
40.0
 20
-520.0
 30
0.0
 40
11.0
  1
ARRANGE TRACK LANE
 11
40.0
 21
-520.0
 31
0.0
100
AcDbText
 73
2
  0
HATCH
  5
151
330
17
100
AcDbEntity
  8
UI-CLIP
 62
7
420
2237736
100
AcDbHatch
 10
0.0
 20
0.0
 30
0.0
210
0.0
220
0.0
230
1.0
  2
SOLID
 70
1
 71
0
 91
1
 92
3
 72
0
 73
1
 93
4
 10
40.0
 20
-544.0
 10
560.0
 20
-544.0
 10
560.0
 20
-620.0
 10
40.0
 20
-620.0
 97
0
 75
1
 76
1
 98
0
  0
HATCH
  5
152
330
17
100
AcDbEntity
  8
UI-PANEL-BG
100
AcDbHatch
 10
0.0
 20
0.0
 30
0.0
210
0.0
220
0.0
230
1.0
  2
SOLID
 70
1
 71
0
 91
1
 92
3
 72
0
 73
1
 93
4
 10
40.0
 20
-544.0
 10
190.0
 20
-544.0
 10
190.0
 20
-620.0
 10
40.0
 20
-620.0
 97
0
 75
1
 76
1
 98
0
  0
HATCH
  5
153
330
17
100
AcDbEntity
  8
UI-CLIP
 62
7
420
13135420
100
AcDbHatch
 10
0.0
 20
0.0
 30
0.0
210
0.0
220
0.0
230
1.0
  2
SOLID
 70
1
 71
0
 91
1
 92
3
 72
0
 73
1
 93
4
 10
40.0
 20
-546.0
 10
50.0
 20
-546.0
 10
50.0
 20
-618.0
 10
40.0
 20
-618.0
 97
0
 75
1
 76
1
 98
0
  0
LWPOLYLINE
  5
154
330
17
100
AcDbEntity
  8
UI-HAIRLINE
100
AcDbPolyline
 90
4
 70
1
 10
40.0
 20
-546.0
 10
50.0
 20
-546.0
 10
50.0
 20
-618.0
 10
40.0
 20
-618.0
  0
TEXT
  5
155
330
17
100
AcDbEntity
  8
UI-TEXT
100
AcDbText
 10
58.0
 20
-564.0
 30
0.0
 40
13.0
  1
Drums
 11
58.0
 21
-564.0
 31
0.0
100
AcDbText
 73
2
  0
TEXT
  5
156
330
17
100
AcDbEntity
  8
UI-TEXT-SEC
100
AcDbText
 10
182.0
 20
-564.0
 30
0.0
 40
9.0
  1
Audio
 72
2
 11
182.0
 21
-564.0
 31
0.0
100
AcDbText
 73
2
  0
HATCH
  5
157
330
17
100
AcDbEntity
  8
UI-RAISED
100
AcDbHatch
 10
0.0
 20
0.0
 30
0.0
210
0.0
220
0.0
230
1.0
  2
SOLID
 70
1
 71
0
 91
1
 92
3
 72
0
 73
1
 93
4
 10
58.0
 20
-588.0
 10
96.66666666666666
 20
-588.0
 10
96.66666666666666
 20
-608.0
 10
58.0
 20
-608.0
 97
0
 75
1
 76
1
 98
0
  0
LWPOLYLINE
  5
158
330
17
100
AcDbEntity
  8
UI-HAIRLINE
100
AcDbPolyline
 90
4
 70
1
 10
58.0
 20
-588.0
 10
96.66666666666666
 20
-588.0
 10
96.66666666666666
 20
-608.0
 10
58.0
 20
-608.0
  0
TEXT
  5
159
330
17
100
AcDbEntity
  8
UI-TEXT
100
AcDbText
 10
77.33333333333333
 20
-598.0
 30
0.0
 40
9.0
  1
M
 72
1
 11
77.33333333333333
 21
-598.0
 31
0.0
100
AcDbText
 73
2
  0
HATCH
  5
15A
330
17
100
AcDbEntity
  8
UI-RAISED
100
AcDbHatch
 10
0.0
 20
0.0
 30
0.0
210
0.0
220
0.0
230
1.0
  2
SOLID
 70
1
 71
0
 91
1
 92
3
 72
0
 73
1
 93
4
 10
100.66666666666666
 20
-588.0
 10
139.33333333333331
 20
-588.0
 10
139.33333333333331
 20
-608.0
 10
100.66666666666666
 20
-608.0
 97
0
 75
1
 76
1
 98
0
  0
LWPOLYLINE
  5
15B
330
17
100
AcDbEntity
  8
UI-HAIRLINE
100
AcDbPolyline
 90
4
 70
1
 10
100.66666666666666
 20
-588.0
 10
139.33333333333331
 20
-588.0
 10
139.33333333333331
 20
-608.0
 10
100.66666666666666
 20
-608.0
  0
TEXT
  5
15C
330
17
100
AcDbEntity
  8
UI-TEXT
100
AcDbText
 10
119.99999999999999
 20
-598.0
 30
0.0
 40
9.0
  1
S
 72
1
 11
119.99999999999999
 21
-598.0
 31
0.0
100
AcDbText
 73
2
  0
HATCH
  5
15D
330
17
100
AcDbEntity
  8
UI-RAISED
100
AcDbHatch
 10
0.0
 20
0.0
 30
0.0
210
0.0
220
0.0
230
1.0
  2
SOLID
 70
1
 71
0
 91
1
 92
3
 72
0
 73
1
 93
4
 10
143.33333333333331
 20
-588.0
 10
181.99999999999997
 20
-588.0
 10
181.99999999999997
 20
-608.0
 10
143.33333333333331
 20
-608.0
 97
0
 75
1
 76
1
 98
0
  0
LWPOLYLINE
  5
15E
330
17
100
AcDbEntity
  8
UI-HAIRLINE
100
AcDbPolyline
 90
4
 70
1
 10
143.33333333333331
 20
-588.0
 10
181.99999999999997
 20
-588.0
 10
181.99999999999997
 20
-608.0
 10
143.33333333333331
 20
-608.0
  0
TEXT
  5
15F
330
17
100
AcDbEntity
  8
UI-TEXT
100
AcDbText
 10
162.66666666666666
 20
-598.0
 30
0.0
 40
9.0
  1
R
 72
1
 11
162.66666666666666
 21
-598.0
 31
0.0
100
AcDbText
 73
2
  0
HATCH
  5
160
330
17
100
AcDbEntity
  8
UI-CLIP
 62
7
420
6964778
100
AcDbHatch
 10
0.0
 20
0.0
 30
0.0
210
0.0
220
0.0
230
1.0
  2
SOLID
 70
1
 71
0
 91
1
 92
3
 72
0
 73
1
 93
4
 10
214.0
 20
-547.0
 10
534.0
 20
-547.0
 10
534.0
 20
-617.0
 10
214.0
 20
-617.0
 97
0
 75
1
 76
1
 98
0
  0
LWPOLYLINE
  5
161
330
17
100
AcDbEntity
  8
UI-HAIRLINE
420
1052688
100
AcDbPolyline
 90
4
 70
1
 10
214.0
 20
-547.0
 10
534.0
 20
-547.0
 10
534.0
 20
-617.0
 10
214.0
 20
-617.0
  0
TEXT
  5
162
330
17
100
AcDbEntity
  8
UI-TEXT
100
AcDbText
 10
220.0
 20
-556.0
 30
0.0
 40
9.0
  1
Drums A
 11
220.0
 21
-556.0
 31
0.0
100
AcDbText
 73
2
  0
HATCH
  5
163
330
17
100
AcDbEntity
  8
UI-WAVEFORM
100
AcDbHatch
 10
0.0
 20
0.0
 30
0.0
210
0.0
220
0.0
230
1.0
  2
SOLID
 70
1
 71
0
 91
1
 92
3
 72
0
 73
1
 93
210
 10
218.0
 20
-585.448078033175
 10
221.0
 20
-583.8915330327085
 10
224.0
 20
-583.4636190879496
 10
227.0
 20
-583.1266116312084
 10
230.0
 20
-582.6021855268309
 10
233.0
 20
-582.2356385123968
 10
236.0
 20
-581.8277544725383
 10
239.0
 20
-580.7478465652832
 10
242.0
 20
-580.3716569555869
 10
245.0
 20
-579.937328147558
 10
248.0
 20
-578.5199696013844
 10
251.0
 20
-578.168959178421
 10
254.0
 20
-577.1572071217054
 10
257.0
 20
-576.9294344574391
 10
260.0
 20
-576.2673419021777
 10
263.0
 20
-576.6048756965258
 10
266.0
 20
-575.5991192197124
 10
269.0
 20
-574.3644718806215
 10
272.0
 20
-574.2785549872173
 10
275.0
 20
-573.5381172954739
 10
278.0
 20
-573.1464008765647
 10
281.0
 20
-574.2994068051631
 10
284.0
 20
-572.9941534469197
 10
287.0
 20
-572.6488014997549
 10
290.0
 20
-573.1481052492852
 10
293.0
 20
-574.0593846762492
 10
296.0
 20
-572.1911747044123
 10
299.0
 20
-572.2937299718493
 10
302.0
 20
-571.6492308270956
 10
305.0
 20
-570.8892531129071
 10
308.0
 20
-570.9892004093884
 10
311.0
 20
-570.5232337151938
 10
314.0
 20
-571.783604514102
 10
317.0
 20
-571.4159232322025
 10
320.0
 20
-572.2761548193446
 10
323.0
 20
-571.5771314769657
 10
326.0
 20
-571.5378595184662
 10
329.0
 20
-573.5742720503655
 10
332.0
 20
-574.6436887547716
 10
335.0
 20
-575.1566028994218
 10
338.0
 20
-574.0173094786254
 10
341.0
 20
-574.7773799840165
 10
344.0
 20
-575.0310873649963
 10
347.0
 20
-575.9943626723218
 10
350.0
 20
-576.3811316127601
 10
353.0
 20
-577.0309325840269
 10
356.0
 20
-577.673025535932
 10
359.0
 20
-577.9912283492353
 10
362.0
 20
-578.4695110887446
 10
365.0
 20
-578.7545488355336
 10
368.0
 20
-579.439967960274
 10
371.0
 20
-579.9999369600755
 10
374.0
 20
-580.7071711433325
 10
377.0
 20
-581.4210929704423
 10
380.0
 20
-582.2111336754558
 10
383.0
 20
-582.5486007674034
 10
386.0
 20
-582.248406872488
 10
389.0
 20
-581.662212107003
 10
392.0
 20
-581.0019035967242
 10
395.0
 20
-580.5405468710096
 10
398.0
 20
-579.8476639937144
 10
401.0
 20
-579.7003997806349
 10
404.0
 20
-578.6035371019678
 10
407.0
 20
-578.0683859153149
 10
410.0
 20
-577.945407440493
 10
413.0
 20
-578.0075622953425
 10
416.0
 20
-576.4224393686027
 10
419.0
 20
-575.0790039675807
 10
422.0
 20
-575.9438644084465
 10
425.0
 20
-574.6809729867565
 10
428.0
 20
-574.6891161689057
 10
431.0
 20
-575.1202966671992
 10
434.0
 20
-574.849845030293
 10
437.0
 20
-573.3943128203587
 10
440.0
 20
-572.2484186495752
 10
443.0
 20
-573.707423237095
 10
446.0
 20
-572.8424057306011
 10
449.0
 20
-573.8688739832434
 10
452.0
 20
-572.4978161735744
 10
455.0
 20
-572.8371159891465
 10
458.0
 20
-571.4736756325793
 10
461.0
 20
-570.5206650686617
 10
464.0
 20
-571.3780618141475
 10
467.0
 20
-570.5067574565286
 10
470.0
 20
-572.0050557917654
 10
473.0
 20
-573.4461767634699
 10
476.0
 20
-572.8878498380552
 10
479.0
 20
-574.1795047826196
 10
482.0
 20
-574.5222791749836
 10
485.0
 20
-574.3240917567376
 10
488.0
 20
-573.9255938896903
 10
491.0
 20
-574.931744612267
 10
494.0
 20
-575.8464495761684
 10
497.0
 20
-574.8322934023681
 10
500.0
 20
-575.6443620872938
 10
503.0
 20
-575.15219210644
 10
506.0
 20
-575.3312640844381
 10
509.0
 20
-576.5179251887399
 10
512.0
 20
-577.270549003574
 10
515.0
 20
-577.866999941034
 10
518.0
 20
-578.345847135842
 10
521.0
 20
-578.9628958282535
 10
524.0
 20
-579.6320101536913
 10
527.0
 20
-580.2669691745075
 10
530.0
 20
-580.807884031441
 10
530.0
 20
-597.192115968559
 10
527.0
 20
-597.7330308254925
 10
524.0
 20
-598.3679898463087
 10
521.0
 20
-599.0371041717465
 10
518.0
 20
-599.654152864158
 10
515.0
 20
-600.133000058966
 10
512.0
 20
-600.729450996426
 10
509.0
 20
-601.4820748112601
 10
506.0
 20
-602.6687359155619
 10
503.0
 20
-602.84780789356
 10
500.0
 20
-602.3556379127062
 10
497.0
 20
-603.1677065976319
 10
494.0
 20
-602.1535504238316
 10
491.0
 20
-603.068255387733
 10
488.0
 20
-604.0744061103097
 10
485.0
 20
-603.6759082432624
 10
482.0
 20
-603.4777208250164
 10
479.0
 20
-603.8204952173804
 10
476.0
 20
-605.1121501619448
 10
473.0
 20
-604.5538232365301
 10
470.0
 20
-605.9949442082346
 10
467.0
 20
-607.4932425434714
 10
464.0
 20
-606.6219381858525
 10
461.0
 20
-607.4793349313383
 10
458.0
 20
-606.5263243674207
 10
455.0
 20
-605.1628840108535
 10
452.0
 20
-605.5021838264256
 10
449.0
 20
-604.1311260167566
 10
446.0
 20
-605.1575942693989
 10
443.0
 20
-604.292576762905
 10
440.0
 20
-605.7515813504248
 10
437.0
 20
-604.6056871796413
 10
434.0
 20
-603.150154969707
 10
431.0
 20
-602.8797033328008
 10
428.0
 20
-603.3108838310943
 10
425.0
 20
-603.3190270132435
 10
422.0
 20
-602.0561355915535
 10
419.0
 20
-602.9209960324193
 10
416.0
 20
-601.5775606313973
 10
413.0
 20
-599.9924377046575
 10
410.0
 20
-600.054592559507
 10
407.0
 20
-599.9316140846851
 10
404.0
 20
-599.3964628980322
 10
401.0
 20
-598.2996002193651
 10
398.0
 20
-598.1523360062856
 10
395.0
 20
-597.4594531289904
 10
392.0
 20
-596.9980964032758
 10
389.0
 20
-596.337787892997
 10
386.0
 20
-595.751593127512
 10
383.0
 20
-595.4513992325966
 10
380.0
 20
-595.7888663245442
 10
377.0
 20
-596.5789070295577
 10
374.0
 20
-597.2928288566675
 10
371.0
 20
-598.0000630399245
 10
368.0
 20
-598.560032039726
 10
365.0
 20
-599.2454511644664
 10
362.0
 20
-599.5304889112554
 10
359.0
 20
-600.0087716507647
 10
356.0
 20
-600.326974464068
 10
353.0
 20
-600.9690674159731
 10
350.0
 20
-601.6188683872399
 10
347.0
 20
-602.0056373276782
 10
344.0
 20
-602.9689126350037
 10
341.0
 20
-603.2226200159835
 10
338.0
 20
-603.9826905213746
 10
335.0
 20
-602.8433971005782
 10
332.0
 20
-603.3563112452284
 10
329.0
 20
-604.4257279496345
 10
326.0
 20
-606.4621404815338
 10
323.0
 20
-606.4228685230343
 10
320.0
 20
-605.7238451806554
 10
317.0
 20
-606.5840767677975
 10
314.0
 20
-606.216395485898
 10
311.0
 20
-607.4767662848062
 10
308.0
 20
-607.0107995906116
 10
305.0
 20
-607.1107468870929
 10
302.0
 20
-606.3507691729044
 10
299.0
 20
-605.7062700281507
 10
296.0
 20
-605.8088252955877
 10
293.0
 20
-603.9406153237508
 10
290.0
 20
-604.8518947507148
 10
287.0
 20
-605.3511985002451
 10
284.0
 20
-605.0058465530803
 10
281.0
 20
-603.7005931948369
 10
278.0
 20
-604.8535991234353
 10
275.0
 20
-604.4618827045261
 10
272.0
 20
-603.7214450127827
 10
269.0
 20
-603.6355281193785
 10
266.0
 20
-602.4008807802876
 10
263.0
 20
-601.3951243034742
 10
260.0
 20
-601.7326580978223
 10
257.0
 20
-601.0705655425609
 10
254.0
 20
-600.8427928782946
 10
251.0
 20
-599.831040821579
 10
248.0
 20
-599.4800303986156
 10
245.0
 20
-598.062671852442
 10
242.0
 20
-597.6283430444131
 10
239.0
 20
-597.2521534347168
 10
236.0
 20
-596.1722455274617
 10
233.0
 20
-595.7643614876032
 10
230.0
 20
-595.3978144731691
 10
227.0
 20
-594.8733883687916
 10
224.0
 20
-594.5363809120504
 10
221.0
 20
-594.1084669672915
 10
218.0
 20
-592.551921966825
 97
0
 75
1
 76
1
 98
0
  0
LINE
  5
164
330
17
100
AcDbEntity
  8
UI-WAVEFORM
100
AcDbLine
 10
218.0
 20
-589.0
 30
0.0
 11
530.0
 21
-589.0
 31
0.0
  0
LINE
  5
165
330
17
100
AcDbEntity
  8
FORGE-DIM
100
AcDbLine
 10
28.0
 20
-544.0
 30
0.0
 11
28.0
 21
-620.0
 31
0.0
  0
LINE
  5
166
330
17
100
AcDbEntity
  8
FORGE-DIM
100
AcDbLine
 10
24.0
 20
-544.0
 30
0.0
 11
32.0
 21
-544.0
 31
0.0
  0
LINE
  5
167
330
17
100
AcDbEntity
  8
FORGE-DIM
100
AcDbLine
 10
24.0
 20
-620.0
 30
0.0
 11
32.0
 21
-620.0
 31
0.0
  0
TEXT
  5
168
330
17
100
AcDbEntity
  8
FORGE-DIM
100
AcDbText
 10
23.0
 20
-582.0
 30
0.0
 40
9.0
  1
76
 72
2
 11
23.0
 21
-582.0
 31
0.0
100
AcDbText
 73
2
  0
LINE
  5
169
330
17
100
AcDbEntity
  8
FORGE-DIM
100
AcDbLine
 10
40.0
 20
-644.0
 30
0.0
 11
190.0
 21
-644.0
 31
0.0
  0
LINE
  5
16A
330
17
100
AcDbEntity
  8
FORGE-DIM
100
AcDbLine
 10
40.0
 20
-640.0
 30
0.0
 11
40.0
 21
-648.0
 31
0.0
  0
LINE
  5
16B
330
17
100
AcDbEntity
  8
FORGE-DIM
100
AcDbLine
 10
190.0
 20
-640.0
 30
0.0
 11
190.0
 21
-648.0
 31
0.0
  0
TEXT
  5
16C
330
17
100
AcDbEntity
  8
FORGE-DIM
100
AcDbText
 10
115.0
 20
-639.0
 30
0.0
 40
9.0
  1
150  header
 72
1
 11
115.0
 21
-639.0
 31
0.0
100
AcDbText
 73
1
  0
LINE
  5
16D
330
17
100
AcDbEntity
  8
FORGE-NOTE
100
AcDbLine
 10
45.0
 20
-614.0
 30
0.0
 11
10.0
 21
-678.0
 31
0.0
  0
HATCH
  5
16E
330
17
100
AcDbEntity
  8
FORGE-NOTE
100
AcDbHatch
 10
0.0
 20
0.0
 30
0.0
210
0.0
220
0.0
230
1.0
  2
SOLID
 70
1
 71
0
 91
1
 92
1
 93
1
 72
2
 10
45.0
 20
-614.0
 40
2.2
 50
0
 51
360
 73
1
 97
0
 75
1
 76
1
 98
0
  0
TEXT
  5
16F
330
17
100
AcDbEntity
  8
FORGE-NOTE
100
AcDbText
 10
14.0
 20
-678.0
 30
0.0
 40
11.0
  1
10px colour swatch
 11
14.0
 21
-678.0
 31
0.0
100
AcDbText
 73
2
  0
LINE
  5
170
330
17
100
AcDbEntity
  8
FORGE-NOTE
100
AcDbLine
 10
116.0
 20
-598.0
 30
0.0
 11
190.0
 21
-664.0
 31
0.0
  0
HATCH
  5
171
330
17
100
AcDbEntity
  8
FORGE-NOTE
100
AcDbHatch
 10
0.0
 20
0.0
 30
0.0
210
0.0
220
0.0
230
1.0
  2
SOLID
 70
1
 71
0
 91
1
 92
1
 93
1
 72
2
 10
116.0
 20
-598.0
 40
2.2
 50
0
 51
360
 73
1
 97
0
 75
1
 76
1
 98
0
  0
TEXT
  5
172
330
17
100
AcDbEntity
  8
FORGE-NOTE
100
AcDbText
 10
194.0
 20
-664.0
 30
0.0
 40
11.0
  1
M / S / R · arm = engine-derived
 11
194.0
 21
-664.0
 31
0.0
100
AcDbText
 73
2
  0
LINE
  5
173
330
17
100
AcDbEntity
  8
FORGE-NOTE
100
AcDbLine
 10
370.0
 20
-584.0
 30
0.0
 11
440.0
 21
-650.0
 31
0.0
  0
HATCH
  5
174
330
17
100
AcDbEntity
  8
FORGE-NOTE
100
AcDbHatch
 10
0.0
 20
0.0
 30
0.0
210
0.0
220
0.0
230
1.0
  2
SOLID
 70
1
 71
0
 91
1
 92
1
 93
1
 72
2
 10
370.0
 20
-584.0
 40
2.2
 50
0
 51
360
 73
1
 97
0
 75
1
 76
1
 98
0
  0
TEXT
  5
175
330
17
100
AcDbEntity
  8
FORGE-NOTE
100
AcDbText
 10
444.0
 20
-650.0
 30
0.0
 40
11.0
  1
clip · waveform @0.85, colour @0.55
 11
444.0
 21
-650.0
 31
0.0
100
AcDbText
 73
2
  0
TEXT
  5
176
330
17
100
AcDbEntity
  8
UI-TEXT
100
AcDbText
 10
640.0
 20
-520.0
 30
0.0
 40
11.0
  1
MIXER STRIP
 11
640.0
 21
-520.0
 31
0.0
100
AcDbText
 73
2
  0
HATCH
  5
177
330
17
100
AcDbEntity
  8
UI-SHELL-BG
100
AcDbHatch
 10
0.0
 20
0.0
 30
0.0
210
0.0
220
0.0
230
1.0
  2
SOLID
 70
1
 71
0
 91
1
 92
3
 72
0
 73
1
 93
4
 10
640.0
 20
-544.0
 10
732.0
 20
-544.0
 10
732.0
 20
-904.0
 10
640.0
 20
-904.0
 97
0
 75
1
 76
1
 98
0
  0
HATCH
  5
178
330
17
100
AcDbEntity
  8
UI-CLIP
 62
7
420
13135420
100
AcDbHatch
 10
0.0
 20
0.0
 30
0.0
210
0.0
220
0.0
230
1.0
  2
SOLID
 70
1
 71
0
 91
1
 92
3
 72
0
 73
1
 93
4
 10
640.0
 20
-544.0
 10
732.0
 20
-544.0
 10
732.0
 20
-549.0
 10
640.0
 20
-549.0
 97
0
 75
1
 76
1
 98
0
  0
HATCH
  5
179
330
17
100
AcDbEntity
  8
UI-PANEL-BG
100
AcDbHatch
 10
0.0
 20
0.0
 30
0.0
210
0.0
220
0.0
230
1.0
  2
SOLID
 70
1
 71
0
 91
1
 92
3
 72
0
 73
1
 93
4
 10
640.0
 20
-549.0
 10
732.0
 20
-549.0
 10
732.0
 20
-569.0
 10
640.0
 20
-569.0
 97
0
 75
1
 76
1
 98
0
  0
TEXT
  5
17A
330
17
100
AcDbEntity
  8
UI-TEXT
100
AcDbText
 10
686.0
 20
-559.0
 30
0.0
 40
9.0
  1
Drums
 72
1
 11
686.0
 21
-559.0
 31
0.0
100
AcDbText
 73
2
  0
HATCH
  5
17B
330
17
100
AcDbEntity
  8
UI-RAISED
100
AcDbHatch
 10
0.0
 20
0.0
 30
0.0
210
0.0
220
0.0
230
1.0
  2
SOLID
 70
1
 71
0
 91
1
 92
1
 93
1
 72
2
 10
686.0
 20
-595.0
 40
18
 50
0
 51
360
 73
1
 97
0
 75
1
 76
1
 98
0
  0
CIRCLE
  5
17C
330
17
100
AcDbEntity
  8
UI-HAIRLINE
100
AcDbCircle
 10
686.0
 20
-595.0
 30
0.0
 40
18.0
  0
LINE
  5
17D
330
17
100
AcDbEntity
  8
UI-ACCENT
100
AcDbLine
 10
686.0
 20
-595.0
 30
0.0
 11
686.0
 21
-579.0
 31
0.0
  0
ARC
  5
17E
330
17
100
AcDbEntity
  8
UI-ACCENT
100
AcDbCircle
 10
686.0
 20
-595.0
 30
0.0
 40
21.0
100
AcDbArc
 50
90.0
 51
225.0
  0
TEXT
  5
17F
330
17
100
AcDbEntity
  8
UI-TEXT-SEC
100
AcDbText
 10
686.0
 20
-622.0
 30
0.0
 40
9.0
  1
pan
 72
1
 11
686.0
 21
-622.0
 31
0.0
100
AcDbText
 73
2
  0
HATCH
  5
180
330
17
100
AcDbEntity
  8
UI-PANEL-BG
100
AcDbHatch
 10
0.0
 20
0.0
 30
0.0
210
0.0
220
0.0
230
1.0
  2
SOLID
 70
1
 71
0
 91
1
 92
3
 72
0
 73
1
 93
4
 10
642.0
 20
-621.0
 10
730.0
 20
-621.0
 10
730.0
 20
-636.0
 10
642.0
 20
-636.0
 97
0
 75
1
 76
1
 98
0
  0
LWPOLYLINE
  5
181
330
17
100
AcDbEntity
  8
UI-HAIRLINE
100
AcDbPolyline
 90
4
 70
1
 10
642.0
 20
-621.0
 10
730.0
 20
-621.0
 10
730.0
 20
-636.0
 10
642.0
 20
-636.0
  0
CIRCLE
  5
182
330
17
100
AcDbEntity
  8
UI-ACCENT
100
AcDbCircle
 10
648.0
 20
-628.5
 30
0.0
 40
3.0
  0
TEXT
  5
183
330
17
100
AcDbEntity
  8
UI-TEXT
100
AcDbText
 10
656.0
 20
-628.5
 30
0.0
 40
8.0
  1
EQ Eight
 11
656.0
 21
-628.5
 31
0.0
100
AcDbText
 73
2
  0
HATCH
  5
184
330
17
100
AcDbEntity
  8
UI-PANEL-BG
100
AcDbHatch
 10
0.0
 20
0.0
 30
0.0
210
0.0
220
0.0
230
1.0
  2
SOLID
 70
1
 71
0
 91
1
 92
3
 72
0
 73
1
 93
4
 10
642.0
 20
-637.0
 10
730.0
 20
-637.0
 10
730.0
 20
-652.0
 10
642.0
 20
-652.0
 97
0
 75
1
 76
1
 98
0
  0
LWPOLYLINE
  5
185
330
17
100
AcDbEntity
  8
UI-HAIRLINE
100
AcDbPolyline
 90
4
 70
1
 10
642.0
 20
-637.0
 10
730.0
 20
-637.0
 10
730.0
 20
-652.0
 10
642.0
 20
-652.0
  0
CIRCLE
  5
186
330
17
100
AcDbEntity
  8
UI-ACCENT
100
AcDbCircle
 10
648.0
 20
-644.5
 30
0.0
 40
3.0
  0
TEXT
  5
187
330
17
100
AcDbEntity
  8
UI-TEXT
100
AcDbText
 10
656.0
 20
-644.5
 30
0.0
 40
8.0
  1
Comp
 11
656.0
 21
-644.5
 31
0.0
100
AcDbText
 73
2
  0
HATCH
  5
188
330
17
100
AcDbEntity
  8
UI-PANEL-BG
100
AcDbHatch
 10
0.0
 20
0.0
 30
0.0
210
0.0
220
0.0
230
1.0
  2
SOLID
 70
1
 71
0
 91
1
 92
3
 72
0
 73
1
 93
4
 10
642.0
 20
-653.0
 10
730.0
 20
-653.0
 10
730.0
 20
-668.0
 10
642.0
 20
-668.0
 97
0
 75
1
 76
1
 98
0
  0
LWPOLYLINE
  5
189
330
17
100
AcDbEntity
  8
UI-HAIRLINE
100
AcDbPolyline
 90
4
 70
1
 10
642.0
 20
-653.0
 10
730.0
 20
-653.0
 10
730.0
 20
-668.0
 10
642.0
 20
-668.0
  0
CIRCLE
  5
18A
330
17
100
AcDbEntity
  8
UI-ACCENT
100
AcDbCircle
 10
648.0
 20
-660.5
 30
0.0
 40
3.0
  0
TEXT
  5
18B
330
17
100
AcDbEntity
  8
UI-TEXT
100
AcDbText
 10
656.0
 20
-660.5
 30
0.0
 40
8.0
  1
Glue
 11
656.0
 21
-660.5
 31
0.0
100
AcDbText
 73
2
  0
HATCH
  5
18C
330
17
100
AcDbEntity
  8
UI-RAISED
100
AcDbHatch
 10
0.0
 20
0.0
 30
0.0
210
0.0
220
0.0
230
1.0
  2
SOLID
 70
1
 71
0
 91
1
 92
3
 72
0
 73
1
 93
4
 10
642.0
 20
-669.0
 10
730.0
 20
-669.0
 10
730.0
 20
-684.0
 10
642.0
 20
-684.0
 97
0
 75
1
 76
1
 98
0
  0
TEXT
  5
18D
330
17
100
AcDbEntity
  8
UI-ACCENT
100
AcDbText
 10
686.0
 20
-676.5
 30
0.0
 40
8.0
  1
+ insert
 72
1
 11
686.0
 21
-676.5
 31
0.0
100
AcDbText
 73
2
  0
HATCH
  5
18E
330
17
100
AcDbEntity
  8
UI-PANEL-BG
100
AcDbHatch
 10
0.0
 20
0.0
 30
0.0
210
0.0
220
0.0
230
1.0
  2
SOLID
 70
1
 71
0
 91
1
 92
3
 72
0
 73
1
 93
4
 10
646.0
 20
-691.0
 10
654.0
 20
-691.0
 10
654.0
 20
-874.0
 10
646.0
 20
-874.0
 97
0
 75
1
 76
1
 98
0
  0
LWPOLYLINE
  5
18F
330
17
100
AcDbEntity
  8
UI-HAIRLINE
100
AcDbPolyline
 90
4
 70
1
 10
646.0
 20
-691.0
 10
654.0
 20
-691.0
 10
654.0
 20
-874.0
 10
646.0
 20
-874.0
  0
HATCH
  5
190
330
17
100
AcDbEntity
  8
UI-METER
 62
7
420
5744995
100
AcDbHatch
 10
0.0
 20
0.0
 30
0.0
210
0.0
220
0.0
230
1.0
  2
SOLID
 70
1
 71
0
 91
1
 92
3
 72
0
 73
1
 93
4
 10
647.0
 20
-764.2
 10
653.0
 20
-764.2
 10
653.0
 20
-874.0
 10
647.0
 20
-874.0
 97
0
 75
1
 76
1
 98
0
  0
LINE
  5
191
330
17
100
AcDbEntity
  8
UI-ACCENT
100
AcDbLine
 10
646.0
 20
-731.26
 30
0.0
 11
654.0
 21
-731.26
 31
0.0
  0
LINE
  5
192
330
17
100
AcDbEntity
  8
UI-HAIRLINE
100
AcDbLine
 10
712.0
 20
-697.0
 30
0.0
 11
712.0
 21
-850.0
 31
0.0
  0
LINE
  5
193
330
17
100
AcDbEntity
  8
UI-HAIRLINE
100
AcDbLine
 10
716.0
 20
-850.0
 30
0.0
 11
719.0
 21
-850.0
 31
0.0
  0
LINE
  5
194
330
17
100
AcDbEntity
  8
UI-HAIRLINE
100
AcDbLine
 10
716.0
 20
-811.75
 30
0.0
 11
719.0
 21
-811.75
 31
0.0
  0
LINE
  5
195
330
17
100
AcDbEntity
  8
UI-HAIRLINE
100
AcDbLine
 10
716.0
 20
-773.5
 30
0.0
 11
719.0
 21
-773.5
 31
0.0
  0
LINE
  5
196
330
17
100
AcDbEntity
  8
UI-HAIRLINE
100
AcDbLine
 10
716.0
 20
-735.25
 30
0.0
 11
719.0
 21
-735.25
 31
0.0
  0
LINE
  5
197
330
17
100
AcDbEntity
  8
UI-HAIRLINE
100
AcDbLine
 10
716.0
 20
-697.0
 30
0.0
 11
719.0
 21
-697.0
 31
0.0
  0
HATCH
  5
198
330
17
100
AcDbEntity
  8
UI-RAISED
100
AcDbHatch
 10
0.0
 20
0.0
 30
0.0
210
0.0
220
0.0
230
1.0
  2
SOLID
 70
1
 71
0
 91
1
 92
3
 72
0
 73
1
 93
4
 10
704.0
 20
-729.78
 10
720.0
 20
-729.78
 10
720.0
 20
-743.78
 10
704.0
 20
-743.78
 97
0
 75
1
 76
1
 98
0
  0
LWPOLYLINE
  5
199
330
17
100
AcDbEntity
  8
UI-ACCENT
100
AcDbPolyline
 90
4
 70
1
 10
704.0
 20
-729.78
 10
720.0
 20
-729.78
 10
720.0
 20
-743.78
 10
704.0
 20
-743.78
  0
LINE
  5
19A
330
17
100
AcDbEntity
  8
UI-ACCENT
100
AcDbLine
 10
705.0
 20
-736.78
 30
0.0
 11
719.0
 21
-736.78
 31
0.0
  0
HATCH
  5
19B
330
17
100
AcDbEntity
  8
UI-RAISED
100
AcDbHatch
 10
0.0
 20
0.0
 30
0.0
210
0.0
220
0.0
230
1.0
  2
SOLID
 70
1
 71
0
 91
1
 92
3
 72
0
 73
1
 93
4
 10
646.0
 20
-878.0
 10
684.0
 20
-878.0
 10
684.0
 20
-898.0
 10
646.0
 20
-898.0
 97
0
 75
1
 76
1
 98
0
  0
LWPOLYLINE
  5
19C
330
17
100
AcDbEntity
  8
UI-HAIRLINE
100
AcDbPolyline
 90
4
 70
1
 10
646.0
 20
-878.0
 10
684.0
 20
-878.0
 10
684.0
 20
-898.0
 10
646.0
 20
-898.0
  0
TEXT
  5
19D
330
17
100
AcDbEntity
  8
UI-TEXT
100
AcDbText
 10
665.0
 20
-888.0
 30
0.0
 40
9.0
  1
M
 72
1
 11
665.0
 21
-888.0
 31
0.0
100
AcDbText
 73
2
  0
HATCH
  5
19E
330
17
100
AcDbEntity
  8
UI-RAISED
100
AcDbHatch
 10
0.0
 20
0.0
 30
0.0
210
0.0
220
0.0
230
1.0
  2
SOLID
 70
1
 71
0
 91
1
 92
3
 72
0
 73
1
 93
4
 10
688.0
 20
-878.0
 10
726.0
 20
-878.0
 10
726.0
 20
-898.0
 10
688.0
 20
-898.0
 97
0
 75
1
 76
1
 98
0
  0
LWPOLYLINE
  5
19F
330
17
100
AcDbEntity
  8
UI-HAIRLINE
100
AcDbPolyline
 90
4
 70
1
 10
688.0
 20
-878.0
 10
726.0
 20
-878.0
 10
726.0
 20
-898.0
 10
688.0
 20
-898.0
  0
TEXT
  5
1A0
330
17
100
AcDbEntity
  8
UI-TEXT
100
AcDbText
 10
707.0
 20
-888.0
 30
0.0
 40
9.0
  1
S
 72
1
 11
707.0
 21
-888.0
 31
0.0
100
AcDbText
 73
2
  0
LINE
  5
1A1
330
17
100
AcDbEntity
  8
FORGE-DIM
100
AcDbLine
 10
640.0
 20
-926.0
 30
0.0
 11
732.0
 21
-926.0
 31
0.0
  0
LINE
  5
1A2
330
17
100
AcDbEntity
  8
FORGE-DIM
100
AcDbLine
 10
640.0
 20
-922.0
 30
0.0
 11
640.0
 21
-930.0
 31
0.0
  0
LINE
  5
1A3
330
17
100
AcDbEntity
  8
FORGE-DIM
100
AcDbLine
 10
732.0
 20
-922.0
 30
0.0
 11
732.0
 21
-930.0
 31
0.0
  0
TEXT
  5
1A4
330
17
100
AcDbEntity
  8
FORGE-DIM
100
AcDbText
 10
686.0
 20
-921.0
 30
0.0
 40
9.0
  1
92
 72
1
 11
686.0
 21
-921.0
 31
0.0
100
AcDbText
 73
1
  0
LINE
  5
1A5
330
17
100
AcDbEntity
  8
FORGE-NOTE
100
AcDbLine
 10
686.0
 20
-547.0
 30
0.0
 11
758.0
 21
-538.0
 31
0.0
  0
HATCH
  5
1A6
330
17
100
AcDbEntity
  8
FORGE-NOTE
100
AcDbHatch
 10
0.0
 20
0.0
 30
0.0
210
0.0
220
0.0
230
1.0
  2
SOLID
 70
1
 71
0
 91
1
 92
1
 93
1
 72
2
 10
686.0
 20
-547.0
 40
2.2
 50
0
 51
360
 73
1
 97
0
 75
1
 76
1
 98
0
  0
TEXT
  5
1A7
330
17
100
AcDbEntity
  8
FORGE-NOTE
100
AcDbText
 10
762.0
 20
-538.0
 30
0.0
 40
11.0
  1
5px colour band
 11
762.0
 21
-538.0
 31
0.0
100
AcDbText
 73
2
  0
LINE
  5
1A8
330
17
100
AcDbEntity
  8
FORGE-NOTE
100
AcDbLine
 10
686.0
 20
-595.0
 30
0.0
 11
758.0
 21
-590.0
 31
0.0
  0
HATCH
  5
1A9
330
17
100
AcDbEntity
  8
FORGE-NOTE
100
AcDbHatch
 10
0.0
 20
0.0
 30
0.0
210
0.0
220
0.0
230
1.0
  2
SOLID
 70
1
 71
0
 91
1
 92
1
 93
1
 72
2
 10
686.0
 20
-595.0
 40
2.2
 50
0
 51
360
 73
1
 97
0
 75
1
 76
1
 98
0
  0
TEXT
  5
1AA
330
17
100
AcDbEntity
  8
FORGE-NOTE
100
AcDbText
 10
762.0
 20
-590.0
 30
0.0
 40
11.0
  1
rotary pan · 52px
 11
762.0
 21
-590.0
 31
0.0
100
AcDbText
 73
2
  0
LINE
  5
1AB
330
17
100
AcDbEntity
  8
FORGE-NOTE
100
AcDbLine
 10
650.0
 20
-761.0
 30
0.0
 11
758.0
 21
-777.0
 31
0.0
  0
HATCH
  5
1AC
330
17
100
AcDbEntity
  8
FORGE-NOTE
100
AcDbHatch
 10
0.0
 20
0.0
 30
0.0
210
0.0
220
0.0
230
1.0
  2
SOLID
 70
1
 71
0
 91
1
 92
1
 93
1
 72
2
 10
650.0
 20
-761.0
 40
2.2
 50
0
 51
360
 73
1
 97
0
 75
1
 76
1
 98
0
  0
TEXT
  5
1AD
330
17
100
AcDbEntity
  8
FORGE-NOTE
100
AcDbText
 10
762.0
 20
-777.0
 30
0.0
 40
11.0
  1
8px meter · −60..+6 dB
 11
762.0
 21
-777.0
 31
0.0
100
AcDbText
 73
2
  0
LINE
  5
1AE
330
17
100
AcDbEntity
  8
FORGE-NOTE
100
AcDbLine
 10
712.0
 20
-831.0
 30
0.0
 11
758.0
 21
-847.0
 31
0.0
  0
HATCH
  5
1AF
330
17
100
AcDbEntity
  8
FORGE-NOTE
100
AcDbHatch
 10
0.0
 20
0.0
 30
0.0
210
0.0
220
0.0
230
1.0
  2
SOLID
 70
1
 71
0
 91
1
 92
1
 93
1
 72
2
 10
712.0
 20
-831.0
 40
2.2
 50
0
 51
360
 73
1
 97
0
 75
1
 76
1
 98
0
  0
TEXT
  5
1B0
330
17
100
AcDbEntity
  8
FORGE-NOTE
100
AcDbText
 10
762.0
 20
-847.0
 30
0.0
 40
11.0
  1
dB fader · 2×click = unity
 11
762.0
 21
-847.0
 31
0.0
100
AcDbText
 73
2
  0
TEXT
  5
1B1
330
17
100
AcDbEntity
  8
UI-TEXT
100
AcDbText
 10
900.0
 20
-520.0
 30
0.0
 40
11.0
  1
PIANO-ROLL  ·  keybed + grid
 11
900.0
 21
-520.0
 31
0.0
100
AcDbText
 73
2
  0
LINE
  5
1B2
330
17
100
AcDbEntity
  8
UI-HAIRLINE
100
AcDbLine
 10
928.0
 20
-544.0
 30
0.0
 11
1220.0
 21
-544.0
 31
0.0
  0
HATCH
  5
1B3
330
17
100
AcDbEntity
  8
UI-RAISED
100
AcDbHatch
 10
0.0
 20
0.0
 30
0.0
210
0.0
220
0.0
230
1.0
  2
SOLID
 70
1
 71
0
 91
1
 92
3
 72
0
 73
1
 93
4
 10
928.0
 20
-568.0
 10
1220.0
 20
-568.0
 10
1220.0
 20
-580.0
 10
928.0
 20
-580.0
 97
0
 75
1
 76
1
 98
0
  0
HATCH
  5
1B4
330
17
100
AcDbEntity
  8
UI-RAISED
100
AcDbHatch
 10
0.0
 20
0.0
 30
0.0
210
0.0
220
0.0
230
1.0
  2
SOLID
 70
1
 71
0
 91
1
 92
3
 72
0
 73
1
 93
4
 10
928.0
 20
-592.0
 10
1220.0
 20
-592.0
 10
1220.0
 20
-604.0
 10
928.0
 20
-604.0
 97
0
 75
1
 76
1
 98
0
  0
HATCH
  5
1B5
330
17
100
AcDbEntity
  8
UI-RAISED
100
AcDbHatch
 10
0.0
 20
0.0
 30
0.0
210
0.0
220
0.0
230
1.0
  2
SOLID
 70
1
 71
0
 91
1
 92
3
 72
0
 73
1
 93
4
 10
928.0
 20
-616.0
 10
1220.0
 20
-616.0
 10
1220.0
 20
-628.0
 10
928.0
 20
-628.0
 97
0
 75
1
 76
1
 98
0
  0
HATCH
  5
1B6
330
17
100
AcDbEntity
  8
UI-RAISED
100
AcDbHatch
 10
0.0
 20
0.0
 30
0.0
210
0.0
220
0.0
230
1.0
  2
SOLID
 70
1
 71
0
 91
1
 92
3
 72
0
 73
1
 93
4
 10
928.0
 20
-652.0
 10
1220.0
 20
-652.0
 10
1220.0
 20
-664.0
 10
928.0
 20
-664.0
 97
0
 75
1
 76
1
 98
0
  0
HATCH
  5
1B7
330
17
100
AcDbEntity
  8
UI-RAISED
100
AcDbHatch
 10
0.0
 20
0.0
 30
0.0
210
0.0
220
0.0
230
1.0
  2
SOLID
 70
1
 71
0
 91
1
 92
3
 72
0
 73
1
 93
4
 10
928.0
 20
-676.0
 10
1220.0
 20
-676.0
 10
1220.0
 20
-688.0
 10
928.0
 20
-688.0
 97
0
 75
1
 76
1
 98
0
  0
LINE
  5
1B8
330
17
100
AcDbEntity
  8
UI-HAIRLINE
100
AcDbLine
 10
928.0
 20
-688.0
 30
0.0
 11
1220.0
 21
-688.0
 31
0.0
  0
HATCH
  5
1B9
330
17
100
AcDbEntity
  8
UI-RAISED
100
AcDbHatch
 10
0.0
 20
0.0
 30
0.0
210
0.0
220
0.0
230
1.0
  2
SOLID
 70
1
 71
0
 91
1
 92
3
 72
0
 73
1
 93
4
 10
928.0
 20
-712.0
 10
1220.0
 20
-712.0
 10
1220.0
 20
-724.0
 10
928.0
 20
-724.0
 97
0
 75
1
 76
1
 98
0
  0
HATCH
  5
1BA
330
17
100
AcDbEntity
  8
UI-RAISED
100
AcDbHatch
 10
0.0
 20
0.0
 30
0.0
210
0.0
220
0.0
230
1.0
  2
SOLID
 70
1
 71
0
 91
1
 92
3
 72
0
 73
1
 93
4
 10
928.0
 20
-736.0
 10
1220.0
 20
-736.0
 10
1220.0
 20
-748.0
 10
928.0
 20
-748.0
 97
0
 75
1
 76
1
 98
0
  0
HATCH
  5
1BB
330
17
100
AcDbEntity
  8
UI-RAISED
100
AcDbHatch
 10
0.0
 20
0.0
 30
0.0
210
0.0
220
0.0
230
1.0
  2
SOLID
 70
1
 71
0
 91
1
 92
3
 72
0
 73
1
 93
4
 10
928.0
 20
-760.0
 10
1220.0
 20
-760.0
 10
1220.0
 20
-772.0
 10
928.0
 20
-772.0
 97
0
 75
1
 76
1
 98
0
  0
HATCH
  5
1BC
330
17
100
AcDbEntity
  8
UI-RAISED
100
AcDbHatch
 10
0.0
 20
0.0
 30
0.0
210
0.0
220
0.0
230
1.0
  2
SOLID
 70
1
 71
0
 91
1
 92
3
 72
0
 73
1
 93
4
 10
928.0
 20
-796.0
 10
1220.0
 20
-796.0
 10
1220.0
 20
-808.0
 10
928.0
 20
-808.0
 97
0
 75
1
 76
1
 98
0
  0
HATCH
  5
1BD
330
17
100
AcDbEntity
  8
UI-RAISED
100
AcDbHatch
 10
0.0
 20
0.0
 30
0.0
210
0.0
220
0.0
230
1.0
  2
SOLID
 70
1
 71
0
 91
1
 92
3
 72
0
 73
1
 93
4
 10
928.0
 20
-820.0
 10
1220.0
 20
-820.0
 10
1220.0
 20
-832.0
 10
928.0
 20
-832.0
 97
0
 75
1
 76
1
 98
0
  0
LINE
  5
1BE
330
17
100
AcDbEntity
  8
UI-HAIRLINE
100
AcDbLine
 10
928.0
 20
-832.0
 30
0.0
 11
1220.0
 21
-832.0
 31
0.0
  0
LINE
  5
1BF
330
17
100
AcDbEntity
  8
UI-HAIRLINE
100
AcDbLine
 10
928.0
 20
-544.0
 30
0.0
 11
928.0
 21
-856.0
 31
0.0
  0
LINE
  5
1C0
330
17
100
AcDbEntity
  8
UI-GHOST
100
AcDbLine
 10
952.3333333333334
 20
-544.0
 30
0.0
 11
952.3333333333334
 21
-856.0
 31
0.0
  0
LINE
  5
1C1
330
17
100
AcDbEntity
  8
UI-GHOST
100
AcDbLine
 10
976.6666666666666
 20
-544.0
 30
0.0
 11
976.6666666666666
 21
-856.0
 31
0.0
  0
LINE
  5
1C2
330
17
100
AcDbEntity
  8
UI-GHOST
100
AcDbLine
 10
1001.0
 20
-544.0
 30
0.0
 11
1001.0
 21
-856.0
 31
0.0
  0
LINE
  5
1C3
330
17
100
AcDbEntity
  8
UI-HAIRLINE
100
AcDbLine
 10
1025.3333333333333
 20
-544.0
 30
0.0
 11
1025.3333333333333
 21
-856.0
 31
0.0
  0
LINE
  5
1C4
330
17
100
AcDbEntity
  8
UI-GHOST
100
AcDbLine
 10
1049.6666666666667
 20
-544.0
 30
0.0
 11
1049.6666666666667
 21
-856.0
 31
0.0
  0
LINE
  5
1C5
330
17
100
AcDbEntity
  8
UI-GHOST
100
AcDbLine
 10
1074.0
 20
-544.0
 30
0.0
 11
1074.0
 21
-856.0
 31
0.0
  0
LINE
  5
1C6
330
17
100
AcDbEntity
  8
UI-GHOST
100
AcDbLine
 10
1098.3333333333333
 20
-544.0
 30
0.0
 11
1098.3333333333333
 21
-856.0
 31
0.0
  0
LINE
  5
1C7
330
17
100
AcDbEntity
  8
UI-HAIRLINE
100
AcDbLine
 10
1122.6666666666667
 20
-544.0
 30
0.0
 11
1122.6666666666667
 21
-856.0
 31
0.0
  0
LINE
  5
1C8
330
17
100
AcDbEntity
  8
UI-GHOST
100
AcDbLine
 10
1147.0
 20
-544.0
 30
0.0
 11
1147.0
 21
-856.0
 31
0.0
  0
LINE
  5
1C9
330
17
100
AcDbEntity
  8
UI-GHOST
100
AcDbLine
 10
1171.3333333333333
 20
-544.0
 30
0.0
 11
1171.3333333333333
 21
-856.0
 31
0.0
  0
LINE
  5
1CA
330
17
100
AcDbEntity
  8
UI-GHOST
100
AcDbLine
 10
1195.6666666666665
 20
-544.0
 30
0.0
 11
1195.6666666666665
 21
-856.0
 31
0.0
  0
LINE
  5
1CB
330
17
100
AcDbEntity
  8
UI-HAIRLINE
100
AcDbLine
 10
1220.0
 20
-544.0
 30
0.0
 11
1220.0
 21
-856.0
 31
0.0
  0
HATCH
  5
1CC
330
17
100
AcDbEntity
  8
UI-SHELL-BG
100
AcDbHatch
 10
0.0
 20
0.0
 30
0.0
210
0.0
220
0.0
230
1.0
  2
SOLID
 70
1
 71
0
 91
1
 92
3
 72
0
 73
1
 93
4
 10
900.0
 20
-544.0
 10
928.0
 20
-544.0
 10
928.0
 20
-856.0
 10
900.0
 20
-856.0
 97
0
 75
1
 76
1
 98
0
  0
LINE
  5
1CD
330
17
100
AcDbEntity
  8
UI-HAIRLINE
100
AcDbLine
 10
927.0
 20
-544.0
 30
0.0
 11
927.0
 21
-856.0
 31
0.0
  0
TEXT
  5
1CE
330
17
100
AcDbEntity
  8
UI-TEXT-SEC
100
AcDbText
 10
903.0
 20
-550.0
 30
0.0
 40
8.0
  1
C6
 11
903.0
 21
-550.0
 31
0.0
100
AcDbText
 73
2
  0
TEXT
  5
1CF
330
17
100
AcDbEntity
  8
UI-TEXT-SEC
100
AcDbText
 10
903.0
 20
-694.0
 30
0.0
 40
8.0
  1
C5
 11
903.0
 21
-694.0
 31
0.0
100
AcDbText
 73
2
  0
TEXT
  5
1D0
330
17
100
AcDbEntity
  8
UI-TEXT-SEC
100
AcDbText
 10
903.0
 20
-838.0
 30
0.0
 40
8.0
  1
C4
 11
903.0
 21
-838.0
 31
0.0
100
AcDbText
 73
2
  0
HATCH
  5
1D1
330
17
100
AcDbEntity
  8
UI-MIDI-NOTE
 62
7
420
14716975
100
AcDbHatch
 10
0.0
 20
0.0
 30
0.0
210
0.0
220
0.0
230
1.0
  2
SOLID
 70
1
 71
0
 91
1
 92
3
 72
0
 73
1
 93
4
 10
968.0
 20
-604.5
 10
1048.0
 20
-604.5
 10
1048.0
 20
-615.5
 10
968.0
 20
-615.5
 97
0
 75
1
 76
1
 98
0
  0
LWPOLYLINE
  5
1D2
330
17
100
AcDbEntity
  8
UI-HAIRLINE
420
14080476
100
AcDbPolyline
 90
4
 70
1
 10
968.0
 20
-604.5
 10
1048.0
 20
-604.5
 10
1048.0
 20
-615.5
 10
968.0
 20
-615.5
  0
HATCH
  5
1D3
330
17
100
AcDbEntity
  8
UI-MIDI-NOTE
 62
7
420
12616254
100
AcDbHatch
 10
0.0
 20
0.0
 30
0.0
210
0.0
220
0.0
230
1.0
  2
SOLID
 70
1
 71
0
 91
1
 92
3
 72
0
 73
1
 93
4
 10
968.0
 20
-652.5
 10
1024.0
 20
-652.5
 10
1024.0
 20
-663.5
 10
968.0
 20
-663.5
 97
0
 75
1
 76
1
 98
0
  0
HATCH
  5
1D4
330
17
100
AcDbEntity
  8
UI-MIDI-NOTE
 62
7
420
12616254
100
AcDbHatch
 10
0.0
 20
0.0
 30
0.0
210
0.0
220
0.0
230
1.0
  2
SOLID
 70
1
 71
0
 91
1
 92
3
 72
0
 73
1
 93
4
 10
1058.0
 20
-628.5
 10
1102.0
 20
-628.5
 10
1102.0
 20
-639.5
 10
1058.0
 20
-639.5
 97
0
 75
1
 76
1
 98
0
  0
LWPOLYLINE
  5
1D5
330
17
100
AcDbEntity
  8
UI-HAIRLINE
100
AcDbPolyline
 90
4
 70
1
 10
900.0
 20
-544.0
 10
1220.0
 20
-544.0
 10
1220.0
 20
-856.0
 10
900.0
 20
-856.0
  0
LINE
  5
1D6
330
17
100
AcDbEntity
  8
FORGE-DIM
100
AcDbLine
 10
900.0
 20
-878.0
 30
0.0
 11
928.0
 21
-878.0
 31
0.0
  0
LINE
  5
1D7
330
17
100
AcDbEntity
  8
FORGE-DIM
100
AcDbLine
 10
900.0
 20
-874.0
 30
0.0
 11
900.0
 21
-882.0
 31
0.0
  0
LINE
  5
1D8
330
17
100
AcDbEntity
  8
FORGE-DIM
100
AcDbLine
 10
928.0
 20
-874.0
 30
0.0
 11
928.0
 21
-882.0
 31
0.0
  0
TEXT
  5
1D9
330
17
100
AcDbEntity
  8
FORGE-DIM
100
AcDbText
 10
914.0
 20
-873.0
 30
0.0
 40
9.0
  1
28
 72
1
 11
914.0
 21
-873.0
 31
0.0
100
AcDbText
 73
1
  0
LINE
  5
1DA
330
17
100
AcDbEntity
  8
FORGE-DIM
100
AcDbLine
 10
1236.0
 20
-544.0
 30
0.0
 11
1236.0
 21
-556.0
 31
0.0
  0
LINE
  5
1DB
330
17
100
AcDbEntity
  8
FORGE-DIM
100
AcDbLine
 10
1232.0
 20
-544.0
 30
0.0
 11
1240.0
 21
-544.0
 31
0.0
  0
LINE
  5
1DC
330
17
100
AcDbEntity
  8
FORGE-DIM
100
AcDbLine
 10
1232.0
 20
-556.0
 30
0.0
 11
1240.0
 21
-556.0
 31
0.0
  0
TEXT
  5
1DD
330
17
100
AcDbEntity
  8
FORGE-DIM
100
AcDbText
 10
1231.0
 20
-550.0
 30
0.0
 40
9.0
  1
12
 72
2
 11
1231.0
 21
-550.0
 31
0.0
100
AcDbText
 73
2
  0
LINE
  5
1DE
330
17
100
AcDbEntity
  8
FORGE-NOTE
100
AcDbLine
 10
1008.0
 20
-610.0
 30
0.0
 11
1246.0
 21
-588.0
 31
0.0
  0
HATCH
  5
1DF
330
17
100
AcDbEntity
  8
FORGE-NOTE
100
AcDbHatch
 10
0.0
 20
0.0
 30
0.0
210
0.0
220
0.0
230
1.0
  2
SOLID
 70
1
 71
0
 91
1
 92
1
 93
1
 72
2
 10
1008.0
 20
-610.0
 40
2.2
 50
0
 51
360
 73
1
 97
0
 75
1
 76
1
 98
0
  0
TEXT
  5
1E0
330
17
100
AcDbEntity
  8
FORGE-NOTE
100
AcDbText
 10
1250.0
 20
-588.0
 30
0.0
 40
11.0
  1
note · selected (opaque + light stroke)
 11
1250.0
 21
-588.0
 31
0.0
100
AcDbText
 73
2
  0
LINE
  5
1E1
330
17
100
AcDbEntity
  8
FORGE-NOTE
100
AcDbLine
 10
914.0
 20
-688.0
 30
0.0
 11
896.0
 21
-880.0
 31
0.0
  0
HATCH
  5
1E2
330
17
100
AcDbEntity
  8
FORGE-NOTE
100
AcDbHatch
 10
0.0
 20
0.0
 30
0.0
210
0.0
220
0.0
230
1.0
  2
SOLID
 70
1
 71
0
 91
1
 92
1
 93
1
 72
2
 10
914.0
 20
-688.0
 40
2.2
 50
0
 51
360
 73
1
 97
0
 75
1
 76
1
 98
0
  0
TEXT
  5
1E3
330
17
100
AcDbEntity
  8
FORGE-NOTE
100
AcDbText
 10
900.0
 20
-880.0
 30
0.0
 40
11.0
  1
keybed gutter · C-1…C9
 11
900.0
 21
-880.0
 31
0.0
100
AcDbText
 73
2
  0
TEXT
  5
1E4
330
17
100
AcDbEntity
  8
UI-TEXT
100
AcDbText
 10
1290.0
 20
-520.0
 30
0.0
 40
11.0
  1
STATES & GLYPHS
 11
1290.0
 21
-520.0
 31
0.0
100
AcDbText
 73
2
  0
HATCH
  5
1E5
330
17
100
AcDbEntity
  8
UI-CLIP
 62
7
420
6964778
100
AcDbHatch
 10
0.0
 20
0.0
 30
0.0
210
0.0
220
0.0
230
1.0
  2
SOLID
 70
1
 71
0
 91
1
 92
3
 72
0
 73
1
 93
4
 10
1290.0
 20
-548.0
 10
1350.0
 20
-548.0
 10
1350.0
 20
-570.0
 10
1290.0
 20
-570.0
 97
0
 75
1
 76
1
 98
0
  0
LWPOLYLINE
  5
1E6
330
17
100
AcDbEntity
  8
UI-HAIRLINE
420
1052688
100
AcDbPolyline
 90
4
 70
1
 10
1290.0
 20
-548.0
 10
1350.0
 20
-548.0
 10
1350.0
 20
-570.0
 10
1290.0
 20
-570.0
  0
TEXT
  5
1E7
330
17
100
AcDbEntity
  8
UI-TEXT-SEC
100
AcDbText
 10
1360.0
 20
-559.0
 30
0.0
 40
9.0
  1
clip idle
 11
1360.0
 21
-559.0
 31
0.0
100
AcDbText
 73
2
  0
HATCH
  5
1E8
330
17
100
AcDbEntity
  8
UI-CLIP
 62
7
420
6964778
100
AcDbHatch
 10
0.0
 20
0.0
 30
0.0
210
0.0
220
0.0
230
1.0
  2
SOLID
 70
1
 71
0
 91
1
 92
3
 72
0
 73
1
 93
4
 10
1290.0
 20
-576.0
 10
1350.0
 20
-576.0
 10
1350.0
 20
-598.0
 10
1290.0
 20
-598.0
 97
0
 75
1
 76
1
 98
0
  0
LWPOLYLINE
  5
1E9
330
17
100
AcDbEntity
  8
UI-HAIRLINE
420
14716975
100
AcDbPolyline
 90
4
 70
1
 10
1290.0
 20
-576.0
 10
1350.0
 20
-576.0
 10
1350.0
 20
-598.0
 10
1290.0
 20
-598.0
  0
TEXT
  5
1EA
330
17
100
AcDbEntity
  8
UI-TEXT-SEC
100
AcDbText
 10
1360.0
 20
-587.0
 30
0.0
 40
9.0
  1
clip selected
 11
1360.0
 21
-587.0
 31
0.0
100
AcDbText
 73
2
  0
HATCH
  5
1EB
330
17
100
AcDbEntity
  8
UI-CLIP
 62
7
420
5383204
100
AcDbHatch
 10
0.0
 20
0.0
 30
0.0
210
0.0
220
0.0
230
1.0
  2
SOLID
 70
1
 71
0
 91
1
 92
3
 72
0
 73
1
 93
4
 10
1290.0
 20
-604.0
 10
1350.0
 20
-604.0
 10
1350.0
 20
-626.0
 10
1290.0
 20
-626.0
 97
0
 75
1
 76
1
 98
0
  0
LWPOLYLINE
  5
1EC
330
17
100
AcDbEntity
  8
UI-HAIRLINE
420
14830410
100
AcDbPolyline
 90
4
 70
1
 10
1290.0
 20
-604.0
 10
1350.0
 20
-604.0
 10
1350.0
 20
-626.0
 10
1290.0
 20
-626.0
  0
TEXT
  5
1ED
330
17
100
AcDbEntity
  8
UI-TEXT-SEC
100
AcDbText
 10
1360.0
 20
-615.0
 30
0.0
 40
9.0
  1
recording
 11
1360.0
 21
-615.0
 31
0.0
100
AcDbText
 73
2
  0
HATCH
  5
1EE
330
17
100
AcDbEntity
  8
UI-RAISED
100
AcDbHatch
 10
0.0
 20
0.0
 30
0.0
210
0.0
220
0.0
230
1.0
  2
SOLID
 70
1
 71
0
 91
1
 92
3
 72
0
 73
1
 93
4
 10
1290.0
 20
-638.0
 10
1316.0
 20
-638.0
 10
1316.0
 20
-660.0
 10
1290.0
 20
-660.0
 97
0
 75
1
 76
1
 98
0
  0
LWPOLYLINE
  5
1EF
330
17
100
AcDbEntity
  8
UI-HAIRLINE
100
AcDbPolyline
 90
4
 70
1
 10
1290.0
 20
-638.0
 10
1316.0
 20
-638.0
 10
1316.0
 20
-660.0
 10
1290.0
 20
-660.0
  0
LWPOLYLINE
  5
1F0
330
17
100
AcDbEntity
  8
UI-TEXT
100
AcDbPolyline
 90
3
 70
1
 10
1299.0
 20
-644.2
 10
1308.6
 20
-649.0
 10
1299.0
 20
-653.8
  0
TEXT
  5
1F1
330
17
100
AcDbEntity
  8
UI-TEXT-SEC
100
AcDbText
 10
1326.0
 20
-649.0
 30
0.0
 40
9.0
  1
play
 11
1326.0
 21
-649.0
 31
0.0
100
AcDbText
 73
2
  0
HATCH
  5
1F2
330
17
100
AcDbEntity
  8
UI-RAISED
100
AcDbHatch
 10
0.0
 20
0.0
 30
0.0
210
0.0
220
0.0
230
1.0
  2
SOLID
 70
1
 71
0
 91
1
 92
3
 72
0
 73
1
 93
4
 10
1290.0
 20
-664.0
 10
1316.0
 20
-664.0
 10
1316.0
 20
-686.0
 10
1290.0
 20
-686.0
 97
0
 75
1
 76
1
 98
0
  0
LWPOLYLINE
  5
1F3
330
17
100
AcDbEntity
  8
UI-HAIRLINE
100
AcDbPolyline
 90
4
 70
1
 10
1290.0
 20
-664.0
 10
1316.0
 20
-664.0
 10
1316.0
 20
-686.0
 10
1290.0
 20
-686.0
  0
HATCH
  5
1F4
330
17
100
AcDbEntity
  8
UI-TEXT
100
AcDbHatch
 10
0.0
 20
0.0
 30
0.0
210
0.0
220
0.0
230
1.0
  2
SOLID
 70
1
 71
0
 91
1
 92
3
 72
0
 73
1
 93
4
 10
1298.6
 20
-670.6
 10
1307.3999999999999
 20
-670.6
 10
1307.3999999999999
 20
-679.4
 10
1298.6
 20
-679.4
 97
0
 75
1
 76
1
 98
0
  0
TEXT
  5
1F5
330
17
100
AcDbEntity
  8
UI-TEXT-SEC
100
AcDbText
 10
1326.0
 20
-675.0
 30
0.0
 40
9.0
  1
stop
 11
1326.0
 21
-675.0
 31
0.0
100
AcDbText
 73
2
  0
HATCH
  5
1F6
330
17
100
AcDbEntity
  8
UI-RAISED
100
AcDbHatch
 10
0.0
 20
0.0
 30
0.0
210
0.0
220
0.0
230
1.0
  2
SOLID
 70
1
 71
0
 91
1
 92
3
 72
0
 73
1
 93
4
 10
1290.0
 20
-690.0
 10
1316.0
 20
-690.0
 10
1316.0
 20
-712.0
 10
1290.0
 20
-712.0
 97
0
 75
1
 76
1
 98
0
  0
LWPOLYLINE
  5
1F7
330
17
100
AcDbEntity
  8
UI-HAIRLINE
100
AcDbPolyline
 90
4
 70
1
 10
1290.0
 20
-690.0
 10
1316.0
 20
-690.0
 10
1316.0
 20
-712.0
 10
1290.0
 20
-712.0
  0
HATCH
  5
1F8
330
17
100
AcDbEntity
  8
UI-RECORD
100
AcDbHatch
 10
0.0
 20
0.0
 30
0.0
210
0.0
220
0.0
230
1.0
  2
SOLID
 70
1
 71
0
 91
1
 92
1
 93
1
 72
2
 10
1303.0
 20
-701.0
 40
4.96
 50
0
 51
360
 73
1
 97
0
 75
1
 76
1
 98
0
  0
TEXT
  5
1F9
330
17
100
AcDbEntity
  8
UI-TEXT-SEC
100
AcDbText
 10
1326.0
 20
-701.0
 30
0.0
 40
9.0
  1
record (red)
 11
1326.0
 21
-701.0
 31
0.0
100
AcDbText
 73
2
  0
HATCH
  5
1FA
330
17
100
AcDbEntity
  8
UI-RAISED
100
AcDbHatch
 10
0.0
 20
0.0
 30
0.0
210
0.0
220
0.0
230
1.0
  2
SOLID
 70
1
 71
0
 91
1
 92
3
 72
0
 73
1
 93
4
 10
1290.0
 20
-716.0
 10
1316.0
 20
-716.0
 10
1316.0
 20
-738.0
 10
1290.0
 20
-738.0
 97
0
 75
1
 76
1
 98
0
  0
LWPOLYLINE
  5
1FB
330
17
100
AcDbEntity
  8
UI-HAIRLINE
100
AcDbPolyline
 90
4
 70
1
 10
1290.0
 20
-716.0
 10
1316.0
 20
-716.0
 10
1316.0
 20
-738.0
 10
1290.0
 20
-738.0
  0
ARC
  5
1FC
330
17
100
AcDbEntity
  8
UI-TEXT
100
AcDbCircle
 10
1303.0
 20
-727.0
 30
0.0
 40
4.96
100
AcDbArc
 50
130.0
 51
55.0
  0
LWPOLYLINE
  5
1FD
330
17
100
AcDbEntity
  8
UI-TEXT
100
AcDbPolyline
 90
3
 70
1
 10
1302.8449391243012
 20
-721.9370058603266
 10
1308.8449391243012
 20
-719.9370058603266
 10
1306.8449391243012
 20
-725.9370058603266
  0
TEXT
  5
1FE
330
17
100
AcDbEntity
  8
UI-TEXT-SEC
100
AcDbText
 10
1326.0
 20
-727.0
 30
0.0
 40
9.0
  1
loop
 11
1326.0
 21
-727.0
 31
0.0
100
AcDbText
 73
2
  0
LWPOLYLINE
  5
1FF
330
17
100
AcDbEntity
  8
UI-ACCENT
100
AcDbPolyline
 90
3
 70
1
 10
1290.0
 20
-750.0
 10
1298.0
 20
-750.0
 10
1290.0
 20
-760.0
  0
TEXT
  5
200
330
17
100
AcDbEntity
  8
UI-TEXT-SEC
100
AcDbText
 10
1306.0
 20
-755.0
 30
0.0
 40
9.0
  1
marker flag
 11
1306.0
 21
-755.0
 31
0.0
100
AcDbText
 73
2
  0
LINE
  5
201
330
17
100
AcDbEntity
  8
UI-ACCENT
100
AcDbLine
 10
1294.0
 20
-770.0
 30
0.0
 11
1294.0
 21
-786.0
 31
0.0
  0
LWPOLYLINE
  5
202
330
17
100
AcDbEntity
  8
UI-ACCENT
100
AcDbPolyline
 90
3
 70
1
 10
1289.0
 20
-770.0
 10
1299.0
 20
-770.0
 10
1294.0
 20
-777.0
  0
TEXT
  5
203
330
17
100
AcDbEntity
  8
UI-TEXT-SEC
100
AcDbText
 10
1306.0
 20
-778.0
 30
0.0
 40
9.0
  1
playhead
 11
1306.0
 21
-778.0
 31
0.0
100
AcDbText
 73
2
  0
TEXT
  5
204
330
17
100
AcDbEntity
  8
UI-TEXT-SEC
100
AcDbText
 10
40.0
 20
-966.0
 30
0.0
 40
11.0
  1
●  shipped today        ○  envisioned (markers · automation lanes · sends/returns · LUFS · device-chain drawer · Inspect tab · Preferences)
 11
40.0
 21
-966.0
 31
0.0
100
AcDbText
 73
2
  0
ENDSEC
  0
SECTION
  2
OBJECTS
  0
DICTIONARY
  5
A
330
0
100
AcDbDictionary
281
1
  3
ACAD_COLOR
350
B
  3
ACAD_GROUP
350
C
  3
ACAD_LAYOUT
350
D
  3
ACAD_MATERIAL
350
E
  3
ACAD_MLEADERSTYLE
350
F
  3
ACAD_MLINESTYLE
350
10
  3
ACAD_PLOTSETTINGS
350
11
  3
ACAD_PLOTSTYLENAME
350
12
  3
ACAD_SCALELIST
350
14
  3
ACAD_TABLESTYLE
350
15
  3
ACAD_VISUALSTYLE
350
16
  3
EZDXF_META
350
2D
  0
DICTIONARY
  5
B
330
A
100
AcDbDictionary
281
1
  0
DICTIONARY
  5
C
330
A
100
AcDbDictionary
281
1
  0
DICTIONARY
  5
D
330
A
100
AcDbDictionary
281
1
  3
Model
350
1A
  3
Layout1
350
1E
  0
DICTIONARY
  5
E
330
A
100
AcDbDictionary
281
1
  3
ByBlock
350
1F
  3
ByLayer
350
20
  3
Global
350
21
  0
DICTIONARY
  5
F
330
A
100
AcDbDictionary
281
1
  3
Standard
350
2C
  0
DICTIONARY
  5
10
330
A
100
AcDbDictionary
281
1
  3
Standard
350
22
  0
DICTIONARY
  5
11
330
A
100
AcDbDictionary
281
1
  0
ACDBDICTIONARYWDFLT
  5
12
330
A
100
AcDbDictionary
281
1
  3
Normal
350
13
100
AcDbDictionaryWithDefault
340
13
  0
ACDBPLACEHOLDER
  5
13
330
12
  0
DICTIONARY
  5
14
330
A
100
AcDbDictionary
281
1
  0
DICTIONARY
  5
15
330
A
100
AcDbDictionary
281
1
  0
DICTIONARY
  5
16
330
A
100
AcDbDictionary
281
1
  3
2dWireframe
350
5A
  3
Basic
350
5B
  3
Brighten
350
5C
  3
ColorChange
350
5D
  3
Conceptual
350
5E
  3
Dim
350
5F
  3
EdgeColorOff
350
60
  3
Facepattern
350
61
  3
Flat
350
62
  3
FlatWithEdges
350
63
  3
Gouraud
350
64
  3
GouraudWithEdges
350
65
  3
Hidden
350
66
  3
JitterOff
350
67
  3
Linepattern
350
68
  3
Modeling
350
69
  3
OverhangOff
350
6A
  3
Realistic
350
6B
  3
Shaded
350
6C
  3
Shaded with edges
350
6D
  3
Shades of Gray
350
6E
  3
Sketchy
350
6F
  3
Thicken
350
70
  3
Wireframe
350
71
  3
X-Ray
350
72
  0
LAYOUT
  5
1A
330
D
100
AcDbPlotSettings
  1

  4
A3
  6

 40
7.5
 41
20.0
 42
7.5
 43
20.0
 44
420.0
 45
297.0
 46
0.0
 47
0.0
 48
0.0
 49
0.0
140
0.0
141
0.0
142
1.0
143
1.0
 70
1024
 72
1
 73
0
 74
5
  7

 75
16
 76
0
 77
2
 78
300
147
1.0
148
0.0
149
0.0
100
AcDbLayout
  1
Model
 70
1
 71
0
 10
0.0
 20
0.0
 11
420.0
 21
297.0
 12
0.0
 22
0.0
 32
0.0
 14
1e+20
 24
1e+20
 34
1e+20
 15
-1e+20
 25
-1e+20
 35
-1e+20
146
0.0
 13
0.0
 23
0.0
 33
0.0
 16
1.0
 26
0.0
 36
0.0
 17
0.0
 27
1.0
 37
0.0
 76
1
330
17
  0
LAYOUT
  5
1E
330
D
100
AcDbPlotSettings
  1

  4
A3
  6

 40
7.5
 41
20.0
 42
7.5
 43
20.0
 44
420.0
 45
297.0
 46
0.0
 47
0.0
 48
0.0
 49
0.0
140
0.0
141
0.0
142
1.0
143
1.0
 70
0
 72
1
 73
0
 74
5
  7

 75
16
 76
0
 77
2
 78
300
147
1.0
148
0.0
149
0.0
100
AcDbLayout
  1
Layout1
 70
1
 71
1
 10
0.0
 20
0.0
 11
420.0
 21
297.0
 12
0.0
 22
0.0
 32
0.0
 14
1e+20
 24
1e+20
 34
1e+20
 15
-1e+20
 25
-1e+20
 35
-1e+20
146
0.0
 13
0.0
 23
0.0
 33
0.0
 16
1.0
 26
0.0
 36
0.0
 17
0.0
 27
1.0
 37
0.0
 76
1
330
1B
  0
MATERIAL
  5
1F
102
{ACAD_REACTORS
330
E
102
}
330
E
100
AcDbMaterial
  1
ByBlock
  2

 70
0
 40
1.0
 71
1
 41
1.0
 91
-1023410177
 42
1.0
 72
1
  3

 73
1
 74
1
 75
1
 44
0.5
 73
0
 45
1.0
 46
1.0
 77
1
  4

 78
1
 79
1
170
1
 48
1.0
171
1
  6

172
1
173
1
174
1
140
1.0
141
1.0
175
1
  7

176
1
177
1
178
1
143
1.0
179
1
  8

270
1
271
1
272
1
145
1.0
146
1.0
273
1
  9

274
1
275
1
276
1
 42
1.0
 72
1
  3

 73
1
 74
1
 75
1
 94
63
  0
MATERIAL
  5
20
102
{ACAD_REACTORS
330
E
102
}
330
E
100
AcDbMaterial
  1
ByLayer
  2

 70
0
 40
1.0
 71
1
 41
1.0
 91
-1023410177
 42
1.0
 72
1
  3

 73
1
 74
1
 75
1
 44
0.5
 73
0
 45
1.0
 46
1.0
 77
1
  4

 78
1
 79
1
170
1
 48
1.0
171
1
  6

172
1
173
1
174
1
140
1.0
141
1.0
175
1
  7

176
1
177
1
178
1
143
1.0
179
1
  8

270
1
271
1
272
1
145
1.0
146
1.0
273
1
  9

274
1
275
1
276
1
 42
1.0
 72
1
  3

 73
1
 74
1
 75
1
 94
63
  0
MATERIAL
  5
21
102
{ACAD_REACTORS
330
E
102
}
330
E
100
AcDbMaterial
  1
Global
  2

 70
0
 40
1.0
 71
1
 41
1.0
 91
-1023410177
 42
1.0
 72
1
  3

 73
1
 74
1
 75
1
 44
0.5
 73
0
 45
1.0
 46
1.0
 77
1
  4

 78
1
 79
1
170
1
 48
1.0
171
1
  6

172
1
173
1
174
1
140
1.0
141
1.0
175
1
  7

176
1
177
1
178
1
143
1.0
179
1
  8

270
1
271
1
272
1
145
1.0
146
1.0
273
1
  9

274
1
275
1
276
1
 42
1.0
 72
1
  3

 73
1
 74
1
 75
1
 94
63
  0
MLINESTYLE
  5
22
102
{ACAD_REACTORS
330
10
102
}
330
10
100
AcDbMlineStyle
  2
Standard
 70
0
  3

 62
256
 51
90.0
 52
90.0
 71
2
 49
0.5
 62
256
  6
BYLAYER
 49
-0.5
 62
256
  6
BYLAYER
  0
MLEADERSTYLE
  5
2C
102
{ACAD_REACTORS
330
F
102
}
330
F
100
AcDbMLeaderStyle
179
2
170
2
171
1
172
0
 90
2
 40
0.0
 41
0.0
173
1
 91
-1056964608
 92
-2
290
1
 42
2.0
291
1
 43
8.0
  3
Standard
 44
4.0
300

342
29
174
1
175
1
176
0
178
1
 93
-1056964608
 45
4.0
292
0
297
0
 46
4.0
 94
-1056964608
 47
1.0
 49
1.0
140
1.0
294
1
141
0.0
177
0
142
1.0
295
0
296
0
143
3.75
271
0
272
9
273
9
  0
DICTIONARY
  5
2D
330
A
100
AcDbDictionary
280
1
281
1
  3
CREATED_BY_EZDXF
350
2E
  3
WRITTEN_BY_EZDXF
350
207
  0
DICTIONARYVAR
  5
2E
330
2D
100
DictionaryVariables
280
0
  1
1.4.4 @ 2026-06-30T16:59:03.896641+00:00
  0
VISUALSTYLE
  5
5A
102
{ACAD_REACTORS
330
16
102
}
330
16
100
AcDbVisualStyle
  2
2dWireframe
 70
4
 90
0
 40
0.6
 62
7
290
0
291
0
  0
VISUALSTYLE
  5
5B
102
{ACAD_REACTORS
330
16
102
}
330
16
100
AcDbVisualStyle
  2
Basic
 70
7
 90
1
 40
0.6
 62
7
290
0
291
1
  0
VISUALSTYLE
  5
5C
102
{ACAD_REACTORS
330
16
102
}
330
16
100
AcDbVisualStyle
  2
Brighten
 70
12
 90
2
 40
0.6
 62
7
290
0
291
1
  0
VISUALSTYLE
  5
5D
102
{ACAD_REACTORS
330
16
102
}
330
16
100
AcDbVisualStyle
  2
ColorChange
 70
16
 90
2
 40
0.6
 62
8
290
0
291
1
  0
VISUALSTYLE
  5
5E
102
{ACAD_REACTORS
330
16
102
}
330
16
100
AcDbVisualStyle
  2
Conceptual
 70
9
 90
3
 40
0.6
 62
7
290
0
291
0
  0
VISUALSTYLE
  5
5F
102
{ACAD_REACTORS
330
16
102
}
330
16
100
AcDbVisualStyle
  2
Dim
 70
11
 90
2
 40
0.6
 62
7
290
0
291
1
  0
VISUALSTYLE
  5
60
102
{ACAD_REACTORS
330
16
102
}
330
16
100
AcDbVisualStyle
  2
EdgeColorOff
 70
22
 90
2
 40
0.6
 62
7
290
0
291
1
  0
VISUALSTYLE
  5
61
102
{ACAD_REACTORS
330
16
102
}
330
16
100
AcDbVisualStyle
  2
Facepattern
 70
15
 90
2
 40
0.6
 62
7
290
0
291
1
  0
VISUALSTYLE
  5
62
102
{ACAD_REACTORS
330
16
102
}
330
16
100
AcDbVisualStyle
  2
Flat
 70
0
 90
2
 40
0.6
 62
7
290
0
291
1
  0
VISUALSTYLE
  5
63
102
{ACAD_REACTORS
330
16
102
}
330
16
100
AcDbVisualStyle
  2
FlatWithEdges
 70
1
 90
2
 40
0.6
 62
7
290
0
291
1
  0
VISUALSTYLE
  5
64
102
{ACAD_REACTORS
330
16
102
}
330
16
100
AcDbVisualStyle
  2
Gouraud
 70
2
 90
2
 40
0.6
 62
7
290
0
291
1
  0
VISUALSTYLE
  5
65
102
{ACAD_REACTORS
330
16
102
}
330
16
100
AcDbVisualStyle
  2
GouraudWithEdges
 70
3
 90
2
 40
0.6
 62
7
290
0
291
1
  0
VISUALSTYLE
  5
66
102
{ACAD_REACTORS
330
16
102
}
330
16
100
AcDbVisualStyle
  2
Hidden
 70
6
 90
1
 40
0.6
 62
7
290
0
291
0
  0
VISUALSTYLE
  5
67
102
{ACAD_REACTORS
330
16
102
}
330
16
100
AcDbVisualStyle
  2
JitterOff
 70
20
 90
2
 40
0.6
 62
7
290
0
291
1
  0
VISUALSTYLE
  5
68
102
{ACAD_REACTORS
330
16
102
}
330
16
100
AcDbVisualStyle
  2
Linepattern
 70
14
 90
2
 40
0.6
 62
7
290
0
291
1
  0
VISUALSTYLE
  5
69
102
{ACAD_REACTORS
330
16
102
}
330
16
100
AcDbVisualStyle
  2
Modeling
 70
10
 90
2
 40
0.6
 62
7
290
0
291
0
  0
VISUALSTYLE
  5
6A
102
{ACAD_REACTORS
330
16
102
}
330
16
100
AcDbVisualStyle
  2
OverhangOff
 70
21
 90
2
 40
0.6
 62
7
290
0
291
1
  0
VISUALSTYLE
  5
6B
102
{ACAD_REACTORS
330
16
102
}
330
16
100
AcDbVisualStyle
  2
Realistic
 70
8
 90
2
 40
0.6
 62
7
290
0
291
0
  0
VISUALSTYLE
  5
6C
102
{ACAD_REACTORS
330
16
102
}
330
16
100
AcDbVisualStyle
  2
Shaded
 70
27
 90
2
 40
0.6
 62
7
290
0
291
0
  0
VISUALSTYLE
  5
6D
102
{ACAD_REACTORS
330
16
102
}
330
16
100
AcDbVisualStyle
  2
Shaded with edges
 70
26
 90
2
 40
0.6
 62
7
290
0
291
0
  0
VISUALSTYLE
  5
6E
102
{ACAD_REACTORS
330
16
102
}
330
16
100
AcDbVisualStyle
  2
Shades of Gray
 70
23
 90
2
 40
0.6
 62
7
290
0
291
0
  0
VISUALSTYLE
  5
6F
102
{ACAD_REACTORS
330
16
102
}
330
16
100
AcDbVisualStyle
  2
Sketchy
 70
24
 90
1
 40
0.6
 62
7
290
0
291
0
  0
VISUALSTYLE
  5
70
102
{ACAD_REACTORS
330
16
102
}
330
16
100
AcDbVisualStyle
  2
Thicken
 70
13
 90
2
 40
0.6
 62
7
290
0
291
1
  0
VISUALSTYLE
  5
71
102
{ACAD_REACTORS
330
16
102
}
330
16
100
AcDbVisualStyle
  2
Wireframe
 70
5
 90
0
 40
0.6
 62
7
290
0
291
0
  0
VISUALSTYLE
  5
72
102
{ACAD_REACTORS
330
16
102
}
330
16
100
AcDbVisualStyle
  2
X-Ray
 70
25
 90
2
 40
0.5
 62
7
290
0
291
0
  0
DICTIONARYVAR
  5
207
330
2D
100
DictionaryVariables
280
0
  1
1.4.4 @ 2026-06-30T16:59:03.927310+00:00
  0
ENDSEC
  0
EOF
